<svg xmlns="http://www.w3.org/2000/svg" viewBox="0 0 21.36 31.5"><defs><style>.cls-1{fill:#fff;}</style></defs><g id="Layer_2" data-name="Layer 2"><g id="Layer_1-2" data-name="Layer 1"><g id="aDC4S4"><path d="M21.36,10.34a17.57,17.57,0,0,1-1.31,6.23,49.59,49.59,0,0,1-5.68,10.28c-1,1.48-2.14,2.9-3.22,4.34-.31.41-.6.41-.91,0A63.46,63.46,0,0,1,2,18.19a22.74,22.74,0,0,1-1.87-6,10.66,10.66,0,0,1,21-3.44A10.59,10.59,0,0,1,21.36,10.34ZM10.69,4.75a6,6,0,1,0,6,6.05A6,6,0,0,0,10.69,4.75Z"/><path class="cls-1" d="M10.69,4.75a6,6,0,1,1-6,6A6,6,0,0,1,10.69,4.75Z"/></g></g></g></svg>
