<?xml version="1.0" encoding="utf-8"?>
<!-- Generator: Adobe Illustrator 25.0.1, SVG Export Plug-In . SVG Version: 6.00 Build 0)  -->
<svg version="1.1" id="Layer_1" xmlns="http://www.w3.org/2000/svg" xmlns:xlink="http://www.w3.org/1999/xlink" x="0px" y="0px"
	 viewBox="0 0 50 50" style="enable-background:new 0 0 50 50;" xml:space="preserve">
<style type="text/css">
	.st0{fill:#FFFFFF;}
</style>
<g id="aDC4S4_5_">
	<g>
		<path d="M35.67,19.6c-0.04,2.38-0.58,4.33-1.31,6.23c-1.42,3.68-3.44,7.04-5.68,10.28c-1.03,1.48-2.14,2.9-3.22,4.34
			c-0.31,0.41-0.6,0.41-0.91,0.03c-3.21-4.05-6.1-8.31-8.25-13.03c-0.88-1.93-1.55-3.92-1.87-6.02c-0.86-5.62,3.13-11.12,8.72-12.02
			c5.86-0.94,11.17,2.75,12.31,8.58C35.61,18.61,35.64,19.27,35.67,19.6z M25,14.01c-3.32,0-6.02,2.7-6.03,6.02
			c-0.01,3.31,2.73,6.06,6.04,6.06c3.3,0,6.02-2.73,6.03-6.03C31.05,16.73,28.33,14.01,25,14.01z"/>
		<path class="st0" d="M25,14.01c3.33,0,6.05,2.72,6.04,6.04c-0.01,3.3-2.73,6.03-6.03,6.03c-3.32,0-6.06-2.74-6.04-6.06
			C18.98,16.71,21.68,14.02,25,14.01z"/>
	</g>
</g>
</svg>
