<?xml version="1.0" encoding="utf-8"?>
<!-- Generator: Adobe Illustrator 25.0.1, SVG Export Plug-In . SVG Version: 6.00 Build 0)  -->
<svg version="1.1" id="Layer_1" xmlns="http://www.w3.org/2000/svg" xmlns:xlink="http://www.w3.org/1999/xlink" x="0px" y="0px"
	 viewBox="0 0 380.21 48.08" style="enable-background:new 0 0 380.21 48.08;" xml:space="preserve">
<style type="text/css">
	.st0{fill:#D1BBFD;}
</style>
<g>
	<g>
		<path class="st0" d="M45.32,42.45V23.67c0-2.3-0.49-4.03-1.48-5.18c-0.98-1.15-2.51-1.73-4.58-1.73c-2.72,0-4.73,0.78-6.03,2.34
			c-1.3,1.56-1.95,3.97-1.95,7.22v16.12H26.9V23.67c0-2.3-0.49-4.03-1.48-5.18c-0.98-1.15-2.52-1.73-4.61-1.73
			c-2.74,0-4.75,0.82-6.02,2.46c-1.27,1.64-1.91,4.33-1.91,8.08v15.15H8.51V13.58h3.56l0.71,3.95h0.21c0.83-1.41,1.99-2.5,3.49-3.29
			s3.18-1.19,5.05-1.19c4.51,0,7.46,1.63,8.85,4.9h0.21c0.86-1.51,2.11-2.7,3.74-3.58c1.63-0.88,3.49-1.32,5.59-1.32
			c3.27,0,5.71,0.84,7.34,2.52c1.62,1.68,2.44,4.36,2.44,8.05v18.84H45.32z"/>
		<path class="st0" d="M76.46,42.45l-0.87-4.11h-0.21c-1.44,1.81-2.88,3.03-4.31,3.68c-1.43,0.64-3.22,0.96-5.36,0.96
			c-2.86,0-5.11-0.74-6.73-2.21c-1.62-1.48-2.44-3.57-2.44-6.3c0-5.83,4.66-8.89,13.99-9.17l4.9-0.16v-1.79
			c0-2.27-0.49-3.94-1.46-5.02c-0.97-1.08-2.53-1.62-4.68-1.62c-2.41,0-5.13,0.74-8.17,2.21l-1.34-3.35
			c1.42-0.77,2.98-1.38,4.68-1.82s3.39-0.66,5.1-0.66c3.44,0,5.99,0.76,7.65,2.29c1.66,1.53,2.49,3.98,2.49,7.35v19.71H76.46z
			 M66.58,39.37c2.72,0,4.86-0.75,6.42-2.24c1.55-1.49,2.33-3.58,2.33-6.27v-2.61l-4.37,0.18c-3.48,0.12-5.99,0.66-7.52,1.62
			c-1.54,0.96-2.31,2.45-2.31,4.47c0,1.58,0.48,2.78,1.44,3.61S64.86,39.37,66.58,39.37z"/>
		<path class="st0" d="M107.34,34.58c0,2.69-1,4.76-3,6.22s-4.81,2.19-8.43,2.19c-3.83,0-6.81-0.61-8.96-1.82v-4.06
			c1.39,0.7,2.88,1.26,4.47,1.66c1.59,0.4,3.12,0.61,4.6,0.61c2.28,0,4.04-0.36,5.27-1.09c1.23-0.73,1.84-1.84,1.84-3.33
			c0-1.12-0.49-2.09-1.46-2.88c-0.97-0.8-2.88-1.74-5.7-2.83c-2.69-1-4.6-1.87-5.73-2.62c-1.13-0.75-1.98-1.59-2.53-2.54
			c-0.55-0.95-0.83-2.08-0.83-3.4c0-2.35,0.96-4.21,2.87-5.57c1.91-1.36,4.54-2.04,7.88-2.04c3.11,0,6.15,0.63,9.12,1.9l-1.55,3.56
			c-2.9-1.19-5.52-1.79-7.88-1.79c-2.07,0-3.64,0.33-4.69,0.97c-1.05,0.65-1.58,1.55-1.58,2.69c0,0.77,0.2,1.43,0.59,1.98
			s1.03,1.06,1.91,1.55c0.88,0.49,2.56,1.2,5.06,2.13c3.42,1.25,5.74,2.5,6.94,3.77C106.74,31.07,107.34,32.66,107.34,34.58z"/>
		<path class="st0" d="M133.08,34.58c0,2.69-1,4.76-3,6.22s-4.81,2.19-8.43,2.19c-3.83,0-6.81-0.61-8.96-1.82v-4.06
			c1.39,0.7,2.88,1.26,4.47,1.66c1.59,0.4,3.12,0.61,4.6,0.61c2.28,0,4.04-0.36,5.27-1.09c1.23-0.73,1.84-1.84,1.84-3.33
			c0-1.12-0.49-2.09-1.46-2.88c-0.97-0.8-2.88-1.74-5.7-2.83c-2.69-1-4.6-1.87-5.73-2.62c-1.13-0.75-1.98-1.59-2.53-2.54
			c-0.55-0.95-0.83-2.08-0.83-3.4c0-2.35,0.96-4.21,2.87-5.57c1.91-1.36,4.54-2.04,7.88-2.04c3.11,0,6.15,0.63,9.12,1.9l-1.55,3.56
			c-2.9-1.19-5.52-1.79-7.88-1.79c-2.07,0-3.64,0.33-4.69,0.97c-1.05,0.65-1.58,1.55-1.58,2.69c0,0.77,0.2,1.43,0.59,1.98
			s1.03,1.06,1.91,1.55c0.88,0.49,2.56,1.2,5.06,2.13c3.42,1.25,5.74,2.5,6.94,3.77C132.48,31.07,133.08,32.66,133.08,34.58z"/>
		<path class="st0" d="M157.95,42.45l-0.87-4.11h-0.21c-1.44,1.81-2.88,3.03-4.31,3.68c-1.43,0.64-3.22,0.96-5.36,0.96
			c-2.86,0-5.11-0.74-6.73-2.21c-1.62-1.48-2.44-3.57-2.44-6.3c0-5.83,4.66-8.89,13.99-9.17l4.9-0.16v-1.79
			c0-2.27-0.49-3.94-1.46-5.02c-0.97-1.08-2.53-1.62-4.68-1.62c-2.41,0-5.13,0.74-8.17,2.21l-1.34-3.35
			c1.42-0.77,2.98-1.38,4.68-1.82s3.39-0.66,5.1-0.66c3.44,0,5.99,0.76,7.65,2.29c1.66,1.53,2.49,3.98,2.49,7.35v19.71H157.95z
			 M148.07,39.37c2.72,0,4.86-0.75,6.42-2.24c1.55-1.49,2.33-3.58,2.33-6.27v-2.61l-4.37,0.18c-3.48,0.12-5.99,0.66-7.52,1.62
			c-1.54,0.96-2.31,2.45-2.31,4.47c0,1.58,0.48,2.78,1.44,3.61S146.35,39.37,148.07,39.37z"/>
		<path class="st0" d="M181.74,42.98c-4.18,0-7.42-1.29-9.71-3.86c-2.29-2.57-3.44-6.21-3.44-10.92c0-4.83,1.16-8.56,3.49-11.2
			c2.33-2.63,5.64-3.95,9.95-3.95c1.39,0,2.78,0.15,4.16,0.45c1.39,0.3,2.48,0.65,3.27,1.05l-1.34,3.72
			c-0.97-0.39-2.02-0.71-3.16-0.96c-1.14-0.25-2.15-0.38-3.03-0.38c-5.87,0-8.8,3.74-8.8,11.22c0,3.55,0.72,6.27,2.15,8.17
			c1.43,1.9,3.55,2.85,6.36,2.85c2.41,0,4.88-0.52,7.4-1.55v3.87C187.11,42.48,184.68,42.98,181.74,42.98z"/>
		<path class="st0" d="M215.65,42.45V23.77c0-2.35-0.54-4.11-1.61-5.27s-2.75-1.74-5.03-1.74c-3.04,0-5.26,0.83-6.65,2.48
			c-1.4,1.65-2.09,4.36-2.09,8.11v15.1h-4.37v-41h4.37v12.41c0,1.49-0.07,2.73-0.21,3.71h0.26c0.86-1.39,2.08-2.48,3.67-3.28
			s3.4-1.2,5.44-1.2c3.53,0,6.18,0.84,7.94,2.52c1.76,1.68,2.65,4.34,2.65,8v18.84H215.65z"/>
		<path class="st0" d="M233.12,13.58v18.73c0,2.35,0.54,4.11,1.61,5.27c1.07,1.16,2.75,1.74,5.03,1.74c3.02,0,5.23-0.83,6.63-2.48
			c1.4-1.65,2.09-4.35,2.09-8.09V13.58h4.37v28.88h-3.61l-0.63-3.87h-0.24c-0.9,1.42-2.14,2.51-3.73,3.27s-3.4,1.13-5.44,1.13
			c-3.51,0-6.14-0.83-7.89-2.5c-1.75-1.67-2.62-4.34-2.62-8.01V13.58H233.12z"/>
		<path class="st0" d="M280.75,34.58c0,2.69-1,4.76-3,6.22c-2,1.46-4.81,2.19-8.43,2.19c-3.83,0-6.82-0.61-8.96-1.82v-4.06
			c1.39,0.7,2.88,1.26,4.47,1.66c1.59,0.4,3.12,0.61,4.6,0.61c2.28,0,4.04-0.36,5.27-1.09s1.84-1.84,1.84-3.33
			c0-1.12-0.49-2.09-1.46-2.88c-0.97-0.8-2.88-1.74-5.7-2.83c-2.69-1-4.6-1.87-5.73-2.62c-1.13-0.75-1.98-1.59-2.53-2.54
			c-0.55-0.95-0.83-2.08-0.83-3.4c0-2.35,0.96-4.21,2.87-5.57c1.92-1.36,4.54-2.04,7.88-2.04c3.11,0,6.15,0.63,9.12,1.9l-1.55,3.56
			c-2.9-1.19-5.52-1.79-7.88-1.79c-2.07,0-3.64,0.33-4.69,0.97c-1.05,0.65-1.58,1.55-1.58,2.69c0,0.77,0.2,1.43,0.59,1.98
			c0.4,0.54,1.03,1.06,1.91,1.55c0.88,0.49,2.56,1.2,5.06,2.13c3.43,1.25,5.74,2.5,6.94,3.77S280.75,32.66,280.75,34.58z"/>
		<path class="st0" d="M300.07,42.98c-4.27,0-7.64-1.3-10.1-3.9c-2.47-2.6-3.7-6.21-3.7-10.83c0-4.65,1.15-8.35,3.44-11.09
			c2.29-2.74,5.37-4.11,9.24-4.11c3.62,0,6.48,1.19,8.59,3.57c2.11,2.38,3.16,5.52,3.16,9.42v2.77h-19.89
			c0.09,3.39,0.94,5.96,2.57,7.72c1.63,1.76,3.91,2.63,6.86,2.63c3.11,0,6.18-0.65,9.22-1.95v3.9c-1.55,0.67-3.01,1.15-4.39,1.44
			C303.68,42.84,302.02,42.98,300.07,42.98z M298.88,16.71c-2.32,0-4.17,0.76-5.55,2.27c-1.38,1.51-2.19,3.6-2.44,6.27h15.1
			c0-2.76-0.62-4.87-1.84-6.34C302.92,17.45,301.16,16.71,298.88,16.71z"/>
		<path class="st0" d="M327.47,39.37c0.77,0,1.52-0.06,2.24-0.17c0.72-0.11,1.29-0.23,1.71-0.36v3.35
			c-0.47,0.23-1.17,0.42-2.09,0.57c-0.92,0.15-1.75,0.22-2.49,0.22c-5.58,0-8.38-2.94-8.38-8.83V16.98h-4.14v-2.11l4.14-1.82
			l1.84-6.17h2.53v6.69h8.38v3.4h-8.38v16.99c0,1.74,0.41,3.07,1.24,4C324.89,38.91,326.03,39.37,327.47,39.37z"/>
		<path class="st0" d="M346.51,39.37c0.77,0,1.52-0.06,2.24-0.17c0.72-0.11,1.29-0.23,1.71-0.36v3.35
			c-0.47,0.23-1.17,0.42-2.09,0.57c-0.92,0.15-1.75,0.22-2.49,0.22c-5.58,0-8.38-2.94-8.38-8.83V16.98h-4.14v-2.11l4.14-1.82
			l1.84-6.17h2.53v6.69h8.38v3.4h-8.38v16.99c0,1.74,0.41,3.07,1.24,4C343.94,38.91,345.07,39.37,346.51,39.37z"/>
		<path class="st0" d="M374.86,34.58c0,2.69-1,4.76-3,6.22c-2,1.46-4.81,2.19-8.43,2.19c-3.83,0-6.82-0.61-8.96-1.82v-4.06
			c1.39,0.7,2.88,1.26,4.47,1.66c1.59,0.4,3.12,0.61,4.6,0.61c2.28,0,4.04-0.36,5.27-1.09s1.84-1.84,1.84-3.33
			c0-1.12-0.49-2.09-1.46-2.88c-0.97-0.8-2.88-1.74-5.7-2.83c-2.69-1-4.6-1.87-5.73-2.62c-1.13-0.75-1.98-1.59-2.53-2.54
			c-0.55-0.95-0.83-2.08-0.83-3.4c0-2.35,0.96-4.21,2.87-5.57c1.92-1.36,4.54-2.04,7.88-2.04c3.11,0,6.15,0.63,9.12,1.9l-1.55,3.56
			c-2.9-1.19-5.52-1.79-7.88-1.79c-2.07,0-3.64,0.33-4.69,0.97c-1.05,0.65-1.58,1.55-1.58,2.69c0,0.77,0.2,1.43,0.59,1.98
			c0.4,0.54,1.03,1.06,1.91,1.55c0.88,0.49,2.56,1.2,5.06,2.13c3.43,1.25,5.74,2.5,6.94,3.77S374.86,32.66,374.86,34.58z"/>
	</g>
</g>
</svg>
