<?xml version="1.0" encoding="utf-8"?>
<!-- Generator: Adobe Illustrator 25.0.1, SVG Export Plug-In . SVG Version: 6.00 Build 0)  -->
<svg version="1.1" id="Layer_1" xmlns="http://www.w3.org/2000/svg" xmlns:xlink="http://www.w3.org/1999/xlink" x="0px" y="0px"
	 viewBox="0 0 358.32 106.52" style="enable-background:new 0 0 358.32 106.52;" xml:space="preserve">
<style type="text/css">
	.st0{fill:#D1BBFD;}
</style>
<g>
	<path d="M301.91,31.72c7.53-4.2,10.39-3.85,17.88,2.09c2.06-2.21,4.45-3.94,7.52-4.53c8.1-1.58,15.63,4.06,15.89,12.28
		c0.25,7.75,0.09,15.52,0.06,23.28c-0.01,1.91-1.18,3.08-2.82,3.07c-1.66-0.01-2.71-1.16-2.71-3.12
		c-0.02-7.32,0.01-14.65-0.02-21.97c-0.02-4.02-2.18-7.01-5.61-7.96c-4.75-1.31-9.39,2.05-9.48,7.08
		c-0.12,7.26-0.04,14.52-0.06,21.78c0,0.68,0.01,1.39-0.15,2.05c-0.36,1.47-1.37,2.25-2.89,2.12c-1.5-0.13-2.44-1.02-2.48-2.56
		c-0.07-2.75-0.04-5.51-0.05-8.26c-0.01-4.69,0.04-9.39-0.02-14.08c-0.05-4.17-2.23-7.23-5.64-8.15c-4.66-1.25-9.18,1.86-9.4,6.74
		c-0.21,4.62-0.08,9.26-0.09,13.89c-0.01,2.82,0.01,5.63-0.01,8.45c-0.01,2.75-0.94,4.03-2.86,4c-1.86-0.03-2.74-1.24-2.75-3.9
		c-0.01-10.26,0-20.53-0.01-30.79c0-1.62,0.04-3.28,1.94-3.83C300.04,28.85,301.3,29.77,301.91,31.72z"/>
	<path d="M58.25,8.1c-0.8,0.25-1.58,0.54-2.39,0.74C37.23,13.55,21.5,31.56,19.96,50.7c-1.14,14.24,4.11,26.28,14.55,35.92
		c8.72,8.05,18.16,12.05,30.77,13.49c-4.4,1.46-8.69,1.9-12.99,1.82c-10.48-0.19-19.83-3.6-28.05-10.14
		c-2.69-2.14-3.76-5.27-5.03-8.21c-9.96-23.1-3.79-49.54,15.33-65.8c5.5-4.67,11.78-8.03,18.74-9.95c1.54-0.43,3.25-0.23,4.88-0.33
		C58.19,7.7,58.22,7.9,58.25,8.1z"/>
	<path d="M169.79,51.37c1.4,9.5,13.08,14.08,21.05,8.5c0.61-0.43,1.17-0.94,1.76-1.4c1.32-1.01,2.9-1,3.91,0.02
		c1.06,1.06,1.04,2.78-0.11,4.05c-4.21,4.64-9.68,5.89-15.56,5.14c-10.83-1.39-17.54-9.59-17.02-20.35
		c0.46-9.56,8.69-17.41,18.87-17.97c9.9-0.54,19.83,9.08,19.59,18.99c-0.05,1.98-1.2,3.01-3.48,3.02
		c-8.88,0.01-17.77,0.01-26.65,0.01C171.42,51.37,170.67,51.37,169.79,51.37z M196.02,45.7c-0.17-5.41-6.74-10.72-13.07-10.69
		c-6.4,0.03-12.87,5.38-12.89,10.69C178.71,45.7,187.36,45.7,196.02,45.7z"/>
	<path d="M128.8,61.56c-1.02,0.82-1.68,1.34-2.35,1.87c-6.71,5.33-14.51,5.89-21.63,1.55c-6.89-4.2-10.27-12.26-8.56-20.42
		c1.64-7.85,7.94-13.77,15.9-14.93c11.45-1.67,21.78,6.99,22.16,18.73c0.18,5.44,0.06,10.88,0.03,16.33
		c-0.01,2.11-1.05,3.26-2.8,3.26c-1.79,0.01-2.71-1.07-2.75-3.25C128.79,63.79,128.8,62.88,128.8,61.56z M115.08,62.36
		c7.44-0.02,13.69-6.36,13.69-13.89c0-7.35-6.38-13.55-13.84-13.47c-7.48,0.09-13.57,6.27-13.54,13.76
		C101.41,56.21,107.63,62.38,115.08,62.36z"/>
	<path d="M72.16,69.52c-13.29-0.01-24.39-10.37-25.14-23.49c-0.77-13.47,8.88-25.28,22.1-26.79c8.05-0.92,15.06,1.57,20.9,7.23
		c1.07,1.03,1.78,2.32,1.09,3.68c-0.37,0.73-1.51,1.42-2.33,1.47c-0.86,0.04-1.87-0.58-2.63-1.15c-3.22-2.41-6.5-4.66-10.55-5.48
		c-10.39-2.11-21.09,5.31-22.72,15.77c-1.38,8.87,2.55,17,10.16,20.97c7.73,4.03,16.67,2.66,23.2-3.56
		c1.65-1.58,3.36-1.88,4.45-0.79c1.27,1.27,1.02,3.12-0.64,4.8C85.27,67.01,79.15,69.52,72.16,69.52z"/>
	<path d="M86.12,88.12c-4.62,4.14-9.59,7.43-15.36,9.07c-2.14,0.61-4.71,0.03-7.02-0.37c-16.2-2.84-28.84-10.95-36.15-25.96
		c-8.76-17.98-3.4-39.55,13.81-52.24c0.08-0.06,0.22-0.04,0.67-0.11c-1.49,1.87-2.8,3.56-4.15,5.22c-19.56,24.13-5.82,61,24.76,66.5
		c7.44,1.34,14.68,0.78,21.78-1.81c0.41-0.15,0.82-0.29,1.24-0.43C85.74,87.99,85.81,88.03,86.12,88.12z"/>
	<path d="M271.57,67.87c-10.77-0.05-19.12-8.46-19.1-19.25c0.03-10.67,8.94-19.41,19.66-19.29c10.06,0.11,18.88,9.21,18.82,19.42
		C290.9,59.28,282.14,67.92,271.57,67.87z M285.33,49.16c0.36-7.49-5.51-13.75-13.26-14.14c-7.22-0.36-13.73,5.67-14.04,13
		c-0.31,7.52,5.49,13.96,12.9,14.33C278.62,62.73,284.96,56.92,285.33,49.16z"/>
	<path d="M17.66,87.78C5.34,75.74-0.15,55.52,7.02,37.02c6.77-17.46,23.35-29.28,41.4-29.84c-16.55,6.21-27.8,17.21-33.79,33.25
		C8.68,56.39,9.9,72.08,17.66,87.78z"/>
	<path d="M233.88,68.02c-10.58-0.13-18.78-7.94-19.28-18.44c-0.47-10.05,7.23-18.82,17.33-19.97c4.96-0.56,9.27,0.82,13.17,3.74
		c0.79,0.59,1.47,1.36,2.11,2.12c0.85,1.01,1.11,2.15,0.13,3.22c-1.03,1.12-2.28,1.22-3.56,0.41c-1.21-0.77-2.33-1.7-3.6-2.36
		c-6.17-3.23-13.6-1.43-17.51,4.18c-3.92,5.62-3.16,13.09,1.8,17.8c4.98,4.72,12.6,4.98,18.02,0.62c0.39-0.31,0.74-0.68,1.15-0.96
		c1.23-0.82,2.5-0.84,3.62,0.16c1.18,1.06,1.12,2.29,0.23,3.52c-2.31,3.19-5.7,4.58-9.35,5.44
		C236.76,67.82,235.31,67.85,233.88,68.02z"/>
	<path d="M145.67,34.62c1.51-1.06,2.69-1.96,3.95-2.74c2.77-1.72,5.78-2.64,9.06-2.62c2.08,0.01,3.37,1.02,3.4,2.67
		c0.03,1.62-1.22,2.8-3.29,2.87c-5.27,0.18-9.05,2.79-11.39,7.31c-0.97,1.87-1.57,4.12-1.65,6.23c-0.23,5.5-0.08,11.01-0.08,16.52
		c0,1.49-0.66,2.77-2.1,2.88c-0.98,0.08-2.12-0.64-3.02-1.24c-0.37-0.25-0.41-1.14-0.41-1.74c-0.02-10.83-0.03-21.66-0.01-32.48
		c0-1.95,1.08-3.04,2.81-3.01c1.63,0.03,2.64,1.11,2.73,2.93C145.7,32.88,145.67,33.57,145.67,34.62z"/>
	<path d="M93.43,77.05c-2.64,6.11-8.07,7.98-13.88,9.18c-16.67,3.45-33.23-3.77-42.04-18.36c-2.84-4.71-4.5-9.85-4.78-15.42
		C36.42,65.47,44.48,74.69,57,79.66C69.47,84.62,81.7,83.47,93.43,77.05z"/>
	<path d="M208.08,60.85c2.05,0.03,3.48,1.55,3.43,3.64c-0.05,1.93-1.56,3.41-3.48,3.42c-1.96,0.01-3.6-1.63-3.59-3.57
		C204.44,62.38,206.08,60.82,208.08,60.85z"/>
	<path d="M350.04,32.98c-0.02,1.68-1.41,3.01-3.16,3.02c-1.87,0.01-3.2-1.32-3.14-3.17c0.05-1.72,1.41-2.97,3.2-2.94
		C348.67,29.93,350.06,31.31,350.04,32.98z M344.36,32.9c-0.02,1.45,1.18,2.71,2.56,2.69c1.27-0.02,2.46-1.27,2.48-2.6
		c0.02-1.42-1.21-2.68-2.59-2.66C345.46,30.36,344.38,31.5,344.36,32.9z"/>
	<path d="M347.88,34.39c-0.35-0.37-0.69-0.75-1.18-1.27c-0.29,0.52-0.49,0.89-0.9,1.64c0-1.3,0-2.17,0-3.04
		C348.87,30.58,347.57,33.17,347.88,34.39z"/>
</g>
</svg>
