<?xml version="1.0" encoding="utf-8"?>
<!-- Generator: Adobe Illustrator 25.0.1, SVG Export Plug-In . SVG Version: 6.00 Build 0)  -->
<svg version="1.1" id="Layer_1" xmlns="http://www.w3.org/2000/svg" xmlns:xlink="http://www.w3.org/1999/xlink" x="0px" y="0px"
	 viewBox="0 0 115.67 60" style="enable-background:new 0 0 115.67 60;" xml:space="preserve">
<g>
	<polygon points="9.54,27.48 14.84,21.92 15.1,21.57 14.66,21.57 9.89,21.57 9.8,21.57 9.71,21.66 4.68,27.66 4.68,21.83 
		4.68,21.57 4.5,21.57 0.18,21.57 0,21.57 0,21.83 0,37.64 0,37.81 0.18,37.81 4.5,37.81 4.68,37.81 4.68,37.64 4.68,32.69 
		6.27,30.93 10.33,37.73 10.42,37.81 10.51,37.81 15.63,37.81 15.98,37.81 15.81,37.55 	"/>
	<polygon points="31.88,21.57 31.7,21.57 31.7,21.83 31.7,25.28 31.7,25.45 31.88,25.45 36.38,25.45 36.38,37.64 36.38,37.81 
		36.56,37.81 40.88,37.81 41.06,37.81 41.06,37.64 41.06,25.45 45.47,25.45 45.65,25.45 45.65,25.28 45.65,21.83 45.65,21.57 
		45.47,21.57 	"/>
	<path d="M27.81,21.74v-0.09h-4.94v0.09l-5.48,15.89l-0.09,0.26h4.5v-0.18l0.62-2.12h5.65l0.62,2.12v0.18h4.59l-0.09-0.26
		L27.81,21.74z M23.31,32.69l2.03-7.15l2.03,7.15H23.31z"/>
	<path d="M57.92,21.57h-0.18v0.18v9.98c0,1.06-0.18,1.77-0.62,2.21c-0.44,0.53-1.15,0.71-2.12,0.71c-0.97,0-1.77-0.26-2.21-0.71
		c-0.44-0.44-0.62-1.24-0.62-2.21v-9.89v-0.18h-0.18h-4.33h-0.18v0.18v10.33c0,2.21,0.71,3.8,2.21,4.86
		c1.24,0.88,3.09,1.41,5.3,1.41s4.06-0.44,5.3-1.41c1.5-1.06,2.21-2.65,2.21-4.86V21.83v-0.18h-0.18h-4.42L57.92,21.57L57.92,21.57z
		"/>
	<g>
		<g>
			<path d="M97.48,27.04c-0.18-0.09-0.35-0.09-0.44-0.09c-0.88,0-1.68,0.71-1.68,1.68c0,0.8,0.53,1.41,1.24,1.59
				c0.18,0,0.26,0.09,0.44,0.09c0.88,0,1.68-0.71,1.68-1.68C98.72,27.92,98.19,27.22,97.48,27.04z"/>
			<path d="M104.37,17.33c-2.03,0-3.89,0.53-5.47,1.41c-3.44,1.94-5.83,5.65-5.83,9.89c0,2.38,0.79,4.68,2.03,6.53
				c2.03,2.91,5.39,4.77,9.27,4.77c6.27,0,11.3-5.03,11.3-11.3C115.67,22.45,110.64,17.33,104.37,17.33z M100.57,32.08h-1.85v-0.71
				c0,0-0.62,0.79-1.85,0.79c-0.26,0-0.53,0-0.79-0.09c-1.32-0.35-2.56-1.68-2.56-3.36c0-1.94,1.59-3.53,3.53-3.53
				c0.35,0,0.71,0.09,0.97,0.18c1.41,0.44,2.47,1.77,2.47,3.36v3.36L100.57,32.08L100.57,32.08z M104.46,32.16
				c-1.94,0-3.53-1.59-3.53-3.53v-6h1.85v3.27c0,0,0.71-0.71,1.77-0.71c1.85,0,3.44,1.59,3.44,3.53
				C107.99,30.57,106.4,32.16,104.46,32.16z M111.88,32.16c-1.94,0-3.53-1.59-3.53-3.53s1.59-3.53,3.53-3.53
				c1.68,0,3.09,1.15,3.44,2.74h-1.94c-0.26-0.53-0.88-0.88-1.5-0.88c-0.88,0-1.68,0.71-1.68,1.68c0,0.88,0.71,1.68,1.68,1.68
				c0.62,0,1.15-0.35,1.5-0.88h1.94C114.88,31.02,113.46,32.16,111.88,32.16z"/>
			<path d="M104.46,26.95c-0.88,0-1.68,0.71-1.68,1.68c0,0.88,0.71,1.68,1.68,1.68c0.88,0,1.68-0.71,1.68-1.68
				C106.14,27.75,105.43,26.95,104.46,26.95z"/>
		</g>
		<path d="M97.83,18.57L72.93,13L62.69,40.55L91.65,47l3.18-10.95c-1.59-2.03-2.56-4.59-2.56-7.42
			C92.36,24.39,94.57,20.68,97.83,18.57z M92.63,33.67l-4.86,5.47H69.58l0.09-0.35c0.79-4.94,4.68-7.24,8.12-9.36
			c0.26-0.18,0.62-0.35,0.97-0.53c1.85-1.06,4.15-2.3,3.89-4.24c0-0.26-0.26-1.33-1.77-1.33c-0.62,0-1.24,0.18-1.68,0.62
			c-0.79,0.71-0.97,1.59-1.15,2.65c0,0.18-0.09,0.35-0.09,0.53l-0.09,0.26h-6v-0.26c0.26-2.38,1.24-4.5,2.65-6
			c1.5-1.59,3.53-2.56,6-2.83c0.44,0,0.97-0.09,1.41-0.09c3.44,0,5.21,1.15,6.09,2.12c0.97,1.06,1.41,2.47,1.24,4.24
			c-0.35,4.06-3.53,5.74-6.53,7.42c-1.15,0.62-2.12,1.15-3.09,1.77c1.15,0,2.74,0,4.5,0c3.89,0,7.77,0,7.77,0h0.71L92.63,33.67
			L92.63,33.67L92.63,33.67z"/>
	</g>
</g>
</svg>
