<?xml version="1.0" encoding="utf-8"?>
<!-- Generator: Adobe Illustrator 25.0.1, SVG Export Plug-In . SVG Version: 6.00 Build 0)  -->
<svg version="1.1" id="Layer_1" xmlns="http://www.w3.org/2000/svg" xmlns:xlink="http://www.w3.org/1999/xlink" x="0px" y="0px"
	 viewBox="0 0 315.89 104.28" style="enable-background:new 0 0 315.89 104.28;" xml:space="preserve">
<style type="text/css">
	.st0{fill-rule:evenodd;clip-rule:evenodd;}
</style>
<g>
	<rect x="185.45" y="8" class="st0" width="14.36" height="79.15"/>
	<path class="st0" d="M243.59,86.15c-2.83,0.91-7.84,1.77-11.56,1.77c-12.45,0-17.69-5.67-17.69-17.15V39.5h-9.78V27.7h9.78V8h14.36
		v19.7h14.48v11.8h-14.48V67.9c0,4.99,1.73,7.31,6.3,7.31c2.82,0,6.33-0.71,8.58-1.6V86.15z"/>
	<polygon class="st0" points="24.02,39.61 53.21,39.61 53.21,8 68.84,8 68.84,87.15 53.21,87.15 53.21,54.17 24.02,54.17 
		24.02,87.15 8.39,87.15 8.39,8 24.02,8 	"/>
	<path class="st0" d="M126.34,55.62c0-15.47-6.78-29.36-25.41-29.36c-17.56,0-26.79,13.47-26.79,31.17
		c0,18.9,10.32,31.16,28.95,31.16c7.53,0,16.13-1.36,21.19-3.97V71.75c-4.97,2.63-12.19,4.59-18.84,4.59
		c-9.42,0-15.3-4.43-16.49-14.58h37.18C126.29,59.72,126.34,57.58,126.34,55.62 M88.84,51.62c1.01-9.84,5.39-13.73,12.31-13.73
		c6.58,0,10.97,5.61,10.93,13.73H88.84z"/>
	<path class="st0" d="M154.76,26.26c-7.91,0-14.53,1.31-19.69,3.6v12.91c5.19-2.62,11.67-4.03,17.87-4.03
		c9.47,0,11.5,4.88,11.54,12.79c-3.41-0.96-7.6-1.54-11.73-1.54c-13.14,0-22.89,7.07-22.89,19.76c0,11.52,7.52,18.84,19.25,18.84
		c6.79,0,11.97-2.22,15.84-6.82v5.37h13.96V48.99C178.89,35.27,171.53,26.26,154.76,26.26 M152.56,77.68c-5.47,0-8.8-2.81-8.8-8.45
		c0-5.42,3.19-9.3,11.39-9.3c3.22,0,6.52,0.52,9.31,1.3v3.01C164.47,72.62,159.05,77.68,152.56,77.68"/>
	<path class="st0" d="M279.73,26.26c-6.66,0-12.4,2.78-15.94,6.91V8h-14.43v79.15h14.43V54.32c0-9.64,3.73-15.36,11.41-15.36
		c6.22,0,9.38,4.21,9.38,12.4v35.79H299V48.57C299,36.12,294.17,26.26,279.73,26.26"/>
	<path d="M295.06,12.16c0,0.55-0.31,0.9-0.93,0.9h-1.69v-1.81h1.7C294.74,11.26,295.06,11.61,295.06,12.16 M294.59,13.71
		c0.74-0.14,1.31-0.81,1.31-1.58c0-0.95-0.59-1.61-1.77-1.61h-2.5v5.5h0.81V13.8h1.33l1.34,2.22h0.87L294.59,13.71z M298.38,13.34
		c0,2.65-1.88,4.77-4.69,4.77c-2.81,0-4.73-2.14-4.73-4.78c0-2.63,1.85-4.75,4.67-4.75C296.45,8.57,298.38,10.71,298.38,13.34
		 M299,13.34c0-2.97-2.23-5.34-5.37-5.34c-3.12,0-5.31,2.36-5.31,5.32c0,2.97,2.25,5.35,5.37,5.35C296.81,18.68,299,16.3,299,13.34"
		/>
</g>
</svg>
