<?xml version="1.0" encoding="utf-8"?>
<!-- Generator: Adobe Illustrator 25.0.1, SVG Export Plug-In . SVG Version: 6.00 Build 0)  -->
<svg version="1.1" id="Layer_1" xmlns="http://www.w3.org/2000/svg" xmlns:xlink="http://www.w3.org/1999/xlink" x="0px" y="0px"
	 viewBox="0 0 113.94 42.28" style="enable-background:new 0 0 113.94 42.28;" xml:space="preserve">
<style type="text/css">
	.st0{fill:#FFFFFF;}
	.st1{fill:#FF322E;}
	.st2{fill:#F92585;}
	.st3{fill:#404040;}
	.st4{fill:#049BFE;}
</style>
<g id="fhTexV.tif">
	<g>
		<path class="st3" d="M42.64,28.19c0,4.06-0.04,7.71,0.02,11.37c0.02,1.29-0.4,1.76-1.7,1.71c-2.09-0.08-4.19-0.06-6.29,0
			c-0.94,0.03-1.32-0.17-1.32-1.22c0.04-11.66,0.03-23.32,0-34.98c0-0.93,0.28-1.18,1.18-1.15c1.86,0.06,3.74,0.14,5.58-0.02
			c1.44-0.13,1.98,0.38,2,1.73c0.01,0.5,0.14,1,0.25,1.7c1.59-1.76,3.24-3.27,5.48-3.69c6.02-1.15,11.5,0.58,14.16,8.35
			c1.41,4.11,1.21,8.34-0.5,12.41c-2.37,5.65-8.31,8.66-13.91,7.09C45.72,30.96,44.27,29.74,42.64,28.19z M42.58,17.57
			c-0.04,1.66,0.28,3.21,1.18,4.64c0.84,1.33,2.22,2.46,3.51,2.49c2.04,0.04,4.1-0.79,5.13-2.92c1.4-2.9,1.44-5.86-0.09-8.68
			c-1.9-3.49-6.66-3.45-8.69-0.03C42.79,14.46,42.51,15.98,42.58,17.57z"/>
		<path class="st3" d="M76.89,28.25c0,3.93-0.05,7.57,0.03,11.2c0.03,1.36-0.36,1.88-1.77,1.82c-1.97-0.1-3.96-0.11-5.93,0.01
			c-1.32,0.08-1.66-0.32-1.65-1.63c0.06-8.82,0.03-17.63,0.03-26.45c0-2.55,0.04-5.11-0.02-7.66c-0.02-0.99,0.27-1.31,1.27-1.27
			c1.8,0.07,3.62,0.16,5.41-0.02c1.64-0.17,2.14,0.55,2.19,1.96c0.01,0.29,0.05,0.58,0.08,0.88c0.13,0,0.27,0.04,0.31-0.01
			C82.5,0.4,93.11,2.84,96.01,11.2c1.56,4.5,1.55,9.01-0.34,13.41c-2.96,6.89-11.38,9.46-16.93,5.24
			C78.19,29.43,77.69,28.94,76.89,28.25z M76.81,17.56c-0.07,1.15,0.1,2.29,0.49,3.39c0.71,2,2.32,3.51,4.16,3.72
			c1.91,0.21,4-0.69,5.04-2.72c1.53-2.99,1.59-6.06-0.07-8.97c-1.87-3.3-6.46-3.29-8.51-0.08C77.02,14.31,76.72,15.88,76.81,17.56z"
			/>
		<path class="st3" d="M18.49,27.77c-2.93,3.74-6.53,4.8-10.74,3.71c-6.1-1.57-8.21-9.31-3.71-13.72c2.1-2.05,4.65-2.94,7.74-3.22
			c2.23-0.2,4.44-0.13,6.66-0.18c-0.36-2.62-2.34-4.09-5.43-4.04c-2.38,0.04-4.55,0.89-6.6,2.01c-0.73,0.4-1.08,0.36-1.44-0.42
			C4.35,10.61,3.7,9.31,2.94,8.08C2.36,7.14,2.44,6.62,3.47,6.09c2.77-1.42,5.65-2.52,8.76-2.72c2.77-0.18,5.56-0.16,8.25,0.89
			c4.68,1.82,6.91,5.35,7.05,10.19c0.14,5.1,0.02,10.21,0.06,15.32c0.01,1.07-0.41,1.44-1.45,1.41c-1.63-0.05-3.26-0.09-4.89,0.01
			c-1.58,0.09-2.63-0.23-2.47-2.11C18.79,28.74,18.63,28.4,18.49,27.77z M16.25,19.34c-1.45-0.08-2.58,0.11-3.68,0.54
			c-0.99,0.38-1.67,1.02-1.76,2.14c-0.1,1.15,0.36,2.01,1.31,2.65c1.73,1.16,4.55,0.39,5.82-1.62c0.61-0.96,1.05-2.14,0.6-3.11
			C18.12,19.05,16.86,19.43,16.25,19.34z"/>
	</g>
</g>
<circle class="st4" cx="106.52" cy="25.55" r="6.19"/>
</svg>
