<?xml version="1.0" encoding="utf-8"?>
<!-- Generator: Adobe Illustrator 25.0.1, SVG Export Plug-In . SVG Version: 6.00 Build 0)  -->
<svg version="1.1" id="Layer_1" xmlns="http://www.w3.org/2000/svg" xmlns:xlink="http://www.w3.org/1999/xlink" x="0px" y="0px"
	 viewBox="0 0 150.61 48.88" style="enable-background:new 0 0 150.61 48.88;" xml:space="preserve">
<style type="text/css">
	.st0{fill:#FFFFFF;}
	.st1{fill:#FF322E;}
	.st2{fill:#F92585;}
	.st3{fill:#404040;}
	.st4{fill:#049BFE;}
</style>
<g>
	<path d="M81.41,46.89c0.01-5.6,0.01-11.21,0.02-16.81c0-0.23,0-0.47,0-0.74c0.19-0.02,0.34-0.05,0.49-0.05
		c2.21,0,4.41-0.02,6.62,0.01c4.77,0.06,8.07,3.3,8.26,8.07c0.06,1.34-0.03,2.67-0.45,3.96c-1.05,3.15-3.27,4.9-6.5,5.44
		c-0.17,0.03-0.34,0.08-0.5,0.12C86.7,46.89,84.06,46.89,81.41,46.89z M84.47,44.16c1.6,0,3.15,0.12,4.67-0.03
		c2.21-0.21,3.69-1.47,4.34-3.62c0.48-1.6,0.48-3.22,0.02-4.83c-0.57-1.97-1.84-3.3-3.88-3.6c-1.68-0.25-3.4-0.19-5.15-0.27
		C84.47,36.02,84.47,40.08,84.47,44.16z"/>
	<path d="M122.1,46.89c0.01-0.23,0.04-0.47,0.04-0.7c0-5.37,0-10.74,0-16.11c0-0.23,0-0.47,0-0.67c0.08-0.05,0.11-0.09,0.14-0.09
		c2.54,0.03,5.09-0.08,7.61,0.14c2.54,0.22,4.07,1.92,4.29,4.47c0.08,0.86-0.01,1.78-0.21,2.62c-0.45,1.83-1.8,2.73-3.72,3.08
		c2.08,2.46,4.12,4.86,6.16,7.26c-1.1,0-2.21,0-3.31,0c-1.92-2.3-3.85-4.61-5.77-6.91c-0.08-0.1-0.21-0.22-0.32-0.23
		c-0.64-0.02-1.28-0.01-1.94-0.01c0,2.44,0,4.79,0,7.15C124.07,46.89,123.08,46.89,122.1,46.89z M125.08,37.21
		c1.32,0,2.58,0.05,3.84-0.01c1.4-0.08,2.34-1.05,2.42-2.36c0.1-1.55-0.61-2.68-2.09-2.86c-1.37-0.17-2.77-0.04-4.17-0.04
		C125.08,33.68,125.08,35.42,125.08,37.21z"/>
	<path d="M102.35,46.89c0-5.84,0-11.68,0-17.56c3.67,0,7.3,0,10.96,0c0,0.84,0,1.66,0,2.54c-2.63,0-5.25,0-7.93,0
		c0,1.45,0,2.83,0,4.26c2.36,0,4.7,0,7.09,0c0,0.88,0,1.71,0,2.61c-2.36,0-4.71,0-7.1,0c0,1.85,0,3.62,0,5.48c2.67,0,5.29,0,7.97,0
		c0,0.94,0,1.8,0,2.66C109.68,46.89,106.01,46.89,102.35,46.89z"/>
	<path d="M146.34,17.14c-0.19,0.53-0.31,1.1-0.57,1.6c-0.78,1.51-2.15,2.28-3.75,2.59c-2.48,0.49-4.86,0.16-7.09-1.05
		c-0.37-0.2-0.53-0.44-0.51-0.88c0.04-0.82,0.01-1.65,0.01-2.59c0.22,0.14,0.37,0.24,0.52,0.34c1.99,1.39,4.17,2.03,6.59,1.51
		c1.43-0.31,2.09-1.32,1.86-2.68c-0.14-0.83-0.69-1.33-1.4-1.64c-1.12-0.49-2.28-0.88-3.39-1.36c-0.81-0.35-1.65-0.69-2.36-1.19
		c-2.97-2.12-2.58-6.71,0.74-8.23c2.78-1.28,5.53-0.85,8.15,0.6c0.13,0.07,0.25,0.26,0.26,0.4c0.02,0.92,0.01,1.84,0.01,2.85
		c-0.37-0.24-0.65-0.44-0.94-0.62c-1.68-1.06-3.49-1.54-5.46-1.11c-1.35,0.29-1.97,1.22-1.77,2.48c0.14,0.87,0.75,1.32,1.48,1.62
		c1.16,0.48,2.36,0.87,3.52,1.36c0.74,0.31,1.47,0.68,2.14,1.12c1.02,0.67,1.6,1.66,1.85,2.84c0.03,0.13,0.08,0.25,0.13,0.38
		C146.34,16.04,146.34,16.59,146.34,17.14z"/>
	<path d="M54.21,46.89c-0.88-0.2-1.77-0.34-2.63-0.61c-1.89-0.58-1.88-0.61-1.88-2.54c0-0.41,0-0.81,0-1.28
		c0.63,0.36,1.17,0.71,1.74,0.99c1.72,0.83,3.52,1.12,5.4,0.72c1.29-0.27,1.92-1.06,1.88-2.2c-0.02-0.61-0.26-1.14-0.78-1.44
		c-0.62-0.36-1.29-0.67-1.96-0.94c-1.01-0.4-2.05-0.7-3.05-1.11c-1.53-0.62-2.8-1.53-3.24-3.25c-0.57-2.23,0.3-4.26,2.4-5.2
		c2.84-1.27,5.64-0.89,8.35,0.5c0.12,0.06,0.25,0.22,0.25,0.34c0.02,0.88,0.01,1.75,0.01,2.73c-0.37-0.23-0.66-0.42-0.96-0.6
		c-1.61-0.95-3.33-1.4-5.2-1.1c-0.34,0.05-0.69,0.16-1.01,0.31c-0.66,0.3-1.06,0.81-1.1,1.55c-0.04,0.76,0.23,1.39,0.91,1.72
		c0.92,0.44,1.89,0.76,2.84,1.15c1.11,0.46,2.26,0.84,3.3,1.41c2.84,1.57,3.05,6.4-0.4,8.01c-0.7,0.33-1.49,0.48-2.24,0.71
		c-0.17,0.05-0.34,0.08-0.51,0.13C55.63,46.89,54.92,46.89,54.21,46.89z"/>
	<path d="M15.42,46.89c0-5.83,0-11.67,0-17.55c1.1,0,2.17,0,3.31,0c0,5.85,0,11.7,0,17.55C17.63,46.89,16.52,46.89,15.42,46.89z"/>
	<path d="M69.35,46.89c0-5.84,0-11.68,0-17.56c1.09,0,2.14,0,3.29,0c0,0.23,0,0.45,0,0.68c0,5.39,0,10.78,0,16.17
		c0,0.24,0.02,0.47,0.02,0.71C71.56,46.89,70.45,46.89,69.35,46.89z"/>
	<path d="M14.39,11.91c0.34,0.21,0.68,0.37,0.97,0.59c1.51,1.16,1.97,2.75,1.7,4.56c-0.27,1.81-1.27,3.07-2.99,3.7
		c-0.64,0.23-1.33,0.43-2.01,0.44c-2.52,0.05-5.04,0.02-7.59,0.02c0-6,0-11.98,0-18.01c0.1-0.01,0.19-0.04,0.28-0.04
		c2.15,0,4.3-0.01,6.44,0.03c0.62,0.01,1.26,0.11,1.86,0.28c1.84,0.51,3.1,1.63,3.41,3.58C16.78,9.07,16.34,10.81,14.39,11.91z
		 M7.37,13.41c0,1.71,0,3.44,0,5.15c1.55,0,3.05,0.08,4.53-0.02c1.4-0.09,2.26-1.1,2.32-2.46c0.06-1.38-0.68-2.49-2.08-2.64
		C10.57,13.28,8.97,13.41,7.37,13.41z M7.34,10.73c0.13,0.02,0.19,0.04,0.24,0.04c1.1,0,2.21,0.01,3.31-0.01
		c0.39-0.01,0.79-0.08,1.16-0.19c1.13-0.33,1.65-1.11,1.64-2.35c-0.02-1.21-0.54-2.06-1.7-2.21C10.47,5.8,8.91,5.81,7.34,5.73
		C7.34,7.49,7.34,9.09,7.34,10.73z"/>
	<path d="M78.68,9.64c0,3.84,0,7.69,0,11.57c-0.97,0-1.88,0-2.83,0c0-6.07,0-12.12,0-18.3c4.04,3.95,8,7.82,12.04,11.78
		c0-3.9,0-7.68,0-11.51c0.97,0,1.88,0,2.84,0c0,6.05,0,12.09,0,18.17c-3.95-3.97-7.88-7.92-11.81-11.88
		C78.84,9.53,78.76,9.58,78.68,9.64z"/>
	<path d="M30.49,46.59c-1.03,0-1.95,0-2.92,0c0-5.72,0-11.43,0-17.27c4.14,3.71,8.21,7.37,12.41,11.14c0-3.71,0-7.29,0-10.89
		c1.01,0,1.93,0,2.9,0c0,5.71,0,11.42,0,17.26c-4.14-3.78-8.21-7.5-12.39-11.32C30.49,39.28,30.49,42.9,30.49,46.59z"/>
	<path d="M23.62,3.21c0.98,0,1.91,0,2.91,0c0,0.24,0,0.46,0,0.67c0,3.34-0.02,6.69,0.02,10.03c0.01,0.79,0.13,1.61,0.36,2.38
		c0.5,1.7,1.77,2.53,3.68,2.53c1.91,0.01,3.21-0.81,3.71-2.5c0.26-0.87,0.37-1.81,0.38-2.73c0.04-3.23,0.02-6.45,0.02-9.68
		c0-0.21,0-0.43,0-0.69c0.99,0,1.94,0,2.93,0c0.01,0.17,0.03,0.34,0.03,0.52c0,3.42,0,6.85,0,10.27c0,1.25-0.14,2.48-0.63,3.64
		c-0.96,2.31-2.76,3.53-5.19,3.83c-1.88,0.23-3.71,0.05-5.35-1.01c-1.97-1.28-2.82-3.24-2.88-5.47c-0.1-3.85-0.04-7.71-0.05-11.57
		C23.57,3.37,23.59,3.31,23.62,3.21z"/>
	<path d="M98.83,3.2c3.53,0,7.03,0,10.57,0c0,0.88,0,1.73,0,2.67c-2.55,0-5.1,0-7.68,0c0,1.48,0,2.89,0,4.35c2.29,0,4.55,0,6.86,0
		c0,0.91,0,1.76,0,2.66c-2.27,0-4.53,0-6.84,0c0,1.9,0,3.76,0,5.66c2.56,0,5.09,0,7.67,0c0,0.92,0,1.79,0,2.69
		c-3.52,0-7.02,0-10.57,0C98.83,15.25,98.83,9.26,98.83,3.2z"/>
	<path d="M127.4,7.24c-1.16-0.51-2.24-1.15-3.42-1.45c-0.96-0.25-2.03-0.2-3.03-0.07c-1.07,0.13-1.69,0.87-1.79,1.77
		c-0.11,0.97,0.3,1.75,1.33,2.2c1.2,0.53,2.45,0.96,3.68,1.44c0.46,0.18,0.91,0.37,1.35,0.6c2.55,1.32,3.2,3.69,2.59,6.09
		c-0.53,2.09-2.14,3.11-4.12,3.52c-2.45,0.5-4.82,0.17-7.04-1.02c-0.39-0.21-0.56-0.46-0.54-0.93c0.04-0.82,0.01-1.64,0.01-2.56
		c0.39,0.26,0.7,0.48,1.03,0.68c1.87,1.15,3.88,1.64,6.05,1.17c1.54-0.34,2.26-1.56,1.82-2.95c-0.2-0.62-0.64-1.04-1.21-1.3
		c-0.86-0.39-1.75-0.7-2.61-1.08c-1.09-0.48-2.23-0.91-3.24-1.53c-2.63-1.62-2.9-6.56,0.65-8.2c0.77-0.36,1.64-0.59,2.49-0.68
		c1.96-0.22,3.84,0.18,5.58,1.14c0.33,0.18,0.47,0.4,0.45,0.79C127.37,5.67,127.4,6.5,127.4,7.24z"/>
	<path d="M55.69,7.42c-0.58-0.36-1.06-0.69-1.58-0.97c-1.53-0.81-3.15-1.14-4.85-0.75c-1.44,0.32-2.13,1.5-1.69,2.78
		c0.22,0.65,0.72,1.03,1.31,1.28c1.16,0.48,2.35,0.91,3.52,1.37c0.46,0.18,0.92,0.36,1.35,0.59c2.29,1.2,3.3,3.36,2.72,5.88
		c-0.51,2.21-2.1,3.32-4.18,3.75c-2.45,0.51-4.82,0.17-7.04-1.02c-0.39-0.21-0.57-0.45-0.55-0.92c0.04-0.82,0.01-1.64,0.01-2.57
		c0.42,0.27,0.73,0.5,1.06,0.69c1.89,1.15,3.92,1.65,6.1,1.13c1.46-0.34,2.12-1.49,1.76-2.84c-0.19-0.71-0.69-1.15-1.31-1.43
		c-0.93-0.42-1.9-0.76-2.84-1.15c-0.8-0.33-1.62-0.62-2.37-1.04c-1.94-1.06-2.71-2.77-2.5-4.93c0.21-2.08,1.45-3.36,3.37-3.98
		c2.56-0.82,5.02-0.45,7.35,0.84c0.15,0.08,0.35,0.27,0.35,0.41C55.71,5.47,55.69,6.41,55.69,7.42z"/>
	<path d="M67.23,21.23c-0.97,0-1.92,0-2.91,0c0-6,0-11.98,0-18c0.96,0,1.91,0,2.91,0C67.23,9.22,67.23,15.21,67.23,21.23z"/>
</g>
</svg>
