<?xml version="1.0" encoding="utf-8"?>
<!-- Generator: Adobe Illustrator 25.0.1, SVG Export Plug-In . SVG Version: 6.00 Build 0)  -->
<svg version="1.1" id="Layer_1" xmlns="http://www.w3.org/2000/svg" xmlns:xlink="http://www.w3.org/1999/xlink" x="0px" y="0px"
	 viewBox="0 0 155.89 45.58" style="enable-background:new 0 0 155.89 45.58;" xml:space="preserve">
<style type="text/css">
	.st0{fill:#FFFFFF;}
	.st1{fill:#FF322E;}
	.st2{fill:#F92585;}
	.st3{fill:#404040;}
	.st4{fill:#049BFE;}
</style>
<g>
	<path d="M75.74,6.3c0.36-0.45,0.54-0.95,0.82-1c3.62-0.7,7.24-1.33,10.94-2c0,4.11,0,8.1,0,12.02c1.49-0.39,2.93-0.94,4.4-1.12
		c5.38-0.67,9.5,1.95,11.33,7.08c2.13,5.95,0.41,13.15-4.04,16.78c-2.55,2.08-5.55,3.1-8.77,3.01c-3.37-0.09-6.72-0.63-10.08-0.95
		c-0.73-0.07-0.71-0.51-0.71-1.06c0.05-8.79,0.08-17.59,0.11-26.38c0-0.82-0.04-1.63-0.11-2.45C79.41,7.59,78.73,6.85,75.74,6.3z
		 M87.42,28.12c0.04,0,0.08,0,0.12,0c0,3.34,0.02,6.68-0.01,10.02c-0.01,0.8,0.31,1.04,1.08,1.12c2.47,0.25,4.07-0.94,5.24-2.94
		c1.22-2.09,1.77-4.39,1.98-6.77c0.3-3.44,0.24-6.85-1.53-9.98c-1.33-2.35-3.42-3.2-5.9-2.53c-0.71,0.19-1,0.5-0.99,1.27
		C87.44,21.59,87.42,24.86,87.42,28.12z"/>
	<path d="M15.24,21.37c1.78-0.08,3.38-0.03,4.94-0.26c2.13-0.31,2.89-2.01,3.42-3.85c0.35-1.22,0.34-1.22,1.72-0.99
		c0.02,0.29,0.05,0.59,0.05,0.89c0,3.73,0,7.46,0,11.24c-0.55,0-1,0-1.43,0c-0.32-0.91-0.57-1.81-0.96-2.65
		c-0.65-1.41-1.75-2.28-3.36-2.3c-1.39-0.02-2.78-0.01-4.31-0.01c0,0.39-0.02,0.84,0,1.29c0.13,3.15,0.25,6.3,0.43,9.44
		c0.04,0.73,0.23,1.46,0.45,2.16c0.43,1.38,1.35,2.23,2.85,2.4c0.69,0.08,1.37,0.22,2.1,0.34c0,0.48,0,0.88,0,1.34
		c-6.52,0-12.96,0-19.43,0c-0.36-1-0.02-1.39,0.98-1.58c2.89-0.55,3.79-1.3,3.95-4.28c0.31-5.71,0.38-11.43,0.44-17.15
		c0.02-2.45-0.12-4.91-0.4-7.34C6.31,6.75,5.45,6,2.14,5.57C2,5.55,1.85,5.51,1.66,5.47C1.63,5.18,1.59,4.91,1.59,4.65
		c0-0.18,0.05-0.37,0.09-0.6c10.15,0,20.25,0,30.5,0c0,3.4,0,6.74,0,10.22c-0.37,0.12-0.88,0.28-1.47,0.47
		c-0.48-1.09-0.9-2.16-1.42-3.18c-1.09-2.15-2.57-3.93-5-4.59c-0.96-0.26-1.99-0.35-2.99-0.38c-1.82-0.06-3.65-0.02-5.69-0.02
		C15.48,11.51,15.36,16.38,15.24,21.37z"/>
	<path d="M55.1,27.71c-0.07,4.67-1.8,8.9-6.29,11.62c-5.73,3.48-14.08,2.01-17.75-2.98c-3.62-4.94-4.18-16.12,3.69-20.78
		c5.36-3.18,13.26-2.25,17.11,2.11C54.29,20.42,55.05,23.76,55.1,27.71z M36.5,26.93c0.1,0.01,0.21,0.02,0.31,0.02
		c0,1.2-0.09,2.42,0.02,3.61c0.21,2.41,0.61,4.8,1.95,6.89c1.78,2.77,4.94,2.67,6.55-0.2c0.34-0.6,0.62-1.26,0.79-1.93
		c1.01-3.97,1.1-8.02,0.51-12.04c-0.28-1.92-0.96-3.83-1.73-5.63c-0.61-1.42-1.9-2.3-3.55-2.21c-1.7,0.1-2.72,1.2-3.36,2.68
		c-0.24,0.57-0.49,1.16-0.58,1.77C37.08,22.23,36.8,24.58,36.5,26.93z"/>
	<path d="M129.46,35.54c0.76,0.51,0.69,0.95,0.12,1.52c-3.92,3.96-8.65,4.91-13.86,3.53c-5.03-1.34-8.05-4.82-8.99-9.86
		c-1.02-5.5,0.11-10.54,4.63-14.24c3.6-2.95,7.87-3.55,12.24-2.15c4.71,1.51,6.32,5.41,6.85,9.93c0.07,0.57,0.01,1.16,0.01,1.88
		c-5.29,0-10.59,0-15.86,0c-0.8,3.13,0.85,7.78,3.65,9.61C121.93,38.17,125.73,37.91,129.46,35.54z M114.38,24.16
		c2.75,0,5.4,0,8.15,0c0.03-2.39-0.08-4.63-1.01-6.73c-1.09-2.48-3.36-2.7-4.98-0.5C114.97,19.07,114.56,21.58,114.38,24.16z"/>
	<path d="M133.4,31.74c0.64,1.22,1.19,2.46,1.91,3.6c1.34,2.14,3.24,3.44,5.87,3.41c2.1-0.02,3.73-1.2,4.2-3.05
		c0.46-1.78-0.22-3.27-2.13-4.33c-1.12-0.62-2.34-1.05-3.51-1.56c-0.93-0.4-1.88-0.74-2.79-1.18c-5.67-2.69-5.23-10.06-0.53-13.08
		c2.85-1.83,6-2.06,9.22-1.73c1.58,0.16,3.13,0.59,4.69,0.92c0.66,0.14,0.95,0.51,0.94,1.23c-0.02,1.67,0.02,3.35,0.1,5.02
		c0.04,0.82-0.29,1.14-1.08,1.12c-0.58-1.17-1.1-2.38-1.76-3.51c-1-1.7-2.47-2.77-4.49-2.98c-1.83-0.19-3.34,0.65-3.98,2.2
		c-0.72,1.75-0.32,3.45,1.33,4.5c1.5,0.95,3.17,1.64,4.77,2.42c0.87,0.42,1.8,0.74,2.65,1.21c4.61,2.5,5.35,8.75,1.49,12.34
		c-1.75,1.63-3.89,2.44-6.21,2.7c-3.6,0.4-7.14-0.01-10.62-1.02c-0.82-0.24-1.08-0.64-1.07-1.48c0.03-1.87-0.01-3.74-0.1-5.6
		C132.26,32.03,132.58,31.69,133.4,31.74z"/>
	<path d="M71.37,39.17c0,0.4,0,0.78,0,1.23c-5.36,0-10.67,0-16.03,0c0-0.41,0-0.78,0-1.17c0.11-0.06,0.2-0.14,0.31-0.16
		c2.64-0.52,3.26-1.16,3.31-3.88c0.08-4.55,0.06-9.1,0.06-13.66c0-0.58-0.06-1.17-0.14-1.74c-0.26-1.72-0.88-2.31-2.59-2.66
		c-0.36-0.07-0.67-0.42-1-0.65c0.33-0.23,0.63-0.59,0.99-0.67c3.31-0.69,6.64-1.33,9.96-1.97c0.18-0.04,0.38-0.02,0.58-0.03
		c0,1.85,0,3.66,0,5.74c1.16-2.12,2.4-3.92,4.42-5c2.09-1.12,4.2-1.22,6.47-0.18c-0.92,2.38-1.82,4.68-2.73,7.02
		c-0.93-0.34-1.8-0.74-2.72-0.97c-1.54-0.38-3.09-0.33-4.56,0.39c-0.67,0.33-1.03,0.8-1.01,1.64c0.1,4.28,0.06,8.56,0.23,12.83
		c0.12,3.01,0.68,3.45,3.72,3.75C70.87,39.06,71.09,39.12,71.37,39.17z"/>
</g>
</svg>
