<?xml version="1.0" encoding="utf-8"?>
<!-- Generator: Adobe Illustrator 25.0.1, SVG Export Plug-In . SVG Version: 6.00 Build 0)  -->
<svg version="1.1" id="Layer_1" xmlns="http://www.w3.org/2000/svg" xmlns:xlink="http://www.w3.org/1999/xlink" x="0px" y="0px"
	 viewBox="0 0 81.25 72.33" style="enable-background:new 0 0 81.25 72.33;" xml:space="preserve">
<style type="text/css">
	.st0{fill:#FFFFFF;}
	.st1{fill:#FF322E;}
	.st2{fill:#F92585;}
	.st3{fill:#404040;}
	.st4{fill:#049BFE;}
</style>
<g>
	<path class="st0" d="M24.94,14.37c1.5,4.67,2.97,9.25,4.45,13.87c-0.17,0-0.3,0-0.43,0c-1.68,0-3.35,0.01-5.03-0.01
		c-0.24,0-0.34,0.07-0.4,0.3c-0.47,1.65-0.95,3.3-1.43,4.94c-0.25,0.88-0.51,1.76-0.78,2.68c0.17,0,0.29,0,0.42,0
		c3.27,0,6.55,0,9.82-0.01c0.28,0,0.39,0.09,0.47,0.35c0.55,1.76,1.13,3.51,1.68,5.27c0.08,0.26,0.18,0.35,0.47,0.35
		c3-0.01,6.01-0.01,9.01-0.01c0.12,0,0.23,0,0.37,0c-0.04-0.14-0.07-0.24-0.11-0.34C39.19,28.9,34.9,16.04,30.62,3.18
		c-0.09-0.26-0.2-0.32-0.46-0.32c-3.36,0.01-6.72,0.01-10.08,0c-0.33,0-0.46,0.1-0.56,0.4c-4.1,12.31-8.2,24.63-12.31,36.94
		c-0.21,0.62-0.41,1.25-0.62,1.89c0.11,0.01,0.18,0.02,0.26,0.02c2.98,0,5.97,0,8.95,0.01c0.25,0,0.3-0.13,0.35-0.31
		c2.41-7.54,4.83-15.08,7.25-22.62C23.91,17.61,24.41,16.03,24.94,14.37z M57.48,30.48c0.13,0,0.24,0,0.34,0
		c1.03-0.04,2.05-0.05,3.08-0.12c2.18-0.16,4.29-0.63,6.29-1.55c3.33-1.52,5.64-3.97,6.73-7.5c0.73-2.37,0.84-4.8,0.47-7.25
		c-0.68-4.5-3.07-7.73-7.25-9.59c-2.55-1.13-5.25-1.56-8.02-1.59c-4.66-0.04-9.32-0.02-13.98-0.02c-0.08,0-0.16,0.02-0.24,0.02
		c0,13.08,0,26.13,0,39.19c3.13,0,6.25,0,9.39,0c0-10.44,0-20.85,0-31.29c0.1-0.01,0.17-0.02,0.25-0.02c1.25,0,2.51-0.04,3.76,0.01
		c0.82,0.03,1.64,0.12,2.43,0.31c1.94,0.47,3.36,1.59,3.96,3.57c0.29,0.94,0.34,1.91,0.22,2.89c-0.23,1.82-1.09,3.23-2.74,4.11
		c-0.95,0.51-1.98,0.74-3.04,0.83c-0.55,0.04-1.1,0.05-1.66,0.08C57.48,25.21,57.48,27.82,57.48,30.48z"/>
	<path class="st1" d="M1.75,62.33c0.16,0.01,0.32,0.02,0.48,0.02c25.6,0,51.21,0,76.81,0c0.16,0,0.32,0,0.5,0c0,3.11,0,6.18,0,9.33
		c-0.17,0-0.35,0-0.53,0c-21.54,0-43.08,0-64.62,0c-4.21,0-8.43,0-12.64-0.01C1.75,68.56,1.75,65.44,1.75,62.33z"/>
	<path d="M24.94,14.37c-0.53,1.66-1.03,3.24-1.54,4.81c-2.42,7.54-4.83,15.08-7.25,22.62c-0.06,0.18-0.1,0.31-0.35,0.31
		c-2.98-0.01-5.97-0.01-8.95-0.01c-0.07,0-0.15-0.01-0.26-0.02c0.21-0.64,0.41-1.26,0.62-1.89c4.1-12.31,8.21-24.62,12.31-36.94
		c0.1-0.3,0.23-0.41,0.56-0.4c3.36,0.02,6.72,0.01,10.08,0c0.25,0,0.37,0.06,0.46,0.32c4.28,12.86,8.57,25.72,12.85,38.59
		c0.03,0.1,0.06,0.2,0.11,0.34c-0.14,0-0.26,0-0.37,0c-3,0-6.01,0-9.01,0.01c-0.28,0-0.39-0.1-0.47-0.35
		c-0.55-1.76-1.13-3.51-1.68-5.27c-0.08-0.26-0.19-0.35-0.47-0.35c-3.27,0.01-6.55,0.01-9.82,0.01c-0.13,0-0.26,0-0.42,0
		c0.27-0.92,0.52-1.8,0.78-2.68c0.48-1.65,0.96-3.29,1.43-4.94c0.06-0.23,0.16-0.3,0.4-0.3c1.68,0.01,3.35,0.01,5.03,0.01
		c0.13,0,0.26,0,0.43,0C27.91,23.62,26.44,19.04,24.94,14.37z"/>
	<path d="M57.48,30.48c0-2.66,0-5.27,0-7.89c0.56-0.03,1.11-0.04,1.66-0.08c1.06-0.09,2.09-0.32,3.04-0.83
		c1.65-0.88,2.51-2.28,2.74-4.11c0.12-0.98,0.07-1.94-0.22-2.89c-0.6-1.98-2.02-3.09-3.96-3.57c-0.79-0.19-1.62-0.28-2.43-0.31
		c-1.25-0.05-2.51-0.01-3.76-0.01c-0.07,0-0.15,0.01-0.25,0.02c0,10.43,0,20.85,0,31.29c-3.14,0-6.26,0-9.39,0
		c0-13.06,0-26.12,0-39.19c0.08-0.01,0.16-0.02,0.24-0.02c4.66,0,9.32-0.02,13.98,0.02c2.76,0.02,5.47,0.45,8.02,1.59
		c4.18,1.86,6.57,5.09,7.25,9.59c0.37,2.45,0.26,4.87-0.47,7.25c-1.09,3.53-3.4,5.98-6.73,7.5c-2,0.91-4.11,1.38-6.29,1.55
		c-1.02,0.08-2.05,0.08-3.08,0.12C57.72,30.48,57.61,30.48,57.48,30.48z"/>
</g>
</svg>
