<?xml version="1.0" encoding="utf-8"?>
<!-- Generator: Adobe Illustrator 25.0.1, SVG Export Plug-In . SVG Version: 6.00 Build 0)  -->
<svg version="1.1" id="Layer_1" xmlns="http://www.w3.org/2000/svg" xmlns:xlink="http://www.w3.org/1999/xlink" x="0px" y="0px"
	 viewBox="0 0 200.15 32.37" style="enable-background:new 0 0 200.15 32.37;" xml:space="preserve">
<style type="text/css">
	.st0{fill:#FFFFFF;}
	.st1{fill:#FF322E;}
	.st2{fill:#F92585;}
	.st3{fill:#404040;}
	.st4{fill:#049BFE;}
</style>
<g>
	<path d="M138.65,6.37c0,7.22,0,14.36,0,21.54c-1.51,0-2.96,0-4.48,0c0-3.53,0-7.03,0-10.52c-0.05-0.01-0.1-0.02-0.15-0.03
		c-1.76,3.49-3.52,6.98-5.34,10.59c-1.7-3.56-3.35-7.03-4.99-10.49c-0.05,0.01-0.1,0.01-0.14,0.02c0,3.47,0,6.93,0,10.43
		c-1.54,0-2.99,0-4.46,0c0-7.18,0-14.32,0-21.53c1.34,0,2.63-0.02,3.93,0.03c0.19,0.01,0.43,0.34,0.54,0.57
		c1.6,3.38,3.19,6.77,4.78,10.16c0.11,0.23,0.23,0.46,0.41,0.83c0.73-1.54,1.41-2.95,2.08-4.35c1.07-2.24,2.15-4.48,3.2-6.74
		c0.18-0.38,0.4-0.52,0.82-0.51C136.1,6.39,137.37,6.37,138.65,6.37z"/>
	<path d="M5.67,6.44c3.61,0,7.16-0.14,10.69,0.04c2.79,0.14,4.88,1.58,5.75,4.39c0.84,2.69-0.07,5.69-2.26,7.46
		c-0.42,0.34-0.43,0.6-0.25,1.06c1.04,2.55,2.05,5.12,3.07,7.68c0.1,0.25,0.18,0.5,0.31,0.87c-0.98,0-1.88,0-2.79,0
		c-0.67,0-1.5,0.21-1.97-0.1c-0.47-0.31-0.6-1.15-0.85-1.77c-0.8-1.93-1.59-3.85-2.36-5.79c-0.15-0.37-0.34-0.51-0.74-0.5
		c-1.32,0.03-2.64,0.01-4.05,0.01c0,2.73,0,5.41,0,8.12c-1.56,0-3.03,0-4.55,0C5.67,20.73,5.67,13.57,5.67,6.44z M10.2,15.08
		c2,0,3.94,0.01,5.88-0.01c0.3,0,0.6-0.17,0.88-0.31c0.69-0.35,1.11-0.9,1.09-1.71c-0.02-0.85-0.4-1.49-1.19-1.79
		c-0.53-0.2-1.12-0.33-1.69-0.35c-1.48-0.05-2.96-0.02-4.44-0.01c-0.17,0-0.34,0.04-0.53,0.06C10.2,12.37,10.2,13.73,10.2,15.08z"/>
	<path d="M26.42,6.37c5.25,0,10.42,0,15.66,0c0,1.44,0,2.86,0,4.37c-3.66,0-7.32,0-11.04,0c0,1.15,0,2.21,0,3.35
		c1.97,0,3.93,0,5.94,0c0,1.52,0,2.96,0,4.47c-1.97,0-3.94,0-5.95,0c0,1.66,0,3.26,0,4.95c3.76,0,7.51,0,11.31,0
		c0,1.51,0,2.93,0,4.4c-5.31,0-10.59,0-15.92,0C26.42,20.73,26.42,13.57,26.42,6.37z"/>
	<path d="M182.18,6.38c5.26,0,10.45,0,15.68,0c0,1.46,0,2.88,0,4.38c-3.7,0-7.36,0-11.08,0c0,1.14,0,2.2,0,3.33c2,0,3.96,0,5.96,0
		c0,1.52,0,2.96,0,4.47c-1.99,0-3.95,0-5.96,0c0,1.67,0,3.26,0,4.95c3.78,0,7.53,0,11.32,0c0,1.51,0,2.93,0,4.4
		c-5.32,0-10.59,0-15.93,0C182.18,20.73,182.18,13.57,182.18,6.38z"/>
	<path d="M147.2,19.79c0,2.75,0,5.41,0,8.11c-1.53,0-3,0-4.52,0c0-7.15,0-14.29,0-21.48c0.16-0.02,0.33-0.05,0.5-0.05
		c3.23,0,6.46-0.03,9.69,0.01c2.28,0.03,4.31,0.76,5.7,2.66c1.53,2.09,1.71,4.43,0.69,6.77c-1.07,2.47-3.15,3.7-5.76,3.92
		c-1.74,0.15-3.5,0.05-5.24,0.07C147.93,19.79,147.62,19.79,147.2,19.79z M147.21,10.9c0,1.42,0,2.85,0,4.31
		c2.01,0,3.97,0.02,5.94-0.02c0.41-0.01,0.84-0.17,1.21-0.37c1.12-0.6,1.43-2,0.69-2.99c-0.46-0.62-1.14-0.91-1.87-0.92
		C151.21,10.87,149.24,10.9,147.21,10.9z"/>
	<path d="M66.1,27.95c-1.55,0-2.98,0.02-4.41-0.02c-0.18-0.01-0.43-0.28-0.52-0.48c-0.57-1.26-1.13-2.54-1.65-3.83
		c-0.15-0.36-0.34-0.51-0.74-0.5c-2.38,0.02-4.75,0.02-7.13,0c-0.41,0-0.59,0.15-0.74,0.5c-0.52,1.26-1.09,2.51-1.61,3.77
		c-0.17,0.4-0.36,0.59-0.83,0.57c-1.34-0.04-2.68-0.01-4.11-0.01c0.08-0.26,0.13-0.45,0.2-0.62c2.88-6.81,5.76-13.62,8.63-20.44
		c0.16-0.39,0.37-0.55,0.79-0.53c0.81,0.03,1.62,0.04,2.42,0c0.55-0.03,0.82,0.16,1.04,0.68c1.92,4.66,3.86,9.32,5.8,13.97
		c0.86,2.07,1.73,4.14,2.59,6.21C65.9,27.41,65.97,27.62,66.1,27.95z M55.22,13.33c-0.78,1.86-1.49,3.54-2.22,5.28
		c1.53,0,2.95,0,4.45,0C56.71,16.86,56,15.17,55.22,13.33z"/>
	<path d="M89.5,23.18c1.42-0.96,2.61-1.76,3.66-2.47c0.64,0.57,1.25,1.09,1.84,1.64c1.59,1.48,3.45,1.82,5.5,1.32
		c0.47-0.11,0.94-0.34,1.32-0.63c1.31-0.99,1.17-2.62-0.33-3.29c-0.93-0.42-1.96-0.62-2.94-0.92c-0.99-0.3-1.99-0.54-2.95-0.91
		c-2.42-0.92-3.79-2.68-3.86-5.29c-0.07-2.64,1.17-4.54,3.54-5.7c3.74-1.82,9.65-0.07,11.79,3.5c-1.05,0.89-2.1,1.79-3.18,2.72
		c-0.43-0.37-0.84-0.71-1.25-1.05c-1.36-1.14-2.9-1.67-4.68-1.38c-0.29,0.05-0.58,0.12-0.84,0.23c-0.59,0.25-1.03,0.67-1.04,1.36
		c-0.01,0.69,0.39,1.17,1.01,1.37c1.66,0.55,3.33,1.04,5.01,1.55c1.32,0.4,2.6,0.84,3.54,1.94c2.94,3.47,1.52,8.73-2.93,10.33
		c-3.96,1.42-7.59,0.62-10.77-2.15C91.13,24.66,90.35,23.95,89.5,23.18z"/>
	<path d="M167.5,6.43c0,5.68,0,11.34,0,17.08c3.82,0,7.57,0,11.38,0c0,1.5,0,2.92,0,4.39c-5.28,0-10.55,0-15.88,0
		c0-7.14,0-14.28,0-21.47C164.46,6.43,165.94,6.43,167.5,6.43z"/>
	<path d="M84.68,23.51c0,1.52,0,2.92,0,4.38c-5.29,0-10.56,0-15.88,0c0-7.15,0-14.29,0-21.47c1.47,0,2.94,0,4.51,0
		c0,5.68,0,11.35,0,17.09C77.14,23.51,80.87,23.51,84.68,23.51z"/>
	<path d="M115.09,27.92c-1.49,0-2.94,0-4.43,0c0-7.16,0-14.3,0-21.49c1.45,0,2.92,0,4.43,0C115.09,13.57,115.09,20.7,115.09,27.92z"
		/>
</g>
</svg>
