<?xml version="1.0" encoding="utf-8"?>
<!-- Generator: Adobe Illustrator 25.0.1, SVG Export Plug-In . SVG Version: 6.00 Build 0)  -->
<svg version="1.1" id="Layer_1" xmlns="http://www.w3.org/2000/svg" xmlns:xlink="http://www.w3.org/1999/xlink" x="0px" y="0px"
	 viewBox="0 0 141.36 41.28" style="enable-background:new 0 0 141.36 41.28;" xml:space="preserve">
<style type="text/css">
	.st0{fill:#FFFFFF;}
	.st1{fill:#FF322E;}
	.st2{fill:#F92585;}
	.st3{fill:#404040;}
	.st4{fill:#049BFE;}
</style>
<g>
	<path d="M1.81,3.76c6.66,0.1,13.32,0.17,19.98,0.32c0.85,0.02,1.73,0.41,2.54,0.77c2.82,1.24,4.74,3.23,5.04,6.45
		c0.31,3.35-1.04,5.92-3.76,7.78c-0.94,0.64-2.02,1.08-3.21,1.7c0.68,0.23,1.29,0.42,1.89,0.63c5.32,1.89,7.89,6.65,6.25,11.66
		c-1.16,3.52-3.94,5.13-7.33,5.93c-0.76,0.18-1.55,0.32-2.33,0.32c-6.36,0.02-12.71,0.01-19.07,0c0-0.52,0-1.05,0-1.57
		c3.49-0.03,3.56-0.09,3.56-3.47c0-8.41,0.01-16.82,0-25.23c0-3.27,0.32-3.52-3.14-3.82C2.08,5.21,1.95,5.09,1.81,5.01
		C1.81,4.59,1.81,4.17,1.81,3.76z M12.88,37.38c3.31-0.17,7.03,1.03,9.09-2.49c1.92-3.27,1.78-6.93-0.25-10.17
		c-2.08-3.33-5.57-2.68-8.85-2.64C12.88,27.22,12.88,32.22,12.88,37.38z M12.88,19.65c3.04,0.1,6.14,0.6,7.91-2.42
		c1.76-3,1.78-6.27-0.02-9.26c-1.84-3.05-4.99-2.18-7.89-2.26C12.88,10.39,12.88,14.92,12.88,19.65z"/>
	<path d="M39.99,39.94c-4.13-1.58-5.36-3.4-5.37-7.93c0-4.4,0-8.81,0-13.21c0-2.69-0.06-2.77-2.98-3.29
		c0.18-0.49,0.27-1.26,0.54-1.33c3.06-0.84,6.16-1.57,9.47-2.38c0,0.81,0,1.38,0,1.94c0,5.77-0.01,11.54,0,17.31
		c0.01,3.96,1.57,5.07,5.39,3.84c0.3-0.1,0.59-0.22,0.88-0.33c2.09-0.74,3.13-1.95,2.96-4.42c-0.26-3.76-0.06-7.55-0.07-11.32
		c0-2.62-0.28-2.9-2.98-3.08c-0.25-0.02-0.51-0.03-1.16-0.08c0.32-0.63,0.47-1.41,0.79-1.49c3.4-0.84,6.83-1.56,10.46-2.36
		c0,0.77,0,1.32,0,1.88c0,6.55,0.01,13.11,0,19.66c0,1.4,0.18,2.61,1.83,3.06c0.31,0.08,0.48,0.67,0.84,1.23
		c-3.25,0.8-6.27,1.54-9.54,2.35c0-1.93,0-3.56,0-5.66c-2.45,3.06-5.15,4.9-8.55,5.63C41.68,39.94,40.84,39.94,39.99,39.94z"/>
	<path d="M125.52,39.94c-3.78-0.86-6.85-2.68-8.91-6.1c-3.82-6.36-2.36-15.27,3.22-19.28c7.11-5.12,16.16-1.33,17.38,7.28
		c0.19,1.33,0.24,2.67,0.37,4.2c-5.53,0-10.8,0-16.05,0c-0.53,4.91,2.49,9.52,6.72,10.26c3.18,0.55,5.7-0.94,7.94-2.98
		c0.54-0.49,0.96-0.88,1.64-0.31c0,0.1,0,0.21,0,0.31c-2.2,3.57-5.44,5.65-9.47,6.61C127.42,39.94,126.47,39.94,125.52,39.94z
		 M130.66,23.81c-0.04-2.6-0.27-5.09-1.66-7.28c-1.4-2.21-3.74-2.33-5.32-0.26c-1.67,2.2-2.23,4.76-2.28,7.54
		C124.54,23.81,127.56,23.81,130.66,23.81z"/>
	<path d="M69.66,39.94c-1.98-0.47-3.97-0.89-5.92-1.47c-0.43-0.13-0.93-0.81-0.98-1.28c-0.25-2.34-0.37-4.69-0.54-7.09
		c1.13-0.56,1.52-0.06,1.79,1.01c0.85,3.3,2.53,5.93,6.24,6.39c1.14,0.14,2.44-0.07,3.5-0.53c2.28-0.98,2.82-3.69,1.1-5.47
		c-1-1.03-2.3-1.79-3.51-2.61c-1.99-1.35-4.19-2.44-6-3.99c-3.81-3.28-4.03-8.83-0.4-11.49c1.49-1.09,3.48-1.75,5.33-2.03
		c3.03-0.46,6.06,0.05,8.99,1c0.81,0.26,1.16,0.65,1.17,1.55c0.03,1.77,0.22,3.54,0.34,5.35c-1.15,0.46-1.59,0.07-1.91-0.99
		c-1.09-3.57-4.02-5.36-7.13-4.49c-1.46,0.41-2.58,1.24-2.95,2.75c-0.37,1.5,0.08,2.83,1.3,3.79c1.03,0.8,2.13,1.51,3.25,2.19
		c1.61,0.98,3.33,1.78,4.89,2.84c3.41,2.32,4.6,5.13,3.78,8.55c-0.7,2.95-3.45,5.12-7.18,5.7c-0.46,0.07-0.91,0.2-1.36,0.31
		C72.19,39.94,70.92,39.94,69.66,39.94z"/>
	<path d="M110.69,3.13c0.03,4.87,0.06,9.75,0.07,14.62c0.01,5.82,0.02,11.64-0.01,17.46c-0.01,1.37,0.11,2.51,1.84,2.74
		c0.31,0.04,0.54,0.71,0.99,1.35c-4.4,0-8.32,0-12.79,0c0.58-0.68,0.86-1.33,1.23-1.39c1.54-0.22,1.74-1.17,1.74-2.47
		c-0.03-8.54-0.02-17.09-0.02-25.63c0-2.33-0.32-2.67-2.7-2.87c-0.36-0.03-0.71-0.06-1.16-0.09c-0.02-0.47-0.04-0.86-0.06-1.36
		c3.35-0.79,6.64-1.57,9.93-2.34C110.06,3.13,110.37,3.13,110.69,3.13z"/>
	<path d="M91.44,39.94c-4.33-1.34-5.07-2.36-5.07-6.97c0-5.76,0-11.52,0-17.47c-1.14,0-2.21,0-3.38,0c0-0.73,0-1.27,0-1.91
		c4.29-1.04,7.16-3.64,8.54-7.9c0.12-0.38,1.02-0.51,1.85-0.88c0,2.9,0,5.39,0,8.03c2.15,0,4.12,0,6.18,0c0,0.9,0,1.66,0,2.55
		c-2.02,0-3.99,0-6.17,0c0,0.85,0,1.57,0,2.28c0,4.67-0.01,9.33,0.01,14c0,0.88,0.08,1.79,0.28,2.64c0.56,2.44,2.64,3.07,4.48,1.4
		c0.23-0.21,0.44-0.45,0.74-0.77c0.36,0.34,0.72,0.68,1.04,0.98c-1.3,2.27-3.26,3.46-5.65,4.03C93.33,39.94,92.38,39.94,91.44,39.94
		z"/>
</g>
</svg>
