<?xml version="1.0" encoding="utf-8"?>
<!-- Generator: Adobe Illustrator 25.0.1, SVG Export Plug-In . SVG Version: 6.00 Build 0)  -->
<svg version="1.1" id="Layer_1" xmlns="http://www.w3.org/2000/svg" xmlns:xlink="http://www.w3.org/1999/xlink" x="0px" y="0px"
	 viewBox="0 0 197.17 41.61" style="enable-background:new 0 0 197.17 41.61;" xml:space="preserve">
<style type="text/css">
	.st0{fill:#FFFFFF;}
	.st1{fill:#FF322E;}
	.st2{fill:#F92585;}
	.st3{fill:#404040;}
	.st4{fill:#049BFE;}
</style>
<g>
	<path class="st2" d="M102.65,16.08c0-0.59,0-0.91,0-1.24c0-3.03,0.02-6.07-0.01-9.1c-0.01-0.64,0.19-0.85,0.84-0.84
		c2.86,0.03,5.72,0.03,8.59,0c0.64-0.01,0.85,0.2,0.84,0.84c-0.02,10.54-0.01,21.08-0.01,31.62c0,0.21-0.04,0.41-0.07,0.68
		c-3.37,0-6.71,0-10.14,0c0-0.92,0-1.79,0-2.91c-0.38,0.28-0.61,0.4-0.77,0.58c-4.3,4.84-12.24,3.58-15.56-2.22
		c-2.81-4.91-2.5-12.33,0.82-16.73c3.68-4.88,10.21-5.48,14.71-1.35C102.06,15.57,102.24,15.72,102.65,16.08z M94.39,25.7
		c0,2.54,1.71,4.49,4.05,4.61c2.16,0.11,4.17-1.66,4.39-3.87c0.28-2.77-1.2-4.9-3.66-5.28C96.59,20.75,94.39,22.85,94.39,25.7z"/>
	<path class="st2" d="M133.87,38.01c0-0.94,0-1.82,0-2.87c-0.31,0.24-0.51,0.36-0.66,0.52c-4.37,4.89-12.19,3.66-15.59-2.11
		c-3.01-5.13-2.49-12.88,1.21-17.31c3.66-4.38,10.1-4.76,14.25-0.85c0.19,0.18,0.4,0.34,0.74,0.63c0.02-0.47,0.06-0.79,0.06-1.11
		c0-3.04,0.02-6.07-0.01-9.1c-0.01-0.67,0.16-0.91,0.87-0.9c2.83,0.04,5.67,0.03,8.5,0c0.68-0.01,0.9,0.2,0.9,0.89
		c-0.02,10.48-0.01,20.97-0.01,31.45c0,0.5,0.01,0.88-0.7,0.88c-3.02-0.03-6.03-0.01-9.05-0.02
		C134.25,38.1,134.13,38.06,133.87,38.01z M134.13,25.73c0.02-2.56-1.83-4.6-4.22-4.65c-2.32-0.05-4.26,1.97-4.28,4.48
		c-0.03,2.66,1.8,4.73,4.21,4.75C132.22,30.33,134.11,28.32,134.13,25.73z"/>
	<path class="st2" d="M38.64,16.46c0.31-0.36,0.59-0.76,0.93-1.09c2.87-2.69,6.23-3.37,9.89-2.08c3.23,1.14,4.86,3.74,4.97,6.98
		c0.2,5.79,0.06,11.58,0.06,17.37c0,0.11-0.05,0.23-0.09,0.39c-3.33,0-6.65,0-10.08,0c-0.02-0.34-0.05-0.69-0.05-1.05
		c0-3.95,0-7.91-0.01-11.86c0-0.48-0.05-0.98-0.19-1.44c-0.42-1.35-1.55-2.17-2.79-2.12c-1.36,0.06-2.57,1.09-2.84,2.47
		c-0.1,0.54-0.13,1.09-0.14,1.64c-0.01,3.77-0.03,7.54,0.01,11.31c0.01,0.91-0.28,1.13-1.15,1.12c-2.71-0.05-5.42-0.02-8.13-0.02
		c-0.3,0-0.6,0-0.97,0c-0.02-0.39-0.05-0.69-0.05-0.99c0-10.39,0.01-20.78-0.02-31.17c0-0.77,0.15-1.07,1-1.06
		c2.77,0.06,5.54,0.04,8.31,0.01c0.76-0.01,1.01,0.23,1,0.99c-0.03,3.13-0.02,6.25-0.01,9.38c0,0.35,0.04,0.7,0.06,1.05
		C38.46,16.36,38.55,16.41,38.64,16.46z"/>
	<path class="st2" d="M162.01,24.1c0.4-2.23-1.19-3.9-3.72-4.02c-2.37-0.12-4.66,0.21-6.88,1.04c-0.25,0.09-0.52,0.16-0.88,0.27
		c-0.51-1.9-0.96-3.77-1.53-5.6c-0.3-0.95,0-1.26,0.89-1.53c5.01-1.51,10.07-1.96,15.18-0.69c4.49,1.11,6.9,3.88,7.1,8.45
		c0.23,5.23,0.13,10.48,0.17,15.72c0,0.08-0.06,0.17-0.1,0.3c-3.31,0-6.62,0-10.05,0c-0.04-0.73-0.09-1.46-0.14-2.42
		c-0.43,0.36-0.7,0.57-0.96,0.8c-2.82,2.47-7.5,3-10.81,1.23c-2.88-1.54-3.96-4.55-3.56-7.48c0.53-3.94,2.97-6.16,6.93-6.69
		c2.57-0.34,5.08-0.13,7.59,0.46C161.49,24.01,161.75,24.05,162.01,24.1z M156.47,30.29c0,1.26,0.61,2.11,1.78,2.46
		c1.17,0.35,2.64-0.14,3.23-1.31c0.43-0.84,0.56-1.84,0.75-2.78c0.13-0.6-0.15-1-0.82-1.05c-0.79-0.05-1.59-0.2-2.37-0.14
		C157.53,27.58,156.48,28.79,156.47,30.29z"/>
	<path class="st2" d="M66.8,28.01c0.42,2.07,2.15,3.4,4.45,3.51c2.17,0.1,3.8-1.02,5.34-2.53c1.83,1.44,3.62,2.86,5.48,4.33
		c-1.48,1.95-3.26,3.43-5.49,4.27c-4.35,1.64-8.7,1.55-12.87-0.49c-3.95-1.93-6.03-5.24-6.53-9.58c-0.35-3.04,0.1-5.93,1.63-8.59
		c2.1-3.65,5.32-5.65,9.52-6.14c2.6-0.3,5.11,0,7.48,1.05c4.08,1.81,6.08,5.19,6.76,9.43c0.2,1.23,0.13,2.5,0.23,3.75
		c0.06,0.75-0.19,1-0.97,0.99c-4.62-0.03-9.23-0.02-13.85-0.02C67.6,28.01,67.24,28.01,66.8,28.01z M66.64,23.6c2.28,0,4.5,0,6.72,0
		c0.16-1.95-1.35-3.75-3.18-3.88C68.3,19.59,66.77,21.22,66.64,23.6z"/>
	<path class="st2" d="M26.2,32.06c-0.46,0.69-0.87,1.32-1.31,1.99c-1.16-0.7-2.23-0.67-3.2,0.18c-0.92,0.8-1.21,1.81-0.82,2.96
		c-2.98,1.94-10.02,2.38-14.43-0.94c-4.47-3.36-6.37-9.19-4.62-14.6c1.75-5.41,6.83-8.84,12.97-8.9c5.95-0.06,9.88,3.56,11.15,6.82
		c-2.38,1.34-4.78,2.69-7.22,4.06c-0.25-0.33-0.44-0.59-0.64-0.85c-1.08-1.37-2.53-1.89-4.06-1.45c-1.57,0.45-2.82,1.9-2.9,3.54
		c-0.04,0.84-0.01,1.73,0.2,2.54c0.4,1.49,1.37,2.54,2.95,2.83c1.52,0.27,2.86-0.25,3.73-1.48c0.63-0.88,1.1-0.81,1.92-0.32
		c1.78,1.09,3.62,2.07,5.44,3.11C25.6,31.69,25.85,31.85,26.2,32.06z"/>
	<path class="st2" d="M186.42,17.78c0.53-0.79,0.99-1.62,1.59-2.35c1.33-1.65,3.1-2.47,5.23-2.44c0.25,0,0.72,0.34,0.72,0.52
		c0.04,3.36,0.03,6.73,0.03,10.15c-0.85,0.08-1.64,0.12-2.42,0.25c-2.97,0.51-4.71,2.11-5.11,5.09c-0.27,1.96-0.18,3.97-0.24,5.95
		c-0.02,0.83-0.02,1.65,0,2.48c0.01,0.44-0.09,0.68-0.61,0.68c-3.01-0.02-6.03-0.02-9.04,0c-0.59,0-0.64-0.33-0.64-0.77
		c0-1.26,0-2.51,0-3.77c0-6.34,0-12.68,0-19.02c0-1.22,0.01-1.22,1.22-1.22c2.71,0,5.41,0.01,8.12-0.01c0.69-0.01,1,0.16,0.96,0.93
		c-0.06,1.18-0.02,2.36-0.02,3.53C186.28,17.78,186.35,17.78,186.42,17.78z"/>
	<path class="st2" d="M26.94,36.57c-1.24,1.01-2.38,1.94-3.55,2.9c-0.62-1.11-0.38-2.18,0.5-2.93
		C24.74,35.81,25.89,35.76,26.94,36.57z"/>
</g>
</svg>
