<?xml version="1.0" encoding="utf-8"?>
<!-- Generator: Adobe Illustrator 25.0.1, SVG Export Plug-In . SVG Version: 6.00 Build 0)  -->
<svg version="1.1" id="Layer_1" xmlns="http://www.w3.org/2000/svg" xmlns:xlink="http://www.w3.org/1999/xlink" x="0px" y="0px"
	 viewBox="0 0 129.73 106.76" style="enable-background:new 0 0 129.73 106.76;" xml:space="preserve">
<style type="text/css">
	.st0{fill:#D1BBFD;}
	.st1{fill:#434343;}
	.st2{fill:#069CFE;}
	.st3{fill:#1A75BB;}
	.st4{fill:#BBBCBE;}
	.st5{fill:#F9FCFC;}
	.st6{fill:#243266;}
	.st7{fill:#243267;}
	.st8{fill:#233165;}
	.st9{fill:#3190C9;}
	.st10{fill:#253367;}
	.st11{fill:#253267;}
</style>
<g>
	<path class="st6" d="M2.02,64.99c0.12-0.01,0.25-0.02,0.37-0.02c2.79,0,5.57,0,8.36,0c0.14,0,0.27,0.01,0.43,0.02
		c0,0.13,0,0.23,0,0.37c-0.22,0.06-0.45,0.13-0.67,0.19c-0.7,0.22-0.95,0.57-0.81,1.3c0.11,0.58,0.28,1.15,0.47,1.71
		c0.94,2.75,1.89,5.5,2.83,8.24c0.04,0.1,0.08,0.2,0.14,0.35c0.07-0.14,0.12-0.22,0.15-0.32c0.66-1.97,1.32-3.94,1.99-5.91
		c0.07-0.2,0.07-0.38,0-0.59c-0.36-1.07-0.7-2.14-1.05-3.21c-0.04-0.12-0.08-0.24-0.12-0.35c-0.24-0.68-0.66-1.17-1.39-1.32
		c-0.26-0.05-0.39-0.17-0.28-0.48c2.96,0,5.93,0,8.93,0c0.01,0.11,0.02,0.21,0.03,0.36c-0.27,0.07-0.54,0.14-0.81,0.21
		c-0.68,0.17-0.98,0.57-0.89,1.26c0.05,0.42,0.15,0.83,0.27,1.23c0.9,2.93,1.8,5.85,2.71,8.78c0.03,0.09,0.07,0.17,0.12,0.31
		c0.06-0.14,0.11-0.23,0.14-0.32c0.86-2.79,1.73-5.58,2.58-8.38c0.17-0.55,0.28-1.13,0.32-1.7c0.06-0.7-0.23-1.03-0.92-1.2
		c-0.27-0.07-0.55-0.12-0.83-0.18c0-0.13,0-0.23,0-0.37c1.61,0,3.21,0,4.85,0c0,0.12,0,0.24,0,0.36c-0.06,0.03-0.12,0.07-0.18,0.08
		c-0.77,0.14-1.25,0.63-1.53,1.32c-0.29,0.72-0.56,1.46-0.81,2.2c-1.47,4.42-2.94,8.83-4.41,13.25c-0.04,0.13-0.09,0.26-0.15,0.41
		c-0.87,0-1.72,0-2.62,0c-1.12-3.48-2.24-6.95-3.36-10.43c-0.7,1.7-1.25,3.44-1.84,5.16c-0.6,1.74-1.18,3.49-1.77,5.26
		c-0.92,0-1.82,0-2.78,0c-0.05-0.13-0.11-0.28-0.17-0.44c-1.75-4.93-3.5-9.86-5.26-14.79c-0.13-0.37-0.29-0.73-0.44-1.08
		c-0.2-0.47-0.57-0.73-1.07-0.81c-0.18-0.03-0.37-0.07-0.55-0.1C2.02,65.24,2.02,65.11,2.02,64.99z"/>
	<path class="st7" d="M127.13,82.63c-1.2-0.01-2.41-0.01-3.61-0.01c-1.16,0-2.32,0-3.47,0c-0.15,0-0.31,0-0.49,0
		c0-0.15,0-0.27,0-0.41c0.27-0.08,0.54-0.15,0.81-0.23c0.3-0.09,0.47-0.3,0.48-0.62c0.01-0.28,0.03-0.56,0.03-0.84
		c0-2.36,0.01-4.72,0-7.09c0-0.37-0.04-0.75-0.12-1.11c-0.11-0.51-0.47-0.79-0.99-0.87c-0.79-0.12-1.55,0.02-2.35,0.15
		c-0.01,0.16-0.03,0.29-0.03,0.43c0,2.88,0,5.76,0,8.63c0,1.16,0.04,1.21,1.16,1.5c0.05,0.01,0.09,0.02,0.17,0.04
		c0,0.12,0,0.25,0,0.4c-2.52,0-5.02,0-7.54,0c0-0.13,0-0.25,0-0.36c0.03-0.02,0.05-0.05,0.08-0.06c0.28-0.09,0.57-0.17,0.85-0.26
		c0.36-0.11,0.53-0.36,0.55-0.73c0.01-0.12,0.01-0.25,0.01-0.38c0-3,0-6.01,0-9.01c0-0.08,0-0.16,0-0.23c0-0.41-0.16-0.72-0.5-0.95
		c-0.3-0.2-0.59-0.41-0.88-0.62c-0.11-0.08-0.18-0.21-0.35-0.4c0.61-0.07,1.1-0.13,1.59-0.18c1.4-0.15,2.8-0.3,4.2-0.44
		c0.06-0.01,0.12-0.02,0.19-0.02c0.29-0.01,0.36,0.04,0.37,0.34c0.01,0.44,0,0.88,0,1.31c0,0.09,0,0.18,0,0.37
		c0.16-0.1,0.28-0.15,0.38-0.23c0.76-0.56,1.55-1.06,2.43-1.39c0.95-0.36,1.93-0.53,2.94-0.35c1.48,0.26,2.37,1.25,2.5,2.75
		c0.03,0.31,0.03,0.62,0.03,0.94c0,2.53,0,5.07,0,7.6c0,0.33,0.02,0.66,0.04,0.98c0.02,0.32,0.18,0.53,0.48,0.62
		c0.34,0.1,0.69,0.19,1.04,0.28C127.13,82.32,127.13,82.48,127.13,82.63z"/>
	<path class="st8" d="M53.6,61.28c-0.04-0.07-0.06-0.08-0.06-0.09c-0.07-1.07-0.71-1.69-1.63-2.1c-0.46-0.2-0.92-0.39-1.38-0.59
		c-0.43-0.19-0.84-0.43-1.14-0.8c-0.09-0.11-0.17-0.28-0.16-0.41c0.03-0.61-0.11-1.18-0.33-1.74c-0.14-0.36-0.31-0.72-0.4-1.1
		c-0.1-0.37-0.14-0.76-0.18-1.15c-0.04-0.39,0.1-0.74,0.32-1.06c0.17-0.25,0.34-0.49,0.49-0.74c0.27-0.45,0.24-0.9-0.09-1.31
		c-0.18-0.23-0.39-0.45-0.6-0.66c-0.29-0.29-0.46-0.63-0.44-1.05c0.02-0.39-0.07-0.74-0.3-1.06c-0.18-0.24-0.15-0.51-0.08-0.77
		c0.09-0.32,0.03-0.61-0.07-0.91c-0.12-0.35-0.18-0.72-0.24-1.09c-0.04-0.26-0.03-0.53-0.02-0.8c0-0.83-0.33-1.49-0.97-1.99
		c-0.37-0.29-0.75-0.56-1.15-0.81c-0.66-0.4-1.28-0.85-1.8-1.42c-0.27-0.29-0.58-0.52-0.96-0.65c-0.5-0.18-0.79-0.55-0.94-1.04
		c-0.09-0.28-0.19-0.56-0.26-0.85c-0.14-0.55-0.47-0.96-0.97-1.2c-0.43-0.21-0.89-0.38-1.34-0.56c-0.41-0.16-0.82-0.3-1.22-0.47
		c-0.45-0.2-0.84-0.5-1.06-0.95c-0.09-0.17-0.2-0.22-0.37-0.22c-0.95-0.05-1.68-0.51-2.33-1.17c-0.51-0.51-1.04-0.99-1.6-1.52
		c0.27-1.1,0.24-2.3,0.19-3.51c-0.05-1.17-0.09-2.35,0.14-3.51c0.1-0.51,0.25-0.99,0.64-1.38c0.33-0.33,0.3-0.75,0.15-1.14
		c-0.29-0.78-0.91-1.16-1.69-1.32c-0.12-0.02-0.25-0.02-0.41-0.04c-0.11-0.55-0.03-1.08,0.21-1.58c0.08-0.17,0.18-0.34,0.31-0.47
		c0.43-0.46,0.77-0.95,0.91-1.59c0.12-0.57,0.55-0.97,1.09-1.22c0.31-0.14,0.64-0.26,0.96-0.38c0.38-0.15,0.76-0.31,1.01-0.65
		c0.13-0.17,0.3-0.13,0.46-0.15c0.16-0.02,0.41-0.01,0.47-0.11c0.16-0.25,0.46-0.42,0.43-0.79c-0.04-0.45-0.01-0.91-0.01-1.36
		c0-1.89,0-3.79,0-5.68c0-0.15,0-0.31,0-0.52c0.7-0.04,1.13-0.47,1.49-1.14c0.1,0.29,0.15,0.46,0.23,0.68
		c0.14-0.12,0.26-0.22,0.41-0.36c0.28,0.11,0.59,0.23,0.88,0.36c0.84,0.36,1.67,0.34,2.49-0.1c0.29-0.15,0.58-0.32,0.89-0.41
		c0.36-0.1,0.74-0.17,1.1-0.15c0.76,0.03,1.42-0.18,2.02-0.62c0.14-0.1,0.28-0.2,0.42-0.3c0.3-0.25,0.61-0.4,1.02-0.34
		c0.45,0.06,0.86-0.13,1.24-0.35c0.41-0.23,0.81-0.48,1.21-0.71c0.58-0.32,1.15-0.35,1.72,0.04c0.18,0.13,0.28,0.27,0.26,0.5
		c-0.03,0.47-0.15,0.89-0.5,1.23c-0.08,0.08-0.17,0.2-0.17,0.3c-0.04,0.77-0.32,1.43-0.82,2c-0.02,0.02-0.01,0.06-0.02,0.11
		c0.82,0.12,1.34-0.46,1.97-0.84c0.11,0.07,0.22,0.13,0.32,0.19c1.37,0.9,2.83,1.6,4.38,2.1c0.23,0.07,0.35,0.19,0.45,0.41
		c0.24,0.56,0.53,1.1,0.77,1.65c0.09,0.2,0.26,0.22,0.41,0.26c1.25,0.33,2.51,0.66,3.76,0.98c1.6,0.41,3.21,0.82,4.82,1.22
		c0.8,0.2,1.54,0.51,2.24,0.93c0.39,0.23,0.79,0.44,1.21,0.62c0.68,0.31,1.4,0.46,2.15,0.32c0.59-0.11,1.15-0.02,1.7,0.17
		c0.41,0.14,0.82,0.3,1.24,0.42c0.48,0.14,0.96,0.27,1.45,0.38c0.38,0.09,0.47,0.15,0.53,0.53c0.04,0.28,0.04,0.56,0.08,0.84
		c0.07,0.53,0.13,0.6,0.64,0.72c0.33,0.08,0.67,0.14,1.01,0.22c0.21,0.05,0.42,0.12,0.62,0.21c0.34,0.15,0.61,0.37,0.6,0.8
		c-0.01,0.64,0.02,1.28,0.01,1.92c-0.01,0.73-0.04,1.47-0.05,2.2c0,0.15,0.04,0.3,0.06,0.48c0.52,0,1,0,1.5,0
		c-0.01,0.44-0.19,0.78-0.38,1.12c-0.15,0.27-0.19,0.53-0.06,0.8c0.21,0.43,0.44,0.86,0.68,1.28c0.31,0.53,0.41,1.07,0.18,1.67
		c-0.1,0.02-0.21,0.05-0.31,0.06c-0.53,0.08-0.92,0.36-1.23,0.79c-0.55,0.78-1.11,1.55-1.65,2.34c-0.33,0.49-0.51,1.04-0.54,1.63
		c-0.02,0.45,0.08,0.87,0.54,1.16c0.15-0.2,0.28-0.38,0.42-0.56c0.36-0.47,0.76-0.86,1.32-1.09c0.11-0.05,0.21-0.17,0.28-0.28
		c0.45-0.67,0.89-1.36,1.35-2.03c0.06-0.09,0.19-0.15,0.3-0.19c0.15-0.05,0.31-0.07,0.45-0.12c0.45-0.16,0.9-0.3,1.37,0.04
		c0-0.84,0.33-1.49,0.75-2.11c0.43-0.63,0.78-1.28,0.78-2.11c0.32-0.09,0.63-0.18,0.95-0.25c0.19-0.04,0.31-0.13,0.36-0.32
		c0.07-0.27,0.14-0.54,0.22-0.84c0.34-0.05,0.69-0.1,1.03-0.15c0.13,0.36,0.1,0.64-0.1,0.89c-0.34,0.43-0.6,0.87-0.48,1.46
		c0.02,0.09-0.08,0.23-0.16,0.32c-0.18,0.22-0.37,0.43-0.56,0.63c-0.43,0.48-0.72,1.02-0.78,1.67c-0.01,0.17-0.06,0.29-0.19,0.4
		c-0.52,0.41-0.83,0.97-1.04,1.59c-0.14,0.4-0.26,0.8-0.38,1.21c-0.15,0.52-0.38,0.99-0.77,1.38c-0.36,0.36-0.53,0.81-0.56,1.3
		c-0.03,0.53-0.05,1.06-0.06,1.59c-0.01,0.44,0.01,0.88-0.01,1.31c-0.04,0.9-0.32,1.64-1.32,1.86c-0.3,1.12-0.61,2.22-0.65,3.37
		c-0.02,0.51,0.04,1.03,0.13,1.53c0.08,0.48,0.05,0.9-0.26,1.28c-0.38,0.45-0.52,1-0.52,1.57c0,0.72-0.21,1.35-0.64,1.92
		c-0.3,0.4-0.52,0.85-0.51,1.38c-0.36-0.19-8.76-8.51-9.67-9.57c2.31-3.12,3.12-6.59,2.2-10.4c-0.73-3-2.41-5.37-4.95-7.11
		c-5.04-3.46-11.87-2.59-15.93,2c-4.07,4.6-4.07,11.46,0.01,16.08c4.02,4.56,11.14,5.66,16.56,1.53c0.08,0.07,0.18,0.15,0.26,0.23
		c3.87,3.87,7.75,7.74,11.62,11.62C81.9,55.88,82.1,57,82,58.19c-0.04,0.43-0.18,0.86-0.22,1.29c-0.07,0.62-0.09,1.24-0.14,1.9
		C72.31,61.45,62.96,61.22,53.6,61.28z"/>
	<path class="st9" d="M52.44,33.57c-0.05-4.77,3.81-9.22,9.22-9.21c5.28,0.01,9.21,4.31,9.2,9.24c-0.01,4.82-3.86,9.21-9.26,9.18
		C56.22,42.76,52.39,38.34,52.44,33.57z"/>
	<path class="st6" d="M52.8,86.88c0.07,0.27,0.01,0.41-0.26,0.46c-0.69,0.14-1.13,0.58-1.41,1.19c-0.21,0.45-0.4,0.92-0.56,1.39
		c-1.6,4.79-3.19,9.58-4.78,14.36c-0.05,0.15-0.1,0.29-0.16,0.46c-0.88,0-1.75,0-2.68,0c-1.13-3.51-2.27-7.04-3.41-10.57
		c-0.71,1.74-1.28,3.51-1.88,5.27c-0.6,1.76-1.19,3.52-1.79,5.3c-0.94,0-1.87,0-2.83,0c-0.36-1-0.71-2-1.07-3
		c-1.47-4.15-2.95-8.3-4.43-12.45c-0.12-0.34-0.26-0.67-0.4-1c-0.23-0.55-0.63-0.88-1.23-0.96c-0.12-0.02-0.24-0.05-0.39-0.09
		c-0.01-0.13-0.02-0.24-0.03-0.38c3.09,0,6.15,0,9.21,0c0.09,0.25,0.05,0.4-0.22,0.46c-0.2,0.04-0.4,0.1-0.58,0.17
		c-0.57,0.21-0.79,0.57-0.7,1.17c0.07,0.43,0.18,0.86,0.32,1.27c0.8,2.37,1.62,4.73,2.43,7.09c0.2,0.59,0.41,1.18,0.61,1.77
		c0.04,0.13,0.1,0.25,0.19,0.46c0.08-0.21,0.14-0.33,0.18-0.46c0.65-1.94,1.3-3.88,1.96-5.82c0.08-0.24,0.1-0.47,0.02-0.72
		c-0.36-1.05-0.69-2.11-1.03-3.16c-0.08-0.25-0.18-0.5-0.29-0.74c-0.22-0.48-0.57-0.81-1.09-0.95c-0.15-0.04-0.3-0.1-0.47-0.15
		c-0.01-0.12-0.02-0.24-0.03-0.39c3.04,0,6.05,0,9.11,0c0.01,0.11,0.01,0.23,0.02,0.38c-0.25,0.06-0.49,0.12-0.73,0.18
		c-0.78,0.18-1.03,0.49-0.97,1.29c0.03,0.36,0.1,0.71,0.2,1.05c0.94,3.06,1.88,6.12,2.83,9.18c0.02,0.07,0.07,0.14,0.12,0.25
		c0.06-0.16,0.11-0.27,0.14-0.39c0.87-2.81,1.74-5.61,2.6-8.42c0.18-0.6,0.34-1.2,0.33-1.84c-0.01-0.63-0.25-0.95-0.86-1.12
		c-0.3-0.08-0.61-0.13-0.93-0.2c-0.01-0.13-0.01-0.23-0.02-0.37C49.51,86.88,51.14,86.88,52.8,86.88z"/>
	<path class="st6" d="M87.34,85.75c1.09-0.1,2.16-0.2,3.24-0.3c0.93-0.08,1.87-0.16,2.8-0.25c0.48-0.04,0.53,0.02,0.52,0.5
		c-0.03,2.24-0.05,4.47-0.08,6.71c0,0.09,0.02,0.17,0.04,0.32c0.2-0.13,0.35-0.23,0.5-0.33c1.07-0.73,2.22-1.29,3.52-1.46
		c0.61-0.08,1.22-0.1,1.82,0.03c1.28,0.27,2.1,1.11,2.33,2.39c0.06,0.37,0.09,0.75,0.09,1.12c0.01,2.77,0,5.54,0.01,8.31
		c0,1.08,0.08,1.17,1.12,1.45c0.15,0.04,0.3,0.08,0.46,0.13c0,0.13,0,0.25,0,0.4c-2.57,0-5.14,0-7.73,0
		c-0.01-0.13-0.01-0.24-0.02-0.38c0.29-0.08,0.55-0.16,0.82-0.23c0.33-0.09,0.5-0.31,0.53-0.64c0.02-0.14,0.02-0.28,0.02-0.42
		c0-2.63,0-5.26,0-7.88c0-0.28-0.04-0.56-0.1-0.84c-0.15-0.65-0.56-1-1.22-1.03c-0.72-0.04-1.44,0-2.16,0.22
		c-0.01,0.11-0.04,0.21-0.04,0.32c0,2.99,0,5.98,0,8.96c0,0.23,0.02,0.47,0.03,0.7c0.02,0.3,0.18,0.5,0.46,0.59
		c0.27,0.09,0.54,0.16,0.84,0.24c0,0.12,0,0.25,0,0.39c-2.58,0-5.14,0-7.72,0c0-0.14,0-0.26,0-0.39c0.33-0.1,0.64-0.19,0.95-0.28
		c0.4-0.12,0.59-0.39,0.59-0.8c0-0.22,0.01-0.44,0.01-0.66c0-4.77,0-9.54,0-14.32c0-0.23-0.01-0.47-0.01-0.7
		c0-0.48-0.21-0.84-0.65-1.05c-0.27-0.13-0.54-0.25-0.81-0.36C87.34,86.12,87.26,86,87.34,85.75z"/>
	<path class="st10" d="M75.78,82.59c0-0.12,0-0.24,0-0.38c0.3-0.09,0.6-0.18,0.9-0.27c0.39-0.12,0.6-0.38,0.59-0.8
		c0-0.2,0.01-0.41,0.01-0.61c0-2.82-0.02-5.63,0.01-8.44c0.01-0.8-0.18-1.4-0.93-1.77c-0.19-0.1-0.37-0.24-0.53-0.38
		c-0.08-0.07-0.14-0.18-0.27-0.35c0.58-0.07,1.05-0.13,1.53-0.18c1.43-0.15,2.86-0.3,4.29-0.45c0.48-0.05,0.53-0.01,0.53,0.5
		c0,0.48,0,0.96,0,1.53c0.2-0.14,0.33-0.21,0.45-0.3c0.88-0.64,1.8-1.19,2.85-1.5c0.84-0.24,1.68-0.34,2.55-0.17
		c1.31,0.25,2.16,1.13,2.36,2.46c0.05,0.35,0.08,0.72,0.08,1.07c0.01,2.72,0,5.44,0.01,8.16c0,1,0.08,1.1,1.04,1.36
		c0.16,0.05,0.33,0.09,0.51,0.14c0,0.13,0,0.25,0,0.39c-2.53,0-5.05,0-7.59,0c0-0.13,0-0.25,0-0.38c0.27-0.08,0.54-0.15,0.81-0.24
		c0.28-0.09,0.45-0.27,0.48-0.57c0.02-0.22,0.05-0.44,0.05-0.65c0-2.49,0-4.97,0-7.46c0-0.28-0.03-0.56-0.08-0.84
		c-0.12-0.6-0.47-0.93-1.07-1.01c-0.77-0.11-1.52,0.02-2.3,0.16c-0.01,0.16-0.02,0.29-0.02,0.43c0,2.88,0,5.76,0,8.63
		c0,0.2,0.01,0.41,0.02,0.61c0,0.4,0.2,0.64,0.59,0.74c0.23,0.06,0.45,0.12,0.71,0.2c0.01,0.11,0.02,0.23,0.03,0.38
		C80.83,82.59,78.32,82.59,75.78,82.59z"/>
	<path class="st6" d="M55.18,105.08c-0.38,0-0.75,0-1.13,0c-0.36-0.09-0.74-0.15-1.09-0.27c-1.51-0.5-2.18-1.8-2.06-3.29
		c0.09-1.1,0.66-1.9,1.6-2.44c0.7-0.4,1.46-0.64,2.23-0.85c1.04-0.29,2.08-0.56,3.12-0.84c0.07-0.02,0.15-0.04,0.23-0.07
		c0.01-0.09,0.02-0.17,0.02-0.24c0-1.09,0.01-2.19-0.02-3.28c-0.01-0.43-0.07-0.88-0.19-1.29c-0.22-0.79-1.1-1.15-1.85-0.8
		c-0.25,0.12-0.37,0.33-0.41,0.59c-0.06,0.43-0.1,0.87-0.16,1.3c-0.21,1.33-0.79,1.81-2.13,1.76c-0.17-0.01-0.34-0.02-0.51-0.05
		c-0.96-0.14-1.48-0.84-1.36-1.8c0.08-0.63,0.37-1.14,0.89-1.48c0.39-0.26,0.81-0.5,1.25-0.63c2.17-0.63,4.37-0.7,6.58-0.23
		c0.2,0.04,0.39,0.11,0.58,0.19c1.4,0.54,2.12,1.55,2.13,3.05c0.01,2.38,0,4.75,0.01,7.13c0,0.36,0.03,0.72,0.06,1.08
		c0.04,0.54,0.35,0.85,0.87,0.97c0.26,0.06,0.52,0.1,0.79,0.16c0.12,0.22,0.03,0.36-0.17,0.49c-0.6,0.38-1.25,0.64-1.95,0.76
		c-0.15,0.03-0.31,0.06-0.46,0.09c-0.44,0-0.87,0-1.31,0c-0.23-0.05-0.46-0.1-0.68-0.16c-0.73-0.2-1.29-0.62-1.6-1.33
		c-0.02-0.06-0.06-0.11-0.11-0.18c-0.08,0.07-0.15,0.12-0.21,0.19c-0.72,0.8-1.6,1.28-2.67,1.43
		C55.37,105.04,55.28,105.06,55.18,105.08z M58.09,98.36c-0.43,0.05-0.8,0.08-1.17,0.15c-0.55,0.1-0.97,0.4-1.13,0.94
		c-0.3,0.98-0.31,1.98,0.04,2.95c0.29,0.8,1.15,1.09,1.89,0.68c0.26-0.15,0.41-0.34,0.4-0.67c-0.02-1.24-0.01-2.47-0.01-3.71
		C58.1,98.6,58.09,98.51,58.09,98.36z"/>
	<path class="st6" d="M75.53,75.93c-0.03,0.79-0.12,1.56-0.34,2.32c-0.55,1.91-1.72,3.29-3.56,4.03c-2.25,0.91-4.53,0.9-6.75-0.11
		c-2.11-0.96-3.25-2.67-3.59-4.93c-0.17-1.14-0.12-2.28,0.16-3.4c0.54-2.15,1.84-3.64,3.91-4.39c2.18-0.79,4.37-0.75,6.48,0.22
		c2,0.92,3.14,2.52,3.52,4.67C75.47,74.87,75.48,75.4,75.53,75.93z M66.08,76.36c0.04,0.65,0.08,1.82,0.2,2.98
		c0.06,0.57,0.21,1.13,0.38,1.69c0.12,0.41,0.37,0.76,0.77,0.97c1.07,0.58,2.3,0.14,2.68-1.01c0.2-0.6,0.31-1.24,0.38-1.88
		c0.18-1.65,0.14-3.31,0.08-4.97c-0.02-0.65-0.08-1.31-0.2-1.96c-0.1-0.55-0.26-1.1-0.47-1.61c-0.28-0.68-0.86-0.96-1.58-0.96
		c-0.71,0-1.25,0.3-1.53,0.96c-0.18,0.43-0.33,0.88-0.42,1.34C66.11,73.2,66.11,74.52,66.08,76.36z"/>
	<path class="st6" d="M82.05,105.07c-0.5,0-1,0-1.5,0c-0.46-0.09-0.93-0.15-1.38-0.27c-1.97-0.53-3.32-1.75-4-3.68
		c-0.6-1.73-0.65-3.5-0.13-5.26c0.56-1.91,1.82-3.26,3.61-4.1c1.93-0.91,3.96-1.09,6.05-0.67c0.49,0.1,0.96,0.28,1.38,0.57
		c0.89,0.61,1.27,1.71,0.92,2.73c-0.18,0.53-0.56,0.86-1.08,1.02c-0.49,0.15-0.99,0.14-1.49,0.06c-0.65-0.1-1.09-0.47-1.27-1.1
		c-0.12-0.43-0.18-0.89-0.26-1.33c-0.05-0.28-0.06-0.56-0.12-0.84c-0.08-0.36-0.25-0.51-0.62-0.53c-0.75-0.05-1.34,0.23-1.77,0.85
		c-0.31,0.44-0.48,0.95-0.6,1.47c-0.3,1.39-0.35,2.79-0.23,4.2c0.06,0.7,0.15,1.4,0.33,2.08c0.43,1.58,1.5,2.38,3.14,2.48
		c1.26,0.08,2.46-0.15,3.6-0.68c0.08-0.04,0.17-0.07,0.25-0.11c0.13,0.29,0,0.49-0.17,0.69c-1.12,1.26-2.51,2.04-4.17,2.35
		C82.38,105.01,82.22,105.04,82.05,105.07z"/>
	<path class="st11" d="M92.56,82.37c-0.05-1.43-0.1-2.83-0.15-4.23c0.44-0.1,0.44-0.1,0.62,0.22c0.56,0.98,1.15,1.93,1.87,2.8
		c0.77,0.94,1.77,1.18,2.91,0.92c0.73-0.17,1.15-0.66,1.27-1.4c0.11-0.72-0.08-1.32-0.72-1.7c-0.47-0.28-0.96-0.52-1.46-0.74
		c-0.45-0.21-0.93-0.36-1.39-0.56c-0.4-0.18-0.79-0.38-1.17-0.59c-2.89-1.66-2.43-5.55-0.23-7.07c0.74-0.51,1.54-0.83,2.42-0.96
		c1.6-0.25,3.18-0.12,4.74,0.27c0.1,0.03,0.2,0.07,0.33,0.12c0.05,1.21,0.1,2.41,0.15,3.61c-0.27,0.13-0.43,0.05-0.57-0.17
		c-0.31-0.47-0.6-0.95-0.95-1.4c-0.35-0.44-0.72-0.87-1.13-1.25c-0.71-0.65-1.57-0.72-2.46-0.46c-0.59,0.17-0.96,0.59-1.06,1.2
		c-0.1,0.61,0.04,1.17,0.57,1.54c0.36,0.25,0.74,0.46,1.14,0.64c0.63,0.28,1.29,0.47,1.91,0.76c0.65,0.31,1.29,0.64,1.88,1.04
		c0.98,0.68,1.48,1.65,1.55,2.86c0.11,2.17-0.97,3.86-3.01,4.63c-0.68,0.26-1.38,0.4-2.1,0.44c-1.6,0.09-3.19-0.03-4.74-0.44
		C92.73,82.43,92.67,82.41,92.56,82.37z"/>
	<path class="st11" d="M46.41,69.45c0.01,0.1,0.02,0.19,0.03,0.28c0.04,1.11,0.09,2.21,0.13,3.32c-0.28,0.14-0.43,0.04-0.56-0.18
		c-0.29-0.45-0.56-0.9-0.89-1.32c-0.36-0.45-0.73-0.9-1.15-1.29c-0.72-0.67-1.59-0.75-2.5-0.48c-0.57,0.17-0.93,0.56-1.04,1.16
		c-0.11,0.61,0,1.17,0.53,1.55c0.35,0.25,0.74,0.47,1.14,0.65c0.55,0.25,1.15,0.42,1.7,0.67c0.68,0.31,1.36,0.63,1.99,1.04
		c1.37,0.9,1.85,2.23,1.67,3.82c-0.23,2.01-1.4,3.24-3.27,3.87c-1.26,0.42-2.55,0.43-3.85,0.34c-0.92-0.06-1.84-0.18-2.73-0.44
		c-0.06-0.02-0.11-0.04-0.22-0.08c-0.05-1.41-0.1-2.82-0.15-4.23c0.44-0.08,0.44-0.08,0.62,0.23c0.57,0.99,1.17,1.96,1.91,2.84
		c0.77,0.91,1.77,1.13,2.88,0.87c0.71-0.16,1.13-0.65,1.25-1.36c0.12-0.72-0.06-1.36-0.73-1.74c-0.54-0.31-1.11-0.57-1.68-0.83
		c-0.38-0.18-0.79-0.3-1.17-0.47c-0.41-0.19-0.82-0.38-1.21-0.62c-2.17-1.37-2.64-4.18-1.05-6.2c0.66-0.84,1.54-1.36,2.57-1.63
		c1.86-0.49,3.72-0.34,5.56,0.14C46.26,69.37,46.33,69.41,46.41,69.45z"/>
	<path class="st6" d="M60.32,79.84c0.11,0.31-0.04,0.51-0.21,0.7c-1.09,1.22-2.44,1.98-4.05,2.27c-1.12,0.2-2.24,0.13-3.35-0.17
		c-1.98-0.53-3.32-1.77-3.98-3.7c-0.54-1.59-0.59-3.22-0.18-4.85c0.42-1.65,1.36-2.95,2.81-3.84c2.19-1.34,4.56-1.64,7.04-1.04
		c0.34,0.08,0.68,0.24,0.99,0.42c0.94,0.56,1.34,1.63,1.04,2.68c-0.17,0.59-0.59,0.95-1.17,1.1c-0.51,0.13-1.03,0.12-1.54,0.01
		c-0.49-0.11-0.86-0.4-1.02-0.88c-0.14-0.41-0.21-0.84-0.29-1.27c-0.06-0.34-0.07-0.69-0.14-1.02c-0.08-0.39-0.25-0.53-0.65-0.55
		c-0.77-0.04-1.36,0.28-1.77,0.94c-0.33,0.53-0.51,1.11-0.6,1.71c-0.28,1.79-0.29,3.58,0.05,5.36c0.02,0.12,0.06,0.24,0.09,0.36
		c0.45,1.59,1.41,2.37,3.05,2.52c1.2,0.1,2.33-0.1,3.43-0.57c0.13-0.06,0.26-0.11,0.38-0.17C60.27,79.84,60.29,79.84,60.32,79.84z"
		/>
	<path class="st6" d="M70.68,105.08c-0.47,0-0.94-0.01-1.41-0.01c-0.2-0.03-0.4-0.07-0.6-0.11c-1.46-0.29-2.32-1.24-2.49-2.78
		c-0.05-0.42-0.07-0.84-0.07-1.26c-0.01-2.6,0-5.19,0-7.79c0-0.17,0-0.34,0-0.55c-0.48,0-0.93,0-1.35,0
		c-0.18-0.28-0.02-0.37,0.17-0.44c0.79-0.31,1.51-0.75,2.18-1.27c1.1-0.86,1.99-1.89,2.6-3.17c0.38,0,0.75,0,1.17,0
		c0,1.15,0,2.29,0,3.49c1.08,0,2.1,0,3.15,0c0.05,0.5-0.09,0.92-0.12,1.39c-1.02,0-1.99,0-2.98,0c-0.01,0.15-0.03,0.27-0.03,0.39
		c0,2.72,0,5.44,0,8.17c0,0.28,0.03,0.56,0.06,0.84c0.09,0.65,0.42,0.97,1.08,1.03c0.67,0.07,1.34,0.01,2-0.14
		c0.06-0.01,0.12-0.02,0.19-0.03c0.13,0.26,0.03,0.44-0.15,0.63c-0.78,0.82-1.73,1.33-2.84,1.53
		C71.05,105.01,70.87,105.05,70.68,105.08z"/>
	<path class="st6" d="M103.04,69.57c0.42-0.05,0.83-0.1,1.25-0.14c1.59-0.16,3.17-0.32,4.76-0.48c0.4-0.04,0.45,0.02,0.44,0.44
		c-0.03,3.75-0.06,7.5-0.08,11.25c0,0.19,0.03,0.37,0.03,0.56c0.01,0.41,0.24,0.63,0.6,0.74c0.3,0.09,0.6,0.17,0.91,0.27
		c0,0.13,0,0.25,0,0.39c-2.59,0-5.17,0-7.76,0c0-0.14,0-0.26,0-0.39c0.3-0.09,0.58-0.17,0.86-0.25c0.41-0.12,0.62-0.39,0.63-0.82
		c0-0.19,0.01-0.38,0.01-0.56c0-2.8,0-5.6,0-8.39c0-0.22,0-0.44-0.01-0.66c-0.01-0.35-0.15-0.64-0.43-0.85
		c-0.31-0.23-0.64-0.45-0.95-0.69c-0.11-0.09-0.21-0.19-0.32-0.29C103,69.65,103.02,69.61,103.04,69.57z"/>
	<path class="st6" d="M36.54,82.21c0,0.13,0,0.25,0,0.39c-2.59,0-5.15,0-7.74,0c-0.01-0.12-0.02-0.24-0.03-0.38
		c0.3-0.09,0.58-0.17,0.86-0.25c0.44-0.12,0.64-0.41,0.65-0.86c0-0.17,0.01-0.34,0.01-0.52c0-2.82,0-5.63,0-8.45
		c0-0.17,0-0.34-0.01-0.52c-0.01-0.43-0.18-0.78-0.55-1.03c-0.31-0.21-0.62-0.43-0.92-0.65c-0.09-0.07-0.16-0.16-0.3-0.31
		c0.22-0.05,0.34-0.1,0.47-0.11c1.88-0.19,3.77-0.39,5.65-0.57c0.4-0.04,0.45,0.02,0.45,0.44c-0.03,3.75-0.06,7.51-0.08,11.26
		c-0.01,1.06,0.08,1.15,1.08,1.43C36.23,82.12,36.38,82.16,36.54,82.21z"/>
	<path class="st10" d="M32.58,63.51c0.22,0.04,0.51,0.07,0.77,0.15c0.96,0.29,1.53,1.09,1.52,2.06c-0.01,0.98-0.6,1.75-1.57,2.03
		c-0.52,0.15-1.05,0.15-1.57,0c-1.03-0.31-1.61-1.13-1.55-2.22c0.05-0.97,0.78-1.77,1.78-1.95C32.16,63.55,32.34,63.54,32.58,63.51z
		"/>
	<path class="st10" d="M109.29,65.7c0,0.94-0.53,1.69-1.41,2c-0.58,0.2-1.16,0.22-1.75,0.04c-1.01-0.32-1.59-1.15-1.53-2.19
		c0.05-0.97,0.78-1.78,1.77-1.97c0.52-0.1,1.03-0.08,1.52,0.11C108.77,64.01,109.29,64.77,109.29,65.7z"/>
</g>
</svg>
