<?xml version="1.0" encoding="utf-8"?>
<!-- Generator: Adobe Illustrator 25.0.1, SVG Export Plug-In . SVG Version: 6.00 Build 0)  -->
<svg version="1.1" id="Layer_1" xmlns="http://www.w3.org/2000/svg" xmlns:xlink="http://www.w3.org/1999/xlink" x="0px" y="0px"
	 viewBox="0 0 149.84 31.86" style="enable-background:new 0 0 149.84 31.86;" xml:space="preserve">
<style type="text/css">
	.st0{fill:#D1BBFD;}
	.st1{fill:#434343;}
	.st2{fill:#069CFE;}
	.st3{fill:#1A75BB;}
	.st4{fill:#BBBCBE;}
	.st5{fill:#F9FCFC;}
	.st6{fill:#243266;}
	.st7{fill:#243267;}
	.st8{fill:#233165;}
	.st9{fill:#3190C9;}
	.st10{fill:#253367;}
	.st11{fill:#253267;}
</style>
<g>
	<g>
		<path class="st0" d="M19.42,27.19l-3.13-10c-0.2-0.61-0.56-2-1.1-4.17h-0.12c-0.41,1.82-0.78,3.22-1.09,4.2l-3.22,9.97H7.77
			L3.11,10.14h2.71c1.1,4.28,1.94,7.55,2.51,9.79c0.58,2.24,0.9,3.75,0.99,4.53h0.12c0.11-0.59,0.3-1.36,0.55-2.29
			c0.25-0.94,0.47-1.68,0.66-2.23l3.13-9.79h2.8l3.05,9.79c0.58,1.78,0.98,3.28,1.18,4.5h0.12c0.04-0.37,0.15-0.95,0.33-1.73
			c0.18-0.78,1.26-4.96,3.25-12.55h2.68l-4.72,17.05H19.42z"/>
		<path class="st0" d="M30.06,5.52c0-0.59,0.15-1.02,0.44-1.3c0.29-0.27,0.65-0.41,1.09-0.41c0.41,0,0.77,0.14,1.07,0.42
			c0.3,0.28,0.45,0.71,0.45,1.29c0,0.58-0.15,1.01-0.45,1.3C32.36,7.1,32,7.25,31.58,7.25c-0.44,0-0.8-0.14-1.09-0.43
			C30.2,6.53,30.06,6.1,30.06,5.52z M32.86,27.19h-2.58V10.14h2.58V27.19z"/>
		<path class="st0" d="M49.33,22.54c0,1.59-0.59,2.81-1.77,3.67c-1.18,0.86-2.84,1.29-4.98,1.29c-2.26,0-4.02-0.36-5.29-1.07v-2.4
			c0.82,0.42,1.7,0.74,2.64,0.98c0.94,0.24,1.84,0.36,2.72,0.36c1.35,0,2.38-0.22,3.11-0.65c0.73-0.43,1.09-1.09,1.09-1.97
			c0-0.66-0.29-1.23-0.86-1.7c-0.58-0.47-1.7-1.03-3.37-1.67c-1.59-0.59-2.71-1.11-3.38-1.55s-1.17-0.94-1.49-1.5
			c-0.33-0.56-0.49-1.23-0.49-2.01c0-1.39,0.56-2.49,1.7-3.29c1.13-0.8,2.68-1.2,4.65-1.2c1.84,0,3.63,0.37,5.38,1.12l-0.92,2.1
			c-1.71-0.71-3.26-1.06-4.65-1.06c-1.22,0-2.15,0.19-2.77,0.58c-0.62,0.38-0.93,0.91-0.93,1.59c0,0.46,0.12,0.85,0.35,1.17
			c0.23,0.32,0.61,0.63,1.13,0.92c0.52,0.29,1.52,0.71,2.99,1.26c2.02,0.74,3.39,1.48,4.1,2.22C48.98,20.47,49.33,21.41,49.33,22.54
			z"/>
		<path class="st0" d="M60.35,27.5c-2.47,0-4.38-0.76-5.73-2.28c-1.35-1.52-2.03-3.67-2.03-6.45c0-2.85,0.69-5.06,2.06-6.61
			c1.38-1.56,3.33-2.33,5.87-2.33c0.82,0,1.64,0.09,2.46,0.26c0.82,0.18,1.46,0.38,1.93,0.62l-0.79,2.19
			c-0.57-0.23-1.19-0.42-1.87-0.57c-0.68-0.15-1.27-0.23-1.79-0.23c-3.46,0-5.2,2.21-5.2,6.63c0,2.1,0.42,3.7,1.27,4.82
			c0.84,1.12,2.1,1.68,3.76,1.68c1.42,0,2.88-0.31,4.37-0.92v2.29C63.52,27.21,62.08,27.5,60.35,27.5z"/>
		<path class="st0" d="M83.42,18.65c0,2.78-0.7,4.95-2.1,6.51c-1.4,1.56-3.34,2.34-5.8,2.34c-1.52,0-2.88-0.36-4.06-1.07
			c-1.18-0.72-2.1-1.74-2.74-3.08c-0.64-1.34-0.96-2.9-0.96-4.7c0-2.78,0.69-4.94,2.08-6.49c1.39-1.55,3.32-2.33,5.79-2.33
			c2.39,0,4.28,0.79,5.69,2.38C82.72,13.8,83.42,15.94,83.42,18.65z M70.43,18.65c0,2.18,0.44,3.84,1.31,4.98
			c0.87,1.14,2.15,1.71,3.84,1.71c1.69,0,2.97-0.57,3.85-1.7s1.31-2.8,1.31-4.99c0-2.17-0.44-3.81-1.31-4.94
			c-0.88-1.13-2.17-1.69-3.88-1.69c-1.69,0-2.97,0.56-3.83,1.66C70.86,14.8,70.43,16.45,70.43,18.65z"/>
		<path class="st0" d="M99.62,27.19V16.16c0-1.39-0.32-2.43-0.95-3.11c-0.63-0.68-1.62-1.03-2.97-1.03c-1.78,0-3.09,0.48-3.92,1.45
			c-0.83,0.96-1.24,2.56-1.24,4.78v8.95h-2.58V10.14h2.1l0.42,2.33h0.12c0.53-0.84,1.27-1.49,2.22-1.95
			c0.95-0.46,2.02-0.69,3.19-0.69c2.05,0,3.6,0.49,4.64,1.49c1.04,0.99,1.56,2.57,1.56,4.75v11.12H99.62z"/>
		<path class="st0" d="M118.5,22.54c0,1.59-0.59,2.81-1.77,3.67c-1.18,0.86-2.84,1.29-4.98,1.29c-2.26,0-4.02-0.36-5.29-1.07v-2.4
			c0.82,0.42,1.7,0.74,2.64,0.98c0.94,0.24,1.84,0.36,2.71,0.36c1.35,0,2.39-0.22,3.11-0.65s1.09-1.09,1.09-1.97
			c0-0.66-0.29-1.23-0.86-1.7c-0.58-0.47-1.7-1.03-3.37-1.67c-1.59-0.59-2.71-1.11-3.38-1.55c-0.67-0.44-1.17-0.94-1.49-1.5
			c-0.33-0.56-0.49-1.23-0.49-2.01c0-1.39,0.57-2.49,1.7-3.29c1.13-0.8,2.68-1.2,4.65-1.2c1.84,0,3.63,0.37,5.38,1.12l-0.92,2.1
			c-1.71-0.71-3.26-1.06-4.65-1.06c-1.22,0-2.15,0.19-2.77,0.58c-0.62,0.38-0.93,0.91-0.93,1.59c0,0.46,0.12,0.85,0.35,1.17
			c0.23,0.32,0.61,0.63,1.13,0.92c0.52,0.29,1.51,0.71,2.99,1.26c2.02,0.74,3.39,1.48,4.1,2.22
			C118.15,20.47,118.5,21.41,118.5,22.54z"/>
		<path class="st0" d="M122.49,5.52c0-0.59,0.15-1.02,0.44-1.3c0.29-0.27,0.65-0.41,1.09-0.41c0.41,0,0.77,0.14,1.07,0.42
			c0.3,0.28,0.45,0.71,0.45,1.29c0,0.58-0.15,1.01-0.45,1.3c-0.3,0.29-0.66,0.43-1.07,0.43c-0.44,0-0.8-0.14-1.09-0.43
			C122.63,6.53,122.49,6.1,122.49,5.52z M125.29,27.19h-2.58V10.14h2.58V27.19z"/>
		<path class="st0" d="M142.43,27.19V16.16c0-1.39-0.32-2.43-0.95-3.11c-0.63-0.68-1.62-1.03-2.97-1.03c-1.78,0-3.09,0.48-3.92,1.45
			c-0.83,0.96-1.24,2.56-1.24,4.78v8.95h-2.58V10.14h2.1l0.42,2.33h0.12c0.53-0.84,1.27-1.49,2.22-1.95
			c0.95-0.46,2.02-0.69,3.19-0.69c2.05,0,3.6,0.49,4.64,1.49c1.04,0.99,1.56,2.57,1.56,4.75v11.12H142.43z"/>
	</g>
</g>
</svg>
