<?xml version="1.0" encoding="utf-8"?>
<!-- Generator: Adobe Illustrator 25.0.1, SVG Export Plug-In . SVG Version: 6.00 Build 0)  -->
<svg version="1.1" id="Layer_1" xmlns="http://www.w3.org/2000/svg" xmlns:xlink="http://www.w3.org/1999/xlink" x="0px" y="0px"
	 viewBox="0 0 87.84 85.81" style="enable-background:new 0 0 87.84 85.81;" xml:space="preserve">
<style type="text/css">
	.st0{fill:#D1BBFD;}
	.st1{fill:#434343;}
	.st2{fill:#069CFE;}
	.st3{fill:#1A75BB;}
	.st4{fill:#BBBCBE;}
	.st5{fill:#F9FCFC;}
	.st6{fill:#243266;}
	.st7{fill:#243267;}
	.st8{fill:#233165;}
	.st9{fill:#3190C9;}
	.st10{fill:#253367;}
	.st11{fill:#253267;}
</style>
<g>
	<rect x="2.66" y="2.69" class="st3" width="81.96" height="81.16"/>
	<g>
		<rect x="40.67" y="46.46" class="st4" width="6.07" height="12.12"/>
		<path class="st5" d="M58.87,27.94c-0.04-0.02-5.51-0.01-6.08-0.02c0.15,5.05-4.35,9.74-9.43,9.63c-2.19-0.05-4.11-0.8-5.78-2.23
			c-2.2-1.88-3.14-4.33-3.24-7.28v-0.03h-5.92v5.61h0.01c0,8.35,0,16.61,0,24.9c2,0,3.85,0,6.04,0c0-5.96,0-11.75,0-17.82
			c6.16,4.21,12.12,3.73,18.31,0.07v17.82c0,0,0.01,0,0.01,0.01c0.09,0,0.17-0.01,0.25-0.01h3.42c0.04,0,0.08,0,0.12,0h2.28
			C58.87,58.61,58.87,28.59,58.87,27.94z"/>
	</g>
</g>
</svg>
