<?xml version="1.0" encoding="utf-8"?>
<!-- Generator: Adobe Illustrator 25.0.1, SVG Export Plug-In . SVG Version: 6.00 Build 0)  -->
<svg version="1.1" id="Layer_1" xmlns="http://www.w3.org/2000/svg" xmlns:xlink="http://www.w3.org/1999/xlink" x="0px" y="0px"
	 viewBox="0 0 237.16 63.51" style="enable-background:new 0 0 237.16 63.51;" xml:space="preserve">
<style type="text/css">
	.st0{fill:#D1BBFD;}
	.st1{fill:#434343;}
	.st2{fill:#069CFE;}
	.st3{fill:#1A75BB;}
	.st4{fill:#BBBCBE;}
	.st5{fill:#F9FCFC;}
	.st6{fill:#243266;}
	.st7{fill:#243267;}
	.st8{fill:#233165;}
	.st9{fill:#3190C9;}
	.st10{fill:#253367;}
	.st11{fill:#253267;}
</style>
<g>
	<path class="st1" d="M29.48,26.33c-1.97,0-3.54,0-5.22,0c-0.41-2.36-0.1-4.7-0.19-7.02c-0.03-0.78,0.02-1.57-0.02-2.35
		c-0.07-1.24-0.55-2.31-1.96-2.31c-1.47-0.01-2.21,0.96-2.25,2.36c-0.06,2.09-0.04,4.17-0.05,6.26c0,0.95,0,1.89,0,2.98
		c-1.81,0-3.43,0-5.46,0c0-2.75-0.01-5.58,0-8.41c0.01-1.52,0.13-3.26-2.05-3.15c-1.96,0.09-2.14,1.71-2.13,3.29
		c0.02,2.69,0.01,5.38,0.01,8.18c-1.77,0.5-3.46,0.11-5.25,0.23c0-5.16,0-10.08,0-15.19c1.9,0.15,3.78-0.75,5.4,0.77
		c3.32-2.41,5.19-2.35,8.43,0.35c0.7-0.46,1.37-1.01,2.12-1.38c3.97-1.94,7.98,0.19,8.56,4.54c0.08,0.6,0.05,1.22,0.05,1.82
		C29.48,20.24,29.48,23.17,29.48,26.33z"/>
	<path class="st1" d="M64.19,11.2c0.81,2.89,1.6,5.71,2.49,8.84c1.21-3.12,1.07-6.26,1.93-9.3c1.69-0.23,3.39-0.26,5.28,0.06
		c-1.35,5.21-2.68,10.31-4.02,15.48c-1.84,0-3.57,0-5.58,0c-0.78-2.79-1.58-5.68-2.47-8.87c-1.48,2.89-1.63,5.96-2.77,8.83
		c-1.8,0-3.58,0-5.54,0c-1.29-4.96-2.57-9.89-3.88-14.91c1.82-0.36,3.54-0.21,5.39-0.14c0.49,2.89,0.97,5.69,1.52,8.87
		c1.36-3.01,1.65-6,2.66-8.87C60.79,11.2,62.41,11.2,64.19,11.2z"/>
	<path class="st1" d="M112.72,3.81c1.79,0,3.35,0,5.18,0c0,4.16,0,8.26,0,12.36c0.16,0.05,0.32,0.11,0.48,0.16
		c1.44-1.79,2.89-3.59,4.29-5.33c1.78,0.08,3.49,0.16,5.71,0.26c-1.27,2.55-3.37,4.06-4.81,6.3c1.78,2.73,3.62,5.54,5.78,8.83
		c-2.18,0-3.95-0.01-5.71,0c-1.01,0.01-1.24-0.83-1.65-1.46c-1.2-1.88-2.38-3.78-3.99-5.58c0,2.26,0,4.53,0,6.91
		c-1.87,0-3.49,0-5.28,0C112.72,18.82,112.72,11.41,112.72,3.81z"/>
	<path class="st2" d="M70.37,54.18c-2.04,0.28-3.66,0.25-5.38,0.03c0-5.27,0-10.36,0-15.7c1.9,0.43,4.21-1.44,5.29,1.61
		c1.07-0.55,1.87-1.53,3.14-1.78c3.92-0.76,6.74,1.28,7.13,5.25c0.06,0.6,0.04,1.22,0.04,1.82c0,2.86,0,5.72,0,8.64
		c-1.74,0.56-3.36,0.29-5.35,0.26c0-3.04,0.04-5.95-0.01-8.86c-0.04-2.16-1.03-3.1-2.79-2.86c-1.69,0.23-2.05,1.44-2.06,2.84
		C70.35,48.27,70.37,51.12,70.37,54.18z"/>
	<path class="st2" d="M208.4,54.12c-1.84,0.42-3.45,0.26-5.28,0.09c0-2.86,0.02-5.53-0.01-8.21c-0.02-1.7-0.03-3.49-2.48-3.43
		c-2.42,0.06-2.39,1.87-2.41,3.55c-0.04,2.6-0.01,5.2-0.01,7.86c-1.79,0.64-3.47,0.41-5.31,0.21c0-5.22,0-10.3,0-15.54
		c1.5-0.38,2.96-0.14,4.25-0.17c0.9,0.33,0.45,1.17,1,1.66c0.25-0.17,0.53-0.34,0.79-0.55c1.95-1.62,4.2-1.77,6.4-0.89
		c2.28,0.91,3.06,2.96,3.07,5.3C208.4,47.36,208.4,50.72,208.4,54.12z"/>
	<path class="st1" d="M156.54,23.16c1.78-0.62,3.62-0.78,5.21-1.75c1.09,0.82,1.28,2.11,2.02,3.02c-3.07,2.66-8.69,3.09-12.08,1.01
		c-2.99-1.83-4.32-5.35-3.43-9.11c1.02-4.36,5.19-6.9,9.85-6.02c4.43,0.83,6.97,4.63,6.15,9.57c-3.47,0-7.01,0-10.61,0
		C153.8,22.04,155.71,22.1,156.54,23.16z M159.27,16.8c-0.31-1.93-1.35-2.81-3.07-2.72c-1.56,0.08-2.53,0.92-2.7,2.72
		C155.44,16.8,157.24,16.8,159.27,16.8z"/>
	<path class="st2" d="M156.26,54.13c-1.82,0.39-3.44,0.28-5.24,0.11c0-5.18,0-10.27,0-15.63c1.78,0.16,3.9-1.36,5.18,1.39
		c0.89-0.52,1.72-1.2,2.67-1.52c3.82-1.27,7.05,0.88,7.48,4.91c0.38,3.54,0.2,7.08,0.16,10.73c-1.8,0.39-3.42,0.32-5.2,0.08
		c-0.4-2.89-0.07-5.73-0.21-8.56c-0.05-1.11,0-2.31-1.31-2.89c-1.8-0.8-3.42,0.27-3.51,2.5C156.17,48.18,156.26,51.12,156.26,54.13z
		"/>
	<path class="st1" d="M143.8,21.44c0.59,1.08,1.12,2.06,1.76,3.26c-3.53,2.24-7.17,2.68-10.98,1.26c-2.99-1.11-4.5-3.4-4.76-6.55
		c-0.28-3.38,0.69-6.25,3.71-8.03c3.01-1.77,6.23-1.78,9.2,0.09c2.96,1.86,3.87,4.75,3.42,8.37c-3.6,0-7.15,0-10.79,0
		C136.55,23.04,138.4,23.37,143.8,21.44z M140.96,16.81c-0.23-1.9-1.31-2.79-2.99-2.72c-1.62,0.06-2.71,0.9-2.68,2.72
		C137.23,16.81,139.03,16.81,140.96,16.81z"/>
	<path class="st2" d="M147.69,47.84c-3.52,0-6.92,0-10.35,0c0.74,3.04,3.24,3.5,8.07,1.55c0.94,0.9,1.38,2.1,1.85,3.34
		c-2.76,1.75-5.72,2.24-8.84,1.77c-4.7-0.71-7.59-4.78-6.83-9.46c0.79-4.9,4.98-7.62,10.31-6.69
		C146.12,39.09,148.64,43.05,147.69,47.84z M142.66,44.56c-0.12-1.73-1.13-2.44-2.54-2.54c-1.7-0.13-2.72,0.77-3.23,2.71
		C138.91,44.71,140.73,44.96,142.66,44.56z"/>
	<path class="st1" d="M98.69,10.76c0,2.85-0.01,5.61,0,8.38c0.01,1.53,0.03,3.1,2.16,3.18c2.14,0.08,2.66-1.36,2.69-3.07
		c0.06-2.77,0.02-5.54,0.02-8.48c1.79,0,3.47,0,5.27,0c0,5.13,0,10.21,0,15.3c-3.67,0.74-4.24,0.61-5.4-1.3
		c-1.53,1.79-3.63,1.87-5.71,1.81c-2.48-0.07-4.25-2.08-4.41-5.26c-0.17-3.45-0.04-6.92-0.04-10.55
		C95.03,10.76,96.64,10.76,98.69,10.76z"/>
	<path class="st2" d="M21.51,38.26c5.31,0.01,8.64,3.22,8.59,8.3c-0.05,4.8-3.57,8.1-8.63,8.1c-4.99,0-8.58-3.39-8.65-8.15
		C12.76,41.59,16.27,38.25,21.51,38.26z M18.4,46.43c0,2.5,1.19,4.02,3.13,3.98c1.88-0.03,3.2-1.69,3.19-4.01
		c0-2.33-1.33-3.96-3.23-3.97C19.53,42.42,18.39,43.89,18.4,46.43z"/>
	<path class="st2" d="M42.93,38.57c1.98,0,3.53,0,5.27,0c0,5.14,0,10.29,0,15.64c-1.85-0.19-4.08,1.36-5.29-1.51
		c-0.59,0.41-1.18,0.93-1.86,1.29c-3.68,1.9-7.86-0.05-8.24-4.14c-0.34-3.68-0.07-7.41-0.07-11.26c1.76,0,3.36,0,5.27,0
		c0,2.84,0.02,5.59-0.01,8.34c-0.01,1.68,0.19,3.3,2.31,3.4c2.1,0.1,2.59-1.44,2.61-3.14C42.96,44.41,42.93,41.64,42.93,38.57z"/>
	<path class="st2" d="M227.15,47.75c-3.42,0-6.89,0-10.4,0c0.71,3.12,3.03,3.56,8.19,1.71c0.81,0.89,1.28,1.98,1.85,3.27
		c-3.72,2.14-7.51,2.7-11.46,0.92c-3.72-1.67-5.36-6.34-3.79-10.47c1.51-3.98,6.22-6.04,10.67-4.67
		C225.99,39.68,228.08,43.48,227.15,47.75z M216.46,44.63c2.04,0.17,3.8,0.26,5.71-0.01c-0.27-1.77-1.18-2.56-2.66-2.59
		C217.96,41.98,216.87,42.67,216.46,44.63z"/>
	<path class="st1" d="M84.87,16.46c-1.9-2.61-2.99-2.72-7.51-0.96c-0.85-0.81-1.19-1.96-1.72-2.98c2.99-2.54,8.09-3.11,11.32-1.27
		c2.09,1.19,3.01,3.06,3.07,5.4c0.02,0.61,0.02,1.22,0.02,1.83c0,2.52,0,5.03,0,7.8c-1.94-0.23-4.11,1.27-5.49-1.47
		c-1.65,2.13-3.99,1.91-6.2,1.56c-1.77-0.28-2.85-1.63-3.13-3.44c-0.33-2.16,0.29-3.94,2.26-5.14
		C79.69,16.46,82.14,16.46,84.87,16.46z M84.84,19.65c-1.78-0.01-3.65-0.81-4.35,1.42c-0.3,0.96,0.44,1.66,1.48,1.71
		C83.93,22.88,84.83,21.87,84.84,19.65z"/>
	<path class="st2" d="M92.99,44.48c-2.43-3.79-5.14-1.72-7.61-1.13c-1.05-0.79-1.16-1.99-1.95-3.06c3.51-2.26,7.08-2.67,10.82-1.38
		c2.27,0.79,3.56,2.58,3.65,4.95c0.13,3.38,0.03,6.77,0.03,10.31c-1.95,0.01-3.97,1.19-5.36-1.33c-1.26,0.9-2.51,1.81-4.18,1.83
		c-2.53,0.02-4.67-1.38-5.18-3.55c-0.55-2.36,0.48-4.44,2.72-5.65C88.01,44.33,90.3,44.64,92.99,44.48z M92.89,47.63
		c-1.84-0.36-3.53-0.7-4.43,1.22c-0.45,0.96,0.3,1.65,1.24,1.93C91.24,51.22,92.37,50.17,92.89,47.63z"/>
	<path class="st2" d="M121.43,42.82c0.29,1.01,1.2,1.15,2.03,1.41c1.08,0.34,2.19,0.61,3.24,1.04c1.85,0.75,2.99,2.12,3.04,4.17
		c0.05,2.15-1.04,3.68-3.01,4.46c-3.81,1.51-7.35,0.89-10.72-1.51c0.34-1.28,1.15-2.14,2.04-2.99c1.41,0.54,2.56,1.65,4.12,1.58
		c0.89-0.04,2.15,0.42,2.36-0.94c0.17-1.12-0.99-1.3-1.78-1.56c-0.99-0.33-2.06-0.43-3.03-0.81c-1.99-0.77-3.47-2.02-3.48-4.39
		c-0.01-2.17,1.24-3.82,3.53-4.66c2.95-1.08,7.22-0.27,9.86,1.88c0.13,0.69-0.47,1.05-0.8,1.51c-0.34,0.49-0.79,0.9-1.18,1.33
		C123.05,41.16,122.95,41.15,121.43,42.82z"/>
	<path class="st2" d="M170.94,42.7c-0.92-0.1-1.66-0.18-2.4-0.26c-0.34-1.34-0.32-2.52-0.02-3.86c0.84-0.09,1.68-0.17,2.47-0.26
		c0.83-1.21,0.16-2.71,1.17-3.98c1.17-0.34,2.51-0.17,4.11-0.07c0,1.4,0,2.66,0,4.06c1.43,0.08,2.63,0.14,3.94,0.21
		c0.44,1.28,0.26,2.52,0.15,3.94c-1.32,0.06-2.52,0.11-3.83,0.17c-0.51,1.97-0.32,3.98-0.17,5.92c0.17,2.16,1.82,1.86,3.35,1.48
		c0.59,1.01,1.18,1.97,1.37,3.28c-2.35,1.48-4.85,1.88-7.41,0.69c-2.55-1.18-2.79-3.55-2.73-6C170.97,46.36,170.94,44.7,170.94,42.7
		z"/>
	<path class="st2" d="M230.45,31.74c1.83,0,3.37,0,5.05,0c0,7.47,0,14.81,0,22.3c-1.7,0-3.3,0-5.05,0
		C230.45,46.6,230.45,39.25,230.45,31.74z"/>
	<path class="st2" d="M106.68,54.06c-1.7,0-3.3,0-5.03,0c0-7.45,0-14.78,0-22.26c1.64-0.33,3.25-0.15,5.03-0.14
		C106.68,39.15,106.68,46.54,106.68,54.06z"/>
	<path class="st1" d="M47.23,26.32c-1.71,0-3.26,0-5,0c0-7.44,0-14.83,0-22.4c1.56-0.41,3.2-0.06,5-0.22
		C47.23,11.26,47.23,18.66,47.23,26.32z"/>
	<path class="st2" d="M2.96,59.83c-0.84-1.27-0.75-2.62-1.19-4.09c2.86-0.47,3.11-2.49,3.05-4.87C4.7,46.89,4.78,42.9,4.78,38.66
		c1.79,0.2,3.41,0.28,5.21,0c0,5.29,0.26,10.49-0.09,15.64C9.67,57.79,6.99,59.61,2.96,59.83z"/>
	<path class="st2" d="M56.73,38.58c0.13,0.58,0.26,1.14,0.46,1.99c1.6-1.32,3.04-2.89,5.4-1.94c0,1.42,0,2.86,0,4.3
		c-4.44,0.65-5.21,1.55-5.23,6.07c-0.01,1.63,0,3.26,0,5.02c-1.83,0.27-3.43,0.21-5.18,0.07c0-5.24,0-10.3,0-15.5
		C53.76,38.58,55.21,38.58,56.73,38.58z"/>
	<path class="st1" d="M38.24,10.8c0,5.21,0,10.27,0,15.46c-1.74,0-3.37,0-5.19,0c0-5.1,0-10.23,0-15.46
		C34.72,10.8,36.34,10.8,38.24,10.8z"/>
	<path class="st2" d="M183.77,38.6c1.75,0.33,3.31,0.27,5.03,0.15c0,5.17,0,10.24,0,15.38c-1.67,0.45-3.28,0.21-5.03,0.12
		C183.77,48.99,183.77,43.91,183.77,38.6z"/>
	<path class="st2" d="M10.62,33.9c0.06,1.65-1.4,3.26-3.02,3.35c-1.79,0.1-3.34-1.38-3.35-3.22c-0.01-1.81,1.25-3.08,3.08-3.12
		C9.11,30.88,10.56,32.19,10.62,33.9z"/>
	<path class="st2" d="M35.4,9.21c-1.67-0.04-3.16-1.56-3.12-3.2c0.04-1.61,1.61-3.12,3.27-3.12c1.8-0.01,3.29,1.58,3.19,3.39
		C38.63,8.01,37.22,9.25,35.4,9.21z"/>
	<path class="st2" d="M186.47,30.96c1.89,0.06,3.06,1.28,3.03,3.15c-0.03,1.73-1.44,3.13-3.16,3.15c-1.73,0.01-3.3-1.66-3.21-3.41
		C183.23,32.12,184.63,30.9,186.47,30.96z"/>
</g>
</svg>
