<?xml version="1.0" encoding="utf-8"?>
<!-- Generator: Adobe Illustrator 25.0.1, SVG Export Plug-In . SVG Version: 6.00 Build 0)  -->
<svg version="1.1" id="Layer_1" xmlns="http://www.w3.org/2000/svg" xmlns:xlink="http://www.w3.org/1999/xlink" x="0px" y="0px"
	 viewBox="0 0 293.92 66.89" style="enable-background:new 0 0 293.92 66.89;" xml:space="preserve">
<g>
	<g>
		<path d="M49.36,62.79c-5.36,0-10.2,0-15.25,0c-3.75-6.84-7.53-13.72-11.25-20.5c-1.62,0-3,0-4.73,0c0,6.89,0,13.6,0,20.49
			c-4.39,0-8.41,0-12.66,0c0-17.83,0-35.62,0-54.13c9.48,0.37,18.96,0.16,28.27,1.27c8.06,0.96,12.6,6.36,13.4,13.57
			c0.86,7.62-2.33,12.83-10.07,16.47c-0.27,0.13-0.52,0.31-1.12,0.67C40.36,47.9,44.76,55.17,49.36,62.79z M18.35,32.91
			c4.11-0.47,8.15-0.63,12.02-1.49c2.76-0.62,3.87-3.06,3.77-5.89c-0.1-2.79-1.58-4.78-4.24-5.19c-3.83-0.59-7.74-0.62-11.82-0.91
			c0,4.27-0.01,7.79,0.01,11.31C18.09,31.22,18.2,31.7,18.35,32.91z"/>
		<path d="M77.9,32.92c-6.53,0-12.93,0-19.36,0c0.92,5.63,6.96,6.82,12.62,2.51c1.88,1.18,3.84,2.41,5.76,3.62
			c-2.36,5.5-12.26,7.94-19.63,4.46c-6.73-3.18-9.65-11.46-6.73-18.99c2.67-6.87,10.69-10.54,18.19-8.32
			C75.43,18.18,79.48,25.33,77.9,32.92z M69.76,27.01c-0.34-3.7-1.96-5.18-5.41-5.12c-3.49,0.06-5.51,1.85-5.71,5.12
			C62.34,27.01,66.04,27.01,69.76,27.01z"/>
		<path d="M183.87,44.02c-2.78,0-5.39,0-8.18,0c-0.2-0.83-0.41-1.67-0.64-2.6c-0.28,0.12-0.59,0.16-0.77,0.33
			c-3.29,3.29-7.2,4.17-11.47,2.48c-4.18-1.66-5.8-5.26-5.91-9.44c-0.16-5.93-0.04-11.86-0.04-18.02c3.01,0,5.81,0,9.06,0
			c0,4.05-0.02,8.15,0.01,12.24c0.02,1.71-0.22,3.56,0.36,5.08c0.49,1.29,1.94,3.02,3.06,3.09c1.5,0.09,3.5-0.87,4.53-2.04
			c0.93-1.06,1.1-2.98,1.15-4.54c0.14-4.52,0.05-9.05,0.05-13.81c3,0,5.78,0,8.79,0C183.87,25.82,183.87,34.82,183.87,44.02z"/>
		<path d="M263.98,44.03c-2.95,0-5.67,0-8.9,0c0-4.11,0.03-8.21-0.01-12.3c-0.02-1.71,0.21-3.58-0.42-5.07
			c-0.57-1.35-1.95-2.82-3.31-3.3c-2.01-0.71-3.85,0.49-4.63,2.48c-0.53,1.37-0.73,2.93-0.76,4.42c-0.09,4.51-0.03,9.03-0.03,13.74
			c-3.14,0-5.93,0-8.91,0c0-9.07,0-18,0-27.19c2.67,0,5.35,0,8.25,0c0.14,0.76,0.3,1.6,0.48,2.55c0.31-0.09,0.65-0.09,0.82-0.25
			c3.13-3.26,6.88-4.2,11.14-2.77c4.2,1.41,6.06,4.8,6.23,8.86C264.17,31.4,263.98,37.63,263.98,44.03z"/>
		<path d="M212.93,25.03c-1.55-1.66-2.92-3.12-4.26-4.56c4.49-4.98,14.53-6.67,19.75-3.01c1.89,1.33,3.8,3.83,4.08,6
			c0.88,6.73,0.98,13.56,1.4,20.57c-3.19,0-5.6,0-8.26,0c-0.21-0.57-0.45-1.26-0.77-2.13c-0.43,0.28-0.75,0.48-1.05,0.71
			c-4.45,3.38-11.35,2.98-14.75-0.85c-3.39-3.82-2.59-9.91,2.03-12.17c2.83-1.38,6.17-1.81,9.31-2.5c1.35-0.3,2.79-0.18,5.14-0.3
			c-1.1-1.61-1.58-3.05-2.56-3.61C219.36,21.11,216.19,22.9,212.93,25.03z M224.85,31.89c-2.57,0.45-5.16,0.65-7.55,1.45
			c-0.85,0.29-1.72,2.05-1.65,3.07c0.06,0.8,1.45,1.89,2.45,2.16C222.29,39.75,225.35,36.95,224.85,31.89z"/>
		<path d="M152.89,44.1c-2.56,0-4.89,0-7.43,0c-0.23-0.68-0.46-1.37-0.68-2.05c-0.33,0.07-0.58,0.05-0.7,0.16
			c-3.61,3.2-7.71,3.34-11.99,1.73c-3.12-1.18-4.87-3.52-5.17-6.86c-0.32-3.51,1.04-6.35,4.25-7.65c2.96-1.2,6.22-1.69,9.37-2.36
			c1.25-0.27,2.58-0.17,3.86-0.24c-0.17-5.25-4.29-5.87-11.8-1.93c-1.33-1.42-2.7-2.88-4.32-4.6c5.02-4.43,10.61-5.48,16.79-4.18
			c5.04,1.06,7.43,4.66,7.72,9.32C153.18,31.52,152.89,37.66,152.89,44.1z M144.95,31.87c-2.76,0.44-5.3,0.56-7.59,1.35
			c-0.94,0.32-1.93,2.14-1.86,3.21c0.05,0.82,1.63,1.96,2.71,2.21C142.18,39.55,144.65,37.25,144.95,31.87z"/>
		<path d="M84.19,35.64c3.13,2.22,6.11,4.15,9.74,2c1.07-2.07,0.11-3.1-1.54-3.67c-1.92-0.66-3.93-1.06-5.83-1.75
			c-3.06-1.11-5.27-3.03-5.59-6.49c-0.32-3.54,0.99-6.3,4.05-8.2c5.12-3.19,13.03-2.44,18.24,1.96c-1.55,1.65-3.1,3.28-4.61,4.89
			c-5.68-3.26-8.29-3.13-9.48,0.86c1.07,0.48,2.17,1.05,3.34,1.47c2,0.71,4.17,1.08,6.04,2.03c5.66,2.87,6.18,10.19,1.1,14
			c-5.16,3.87-15.46,2.89-20.13-2.1C81.06,38.99,82.63,37.32,84.19,35.64z"/>
		<path d="M124.21,37.82c0,2.22,0,4.11,0,6.12c-3.13,1.28-6.32,1.32-9.5,0.31c-2.87-0.91-4.7-2.98-4.97-5.93
			c-0.35-3.8-0.33-7.64-0.44-11.46c-0.03-1.08-0.01-2.17-0.01-3.46c-1.56-0.12-2.82-0.21-4.25-0.32c0-2.14,0-4.11,0-6.3
			c1.25-0.15,2.52-0.3,4.13-0.49c0-2.61,0-5.17,0-7.89c3.07,0,5.78,0,8.85,0c0,2.52,0,5.08,0,7.94c2.31,0.13,4.3,0.24,6.44,0.37
			c0,2.18,0,4.23,0,6.55c-2.12,0-4.02,0-6.2,0c0,4.15-0.26,8.07,0.08,11.94C118.65,38.51,121.61,37.82,124.21,37.82z"/>
		<path d="M285.55,16.67c0,2.23,0,4.2,0,6.48c-2.09,0-4.07,0-6.4,0c0,4.19-0.26,8.1,0.08,11.96c0.29,3.31,3.16,2.75,5.75,2.68
			c0,2.06,0,4.09,0,6.97c-3.13-0.16-6.26,0.04-9.22-0.57c-3.39-0.7-5.2-3.52-5.33-7.56c-0.14-4.31-0.03-8.63-0.03-13.14
			c-1.57-0.16-2.85-0.29-4.37-0.44c0-2.06,0-4.1,0-6.29c1.26-0.13,2.44-0.25,4.03-0.41c0-2.57,0-5.12,0-7.89c3.09,0,5.78,0,8.85,0
			c0,2.48,0,5.04,0,7.91C281.22,16.47,283.21,16.57,285.55,16.67z"/>
		<path d="M188.17,16.71c2.9,0,5.52,0,8.23,0c0.14,0.99,0.26,1.87,0.43,3.13c2.61-2.61,5.23-4.93,9.15-3.87c0,2.61,0,4.99,0,7.56
			c-0.89,0.04-1.55,0.08-2.22,0.11c-4.11,0.15-6.58,2.54-6.67,6.68c-0.1,4.5-0.02,9.01-0.02,13.68c-3.16,0-5.94,0-8.89,0
			C188.17,34.88,188.17,25.96,188.17,16.71z"/>
	</g>
	<g>
		<path d="M53.84,48.35c0-0.21,0.18-0.4,0.39-0.4h0.8c0.23,0,0.39,0.19,0.39,0.4v6.17h8.34v-6.17c0-0.21,0.16-0.4,0.39-0.4h0.8
			c0.21,0,0.39,0.19,0.39,0.4v14c0,0.21-0.18,0.4-0.39,0.4h-0.8c-0.23,0-0.39-0.19-0.39-0.4v-6.41h-8.34v6.41
			c0,0.21-0.16,0.4-0.39,0.4h-0.8c-0.21,0-0.39-0.19-0.39-0.4V48.35z"/>
		<path d="M76.87,47.73c4.11,0,7.39,3.4,7.39,7.63c0,4.23-3.28,7.59-7.39,7.59c-4.11,0-7.37-3.36-7.37-7.59
			C69.5,51.14,72.77,47.73,76.87,47.73z M76.87,61.48c3.26,0,5.95-2.75,5.95-6.11c0-3.36-2.69-6.15-5.95-6.15
			c-3.26,0-5.93,2.79-5.93,6.15C70.94,58.73,73.61,61.48,76.87,61.48z"/>
		<path d="M87.51,60.53c0.1-0.13,0.21-0.27,0.31-0.4c0.21-0.28,0.43-0.44,0.72-0.19c0.14,0.13,1.64,1.61,3.47,1.61
			c1.66,0,2.75-1.08,2.75-2.33c0-1.46-1.23-2.33-3.59-3.34c-2.26-1.02-3.61-1.97-3.61-4.38c0-1.44,1.11-3.76,4.37-3.76
			c2.01,0,3.51,1.08,3.51,1.08c0.12,0.06,0.37,0.32,0.12,0.72c-0.08,0.13-0.16,0.28-0.25,0.4c-0.18,0.3-0.39,0.38-0.72,0.19
			c-0.14-0.08-1.44-0.97-2.69-0.97c-2.18,0-2.83,1.44-2.83,2.33c0,1.42,1.05,2.24,2.77,2.98c2.77,1.16,4.56,2.24,4.56,4.69
			c0,2.2-2.03,3.81-4.43,3.81c-2.42,0-4.06-1.46-4.33-1.71C87.47,61.1,87.26,60.93,87.51,60.53z"/>
		<path d="M100.4,48.35c0-0.21,0.16-0.4,0.39-0.4h4.54c2.52,0,4.6,2.11,4.6,4.67c0,2.62-2.07,4.76-4.58,4.76h-3.39v4.97
			c0,0.21-0.18,0.4-0.39,0.4h-0.78c-0.23,0-0.39-0.19-0.39-0.4V48.35z M105.22,55.81c1.68,0,3.12-1.42,3.12-3.23
			c0-1.71-1.44-3.02-3.12-3.02h-3.26v6.26H105.22z"/>
		<path d="M113.66,48.35c0-0.21,0.19-0.4,0.39-0.4h0.82c0.21,0,0.39,0.19,0.39,0.4v14c0,0.21-0.18,0.4-0.39,0.4h-0.82
			c-0.21,0-0.39-0.19-0.39-0.4V48.35z"/>
		<path d="M122.51,49.36h-3.57c-0.23,0-0.39-0.19-0.39-0.4v-0.61c0-0.21,0.16-0.4,0.39-0.4h8.71c0.23,0,0.39,0.19,0.39,0.4v0.61
			c0,0.21-0.16,0.4-0.39,0.4h-3.57v12.98c0,0.21-0.18,0.4-0.39,0.4h-0.78c-0.21,0-0.39-0.19-0.39-0.4V49.36z"/>
		<path d="M128.57,62.2l6.24-14.23c0.06-0.13,0.16-0.23,0.35-0.23h0.21c0.19,0,0.29,0.11,0.35,0.23l6.2,14.23
			c0.12,0.28-0.04,0.55-0.35,0.55h-0.82c-0.18,0-0.31-0.13-0.35-0.23l-1.52-3.49h-7.29l-1.5,3.49c-0.04,0.11-0.16,0.23-0.35,0.23
			h-0.82C128.61,62.75,128.44,62.47,128.57,62.2z M138.32,57.71c-1.01-2.3-1.99-4.63-3-6.94h-0.16l-3,6.94H138.32z"/>
		<path d="M145.18,48.35c0-0.21,0.16-0.4,0.39-0.4h0.8c0.21,0,0.39,0.19,0.39,0.4v12.98h5.91c0.23,0,0.39,0.19,0.39,0.4v0.61
			c0,0.21-0.16,0.4-0.39,0.4h-7.1c-0.23,0-0.39-0.19-0.39-0.4V48.35z"/>
		<path d="M156.28,48.35c0-0.21,0.19-0.4,0.39-0.4h0.82c0.21,0,0.39,0.19,0.39,0.4v14c0,0.21-0.18,0.4-0.39,0.4h-0.82
			c-0.21,0-0.39-0.19-0.39-0.4V48.35z"/>
		<path d="M165.13,49.36h-3.57c-0.23,0-0.39-0.19-0.39-0.4v-0.61c0-0.21,0.16-0.4,0.39-0.4h8.71c0.23,0,0.39,0.19,0.39,0.4v0.61
			c0,0.21-0.16,0.4-0.39,0.4h-3.57v12.98c0,0.21-0.18,0.4-0.39,0.4h-0.78c-0.21,0-0.39-0.19-0.39-0.4V49.36z"/>
		<path d="M177.51,55.62l-4.95-7.06c-0.16-0.27,0-0.61,0.33-0.61h0.97c0.14,0,0.27,0.11,0.33,0.19l4.15,5.9l4.15-5.9
			c0.06-0.08,0.18-0.19,0.33-0.19h0.97c0.33,0,0.49,0.34,0.33,0.61l-5.01,7.04v6.75c0,0.21-0.18,0.4-0.39,0.4h-0.8
			c-0.23,0-0.39-0.19-0.39-0.4V55.62z"/>
	</g>
</g>
</svg>
