<?xml version="1.0" encoding="utf-8"?>
<!-- Generator: Adobe Illustrator 25.0.1, SVG Export Plug-In . SVG Version: 6.00 Build 0)  -->
<svg version="1.1" id="Layer_1" xmlns="http://www.w3.org/2000/svg" xmlns:xlink="http://www.w3.org/1999/xlink" x="0px" y="0px"
	 viewBox="0 0 148.66 39.67" style="enable-background:new 0 0 148.66 39.67;" xml:space="preserve">
<style type="text/css">
	.st0{fill:#FFFFFF;}
	.st1{fill:#010101;}
	.st2{fill:#DB8D29;}
	.st3{fill:#CC3504;}
	.st4{fill:#FDFBF9;}
	.st5{fill:#FCFAF9;}
	.st6{fill:#FDFCFB;}
	.st7{fill:#FCF8F6;}
	.st8{fill:#FCF9F7;}
	.st9{fill:#FBF8F5;}
	.st10{fill:#FAF4F1;}
	.st11{fill:#FCFBFB;}
	.st12{fill:#CC3709;}
	.st13{fill:#CC3405;}
	.st14{fill:#CB390E;}
	.st15{fill:#020407;}
	.st16{fill:#EC1E26;}
	.st17{fill:#B11217;}
	.st18{fill:#0083C6;}
	.st19{fill:#1363A5;}
	.st20{fill:#BC1631;}
	.st21{fill:#052D5C;}
	.st22{fill:#020D6E;}
</style>
<path class="st18" d="M133.64,31.53c1.6,0,1.73-1.43,1.73-2.54l-0.07-12.42c-0.25-0.67-0.76-0.81-1.23-0.81
	c-0.37,0-0.67-0.02-0.99,0.23c-0.88,0.69-1.09,1.64-1.29,2.47c-0.3,1.25-0.55,2.45-0.55,3.14v5.02
	C131.26,27.39,131.68,31.53,133.64,31.53z M127.82,32.48c-0.99-1.99-1.34-4.19-1.48-6.15l0.07-2.54c0.42-4.35,0.76-4.46,1.6-6.52
	c0.14-0.37,0.74-1.11,0.92-1.43c1.04-1.53,2.57-2.13,3.88-2.13c1.11,0,2.03,0.65,2.24,0.65c0.42,0,0.3-0.88,0.3-1.02l-0.12-3.42
	c0-0.35-0.58-0.79-0.88-0.86c-0.37-0.09-1.69-0.07-1.69-0.65c0-0.25,0.37-0.49,0.65-0.55c1.99-0.55,5.85-1.55,5.99-1.55
	c0.12,0,0.37,0.18,0.37,0.3v10.71l0.14,11.82c0.02,0.23,0.02,1.6,0.62,1.6h0.99c0.14,0.09,0.3,0.49,0.3,0.49
	c0,0.12-0.07,0.46-0.25,0.58c-0.9,0.55-4.67,2.4-4.93,2.4c-0.9,0-0.46-1.73-0.99-1.73c-0.25,0-1.25,1.11-1.36,1.2
	c-0.81,0.53-1.87,0.9-2.8,0.9c-0.58,0-1.34-0.37-1.8-0.55C129.04,33.82,128.05,32.96,127.82,32.48z M112.46,29.26l0.07-6.15
	c0-0.07,0-0.49-0.23-0.49c-0.3,0-1.57,1.18-1.64,1.29c-1.09,1.41-2.08,3.21-2.08,4.76c0,0.58,0.49,2.36,1.73,2.36
	C111.1,31.02,112.14,30.26,112.46,29.26z M118.64,33.06c0.97,0,1.34-0.37,1.46-1.41l-0.25-21.23c-0.02-0.37-0.23-1.13-0.88-1.34
	c-0.25-0.07-0.58-0.07-0.9-0.14c-0.25-0.07-0.44-0.3-0.44-0.44c0-0.76,1.25-0.88,1.9-0.99c2.13-0.32,4.25-0.67,4.42-0.67
	c0.12,0,0.25,0,0.37,0.12c0.07,2.22,0.09,3.79,0.14,5.23c0,0.12,0,0.97-0.02,1.04c-0.02,0.09,0,11.91,0.02,12.02
	c0.02,0.09,0.02,2.84,0.07,3.01l-0.07,2.15c0,0.55,0.18,2.22,0.46,2.34c0.18,0.07,0.35,0.3,0.49,0.35c0.25,0.09,1.23,0.18,1.29,0.65
	c0.02,0.3,0.02,0.46-0.49,0.53l-12.35,0.07c-0.21-0.09-0.46-0.02-0.65-0.25c-0.18-0.25-0.23-0.53-0.32-0.79c0-0.02,0.09-1.2-0.3-1.2
	c-0.14,0-0.55,0.62-0.86,0.88c-0.32,0.3-0.81,0.62-1.23,0.88c-0.74,0.46-1.69,0.62-2.45,0.62c-0.76,0-1.13-0.12-1.92-0.49
	c-1.64-0.79-2.01-3.03-2.01-4.23c0-3.86,3.68-6.77,7.95-8.9c0.09-0.02,0.35-0.32,0.35-0.44l0.07-3.54c0-0.76,0-2.13-1.25-2.13
	c-0.69,0-2.1,0.49-2.45,1.29c-0.09,0.21,0.02,0.55,0.02,0.67c0,1.2-0.49,3.56-2.52,3.56c-1.36,0-2.1-0.76-2.1-2.01
	c0-0.44,0.07-0.86,0.32-1.32c0.18-0.32,0.67-0.81,0.67-1.18c0-0.42-0.37-0.42-0.46-0.42c-0.32,0-0.99,0.58-1.34,0.86
	c-1.18,0.9-2.08,3.7-2.08,4.99v10.54c0,0.14,0.09,0.46,0.23,0.74c0.12,0.23,0.46,0.42,0.69,0.49c0.14,0.07,0.99,0.18,1.09,0.69
	c0.07,0.46-0.37,0.65-0.67,0.65h-6.66c-0.55,0.07-0.74-0.62-0.74-0.65c0.21-0.69,0.74-0.55,1.02-0.76c0.23-0.14,0.49-0.23,0.62-0.44
	c0.09-0.18,0.12-0.67,0.18-0.92l-0.02-14.2c-0.07-0.21,0-0.46-0.07-0.67c-0.3-0.79-1.73-0.18-1.73-0.99c0-0.42,0.55-0.58,0.81-0.65
	c1.46-0.42,4.35-1.32,4.46-1.32h0.74c0.12,0.12,0.18,0.23,0.18,0.37l-0.14,1.6c0,0.12,0.07,0.21,0.09,0.3h0.14
	c1.53-1.78,2.64-2.47,4.14-2.47c0.14,0,0.69,0,0.99,0.07c0.42,0.09,1.04,0.79,1.48,0.79c0.49,0,2.36-1.18,4.69-1.18
	c0.99,0,2.29,0.23,3.26,1.09c0.67,0.58,0.69,1.6,0.81,2.29l0.12,14.84C117.04,32.41,117.41,33.06,118.64,33.06z M91.77,20.73
	c0-0.14,0.07-0.21-0.07-1.04l-0.09-1.55c-0.02-0.14-0.09-0.88-0.3-1.57c-0.21-0.69-0.55-1.34-1.18-1.34c-0.25,0-0.37,0-0.58,0.25
	c-0.14,0.18-0.21,0.44-0.3,0.65c-0.53,1.13-0.97,2.54-1.02,3.68c-0.07,0.65-0.07,0.88-0.07,0.99c0,0.81,0.74,0.69,1.29,0.69
	l1.69-0.07C91.58,21.49,91.77,20.92,91.77,20.73z M83.77,27.81v-4.97c0-0.14,0.25-1.46,0.42-2.22c0.74-3.51,2.87-7.01,6.34-7.01
	c3.45,0,4.53,3.68,4.86,6.54c0.09,0.86,0.07,1.23,0.07,1.34c0,0.53,0,2.1-0.92,2.1h-6.04c-0.35,0-0.35,0.49-0.35,0.55
	c0,0.12,0.07,0.67,0.12,1.64c0.02,0.44,0.62,5.76,3.19,5.76c2.29,0,2.03-3.14,3.24-3.14c0.32,0,0.53,0.3,0.53,0.49
	c0,0.35-0.44,1.64-0.46,1.76c-0.12,0.35-0.3,0.81-0.49,1.18c-1.48,2.52-3.35,2.96-5.18,2.96c-2.87,0-4.74-3.08-5.09-6.13
	C83.88,28.36,83.77,27.92,83.77,27.81z M66.38,8.82c-0.09-0.07-0.18-0.25-0.18-0.42c0-0.49,0.44-0.74,0.92-0.74h6.31
	c0.35,0,0.92,0.42,0.92,0.67c0,0.55-0.99,0.76-1.25,1.13c-0.12,0.21-0.18,0.46-0.23,0.67l-0.12,8.09c0,0.42,0.21,0.53,0.49,0.53
	h3.45c0.35,0,0.46-0.21,0.46-0.55l0.12-7.63c0-0.14,0.02-0.69-0.18-1.02c-0.23-0.35-1.87-0.62-1.87-1.23c0-0.25,0.42-0.67,0.62-0.67
	h7.7c0.44,0,0.76,0.49,0.76,0.67c0,0.14-0.02,0.3-0.12,0.35c-0.49,0.44-1.09,0.3-1.57,0.65c-0.42,0.32-0.46,0.69-0.53,1.09
	l-0.12,21.23c0.02,0.46,0.42,0.99,0.92,1.18c0.21,0.07,0.49,0.14,0.69,0.23c0.12,0.07,0.23,0.3,0.23,0.44
	c0,0.44-0.55,0.69-0.92,0.69h-6.52c-0.35,0-0.74-0.32-0.74-0.58c0-0.12,0.07-0.37,0.12-0.44c0.25-0.23,0.86-0.37,1.11-0.79
	c0.3-0.44,0.23-1.02,0.32-1.53l-0.07-9.73c0.12-0.32-0.12-0.46-0.35-0.37h-3.61c-0.12-0.12-0.46,0.18-0.35,0.42v9.76l0.25,1.46
	c0.14,0.42,0.74,0.49,0.97,0.62c0.32,0.12,0.69,0.23,0.69,0.58c0,0.3-0.42,0.65-0.62,0.65h-7.77c-0.12,0-0.46-0.21-0.65-0.37
	c-0.02-0.02-0.09-0.14-0.09-0.3c0-0.16,0.07-0.42,0.23-0.49c0.37-0.23,0.92-0.23,1.36-0.49c0.42-0.25,0.53-0.69,0.55-1.04
	l0.12-21.23C68.11,9.38,66.77,9.05,66.38,8.82z M28.37,29.17l0.07-6.47c-0.07-0.07-0.09-0.12-0.21-0.12c-0.32,0-1.99,1.8-2.08,1.97
	c-0.3,0.44-0.67,0.92-0.86,1.43c-0.44,1.29-0.49,1.34-0.49,2.36c0,0.69,0.14,2.54,1.6,2.54C27.14,30.86,28.23,29.96,28.37,29.17z
	 M24.62,34.35c-2.8,0-4.23-1.92-4.23-4.44c0-0.12,0-0.37,0.07-1.11c0.3-3.31,4.46-6.2,6.31-7.24c0.07-0.02,1.92-0.76,1.92-1.34
	l-0.12-4.44C28.5,15,28.09,14.7,27.46,14.7c-0.32,0-0.79,0.18-1.2,0.37c-0.97,0.46-0.81,1.92-0.81,2.54c0,1.46-1.18,2.71-2.47,2.71
	c-0.99,0-1.73-0.62-1.73-1.66c0-1.2,0.97-2.47,2.4-3.58c1.97-1.55,3.56-1.85,5.25-1.85c0.92,0,1.85,0.09,2.71,0.49
	c0.58,0.25,1.43,1.9,1.43,2.4v15.52c0,0.49,0.32,1.36,0.81,1.43c0.21,0.02,0.58,0.07,0.69,0.07c0.79,0,1.36-0.32,1.46-1.29
	L35.88,16.5c-0.07-0.25-0.18-0.55-0.3-0.86c-0.25-0.74-1.8-0.25-1.8-0.99c0-0.42,0.37-0.49,0.65-0.55c1.78-0.46,5.3-1.18,5.43-1.18
	c0.21,0,0.74,0.21,0.62,0.49l-0.12,18.01c0.12,1.43,0.58,1.6,1.32,1.6c0.9,0,1.36-0.25,1.36-1.55l-0.14-20.88
	c-0.02-0.37-0.09-0.74-0.32-1.09c-0.42-0.58-1.13-0.37-1.6-0.58c-0.12-0.07-0.23-0.21-0.23-0.35c0-0.32,0.37-0.58,0.69-0.67
	c1.73-0.42,5.18-1.09,5.3-1.09c0.21,0,0.53,0.02,0.53,0.35c0,0.02,0,0.07,0,0.09v24.76c0.02,0.3,0.9,0.69,1.18,0.69
	c0.58,0,0.69-1.73,2.34-1.73c1.2,0,2.2,0.79,2.2,1.99c0,0.12-0.21,0.67-0.21,0.81c0,0.12,0.12,0.25,0.25,0.25
	c0.79,0,1.25-1.92,1.25-2.08c0-0.12-1.48-5.43-2.34-8.14c-0.81-2.66-1.41-5.48-2.52-8.14c-0.25-0.65-1.04-0.65-1.43-0.79
	c-0.12-0.07-0.3-0.3-0.3-0.44c0-0.35,0.49-0.62,0.74-0.62h6.84c0.44,0,0.99,0.02,0.99,0.58c0,0.74-1.69,0.3-1.69,1.6
	c0,0.12,0.3,0.88,0.42,1.36c0.58,2.31,1.09,4.62,1.97,6.91h0.14c0.58-0.86,2.66-6.57,2.66-8.42c0-1.11-1.73-0.9-1.73-1.6
	c0-0.21,0.32-0.46,0.55-0.44l4.99-0.07c0.3,0,1.18,0.02,1.18,0.55c0,0.14,0.02,0.35-0.32,0.46c-0.65,0.23-1.9,0.49-2.2,1.57
	c-0.23,0.88-0.69,1.8-1.04,2.68c-1.85,4.79-3.75,9.6-5.6,14.41c-0.14,0.35-0.35,0.76-0.58,1.11c-0.81,1.32-2.15,1.8-3.19,1.8
	c-1.53,0-2.52-1.13-3.03-2.24l-18.22,0.07c-0.37-0.12-0.81-0.07-1.11-0.3c-0.69-0.55-0.25-1.99-0.76-1.99
	C28.23,32.04,27,34.35,24.62,34.35z M40.46,9.73c0,1.69-1.11,2.77-2.64,2.77c-1.73,0-2.47-1.48-2.47-2.77
	c0-1.43,1.11-2.77,2.66-2.77C39.79,6.93,40.46,8.52,40.46,9.73z M20.34,21.17c-0.25,3.51-0.92,7.47-2.45,10.04
	c-1.23,2.08-4.02,3.14-5.78,3.1c-0.32,0-0.92,0.14-1.04,0.14H3.42C3.16,34.44,3,33.91,3,33.82c0-0.69,1.2-0.74,1.36-0.79
	c0.53-0.12,0.88-0.9,0.88-1.25L5.22,10.12C5.13,9.86,5.13,9.56,4.87,9.36C4.46,9.1,3.53,9.12,3.53,8.57c0-0.55,0.97-0.74,1.02-0.74
	l8.62,0.12c0.25,0.07,0.58,0.12,0.9,0.18c4.69,0.92,5.78,7.08,6.22,9.99L20.34,21.17z M15.28,25.03c0.07-1.64,0.14-3.26,0.14-4.25
	c-0.02-1.9,0.02-2.34-0.21-4.62c-0.21-2.08-0.58-6.59-3.86-6.59c-0.42,0-1.34-0.02-1.29,0.67L9.94,31.92
	c0.12,0.79,0.76,0.69,1.32,0.69c0.14,0,0.88,0.02,1.2-0.12c2.24-1.18,2.34-3.63,2.54-5.32C15.14,26.47,15.26,25.7,15.28,25.03z"/>
</svg>
