<?xml version="1.0" encoding="utf-8"?>
<!-- Generator: Adobe Illustrator 25.0.1, SVG Export Plug-In . SVG Version: 6.00 Build 0)  -->
<svg version="1.1" id="Layer_1" xmlns="http://www.w3.org/2000/svg" xmlns:xlink="http://www.w3.org/1999/xlink" x="0px" y="0px"
	 viewBox="0 0 218.24 35.71" style="enable-background:new 0 0 218.24 35.71;" xml:space="preserve">
<style type="text/css">
	.st0{fill:#FFFFFF;}
	.st1{fill:#010101;}
	.st2{fill:#DB8D29;}
	.st3{fill:#CC3504;}
	.st4{fill:#FDFBF9;}
	.st5{fill:#FCFAF9;}
	.st6{fill:#FDFCFB;}
	.st7{fill:#FCF8F6;}
	.st8{fill:#FCF9F7;}
	.st9{fill:#FBF8F5;}
	.st10{fill:#FAF4F1;}
	.st11{fill:#FCFBFB;}
	.st12{fill:#CC3709;}
	.st13{fill:#CC3405;}
	.st14{fill:#CB390E;}
	.st15{fill:#020407;}
	.st16{fill:#EC1E26;}
	.st17{fill:#B11217;}
	.st18{fill:#0083C6;}
	.st19{fill:#1363A5;}
	.st20{fill:#BC1631;}
	.st21{fill:#052D5C;}
	.st22{fill:#020D6E;}
</style>
<g>
	<g>
		<g>
			<polygon class="st19" points="48.84,6.08 46.42,8.56 43.93,6.19 46.42,3.54 			"/>
			<path class="st19" d="M63.54,12.1c-0.13,1.68-1.42,3.38-3.21,3.38c-1.67,0-2.7-1.01-3.26-2.2l-0.22,0.14v11.63L60.11,27
				l1.79-1.84l0.28,0.25l-4.27,4.43l-5.94-3.6v-0.11c0.61-0.2,0.86-0.81,0.86-1.79v-9.01c2.51-1.31,5.23-3.01,6.89-4.21
				c0.32,0.53,1.06,1.2,2.01,1.2c0.78,0,1.39-0.18,1.7-0.39L63.54,12.1z"/>
			<path class="st19" d="M51.47,26.16l-3.57,3.71c-2.01-0.7-3.15-1.67-3.15-4.19V14.75l-1.09-0.78l-1,1.04l-0.25-0.25l3.49-3.63
				l3.71,2.45v0.05c-0.57,0.35-0.84,0.64-0.84,1.84v9.76c0,0.82,0.52,1.63,1.4,1.76l1.06-1.09L51.47,26.16z"/>
			<path class="st19" d="M43.15,26.27l-3.54,3.6c-1.87-0.56-3.1-1.74-3.1-4.04V15.53L34.26,14L33,15.31v11.21l1.31,0.81l-2.93,2.54
				l-3.32-2.76v-0.05c0.55-0.15,0.89-0.61,0.89-1.93V6.05c0-1.39-0.25-1.81-0.53-2.29l0.2-0.08c0.61,0.53,0.99,0.98,1.14,1.92h0.05
				c0.9-1.5,2.02-2.48,4.18-2.76l0.06,0.11C33.46,3.69,33,4.5,33,5.74v9.04l3.46-3.65c1.26,0.86,3.61,2.57,4.99,3.4v0.08
				c-0.49,0.21-0.87,0.59-0.87,1.82v8.45c0,1.24,0.31,1.67,1.31,2.17l1.01-1.03L43.15,26.27z"/>
			<path class="st19" d="M106.22,14.61c-0.56,0.25-0.86,0.59-0.86,1.93v9.01c-1.66,0.72-5.41,2.84-7.31,4.35
				c-2.04-1.37-3.1-2.12-5.19-3.43v-0.09c0.59-0.28,0.86-0.58,0.86-1.98v-8.93c2.54-1.23,5.3-2.96,7.26-4.38
				c1.24,0.83,3.82,2.51,5.24,3.43V14.61z M101.28,27.28V15.73c-0.95-0.59-2.48-1.76-3.13-2.23l-0.39,0.22v11.6
				c0.47,0.33,2.06,1.42,3.04,2.18L101.28,27.28z"/>
			<path class="st19" d="M91.63,28.56c0,1.08-1.52,2.23-3.18,3.57c-2.17,1.75-3.29,2.59-3.29,2.59c-1.08-0.61-1.7-0.78-3.29-0.78
				c-2.01,0-3.15,0.21-4.58,0.78l-0.08-0.03c1.14-2.13,3.42-3.9,6.61-3.9c1.42,0,3.03,0.59,4.07,1.29c0.28-0.18,1.15-0.83,1.15-1.31
				c0-1.42-2.68-1.25-3.07-3.91l-2.98,3.04c-3.5-2.28-5.49-3.52-5.49-3.52v-0.11c0.69-0.29,0.86-0.64,0.86-2.37v-8.42
				c2.95-1.55,5.68-3.11,7.34-4.38l5.19,3.43v0.08c-0.64,0.34-0.87,0.61-0.87,2.15v7.98C90.01,26.65,91.63,26.83,91.63,28.56z
				 M85.91,26.36V15.62c-1.56-0.96-3.1-2.17-3.1-2.17l-0.42,0.25v11.49l2.82,1.92L85.91,26.36z"/>
			<path class="st19" d="M76.74,26.27l-3.54,3.6c-1.61-0.53-2.97-1.38-3.1-3.63l-3.99,3.63c-1.95-0.84-3.35-2.6-3.35-4.83
				c0-2.99,2.41-4.53,4.63-5.33v-0.03c-1.91-0.93-3.48-2.68-3.91-4.8l6.14-3.79l5.5,3.68v0.09c-0.67,0.28-0.95,0.61-0.95,1.87v8.17
				c0,0.92,0.38,1.89,1.31,2.15l1-1.03L76.74,26.27z M70.1,19.08v-3.32l-3.46-2.38l-0.45,0.28c0.14,1.97,0.41,4.54,1.73,5.86
				C68.4,19.36,69.52,19.14,70.1,19.08z M70.1,25.71v-6.28c-2.43,0.29-3.79,2.01-3.79,4.16c0,1.79,0.64,2.87,2.26,3.51L70.1,25.71z"
				/>
			<path class="st19" d="M27.84,3.71c-0.1,2.43-1.81,4.69-4.86,4.69c-0.38,0-0.73-0.03-1.06-0.11v19.19
				c1.95-0.25,3.72-1.09,5.35-2.23l0.14,0.42c-1.81,2.11-5.22,5.55-10.49,5.55c-7.18,0-12.44-4.87-12.44-13.2
				c0-7.63,6.29-11.86,10.37-13.44l0.34,0.17c-3.85,2.55-5.92,5.64-5.92,11.02c0,4.74,1.7,8.11,4.27,10.1l0.87-0.59V10.54
				c0-1.35-0.2-1.81-0.84-1.98V8.45c2.57-1.28,6.64-3.49,8.9-5.27c0.69,0.81,1.56,1.17,2.65,1.17c1.19,0,1.98-0.42,2.51-0.8
				L27.84,3.71z M21.48,27.53V8.14c-1.02-0.39-1.73-1.18-2.37-2.12l-0.14,0.06v16.68l-5.07,3.37c1.73,1.2,4.27,1.42,6.86,1.42
				C21,27.56,21.24,27.55,21.48,27.53z"/>
		</g>
		<path class="st19" d="M48.84,6.08l-2.43,2.48l-2.48-2.37l2.48-2.65L48.84,6.08z M63.43,11.93c-0.31,0.21-0.92,0.39-1.7,0.39
			c-0.95,0-1.69-0.67-2.01-1.2c-1.66,1.2-4.38,2.9-6.89,4.21v9.01c0,0.98-0.25,1.59-0.86,1.79v0.11l5.94,3.6l4.27-4.43l-0.28-0.25
			L60.11,27l-3.26-1.95V13.41l0.22-0.14c0.56,1.19,1.59,2.2,3.26,2.2c1.79,0,3.08-1.69,3.21-3.38L63.43,11.93z M51.21,25.91
			L50.16,27c-0.88-0.13-1.4-0.94-1.4-1.76v-9.76c0-1.2,0.27-1.49,0.84-1.84v-0.05l-3.71-2.45l-3.49,3.63L42.65,15l1-1.04l1.09,0.78
			v10.93c0,2.51,1.14,3.49,3.15,4.19l3.57-3.71L51.21,25.91z M42.9,26.02l-1.01,1.03c-1.01-0.5-1.31-0.94-1.31-2.17v-8.45
			c0-1.23,0.38-1.61,0.87-1.82v-0.08c-1.38-0.84-3.73-2.55-4.99-3.4L33,14.78V5.74c0-1.24,0.46-2.05,1.06-2.79L34,2.84
			c-2.17,0.28-3.28,1.26-4.18,2.76h-0.05c-0.15-0.94-0.53-1.39-1.14-1.92l-0.2,0.08c0.28,0.48,0.53,0.9,0.53,2.29v19.08
			c0,1.31-0.34,1.77-0.89,1.93v0.05l3.32,2.76l2.93-2.54L33,26.52V15.31L34.26,14l2.26,1.53v10.29c0,2.31,1.23,3.48,3.1,4.04
			l3.54-3.6L42.9,26.02z M106.22,14.53c-1.42-0.92-4-2.6-5.24-3.43c-1.96,1.42-4.72,3.15-7.26,4.38v8.93c0,1.39-0.28,1.7-0.86,1.98
			v0.09c2.09,1.31,3.15,2.06,5.19,3.43c1.9-1.51,5.65-3.63,7.31-4.35v-9.01c0-1.34,0.31-1.67,0.86-1.93V14.53z M100.81,27.5
			c-0.98-0.75-2.57-1.84-3.04-2.18v-11.6l0.39-0.22c0.64,0.47,2.18,1.65,3.13,2.23v11.54L100.81,27.5z M90.01,24.74v-7.98
			c0-1.53,0.22-1.81,0.87-2.15v-0.08l-5.19-3.43c-1.65,1.27-4.38,2.83-7.34,4.38v8.42c0,1.73-0.18,2.08-0.86,2.37v0.11
			c0,0,1.99,1.24,5.49,3.52l2.98-3.04c0.39,2.65,3.07,2.48,3.07,3.91c0,0.48-0.87,1.14-1.15,1.31c-1.04-0.7-2.65-1.29-4.07-1.29
			c-3.2,0-5.47,1.77-6.61,3.9l0.08,0.03c1.42-0.57,2.56-0.78,4.58-0.78c1.59,0,2.21,0.17,3.29,0.78c0,0,1.12-0.84,3.29-2.59
			c1.66-1.34,3.18-2.49,3.18-3.57C91.63,26.83,90.01,26.65,90.01,24.74z M85.21,27.11l-2.82-1.92V13.69l0.42-0.25
			c0,0,1.53,1.21,3.1,2.17v10.74L85.21,27.11z M76.49,26.02l-1,1.03c-0.93-0.26-1.31-1.23-1.31-2.15v-8.17
			c0-1.25,0.28-1.59,0.95-1.87v-0.09l-5.5-3.68l-6.14,3.79c0.43,2.12,2,3.87,3.91,4.8v0.03c-2.22,0.8-4.63,2.34-4.63,5.33
			c0,2.22,1.39,3.99,3.35,4.83l3.99-3.63c0.13,2.25,1.48,3.1,3.1,3.63l3.54-3.6L76.49,26.02z M67.92,19.52
			c-1.32-1.32-1.59-3.89-1.73-5.86l0.45-0.28l3.46,2.38v3.32C69.52,19.14,68.4,19.36,67.92,19.52z M68.56,27.11
			c-1.62-0.64-2.26-1.73-2.26-3.51c0-2.15,1.37-3.87,3.79-4.16v6.28L68.56,27.11z M27.65,3.54c-0.53,0.39-1.32,0.8-2.51,0.8
			c-1.08,0-1.95-0.36-2.65-1.17c-2.26,1.78-6.34,3.99-8.9,5.27v0.11c0.64,0.17,0.84,0.63,0.84,1.98v14.73l-0.87,0.59
			c-2.57-1.98-4.27-5.36-4.27-10.1c0-5.38,2.06-8.47,5.92-11.02l-0.34-0.17C10.79,6.15,4.5,10.38,4.5,18.02
			c0,8.32,5.27,13.2,12.44,13.2c5.27,0,8.68-3.44,10.49-5.55l-0.14-0.42c-1.63,1.14-3.4,1.98-5.35,2.23V8.28
			c0.32,0.08,0.68,0.11,1.06,0.11c3.05,0,4.75-2.26,4.86-4.69L27.65,3.54z M20.76,27.56c-2.59,0-5.13-0.22-6.86-1.42l5.07-3.37V6.08
			l0.14-0.06c0.64,0.94,1.35,1.73,2.37,2.12v19.38C21.24,27.55,21,27.56,20.76,27.56z"/>
	</g>
	<g>
		<path class="st19" d="M201.21,26.36l-3.51,3.6c-2.26-0.73-3.13-2.04-3.13-4.07V15.45l-1.87-1.34l-1.64,1.7v10.77l1.31,0.84
			l-2.93,2.54l-3.29-2.74v-0.08c0.7-0.34,0.86-0.68,0.86-1.95v-9.26c0-1.03-0.53-1.78-1.48-1.9l-1.06,1.09l-0.28-0.28l3.57-3.65
			c2.09,0.53,3.29,1.9,3.29,4.02l3.85-4.02c1.28,0.95,3.14,2.26,4.52,3.1v0.08c-0.59,0.22-0.78,0.67-0.78,1.84v8.81
			c0,1.22,0.42,1.7,1.31,2.12l1.01-1.03L201.21,26.36z"/>
		<path class="st19" d="M185,26.38l-3.43,3.57c-1.7-0.31-3.18-1.93-3.18-3.65l-4.07,3.65c-1.6-1.09-3.04-2.09-4.41-2.9v-0.08
			c0.75-0.4,0.89-0.62,0.89-2.03v-9.15c0-0.97-0.47-1.51-1.26-1.79l-0.97,1l-0.28-0.25l3.43-3.57c1.7,0.58,3.12,1.9,3.12,4.02v10.68
			l1.92,1.31l1.59-1.45V14.56l-1.17-0.81l2.82-2.57l3.26,2.65v0.05c-0.62,0.29-0.84,0.61-0.84,1.76v9.06c0,1.42,0.2,1.95,1.37,2.43
			l0.92-1L185,26.38z"/>
		<polygon class="st19" points="151.23,6.16 148.8,8.65 146.32,6.27 148.8,3.62 		"/>
		<path class="st19" d="M153.84,26.25l-3.57,3.71c-2.01-0.7-3.15-1.67-3.15-4.18V14.83l-1.09-0.78l-1,1.03l-0.25-0.26l3.49-3.62
			l3.71,2.45v0.06c-0.57,0.35-0.84,0.59-0.84,1.42v10.18c0,0.82,0.52,1.63,1.4,1.76l1.06-1.09L153.84,26.25z"/>
		<path class="st19" d="M145.14,12.35c-0.2,1.4-1.25,3.26-3.1,3.26c-1.18,0-2.03-0.67-2.51-1.42l-0.31,0.31
			c0.01,0.16,0.03,0.5,0.03,0.67v10.21l3.07,1.73l1.03-1.06l0.28,0.25l-3.62,3.68l-5.58-3.54v-0.08c0.64-0.28,0.84-0.64,0.84-1.62
			v-8.51c0-1.42-0.3-2.06-1.45-2.29l-1.09,1.12l-0.28-0.25l3.54-3.62c1.73,0.47,2.85,1.48,3.15,2.9l2.73-2.87
			c0.53,0.7,1.18,1.23,1.93,1.23c0.5,0,0.86-0.08,1.22-0.25L145.14,12.35z"/>
		<path class="st19" d="M134.61,3.57c-0.4,3.08-1.67,5.83-4.94,5.83c-0.39,0-0.97-0.06-1.22-0.08v18.3
			c1.98-0.28,4.26-1.24,5.21-2.01l0.14,0.36c-1.49,2.14-5.61,5.41-10.71,5.41c-6.45,0-11.44-4.25-11.44-11.1
			c0-5.91,4.88-10.17,8.06-11.29L120,9.09c-2.22,2.02-3.79,4.78-3.79,9.12c0,3.62,1.39,5.89,3.54,7.64l1.2-0.61v-11.1
			c0-1.2-0.39-1.59-0.84-1.67v-0.11l5.39-2.85V23.4l-5.41,2.74c1.45,1.11,3.76,1.7,5.97,1.7c0.76,0,1.11-0.04,1.95-0.17V9.31
			c-4.02-0.33-8.29-2.04-11.58-2.04c-2.3,0-4.04,0.95-4.04,2.71c0,1.06,0.84,1.51,1.37,1.76l-0.44,0.25
			c-0.98-0.44-2.2-1.51-2.2-3.77c0-3.28,2.64-5.44,6.19-5.44c4.91,0,9.52,2.59,13.86,2.59c1.34,0,2.58-0.71,3.21-2.01L134.61,3.57z"
			/>
		<path class="st19" d="M213.81,16.51c-2.32,1.42-5.08,3.25-7.19,4.77v3.93l3.43,1.9l1.9-1.95l0.25,0.22l-4.44,4.57l-6.14-3.74
			v-0.08c0.61-0.17,0.95-0.56,0.95-1.96v-8.65c2.48-1.12,5.11-2.96,7-4.38L213.81,16.51z M210.08,18.43
			c-0.58-0.81-2.44-3.56-3.23-4.82l-0.22,0.14v7L210.08,18.43z"/>
		<path class="st19" d="M167.82,14.7c-0.69,0.28-0.84,0.8-0.84,1.7v9.26c-1.68,0.72-5.44,2.76-7.34,4.3
			c-1.34-0.94-3.48-2.4-5.22-3.43v-0.09c0.75-0.3,0.92-0.73,0.92-2.26V6.24c0-1.26-0.22-1.89-0.5-2.4l0.16-0.08
			c0.59,0.5,0.98,1.09,1.15,1.9h0.05c0.9-1.5,2.02-2.46,4.18-2.73l0.03,0.17c-0.6,0.74-1.03,1.41-1.03,2.84v8.9l3.46-3.65
			c1.2,0.87,3.63,2.61,4.97,3.43V14.7z M162.91,27.33V15.62l-2.26-1.53l-1.25,1.28v9.93l3.09,2.26L162.91,27.33z"/>
		<path class="st19" d="M200.96,26.1l-1.01,1.03c-0.89-0.42-1.31-0.9-1.31-2.12V16.2c0-1.17,0.19-1.62,0.78-1.84v-0.08
			c-1.38-0.83-3.24-2.15-4.52-3.1l-3.85,4.02c0-2.12-1.2-3.49-3.29-4.02l-3.57,3.65l0.28,0.28l1.06-1.09
			c0.95,0.11,1.48,0.86,1.48,1.9v9.26c0,1.27-0.17,1.62-0.86,1.95v0.08l3.29,2.74l2.93-2.54l-1.31-0.84V15.81l1.64-1.7l1.87,1.34
			v10.43c0,2.04,0.87,3.35,3.13,4.07l3.51-3.6L200.96,26.1z M184.73,26.13l-0.92,1c-1.17-0.47-1.37-1-1.37-2.43v-9.06
			c0-1.15,0.22-1.47,0.84-1.76v-0.05l-3.26-2.65l-2.82,2.57l1.17,0.81v11.18l-1.59,1.45l-1.92-1.31V15.2c0-2.12-1.42-3.43-3.12-4.02
			l-3.43,3.57l0.28,0.25l0.97-1c0.78,0.28,1.26,0.82,1.26,1.79v9.15c0,1.41-0.15,1.63-0.89,2.03v0.08c1.37,0.81,2.81,1.81,4.41,2.9
			l4.07-3.65c0,1.73,1.48,3.35,3.18,3.65l3.43-3.57L184.73,26.13z M148.8,3.62l-2.48,2.65l2.48,2.37l2.43-2.49L148.8,3.62z
			 M153.6,25.99l-1.06,1.09c-0.88-0.12-1.4-0.94-1.4-1.76V15.14c0-0.83,0.27-1.08,0.84-1.42v-0.06l-3.71-2.45l-3.49,3.62l0.25,0.26
			l1-1.03l1.09,0.78v10.94c0,2.51,1.14,3.49,3.15,4.18l3.57-3.71L153.6,25.99z M145.03,12.19c-0.36,0.17-0.72,0.25-1.22,0.25
			c-0.75,0-1.4-0.53-1.93-1.23l-2.73,2.87c-0.31-1.42-1.42-2.44-3.15-2.9l-3.54,3.62l0.28,0.25l1.09-1.12
			c1.14,0.23,1.45,0.86,1.45,2.29v8.51c0,0.98-0.19,1.34-0.84,1.62v0.08l5.58,3.54l3.62-3.68l-0.28-0.25l-1.03,1.06l-3.07-1.73
			V15.17c0-0.17-0.01-0.51-0.03-0.67l0.31-0.31c0.47,0.76,1.33,1.42,2.51,1.42c1.84,0,2.9-1.87,3.1-3.26L145.03,12.19z M134.36,3.37
			c-0.63,1.3-1.87,2.01-3.21,2.01c-4.34,0-8.95-2.59-13.86-2.59c-3.55,0-6.19,2.15-6.19,5.44c0,2.25,1.23,3.32,2.2,3.77l0.44-0.25
			c-0.53-0.24-1.37-0.7-1.37-1.76c0-1.76,1.74-2.71,4.04-2.71c3.29,0,7.56,1.7,11.58,2.04v18.35c-0.85,0.13-1.2,0.17-1.95,0.17
			c-2.2,0-4.52-0.58-5.97-1.7l5.41-2.74V9.51l-5.39,2.85v0.11c0.45,0.08,0.84,0.47,0.84,1.67v11.1l-1.2,0.61
			c-2.15-1.76-3.54-4.02-3.54-7.64c0-4.34,1.57-7.1,3.79-9.12l-0.28-0.11c-3.18,1.13-8.06,5.39-8.06,11.29
			c0,6.85,4.99,11.1,11.44,11.1c5.1,0,9.21-3.27,10.71-5.41l-0.14-0.36c-0.96,0.77-3.24,1.73-5.21,2.01V9.31
			c0.25,0.02,0.84,0.08,1.22,0.08c3.27,0,4.54-2.75,4.94-5.83L134.36,3.37z M209.58,11.16c-1.9,1.42-4.52,3.26-7,4.38v8.65
			c0,1.39-0.34,1.78-0.95,1.96v0.08l6.14,3.74l4.44-4.57l-0.25-0.22l-1.9,1.95l-3.43-1.9v-3.93c2.11-1.52,4.87-3.35,7.19-4.77
			L209.58,11.16z M206.62,20.75v-7l0.22-0.14c0.8,1.27,2.66,4.01,3.23,4.82L206.62,20.75z M167.82,14.61
			c-1.34-0.82-3.76-2.56-4.97-3.43l-3.46,3.65v-8.9c0-1.44,0.43-2.1,1.03-2.84l-0.03-0.17c-2.17,0.28-3.28,1.24-4.18,2.73h-0.05
			c-0.17-0.81-0.56-1.4-1.15-1.9l-0.16,0.08c0.28,0.5,0.5,1.14,0.5,2.4v17.93c0,1.53-0.17,1.96-0.92,2.26v0.09
			c1.73,1.03,3.87,2.49,5.22,3.43c1.89-1.53,5.65-3.58,7.34-4.3V16.4c0-0.9,0.15-1.42,0.84-1.7V14.61z M162.49,27.56l-3.09-2.26
			v-9.93l1.25-1.28l2.26,1.53v11.71L162.49,27.56z"/>
	</g>
</g>
</svg>
