<?xml version="1.0" encoding="utf-8"?>
<!-- Generator: Adobe Illustrator 25.0.1, SVG Export Plug-In . SVG Version: 6.00 Build 0)  -->
<svg version="1.1" id="Layer_1" xmlns="http://www.w3.org/2000/svg" xmlns:xlink="http://www.w3.org/1999/xlink" x="0px" y="0px"
	 viewBox="0 0 128.15 52.4" style="enable-background:new 0 0 128.15 52.4;" xml:space="preserve">
<style type="text/css">
	.st0{fill:#FFFFFF;}
	.st1{fill:#010101;}
	.st2{fill:#DB8D29;}
	.st3{fill:#CC3504;}
	.st4{fill:#FDFBF9;}
	.st5{fill:#FCFAF9;}
	.st6{fill:#FDFCFB;}
	.st7{fill:#FCF8F6;}
	.st8{fill:#FCF9F7;}
	.st9{fill:#FBF8F5;}
	.st10{fill:#FAF4F1;}
	.st11{fill:#FCFBFB;}
	.st12{fill:#CC3709;}
	.st13{fill:#CC3405;}
	.st14{fill:#CB390E;}
	.st15{fill:#020407;}
	.st16{fill:#EC1E26;}
	.st17{fill:#B11217;}
	.st18{fill:#0083C6;}
	.st19{fill:#1363A5;}
	.st20{fill:#BC1631;}
	.st21{fill:#052D5C;}
	.st22{fill:#020D6E;}
</style>
<g transform="matrix(.5 0 0 .5 -.91333 -.38155)">
	<rect x="195.7" y="34.54" class="st0" width="58.27" height="58.27"/>
	<path class="st22" d="M84.95,15.6c-2.72,0.01-5.64,1.3-7,3.34c-2.86,4.3-0.73,10.68,4.01,12.01c2.45,0.69,5.59,0.27,7.5-0.99
		l1.65-1.09v-3.21v-3.21h-3.64h-3.64v1.5c0,1.49,0.01,1.5,1.93,1.5c1.63,0,1.93,0.13,1.93,0.84c0,2.6-5.54,2.1-6.77-0.62
		c-1-2.19-0.21-5.24,1.61-6.21c1.4-0.75,3.53-0.51,4.62,0.51c1,0.94,1.02,0.94,2.49,0.15c0.82-0.44,1.49-0.93,1.49-1.08
		c0-0.55-2.37-2.54-3.56-2.99C86.74,15.74,85.86,15.6,84.95,15.6L84.95,15.6z M112.75,15.6c-0.54,0-1.08,0.17-1.41,0.5
		c-0.87,0.87-0.63,2.82,0.38,3.14l0.89,0.28l-0.93,0.99c-0.89,0.95-0.89,1.01-0.14,1.45c1.12,0.65,1.27,0.61,2.25-0.65
		c1-1.27,1.22-4.37,0.37-5.21C113.83,15.77,113.29,15.6,112.75,15.6L112.75,15.6z M14.7,15.62c-2.91,0.11-5.6,1.57-6.76,3.85
		c-1.01,1.97-1.13,5.89-0.24,7.6c0.87,1.68,2.51,3.08,4.39,3.75c2.26,0.8,3.9,0.75,5.98-0.2c1.59-0.72,3.16-2.27,3.16-3.12
		c0-0.18-0.59-0.63-1.31-1c-1.25-0.65-1.36-0.63-2.6,0.42c-1.66,1.4-3.38,1.4-5.04,0c-2.19-1.84-2.19-4.96,0.01-7.01
		c1.37-1.27,3.79-1.21,5.06,0.14c0.95,1.01,1.02,1.02,2.43,0.35c0.8-0.38,1.45-0.93,1.45-1.21c0-0.91-2.92-3.13-4.51-3.42
		C16.05,15.64,15.37,15.59,14.7,15.62L14.7,15.62z M122.85,15.63c-0.88,0.01-1.74,0.14-2.46,0.42c-2.25,0.85-3.14,2.07-3.14,4.29
		c0,1.73,0.19,2.19,1.28,3.11c0.7,0.59,2.35,1.32,3.65,1.61c2.77,0.62,3.6,1.34,2.75,2.37c-0.76,0.92-3.74,0.59-5.4-0.59l-1.23-0.88
		l-0.94,1.44l-0.94,1.44l1.13,0.89c0.62,0.49,1.63,1,2.24,1.13c0.61,0.13,1.3,0.31,1.54,0.39c1.76,0.59,5.05-0.21,6.49-1.56
		c1.25-1.17,1.7-3.42,1.01-5.08c-0.57-1.38-2.98-2.76-5.67-3.24c-1.7-0.31-2.73-1.16-2.28-1.89c0.42-0.68,3.02-0.53,4.69,0.27
		c1.47,0.7,1.51,0.69,2.36-0.32c1.06-1.28,1.07-1.39,0.14-2.19C126.89,16.19,124.8,15.6,122.85,15.63L122.85,15.63z M209.6,15.64
		c-2.01,0.01-4.01,0.69-5.5,2.04c-4.25,3.86-2.8,11.22,2.58,13.14c2.86,1.02,6.33,0.46,8.38-1.37c1.3-1.15,2.46-3.96,2.46-5.93
		c0-1.93-1.16-4.78-2.4-5.88C213.62,16.3,211.61,15.64,209.6,15.64L209.6,15.64z M54.08,15.66c-2.69-0.07-5.51,1.06-6.99,3.28
		c-2.86,4.31-0.71,10.73,4.01,11.98c2.21,0.59,3.07,0.6,4.95,0.08c1.45-0.4,4.2-2.6,4.2-3.36c0-0.17-0.67-0.64-1.49-1.03
		c-1.46-0.7-1.52-0.69-2.55,0.35c-2.45,2.45-6.67,0.24-6.67-3.48c0-1.41,1.08-3.46,2.12-4.02c1.4-0.75,3.33-0.5,4.59,0.58
		c1.14,0.98,1.25,0.99,2.6,0.35c1.65-0.79,1.68-0.91,0.56-2.33C58.18,16.5,56.17,15.71,54.08,15.66L54.08,15.66z M101.25,15.67
		c-3-0.07-6.04,1.29-7.29,3.9c-0.41,0.85-0.71,2.55-0.71,3.96c0,4,1.98,6.6,5.79,7.62c1.35,0.36,4.43-0.07,6.05-0.84
		c0.89-0.42,1.92-1.46,2.58-2.59c0.96-1.64,1.08-2.27,0.94-4.81c-0.13-2.37-0.39-3.22-1.33-4.45
		C105.88,16.63,103.58,15.72,101.25,15.67L101.25,15.67z M23.39,16.01v7.5v7.5h1.71h1.71v-3v-3h3.21h3.21v3v3h1.93h1.93v-7.5v-7.5
		h-1.93h-1.93v2.79v2.79h-3.21h-3.21V18.8v-2.79H25.1C25.1,16.01,23.39,16.01,23.39,16.01z M40.1,16.01v7.5v7.5h1.71h1.71v-7.5v-7.5
		h-1.71C41.82,16.01,40.1,16.01,40.1,16.01z M149.51,16.01l-1.82,5.14c-1,2.83-1.88,5.14-1.94,5.14c-0.07,0-0.96-2.31-1.98-5.14
		l-1.86-5.14l-2.08,0c-1.49,0-2.02,0.15-1.87,0.53c0.12,0.29,1.42,3.67,2.89,7.5l2.68,6.97h2.19h2.19l2.09-5.46
		c1.15-3.01,2.45-6.38,2.89-7.5l0.8-2.04h-2.08L149.51,16.01L149.51,16.01z M155.4,16.01v7.5v7.5h5.36h5.36v-1.5v-1.5h-3.64h-3.64
		v-1.5v-1.5h3.64h3.64V23.3v-1.71h-3.64h-3.64V20.3v-1.29h3.64h3.64v-1.5v-1.5h-5.36L155.4,16.01L155.4,16.01z M168.69,16.01v7.5
		v7.5h1.71h1.71v-2.57c0-2.42,0.06-2.57,1.01-2.57c0.8,0,1.3,0.54,2.38,2.57l1.37,2.57h2.14h2.14l-1.56-2.78l-1.56-2.78l1.27-1.07
		c1.59-1.33,2.06-3.48,1.22-5.5c-1.03-2.48-2.01-2.86-7.22-2.86L168.69,16.01L168.69,16.01z M183.45,16.01
		c-2.37,0-2.42-0.23,1.04,5.13c2.56,3.95,2.63,4.13,2.63,6.97v2.91h1.71h1.71v-2.98c0-2.94,0.04-3.04,2.79-7.27
		c1.53-2.36,2.79-4.4,2.79-4.52c0-0.12-0.92-0.22-2.04-0.22c-2.03,0.01-2.03,0.01-3.53,2.57c-0.83,1.41-1.6,2.56-1.71,2.56
		c-0.12,0-0.93-1.15-1.8-2.57C185.47,16.04,185.43,16.01,183.45,16.01L183.45,16.01z M220.02,16.01c-1.52,0-2.07,0.15-1.93,0.54
		c0.11,0.29,0.72,2.37,1.36,4.61c0.64,2.24,1.54,5.37,2.01,6.97l0.85,2.89h1.86h1.86l0.88-3.32c0.49-1.83,1.02-3.9,1.2-4.61
		c0.27-1.12,0.46-0.69,1.44,3.21l1.12,4.5l1.95,0.13l1.95,0.13l1.99-7c1.11-3.85,2-7.23,2-7.52c0-0.34-0.68-0.53-1.88-0.53h-1.88
		l-1.19,4.81l-1.19,4.81l-1.27-4.81l-1.27-4.81h-1.43c-1.55,0-1.67,0.25-3.21,6.54c-0.27,1.12-0.63,2.13-0.8,2.23
		c-0.16,0.1-0.75-1.83-1.29-4.29l-0.99-4.48L220.02,16.01L220.02,16.01z M240.7,16.01v7.5v7.5h1.7h1.7l0.12-4.36l0.12-4.36
		l3.18,4.36c3.08,4.22,3.24,4.36,4.82,4.36h1.64v-7.5v-7.5h-1.7h-1.7l-0.12,4.13l-0.12,4.13l-2.97-4.13
		c-2.97-4.12-2.98-4.13-4.82-4.13L240.7,16.01L240.7,16.01z M66.48,16.23l-2.66,6.86c-1.47,3.77-2.68,7.1-2.69,7.39
		c-0.02,0.35,0.64,0.54,1.93,0.54c1.78,0,1.99-0.11,2.4-1.29c0.44-1.26,0.51-1.29,3.36-1.29s2.93,0.03,3.36,1.29
		c0.41,1.17,0.62,1.29,2.4,1.29c1.29,0,1.94-0.18,1.92-0.54c-0.02-0.29-1.23-3.62-2.7-7.39l-2.68-6.86H68.8H66.48L66.48,16.23z
		 M209.49,18.98c2.1-0.05,4.21,1.58,4.21,4.54c0,1.63-0.23,2.22-1.25,3.25c-3.11,3.11-8.04-0.15-6.83-4.5
		C206.23,20.06,207.85,19.01,209.49,18.98L209.49,18.98z M100.97,19.01c0.74,0,1.71,0.2,2.17,0.44c0.99,0.53,2.12,2.59,2.12,3.87
		c0,1.5-1.25,3.68-2.4,4.21c-2.26,1.03-4.49,0.27-5.51-1.88c-0.84-1.76-0.84-2.91-0.02-4.5C98.12,19.64,99.18,19.01,100.97,19.01
		L100.97,19.01z M172.12,19.01h1.74c2.91,0,4.35,1.45,2.89,2.91c-0.28,0.28-1.44,0.51-2.57,0.51h-2.06v-1.71V19.01z M68.78,20.73
		c0.28,0,1.77,3.69,1.76,4.39c0,0.18-0.77,0.32-1.72,0.32s-1.71-0.16-1.71-0.35C67.11,24.34,68.49,20.73,68.78,20.73z M111.89,34.08
		c-5.26-0.01-9.11,0.92-13.92,3.24c-7.66,3.7-13.38,10.91-15.23,19.22c-1.09,4.9-0.71,13.38,0.8,18.03
		c3.25,9.94,11.42,16.92,22.57,19.29c3.45,0.73,11.64,0.49,15.05-0.44c4.95-1.35,9.59-3.94,13.28-7.38l2.1-1.97V72.96V61.88h-13.93
		h-13.93v4.71v4.71h8.79h8.79v4.21c0,4.77,0.01,4.76-4.62,7.11c-8.17,4.14-17.4,2.51-23.54-4.16c-7.22-7.83-6.97-21.56,0.54-29.27
		c7.5-7.7,20.31-7.55,27.41,0.3l1.55,1.71l4.13-2.31c2.27-1.27,4.2-2.53,4.29-2.8c0.26-0.78-6.32-7.11-8.9-8.55
		c-4.06-2.27-7.43-3.17-12.88-3.42C113.42,34.1,112.64,34.08,111.89,34.08L111.89,34.08z M41.53,34.87L35.78,56.3
		c-3.16,11.79-5.85,21.43-5.98,21.43c-0.13,0-2.65-9.59-5.61-21.32l-5.38-21.32l-5.85-0.12c-4.53-0.09-5.85,0-5.86,0.43
		c0,0.3,3.69,13.42,8.21,29.16l8.22,28.61h5.63h5.63l5.29-20.25c2.91-11.14,5.41-20.48,5.56-20.76c0.15-0.28,2.57,8.21,5.38,18.86
		c2.81,10.65,5.28,20,5.48,20.76l0.37,1.39l5.66,0h5.66l8.11-28.61c4.46-15.74,8.19-28.85,8.29-29.15c0.14-0.41-1.2-0.54-5.81-0.54
		h-5.99l-5.26,21.11C64.64,67.59,62.15,77.33,62,77.62c-0.15,0.29-2.87-9.21-6.05-21.11l-5.77-21.63l-4.32,0L41.53,34.87
		L41.53,34.87z M140.84,34.87v29.15v29.15h5.35h5.35l0.11-20.65l0.11-20.65l14.79,20.65l14.79,20.65h5.04h5.04V64.02V34.87h-5.14
		h-5.14l-0.11,20.16l-0.11,20.16l-14.53-20.16l-14.53-20.16h-5.51H140.84L140.84,34.87z M195.7,34.87v29.16v29.16l9.71-0.12
		l9.71-0.12l5.74-10.23c3.16-5.62,5.67-10.3,5.59-10.38c-0.09-0.09-0.92,0.05-1.85,0.31c-0.93,0.26-2.94,0.38-4.48,0.27
		c-5.06-0.36-9.13-3.3-11.44-8.26c-1.11-2.39-1.21-3.03-1.35-8.94c-0.13-5.6-0.04-6.71,0.78-9.25c1.58-4.9,4.98-8.61,9.7-10.54
		l2.53-1.04l-12.32-0.01L195.7,34.87L195.7,34.87z M254,34.87l-11.89,0.01l-11.89,0.01l3.04,1.48c7.02,3.41,9.98,9.48,9.5,19.42
		c-0.31,6.35-1.24,8.83-8.85,23.49c-3.54,6.81-6.56,12.72-6.71,13.14c-0.27,0.7,0.54,0.75,13.26,0.75H254V64.02L254,34.87L254,34.87
		z M225.07,44.46c-1.54,0-3.07,0.31-3.91,0.94c-2.61,1.95-2.94,2.84-3.1,8.31c-0.18,5.96,0.56,8.37,3.01,9.87
		c1.86,1.13,5.58,1.17,7.62,0.08c2.54-1.36,3.23-3.34,3.23-9.28c0-5.66-0.48-7.13-2.92-8.96C228.14,44.78,226.61,44.46,225.07,44.46
		L225.07,44.46z"/>
</g>
</svg>
