<?xml version="1.0" encoding="utf-8"?>
<!-- Generator: Adobe Illustrator 25.0.1, SVG Export Plug-In . SVG Version: 6.00 Build 0)  -->
<svg version="1.1" id="Layer_1" xmlns="http://www.w3.org/2000/svg" xmlns:xlink="http://www.w3.org/1999/xlink" x="0px" y="0px"
	 viewBox="0 0 138.97 53.32" style="enable-background:new 0 0 138.97 53.32;" xml:space="preserve">
<style type="text/css">
	.st0{fill:#FFFFFF;}
	.st1{fill:#010101;}
	.st2{fill:#DB8D29;}
	.st3{fill:#CC3504;}
	.st4{fill:#FDFBF9;}
	.st5{fill:#FCFAF9;}
	.st6{fill:#FDFCFB;}
	.st7{fill:#FCF8F6;}
	.st8{fill:#FCF9F7;}
	.st9{fill:#FBF8F5;}
	.st10{fill:#FAF4F1;}
	.st11{fill:#FCFBFB;}
	.st12{fill:#CC3709;}
	.st13{fill:#CC3405;}
	.st14{fill:#CB390E;}
	.st15{fill:#020407;}
	.st16{fill:#EC1E26;}
	.st17{fill:#B11217;}
	.st18{fill:#0083C6;}
	.st19{fill:#1363A5;}
	.st20{fill:#BC1631;}
	.st21{fill:#052D5C;}
	.st22{fill:#020D6E;}
</style>
<g>
	<path d="M104.81,29.61c0,6.79,0,13.53,0,20.32c-1.59,0-3.16,0-4.84,0c0-4.04,0-8.1,0-12.24c-0.9,3.99-1.77,7.88-2.63,11.77
		c-0.09,0.41-0.27,0.54-0.69,0.53c-0.9-0.03-1.79-0.03-2.69,0c-0.4,0.01-0.55-0.13-0.63-0.51c-0.79-3.78-1.6-7.55-2.41-11.33
		c-0.05-0.25-0.11-0.5-0.22-0.74c0,4.15,0,8.3,0,12.52c-0.21,0.02-0.38,0.05-0.55,0.05c-1.08,0-2.15-0.02-3.23,0.01
		c-0.51,0.02-0.69-0.13-0.68-0.66c0.03-2.57,0.01-5.14,0.01-7.71c0-3.74,0-7.49,0-11.23c0-0.24,0-0.47,0-0.76
		c0.24-0.02,0.43-0.04,0.62-0.04c1.79,0,3.59,0.01,5.38-0.01c0.44-0.01,0.61,0.11,0.71,0.57c0.83,4.06,1.68,8.1,2.53,12.16
		c0.01,0.07,0.04,0.13,0.18,0.21c0.08-0.39,0.18-0.79,0.25-1.18c0.71-3.71,1.43-7.42,2.11-11.14c0.09-0.47,0.26-0.61,0.73-0.6
		c1.81,0.03,3.63,0.01,5.44,0.01C104.4,29.58,104.59,29.6,104.81,29.61z"/>
	<path d="M36.53,29.58c1.63,0,3.2-0.01,4.78,0.02c0.18,0,0.43,0.24,0.53,0.43c1.68,3.32,3.33,6.65,4.99,9.98
		c0.02,0.05,0.07,0.08,0.22,0.25c0-3.63,0-7.13,0-10.65c1.59,0,3.08,0,4.64,0c0.01,0.2,0.03,0.39,0.03,0.58
		c0,6.37,0,12.75,0.01,19.12c0,0.51-0.12,0.7-0.66,0.69c-1.21-0.04-2.43,0.01-3.65-0.03c-0.22-0.01-0.54-0.18-0.64-0.36
		c-1.75-3.17-3.47-6.36-5.2-9.54c-0.13-0.24-0.24-0.48-0.46-0.71c0,3.51,0,7.02,0,10.58c-1.56,0-3.06,0-4.61,0
		C36.53,43.17,36.53,36.41,36.53,29.58z"/>
	<path d="M25.15,11.14c1.68,0,3.28,0,4.95,0c0-0.25,0-0.46,0-0.67c0-2.11,0.02-4.22-0.01-6.33c-0.01-0.54,0.16-0.67,0.68-0.66
		c1.47,0.03,2.94,0.01,4.46,0.01c0,6.81,0,13.57,0,20.37c-1.69,0-3.37,0-5.12,0c0-0.24,0-0.46,0-0.67c0-2.41-0.01-4.82,0.01-7.23
		c0-0.48-0.14-0.61-0.61-0.6c-1.25,0.03-2.51,0.03-3.76,0c-0.49-0.01-0.6,0.16-0.6,0.62c0.02,2.39,0.01,4.78,0.01,7.17
		c0,0.22,0,0.43,0,0.7c-1.71,0-3.37,0-5.08,0c0-6.75,0-13.51,0-20.36c0.32,0,0.64,0,0.95,0c1.18,0,2.35,0.02,3.53-0.01
		c0.47-0.01,0.62,0.12,0.61,0.6c-0.02,2.11-0.01,4.22-0.01,6.33C25.15,10.63,25.15,10.85,25.15,11.14z"/>
	<path d="M113.67,13.9c-0.03,2.03-0.3,4.01-1.18,5.87c-1.52,3.21-4.82,4.93-8.36,4.44c-3.18-0.44-5.37-2.16-6.45-5.15
		c-1.31-3.63-1.3-7.32,0.07-10.93c1.26-3.33,4.21-5.16,7.76-5.04c3.51,0.12,6.25,2.18,7.39,5.52
		C113.49,10.33,113.67,12.1,113.67,13.9z M101.91,13.7c0.02,0.37,0.03,0.73,0.06,1.09c0.1,1.36,0.24,2.7,0.96,3.9
		c0.89,1.46,2.74,1.85,3.94,0.72c0.51-0.48,0.92-1.18,1.12-1.85c0.73-2.39,0.66-4.83,0.16-7.26c-0.07-0.37-0.22-0.72-0.38-1.07
		c-0.5-1.12-1.34-1.78-2.6-1.76c-1.28,0.02-2.09,0.77-2.57,1.91C102.02,10.76,101.98,12.24,101.91,13.7z"/>
	<path d="M94.26,10.42c-1.6,0.32-3.09,0.62-4.63,0.92c-0.16-0.62-0.29-1.22-0.48-1.8c-0.26-0.78-0.57-1.55-1.41-1.91
		c-1.15-0.49-2.43,0.02-3.01,1.2c-0.59,1.21-0.71,2.52-0.75,3.84c-0.05,1.72-0.05,3.43,0.46,5.09c0.31,1,0.79,1.89,1.93,2.16
		c1.81,0.44,3.32-0.67,3.53-2.67c-0.42,0-0.82,0-1.23,0c-1.15,0-1.15,0-1.15-1.18c0-0.85,0-1.7,0-2.58c2.4,0,4.7,0,7.07,0
		c0,3.44,0,6.87,0,10.35c-1.19,0-2.39,0-3.67,0c0-0.72,0-1.42,0-2.09c-0.61,0.58-1.12,1.23-1.78,1.65c-2.57,1.63-6.41,0.73-8.3-1.87
		c-1.24-1.71-1.74-3.69-1.92-5.76c-0.24-2.72-0.16-5.41,0.88-7.99c1.47-3.61,4.48-4.87,7.93-4.68c1.88,0.1,3.55,0.72,4.72,2.31
		c0.77,1.04,1.21,2.24,1.51,3.48C94.07,9.38,94.15,9.87,94.26,10.42z"/>
	<path d="M19.07,29.61c1.74,0,3.39,0,5.13,0c0,0.25,0,0.48,0,0.71c0,4-0.01,8.01,0.01,12.01c0,0.71,0.09,1.43,0.24,2.13
		c0.23,1.04,0.96,1.55,2.05,1.56c1.07,0.01,1.78-0.46,2.04-1.48c0.15-0.57,0.23-1.17,0.24-1.76c0.02-4.14,0.01-8.29,0.01-12.43
		c0-0.23,0-0.47,0-0.73c1.66,0,3.25,0,4.94,0c0,0.22,0,0.43,0,0.64c0,4.02,0.04,8.05-0.02,12.07c-0.02,1.24-0.16,2.51-0.46,3.71
		c-0.57,2.29-2.16,3.6-4.46,4.04c-1.62,0.32-3.25,0.3-4.87-0.03c-2.53-0.51-4.23-2.34-4.66-5.05c-0.12-0.78-0.19-1.58-0.19-2.37
		c-0.02-4.08-0.01-8.17-0.01-12.25C19.07,30.15,19.07,29.91,19.07,29.61z"/>
	<path d="M132.86,36.03c-0.5-0.63-0.9-1.23-1.39-1.74c-0.67-0.7-1.53-1-2.5-0.86c-0.65,0.1-1.17,0.41-1.36,1.09
		c-0.19,0.69,0.04,1.32,0.59,1.7c0.75,0.51,1.57,0.92,2.39,1.33c1.07,0.53,2.19,0.95,3.24,1.52c3.68,1.98,3.84,5.9,2.36,8.33
		c-0.7,1.15-1.7,1.97-2.96,2.38c-3.37,1.09-6.59,0.88-9.37-1.52c-0.85-0.73-1.46-1.75-2.24-2.72c1.51-0.77,2.85-1.46,4.18-2.14
		c0.51,0.61,0.97,1.23,1.51,1.77c0.87,0.88,1.94,1.29,3.2,1.07c0.65-0.11,1.17-0.4,1.4-1.06c0.23-0.68,0.13-1.35-0.42-1.8
		c-0.53-0.43-1.15-0.78-1.77-1.08c-1.43-0.69-2.94-1.24-4.32-2.01c-2.11-1.18-3.04-3.11-2.86-5.5c0.19-2.58,1.62-4.27,4.03-5.1
		c4.03-1.38,7.77,0.03,9.89,3.67c0.24,0.41,0.2,0.61-0.22,0.83C135.1,34.79,133.97,35.42,132.86,36.03z"/>
	<path d="M1.9,45.44c1.4-0.71,2.72-1.38,4.03-2.04c0.55,0.64,1.03,1.27,1.59,1.82c0.85,0.85,1.89,1.21,3.1,1.02
		c0.71-0.11,1.22-0.45,1.45-1.16c0.23-0.71,0.04-1.35-0.52-1.77c-0.61-0.46-1.31-0.81-2.01-1.15c-1.34-0.65-2.76-1.16-4.04-1.9
		c-2.24-1.29-3.1-3.35-2.78-5.88c0.3-2.4,1.74-3.91,3.97-4.7c3.31-1.18,6.78-0.31,8.91,2.24c0.48,0.57,0.85,1.24,1.32,1.93
		c-0.84,0.47-1.6,0.89-2.36,1.31c-0.5,0.28-1.04,0.8-1.51,0.75c-0.37-0.04-0.67-0.78-1.02-1.19c-0.63-0.77-1.42-1.27-2.44-1.32
		c-0.86-0.04-1.57,0.36-1.8,1c-0.25,0.71-0.02,1.47,0.74,1.97c0.64,0.43,1.35,0.76,2.04,1.11c1.3,0.64,2.67,1.16,3.9,1.91
		c2.23,1.36,3.04,3.47,2.61,6c-0.41,2.4-1.93,3.91-4.22,4.55c-3.09,0.86-6.04,0.57-8.65-1.49C3.19,47.67,2.49,46.63,1.9,45.44z"/>
	<path d="M78.75,23.89c-1.68,0-3.29,0.01-4.9-0.02c-0.13,0-0.32-0.3-0.37-0.49c-0.26-0.96-0.48-1.92-0.73-2.92
		c-1.66,0-3.27-0.01-4.88,0.02c-0.14,0-0.37,0.21-0.41,0.36c-0.25,0.86-0.46,1.73-0.68,2.6c-0.07,0.27-0.15,0.47-0.5,0.46
		c-1.37-0.02-2.75-0.01-4.12-0.01c-0.07,0-0.15-0.04-0.27-0.07c0.49-1.7,0.97-3.38,1.45-5.06c1.42-4.87,2.85-9.74,4.24-14.61
		c0.17-0.59,0.4-0.79,1.01-0.76c1.23,0.05,2.47,0.03,3.7,0.01c0.38-0.01,0.57,0.11,0.68,0.49c1.86,6.44,3.73,12.88,5.6,19.31
		C78.63,23.4,78.67,23.61,78.75,23.89z M70.19,10c-0.57,2.23-1.1,4.31-1.65,6.44c1.11,0,2.12,0,3.22,0
		C71.24,14.31,70.73,12.23,70.19,10z"/>
	<path d="M13.09,15.96c1.58,0.25,3.13,0.5,4.81,0.76c-0.17,0.73-0.3,1.44-0.52,2.13c-0.64,2.04-1.7,3.76-3.73,4.72
		c-4.31,2.03-9.34-0.09-10.75-4.61C1.82,15.5,1.82,11.98,2.89,8.5c1.17-3.83,4.25-5.66,8.32-5.37c3.82,0.27,5.48,2.55,6.18,5.61
		c0.38,1.67,0.35,1.67-1.33,1.96c-0.84,0.14-1.69,0.29-2.52,0.47c-0.5,0.1-0.74,0.01-0.83-0.56c-0.1-0.66-0.28-1.34-0.57-1.94
		c-0.71-1.49-2.75-1.68-3.68-0.31c-0.45,0.67-0.75,1.5-0.89,2.3c-0.41,2.35-0.41,4.72,0.22,7.04c0.28,1.05,0.79,1.97,1.98,2.26
		c1.17,0.28,2.12-0.15,2.59-1.26c0.28-0.67,0.41-1.41,0.61-2.12C13,16.39,13.03,16.2,13.09,15.96z"/>
	<path d="M57.06,15.97c1.54,0.25,3.09,0.5,4.76,0.76c-0.19,0.77-0.32,1.5-0.55,2.21c-0.73,2.26-1.96,4.11-4.35,4.88
		c-2.1,0.67-4.21,0.6-6.25-0.27c-1.83-0.78-3.04-2.21-3.67-4.04c-1.32-3.81-1.36-7.68-0.03-11.48c1.26-3.59,4.44-5.32,8.54-4.86
		c3.12,0.35,5.11,2.25,5.76,5.5c0.11,0.56,0.2,1.13,0.31,1.75c-1.54,0.27-3,0.54-4.47,0.77c-0.12,0.02-0.37-0.18-0.41-0.33
		c-0.19-0.61-0.29-1.24-0.49-1.84c-0.3-0.87-0.87-1.48-1.85-1.54c-0.93-0.06-1.74,0.26-2.16,1.09c-0.36,0.71-0.63,1.51-0.76,2.3
		c-0.36,2.26-0.35,4.52,0.23,6.75c0.28,1.07,0.77,2.03,1.98,2.33c1.17,0.29,2.14-0.13,2.6-1.23C56.58,17.86,56.78,16.94,57.06,15.97
		z"/>
	<path d="M113.11,33.9c0,1.13-0.01,2.2,0.02,3.27c0,0.1,0.3,0.27,0.46,0.27c1.29,0.02,2.59,0.01,3.89,0.01c0.22,0,0.43,0,0.7,0
		c0,1.33,0,2.61,0,3.98c-1.65,0-3.31,0-5.07,0c0,0.49,0,0.9,0,1.31c0,0.82,0.03,1.63-0.01,2.45c-0.02,0.48,0.15,0.61,0.62,0.61
		c2.05-0.02,4.1-0.01,6.16-0.01c0.22,0,0.43,0,0.69,0c0,1.4,0,2.74,0,4.15c-0.16,0.01-0.33,0.04-0.5,0.04c-3.81,0-7.61,0-11.42,0.01
		c-0.47,0-0.67-0.09-0.67-0.62c0.02-6.41,0.01-12.83,0.01-19.24c0-0.16,0.02-0.31,0.03-0.5c4.08,0,8.14,0,12.23,0
		c0,1.41,0,2.81,0,4.28C117.87,33.9,115.53,33.9,113.11,33.9z"/>
	<path d="M75.84,29.63c0,1.42,0,2.81,0,4.27c-0.42,0-0.81,0-1.2,0c-0.94,0-1.87,0.03-2.81-0.01c-0.53-0.02-0.67,0.14-0.67,0.67
		c0.02,4.9,0,9.8,0.02,14.69c0,0.56-0.14,0.76-0.73,0.74c-1.25-0.04-2.51-0.01-3.76-0.01c-0.19,0-0.39-0.02-0.65-0.03
		c0-5.35,0-10.65,0-16.04c-1.57,0-3.07,0-4.61,0c0-1.46,0-2.84,0-4.28C66.22,29.63,71.01,29.63,75.84,29.63z"/>
	<path d="M43.56,23.87c-1.7,0-3.35,0-5.08,0c0-0.23,0-0.44,0-0.66c0-6.33,0.01-12.66-0.01-18.99c0-0.56,0.12-0.77,0.72-0.74
		c1.23,0.05,2.47,0.01,3.7,0.02c0.21,0,0.43,0.02,0.67,0.03C43.56,10.32,43.56,17.06,43.56,23.87z"/>
	<path d="M77.95,29.61c1.7,0,3.35,0,5.09,0c0,0.24,0,0.45,0,0.65c0,6.33-0.01,12.67,0.01,19c0,0.58-0.16,0.75-0.73,0.73
		c-1.29-0.04-2.59-0.02-3.88-0.01c-0.37,0-0.53-0.08-0.53-0.49c0.01-6.53,0.01-13.07,0.01-19.6C77.92,29.82,77.93,29.75,77.95,29.61
		z"/>
	<path class="st17" d="M63.06,43.61c-0.97-0.22-1.78-0.39-2.57-0.6c-0.47-0.12-0.72-0.05-0.85,0.48c-0.19,0.78-0.47,1.54-0.84,2.3
		c-0.25-0.78-0.53-1.56-0.73-2.36c-0.12-0.49-0.36-0.54-0.77-0.43c-0.81,0.2-1.62,0.38-2.5,0.46c0.56-0.6,1.09-1.24,1.69-1.8
		c0.41-0.38,0.31-0.63-0.02-0.97c-0.55-0.56-1.08-1.15-1.62-1.72c0.02-0.05,0.04-0.09,0.07-0.14c0.7,0.16,1.41,0.3,2.1,0.47
		c0.89,0.21,0.88,0.22,1.14-0.66c0.2-0.68,0.41-1.36,0.77-2.07c0.19,0.63,0.37,1.26,0.58,1.88c0.35,1.02,0.07,1.13,1.35,0.81
		c0.62-0.15,1.24-0.28,1.86-0.41c0.03-0.01,0.07,0.02,0.19,0.05c-0.7,0.77-1.38,1.51-2.09,2.29C61.56,41.98,62.25,42.73,63.06,43.61
		z"/>
</g>
</svg>
