<?xml version="1.0" encoding="utf-8"?>
<!-- Generator: Adobe Illustrator 25.0.1, SVG Export Plug-In . SVG Version: 6.00 Build 0)  -->
<svg version="1.1" id="Layer_1" xmlns="http://www.w3.org/2000/svg" xmlns:xlink="http://www.w3.org/1999/xlink" x="0px" y="0px"
	 viewBox="0 0 77.5 72.22" style="enable-background:new 0 0 77.5 72.22;" xml:space="preserve">
<style type="text/css">
	.st0{fill:#FFFFFF;}
	.st1{fill:#010101;}
	.st2{fill:#DB8D29;}
	.st3{fill:#CC3504;}
	.st4{fill:#FDFBF9;}
	.st5{fill:#FCFAF9;}
	.st6{fill:#FDFCFB;}
	.st7{fill:#FCF8F6;}
	.st8{fill:#FCF9F7;}
	.st9{fill:#FBF8F5;}
	.st10{fill:#FAF4F1;}
	.st11{fill:#FCFBFB;}
	.st12{fill:#CC3709;}
	.st13{fill:#CC3405;}
	.st14{fill:#CB390E;}
	.st15{fill:#020407;}
	.st16{fill:#EC1E26;}
	.st17{fill:#B11217;}
	.st18{fill:#0083C6;}
	.st19{fill:#1363A5;}
	.st20{fill:#BC1631;}
	.st21{fill:#052D5C;}
	.st22{fill:#020D6E;}
</style>
<g>
	<path class="st3" d="M75,4.46c0,21.81,0,43.55,0,65.34c-24.05,0-48.05,0-72.13,0c0-21.74,0-43.5,0-65.34
		C26.86,4.46,50.88,4.46,75,4.46z M59.38,59.97c2.41,0,4.71,0.03,7-0.03c0.29-0.01,0.71-0.43,0.82-0.74
		c0.76-2.28,1.46-4.58,2.17-6.87c0.8-2.57,1.59-5.13,2.42-7.78c-2.11,0-4.1,0-6.13,0c-0.34,1.3-0.66,2.57-0.99,3.84
		c-0.33,1.28-0.66,2.56-1.07,4.13c-0.67-2.63-1.29-4.92-1.82-7.22c-0.15-0.64-0.4-0.82-1.02-0.81c-1.68,0.04-3.36,0.04-5.03,0
		c-0.62-0.01-0.93,0.16-1.05,0.8c-0.18,0.96-0.43,1.92-0.67,2.87c-0.32,1.3-0.65,2.6-0.98,3.9c-0.6-1.66-1.01-3.28-1.39-4.9
		C51,44.5,51,44.5,48.26,44.5c-1.58,0-3.16,0-4.89,0c1.64,5.29,3.23,10.38,4.79,15.42c2.41,0,4.66,0,6.96,0
		c0.69-2.38,1.36-4.72,2.13-7.38C58.01,55.2,58.68,57.53,59.38,59.97z M6.16,44.5c0,5.19,0,10.27,0,15.38c2.15,0,4.23,0,6.47,0
		c0-1.97,0-3.86,0-5.91c1.65,1.9,3.15,3.63,4.67,5.35c0.23,0.26,0.55,0.6,0.84,0.61c1.92,0.05,3.84,0.03,5.77,0.03
		c0-5.23,0-10.31,0-15.37c-2.17,0-4.26,0-6.46,0c0,1.96,0,3.82,0,5.84c-1.7-1.85-3.27-3.57-4.86-5.26
		c-0.26-0.27-0.62-0.63-0.94-0.64C9.84,44.47,8.02,44.5,6.16,44.5z M43.8,52.2c0.17-2.35-0.53-4.48-2.49-6.11
		c-3.41-2.84-10.06-2.81-13.48,0.02c-2.21,1.82-2.59,4.24-2.5,6.9c0.1,2.71,1.28,4.74,3.59,6.11c2.3,1.37,4.84,1.58,7.41,1.27
		C40.78,59.85,44.06,57.01,43.8,52.2z M16.65,12.09c0,9.65,0,19.22,0,28.76c0.88,0,1.67,0,2.59,0c0-4.34,0-8.61,0-12.89
		c1.11,0,2.09,0,3.21,0c0,4.33,0,8.61,0,12.87c0.93,0,1.71,0,2.51,0c0-9.62,0-19.15,0-28.71c-0.86,0-1.65,0-2.56,0
		c0,4.45,0,8.84,0,13.23c-1.13,0-2.13,0-3.26,0c0-4.46,0-8.85,0-13.26C18.26,12.09,17.5,12.09,16.65,12.09z M62.96,26.49
		c0,3.32-0.02,6.63,0.01,9.95c0.02,2.01,0.8,3.65,2.73,4.48c2.77,1.19,5.73-0.9,5.78-4.28c0.11-6.78,0.07-13.56,0.01-20.34
		c-0.02-2.41-1.67-4.28-3.67-4.53c-2.67-0.33-4.8,1.67-4.85,4.65C62.93,19.79,62.97,23.14,62.96,26.49z M58.34,29.23
		c0,2.72,0,5.37-0.01,8.02c0,0.18-0.07,0.36-0.13,0.53c-0.28,0.76-0.86,1.04-1.63,1c-0.8-0.04-1.31-0.43-1.45-1.22
		c-0.08-0.46-0.11-0.94-0.11-1.41C55,29.72,55,23.3,55.01,16.87c0-0.44,0-0.89,0.11-1.3c0.32-1.21,1.86-1.66,2.68-0.73
		c0.34,0.39,0.53,1.04,0.55,1.58c0.07,1.73,0.03,3.47,0.03,5.17c0.87,0,1.58,0,2.34,0c0-1.68,0.01-3.28-0.01-4.89
		c0-0.44-0.05-0.88-0.11-1.31c-0.33-2.09-1.76-3.53-3.62-3.66c-1.95-0.14-3.66,1.07-4.25,3.07c-0.2,0.69-0.32,1.43-0.32,2.15
		c-0.02,6.39-0.03,12.77,0,19.16c0,0.83,0.13,1.69,0.39,2.47c0.77,2.31,3.23,3.33,5.17,2.17c0.47-0.28,0.83-0.73,1.25-1.11
		c0.51,0.48,0.52,1.64,1.68,1.14c0-4.64,0-9.28,0-13.93c-1.38,0-2.68,0-3.97,0c0,0.8,0,1.51,0,2.24
		C57.41,29.15,57.84,29.19,58.34,29.23z M50.99,40.86c-1.01-9.65-2.02-19.19-3.02-28.75c-0.97,0-1.8,0-2.75,0
		c-1.08,9.59-2.15,19.15-3.23,28.76c0.87,0,1.59,0,2.36,0c0.22-1.95,0.44-3.85,0.65-5.75c0.99,0,1.88,0,2.81,0
		c0.15,1.95,0.29,3.82,0.43,5.75C49.17,40.86,49.99,40.86,50.99,40.86z M40.66,22.1c0-2.09,0.03-4.05-0.02-6.02
		c-0.01-0.57-0.17-1.16-0.38-1.7c-0.54-1.42-1.5-2.41-3.08-2.61c-1.64-0.22-3.05,0.34-3.8,1.79c-0.53,1.02-0.88,2.26-0.89,3.41
		c-0.08,6.35-0.04,12.69-0.04,19.04c0,0.51,0.03,1.02,0.11,1.52c0.33,2.04,1.91,3.57,3.76,3.69c1.99,0.12,3.75-1,4.05-3.06
		c0.35-2.42,0.29-4.9,0.41-7.35c-0.93,0-1.6,0-2.34,0c0,1.39,0.01,2.7,0,4.01c-0.01,0.8,0.02,1.61-0.09,2.4
		c-0.13,0.92-0.76,1.41-1.69,1.35c-0.95-0.05-1.43-0.63-1.52-1.55c-0.02-0.22-0.01-0.44-0.01-0.66c0-6.57,0-13.13,0-19.7
		c0-0.29-0.03-0.59,0.03-0.87c0.16-0.79,0.59-1.33,1.45-1.39c0.88-0.06,1.49,0.32,1.7,1.2c0.11,0.45,0.13,0.94,0.13,1.41
		c0.01,1.7,0.01,3.39,0.01,5.1C39.25,22.1,39.9,22.1,40.66,22.1z M14.36,22.08c0-2.05,0.08-4.02-0.04-5.98
		c-0.05-0.87-0.38-1.8-0.83-2.56c-1.31-2.23-4.33-2.45-6.07-0.53c-0.9,1-1.29,2.2-1.29,3.51c-0.01,6.64-0.02,13.28,0.01,19.93
		c0,0.71,0.17,1.46,0.42,2.13c0.62,1.67,2.09,2.64,3.79,2.64c1.67-0.01,3.02-0.95,3.6-2.68c0.85-2.55,0.25-5.17,0.45-7.73
		c-0.89,0-1.56,0-2.31,0c0,0.45,0,0.81,0,1.17c0,1.61,0.03,3.21-0.01,4.82c-0.03,1.14-0.67,1.79-1.65,1.78
		c-0.97-0.01-1.59-0.67-1.68-1.79c-0.01-0.15,0-0.29,0-0.44c0-6.57,0-13.14,0.01-19.71c0-0.43-0.03-0.99,0.22-1.26
		c0.4-0.43,1.02-0.95,1.53-0.92c0.5,0.02,1.07,0.59,1.43,1.06c0.22,0.29,0.15,0.84,0.15,1.27c0.01,1.75,0.01,3.49,0.01,5.29
		C12.87,22.08,13.55,22.08,14.36,22.08z M27.57,12.12c0,9.61,0,19.14,0,28.72c0.87,0,1.69,0,2.54,0c0-9.6,0-19.14,0-28.72
		C29.26,12.12,28.47,12.12,27.57,12.12z"/>
	<path class="st4" d="M59.38,59.97c-0.7-2.44-1.37-4.77-2.13-7.43c-0.77,2.66-1.44,5-2.13,7.38c-2.3,0-4.55,0-6.96,0
		c-1.56-5.04-3.15-10.13-4.79-15.42c1.73,0,3.31,0,4.89,0c2.74,0,2.74,0,3.38,2.66c0.39,1.62,0.79,3.24,1.39,4.9
		c0.33-1.3,0.66-2.6,0.98-3.9c0.23-0.95,0.49-1.91,0.67-2.87c0.12-0.64,0.43-0.81,1.05-0.8c1.68,0.04,3.36,0.04,5.03,0
		c0.62-0.01,0.87,0.17,1.02,0.81c0.53,2.31,1.15,4.59,1.82,7.22c0.41-1.57,0.74-2.85,1.07-4.13c0.33-1.27,0.65-2.54,0.99-3.84
		c2.03,0,4.01,0,6.13,0c-0.82,2.65-1.62,5.21-2.42,7.78c-0.71,2.29-1.41,4.59-2.17,6.87c-0.1,0.31-0.53,0.73-0.82,0.74
		C64.08,60,61.79,59.97,59.38,59.97z"/>
	<path class="st5" d="M6.16,44.5c1.86,0,3.68-0.03,5.49,0.03c0.32,0.01,0.68,0.36,0.94,0.64c1.59,1.7,3.16,3.41,4.86,5.26
		c0-2.02,0-3.88,0-5.84c2.19,0,4.28,0,6.46,0c0,5.07,0,10.15,0,15.37c-1.93,0-3.85,0.03-5.77-0.03c-0.29-0.01-0.61-0.35-0.84-0.61
		c-1.52-1.72-3.02-3.45-4.67-5.35c0,2.05,0,3.94,0,5.91c-2.23,0-4.32,0-6.47,0C6.16,54.77,6.16,49.69,6.16,44.5z"/>
	<path class="st6" d="M43.8,52.2c0.26,4.82-3.02,7.65-7.47,8.19c-2.57,0.31-5.11,0.09-7.41-1.27c-2.31-1.37-3.5-3.39-3.59-6.11
		c-0.09-2.65,0.29-5.07,2.5-6.9c3.42-2.83,10.07-2.86,13.48-0.02C43.27,47.72,43.97,49.85,43.8,52.2z M32.68,52.13
		c0.04,0.8,0.03,1.5,0.13,2.18c0.13,0.9,0.72,1.43,1.62,1.5c0.94,0.07,1.77-0.33,1.85-1.29c0.13-1.54,0.11-3.1-0.02-4.64
		c-0.08-0.92-0.86-1.28-1.77-1.24c-0.93,0.04-1.51,0.54-1.66,1.43C32.71,50.78,32.72,51.52,32.68,52.13z"/>
	<path class="st7" d="M16.65,12.09c0.85,0,1.61,0,2.5,0c0,4.41,0,8.8,0,13.26c1.12,0,2.12,0,3.26,0c0-4.38,0-8.77,0-13.23
		c0.92,0,1.7,0,2.56,0c0,9.56,0,19.09,0,28.71c-0.8,0-1.58,0-2.51,0c0-4.26,0-8.54,0-12.87c-1.13,0-2.1,0-3.21,0
		c0,4.27,0,8.55,0,12.89c-0.92,0-1.71,0-2.59,0C16.65,31.31,16.65,21.75,16.65,12.09z"/>
	<path class="st7" d="M62.97,26.49c0-3.35-0.04-6.71,0.01-10.06c0.05-2.99,2.18-4.99,4.85-4.65c2,0.25,3.65,2.12,3.67,4.53
		c0.07,6.78,0.1,13.56-0.01,20.34c-0.05,3.38-3.01,5.47-5.78,4.28c-1.93-0.83-2.71-2.47-2.73-4.48
		C62.94,33.13,62.96,29.81,62.97,26.49z M65.58,26.52c0,1.57,0,3.14,0,4.71c0,1.86-0.02,3.72,0.01,5.58
		c0.02,1.14,0.66,1.78,1.65,1.77c0.99-0.01,1.6-0.66,1.67-1.78c0.02-0.25,0-0.51,0-0.77c0-6.39,0-12.78,0-19.16
		c0-0.4,0.03-0.82-0.07-1.2c-0.21-0.83-0.77-1.32-1.67-1.28c-0.89,0.03-1.42,0.52-1.55,1.4c-0.05,0.36-0.04,0.73-0.04,1.09
		C65.57,20.09,65.58,23.3,65.58,26.52z"/>
	<path class="st8" d="M58.34,29.23c-0.51-0.04-0.93-0.07-1.41-0.11c0-0.72,0-1.44,0-2.24c1.29,0,2.58,0,3.97,0
		c0,4.65,0,9.29,0,13.93c-1.16,0.5-1.17-0.66-1.68-1.14c-0.41,0.38-0.78,0.83-1.25,1.11c-1.94,1.16-4.4,0.15-5.17-2.17
		c-0.26-0.78-0.39-1.64-0.39-2.47c-0.03-6.39-0.03-12.77,0-19.16c0-0.72,0.12-1.46,0.32-2.15c0.59-2,2.31-3.21,4.25-3.07
		c1.86,0.13,3.29,1.57,3.62,3.66c0.07,0.43,0.11,0.87,0.11,1.31c0.01,1.6,0.01,3.2,0.01,4.89c-0.76,0-1.47,0-2.34,0
		c0-1.7,0.04-3.44-0.03-5.17c-0.02-0.54-0.2-1.19-0.55-1.58c-0.82-0.93-2.36-0.48-2.68,0.73c-0.11,0.42-0.11,0.87-0.11,1.3
		C55,23.3,55,29.72,55.01,36.15c0,0.47,0.03,0.95,0.11,1.41c0.14,0.79,0.66,1.18,1.45,1.22c0.78,0.04,1.35-0.24,1.63-1
		c0.06-0.17,0.13-0.35,0.13-0.53C58.35,34.6,58.34,31.94,58.34,29.23z"/>
	<path class="st9" d="M50.99,40.86c-1,0-1.82,0-2.74,0c-0.14-1.92-0.29-3.8-0.43-5.75c-0.93,0-1.82,0-2.81,0
		c-0.22,1.9-0.43,3.8-0.65,5.75c-0.77,0-1.49,0-2.36,0c1.08-9.6,2.16-19.16,3.23-28.76c0.95,0,1.78,0,2.75,0
		C48.98,21.67,49.98,31.21,50.99,40.86z M46.68,21.14c-0.1,0.01-0.2,0.01-0.3,0.02c-0.37,3.75-0.75,7.5-1.12,11.25
		c0.87,0,1.55,0,2.37,0C47.3,28.61,46.99,24.87,46.68,21.14z"/>
	<path class="st10" d="M40.66,22.1c-0.76,0-1.41,0-2.22,0c0-1.71,0.01-3.4-0.01-5.1c0-0.47-0.02-0.95-0.13-1.41
		c-0.21-0.87-0.82-1.26-1.7-1.2c-0.86,0.06-1.3,0.59-1.45,1.39c-0.06,0.28-0.03,0.58-0.03,0.87c0,6.57,0,13.13,0,19.7
		c0,0.22-0.01,0.44,0.01,0.66c0.09,0.92,0.57,1.5,1.52,1.55c0.94,0.05,1.56-0.43,1.69-1.35c0.11-0.79,0.09-1.6,0.09-2.4
		c0.01-1.31,0-2.62,0-4.01c0.73,0,1.4,0,2.34,0c-0.12,2.46-0.05,4.94-0.41,7.35c-0.3,2.06-2.06,3.18-4.05,3.06
		c-1.85-0.11-3.43-1.65-3.76-3.69c-0.08-0.5-0.11-1.02-0.11-1.52c-0.01-6.35-0.05-12.69,0.04-19.04c0.02-1.15,0.36-2.39,0.89-3.41
		c0.75-1.44,2.16-2,3.8-1.79c1.58,0.21,2.54,1.19,3.08,2.61c0.21,0.54,0.37,1.13,0.38,1.7C40.69,18.05,40.66,20.02,40.66,22.1z"/>
	<path class="st9" d="M14.36,22.08c-0.8,0-1.48,0-2.26,0c0-1.8,0.01-3.54-0.01-5.29c0-0.43,0.07-0.98-0.15-1.27
		c-0.36-0.47-0.93-1.03-1.43-1.06c-0.51-0.02-1.13,0.49-1.53,0.92c-0.24,0.26-0.22,0.83-0.22,1.26c-0.01,6.57-0.01,13.14-0.01,19.71
		c0,0.15-0.01,0.29,0,0.44c0.08,1.12,0.7,1.78,1.68,1.79c0.98,0.01,1.62-0.64,1.65-1.78c0.04-1.6,0.01-3.21,0.01-4.82
		c0-0.36,0-0.72,0-1.17c0.75,0,1.42,0,2.31,0c-0.2,2.56,0.4,5.18-0.45,7.73c-0.58,1.73-1.93,2.68-3.6,2.68
		c-1.7,0.01-3.16-0.97-3.79-2.64c-0.25-0.67-0.42-1.42-0.42-2.13c-0.03-6.64-0.03-13.28-0.01-19.93c0-1.31,0.39-2.52,1.29-3.51
		c1.73-1.92,4.76-1.7,6.07,0.53c0.45,0.76,0.77,1.69,0.83,2.56C14.44,18.06,14.36,20.03,14.36,22.08z"/>
	<path class="st11" d="M27.57,12.12c0.91,0,1.7,0,2.54,0c0,9.59,0,19.12,0,28.72c-0.85,0-1.67,0-2.54,0
		C27.57,31.27,27.57,21.73,27.57,12.12z"/>
	<path class="st12" d="M32.68,52.13c0.04-0.61,0.03-1.35,0.15-2.06c0.15-0.89,0.73-1.39,1.66-1.43c0.91-0.04,1.69,0.32,1.77,1.24
		c0.13,1.54,0.15,3.1,0.02,4.64c-0.08,0.96-0.91,1.36-1.85,1.29c-0.9-0.07-1.49-0.6-1.62-1.5C32.71,53.63,32.72,52.93,32.68,52.13z"
		/>
	<path class="st13" d="M65.58,26.52c0-3.21,0-6.42,0-9.64c0-0.36-0.01-0.73,0.04-1.09c0.13-0.88,0.66-1.36,1.55-1.4
		c0.89-0.03,1.45,0.45,1.67,1.28c0.1,0.38,0.07,0.8,0.07,1.2c0,6.39,0,12.78,0,19.16c0,0.26,0.01,0.51,0,0.77
		c-0.07,1.12-0.68,1.77-1.67,1.78c-0.99,0.01-1.63-0.63-1.65-1.77c-0.03-1.86-0.01-3.72-0.01-5.58
		C65.58,29.65,65.58,28.08,65.58,26.52z"/>
	<path class="st14" d="M46.68,21.14c0.31,3.73,0.63,7.46,0.95,11.27c-0.82,0-1.5,0-2.37,0c0.37-3.76,0.75-7.5,1.12-11.25
		C46.48,21.15,46.58,21.15,46.68,21.14z"/>
</g>
</svg>
