<?xml version="1.0" encoding="utf-8"?>
<!-- Generator: Adobe Illustrator 25.0.1, SVG Export Plug-In . SVG Version: 6.00 Build 0)  -->
<svg version="1.1" id="Layer_1" xmlns="http://www.w3.org/2000/svg" xmlns:xlink="http://www.w3.org/1999/xlink" x="0px" y="0px"
	 viewBox="0 0 94.24 55.93" style="enable-background:new 0 0 94.24 55.93;" xml:space="preserve">
<style type="text/css">
	.st0{fill:#FFFFFF;}
	.st1{fill:#010101;}
	.st2{fill:#DB8D29;}
	.st3{fill:#CC3504;}
	.st4{fill:#FDFBF9;}
	.st5{fill:#FCFAF9;}
	.st6{fill:#FDFCFB;}
	.st7{fill:#FCF8F6;}
	.st8{fill:#FCF9F7;}
	.st9{fill:#FBF8F5;}
	.st10{fill:#FAF4F1;}
	.st11{fill:#FCFBFB;}
	.st12{fill:#CC3709;}
	.st13{fill:#CC3405;}
	.st14{fill:#CB390E;}
	.st15{fill:#020407;}
	.st16{fill:#EC1E26;}
	.st17{fill:#B11217;}
	.st18{fill:#0083C6;}
	.st19{fill:#1363A5;}
	.st20{fill:#BC1631;}
	.st21{fill:#052D5C;}
	.st22{fill:#020D6E;}
</style>
<g>
	<path class="st20" d="M47.75,52.71c-14.1,0-28.19,0-42.29,0.01c-0.52,0-0.71-0.12-0.71-0.69c0.02-4.8,0.02-9.6,0-14.39
		c0-0.55,0.17-0.7,0.72-0.7c28.23,0.01,56.46,0.01,84.69,0c0.53,0,0.71,0.14,0.71,0.69c-0.02,4.78-0.01,9.56-0.01,14.34
		c0,0.73,0,0.74-0.76,0.74c-11.35,0-22.7,0-34.04,0C53.28,52.7,50.51,52.7,47.75,52.71C47.75,52.7,47.75,52.7,47.75,52.71z
		 M39.95,38.63C39.95,38.63,39.95,38.63,39.95,38.63c-1.09,0-2.18,0.01-3.27,0c-0.39-0.01-0.55,0.12-0.6,0.54
		c-0.21,1.83-0.44,3.66-0.7,5.48c-0.12,0.89-0.15,0.89,0.76,0.96c0.11,0.01,0.22,0.05,0.34,0.04c0.74-0.04,1.46,0.17,2.17-0.42
		c0.77-0.65,1.83-0.3,2.24,0.65c0.17,0.4,0.2,0.87,0.2,1.31c-0.01,0.84-0.5,1.42-1.21,1.55c-0.96,0.18-1.45-0.07-1.88-0.92
		c-0.08-0.16-0.26-0.38-0.4-0.38c-0.77-0.04-1.54-0.04-2.31,0c-0.13,0.01-0.36,0.28-0.35,0.41c0.07,0.95,0.44,1.79,1.19,2.41
		c1.35,1.12,2.93,1.15,4.55,0.89c1.55-0.25,2.75-1.04,3.32-2.55c0.48-1.29,0.5-2.64-0.11-3.88c-0.29-0.59-0.83-1.15-1.39-1.5
		c-1.24-0.78-2.61-0.75-3.95-0.21c-0.4,0.16-0.48,0.01-0.46-0.33c0.02-0.28,0.08-0.56,0.09-0.84c0.02-0.51,0.24-0.72,0.78-0.71
		c1.37,0.03,2.75-0.01,4.12,0.02c0.55,0.01,0.82-0.12,0.74-0.72c-0.05-0.37-0.03-0.75,0-1.13c0.04-0.49-0.15-0.67-0.64-0.66
		C42.09,38.65,41.02,38.63,39.95,38.63z M23.6,44.71c0.13,1.02,0.16,2.07,0.42,3.05c0.21,0.77,0.59,1.54,1.1,2.15
		c0.93,1.13,2.27,1.39,3.67,1.31c1.63-0.1,2.94-0.79,3.6-2.36c0.99-2.34,1-4.76,0.35-7.17c-0.2-0.75-0.58-1.55-1.11-2.11
		c-1.37-1.46-3.14-1.42-4.93-0.98c-1.07,0.27-1.76,1.01-2.24,1.98C23.83,41.89,23.67,43.27,23.6,44.71z M58.56,46.38
		c-0.06,0.27-0.16,0.59-0.21,0.92c-0.09,0.6-0.32,1.12-0.81,1.49c-0.51,0.39-1.49,0.32-1.77-0.21c-0.3-0.56-0.71-0.64-1.25-0.61
		c-0.43,0.03-0.86,0.01-1.3,0.01c-0.44-0.01-0.63,0.24-0.48,0.6c0.24,0.56,0.47,1.17,0.88,1.6c1.71,1.81,5.94,1.55,7.32-1.65
		c0.97-2.24,1-4.57,0.31-6.89c-0.89-3-3.21-3.72-6.06-3.06c-0.47,0.11-0.97,0.35-1.34,0.66c-1.23,1.07-1.58,2.49-1.47,4.07
		c0.17,2.3,1.82,3.69,3.91,3.51C57.03,46.75,57.74,46.55,58.56,46.38z M78.65,45.29c0.04,0,0.08,0.01,0.12,0.01
		c0.02,0.25,0.06,0.51,0.06,0.76c0.01,1.11,0.01,2.22,0.01,3.33c0,1.6,0.03,1.62,1.63,1.45c0.35-0.04,0.45-0.17,0.44-0.49
		c-0.01-2.61-0.01-5.23,0-7.84c0-0.37-0.15-0.5-0.51-0.49c-0.58,0.02-1.17,0-1.75,0c-0.86,0-0.9,0.03-1.11,0.86
		c-0.28,1.07-0.56,2.14-0.85,3.21c-0.17,0.62-0.36,1.24-0.53,1.86c-0.59-1.79-1.09-3.56-1.54-5.33c-0.11-0.43-0.32-0.6-0.74-0.59
		c-0.51,0.01-1.02,0-1.52,0c-1.04-0.01-1.06-0.01-1.07,1.06c-0.01,2.16-0.01,4.33-0.01,6.49c0,1.36,0.1,1.45,1.49,1.29
		c0.02,0,0.04-0.01,0.06-0.01c0.43,0.02,0.59-0.18,0.58-0.62c-0.03-1.49-0.03-2.97-0.04-4.46c0-0.22,0-0.44,0-0.65
		c0.06,0,0.12,0,0.18-0.01c0.37,1.49,0.76,2.98,1.1,4.48c0.28,1.22,0.26,1.22,1.49,1.24c0.13,0,0.27-0.01,0.39,0.02
		c0.51,0.11,0.77-0.12,0.88-0.61c0.2-0.86,0.42-1.71,0.63-2.57C78.24,46.88,78.44,46.08,78.65,45.29z M20.61,44.75
		c0-1.84-0.01-3.68,0.01-5.52c0-0.38-0.12-0.57-0.51-0.56c-0.49,0-0.98-0.03-1.46,0.01c-0.17,0.02-0.42,0.2-0.46,0.35
		c-0.29,1.17-1.09,1.72-2.22,1.81c-1.47,0.11-1.24,0.17-1.27,1.57c-0.01,0.34,0.13,0.48,0.47,0.48c0.6-0.01,1.2,0.02,1.8-0.01
		c0.47-0.02,0.66,0.11,0.65,0.63c-0.03,2.24,0,4.47-0.02,6.71c0,0.49,0.17,0.69,0.65,0.67c0.53-0.02,1.05,0,1.58-0.01
		c0.72-0.01,0.78-0.06,0.78-0.77C20.61,48.32,20.61,46.54,20.61,44.75z M63.89,46.42C63.89,46.42,63.89,46.42,63.89,46.42
		c0,0.45,0,0.9,0,1.35c0,0.47-0.01,0.94,0,1.41c0.05,2.01-0.39,1.65,1.8,1.68c0.38,0.01,0.54-0.14,0.53-0.54
		c-0.02-0.75,0.01-1.51-0.01-2.26c-0.01-0.4,0.14-0.54,0.53-0.52c0.58,0.02,1.17,0.01,1.75,0.01c1.27-0.01,1.25,0.21,1.25-1.31
		c0-0.44-0.19-0.61-0.62-0.59c-0.55,0.02-1.09,0.01-1.64,0.01c-1.47-0.01-1.23,0.15-1.27-1.32c-0.01-0.33,0.1-0.48,0.45-0.47
		c0.81,0.02,1.62,0.01,2.43,0c1.15-0.01,1.13,0.2,1.16-1.17c0.01-0.56-0.21-0.71-0.73-0.7c-1.66,0.02-3.31,0.03-4.97,0
		c-0.54-0.01-0.68,0.19-0.67,0.69C63.9,43.94,63.89,45.18,63.89,46.42z M48.4,50.88c0.34,0,0.68,0,1.01,0
		c0.38,0.01,0.59-0.13,0.58-0.56C49.97,49.66,49.98,49,50,48.35c0.01-0.37-0.14-0.5-0.5-0.49c-0.45,0.02-0.9,0-1.35,0
		c-1.37,0-1.37,0-1.37,1.37C46.77,50.88,46.77,50.88,48.4,50.88z"/>
	<path class="st21" d="M67.31,6.69c0.93,0,1.83,0,2.73,0c1.39,0,2.78,0.01,4.18-0.01c0.4-0.01,0.56,0.17,0.67,0.52
		c0.65,2.11,1.32,4.22,1.96,6.33c0.19,0.64,0.28,1.32,0.42,1.98c0.04,0.17,0.07,0.35,0.13,0.66c0.32-1.23,0.56-2.33,0.89-3.4
		c0.54-1.75,1.12-3.5,1.71-5.23c0.29-0.86,0.33-0.85,1.27-0.85c1.9,0,3.8,0,5.7,0c0.22,0,0.44,0,0.68,0c0.21,1.14,0.41,2.22,0.6,3.3
		c0.35,1.96,0.7,3.91,1.03,5.87c0.29,1.72,0.56,3.44,0.85,5.16c0.17,1,0.34,2,0.53,2.99c0.09,0.45-0.07,0.62-0.52,0.62
		c-1.94-0.01-3.88,0-5.81,0c-0.39,0-0.58-0.16-0.63-0.56c-0.13-1.14-0.29-2.27-0.42-3.41c-0.22-1.88-0.43-3.76-0.66-5.79
		c-0.23,0.74-0.41,1.37-0.61,1.98c-0.5,1.57-1.01,3.13-1.52,4.7c-0.28,0.87-0.55,1.75-0.87,2.61c-0.07,0.19-0.34,0.43-0.53,0.43
		c-1.15,0.04-2.29,0.02-3.44,0.01c-0.32,0-0.5-0.15-0.6-0.47c-0.56-1.77-1.16-3.52-1.72-5.29c-0.41-1.28-0.8-2.57-1.23-3.95
		c-0.12,1.14-0.23,2.2-0.36,3.27c-0.24,1.99-0.5,3.99-0.74,5.98c-0.04,0.35-0.22,0.48-0.56,0.48c-1.96-0.01-3.91-0.01-5.87-0.01
		c-0.42,0-0.58-0.18-0.5-0.59c0.25-1.29,0.49-2.58,0.74-3.87c0.21-1.11,0.41-2.21,0.62-3.32c0.33-1.73,0.66-3.46,0.99-5.19
		c0.21-1.11,0.4-2.22,0.6-3.32C67.1,7.82,67.2,7.3,67.31,6.69z"/>
	<path class="st21" d="M16.59,15.18c-0.24,1.06-0.43,2.05-0.71,3.01c-0.37,1.3-0.79,2.58-1.2,3.87c-0.21,0.68-0.46,1.35-0.63,2.04
		c-0.09,0.37-0.28,0.52-0.62,0.52c-2.16,0.01-4.33,0.01-6.49,0c-0.31,0-0.5-0.13-0.56-0.49c-0.31-1.69-0.66-3.38-0.98-5.07
		c-0.37-1.94-0.71-3.88-1.07-5.81c-0.36-1.97-0.73-3.95-1.08-5.92C3.22,7.16,3.21,6.97,3.19,6.75C3.37,6.73,3.51,6.7,3.66,6.7
		c1.98,0,3.95,0.01,5.93-0.01c0.41,0,0.55,0.12,0.59,0.52c0.25,2.18,0.53,4.36,0.79,6.54c0.1,0.85,0.18,1.7,0.29,2.68
		c0.54-1.72,1.02-3.32,1.53-4.9c0.51-1.59,1.05-3.16,1.59-4.79c1.41,0,2.85,0,4.35,0c1.02,3.18,2.05,6.39,3.07,9.56
		c0.37-3.14,0.75-6.34,1.14-9.57c2.33,0,4.59,0,6.91,0c0,0.15,0.02,0.29,0,0.43c-0.44,2.55-0.88,5.1-1.32,7.65
		c-0.39,2.26-0.76,4.52-1.14,6.78c-0.15,0.89-0.3,1.77-0.49,2.65c-0.03,0.15-0.28,0.37-0.43,0.38c-2.18,0.03-4.37,0.03-6.55,0
		c-0.21,0-0.53-0.24-0.6-0.44c-0.61-1.75-1.2-3.51-1.75-5.28c-0.25-0.8-0.43-1.63-0.64-2.45C16.8,16.05,16.7,15.65,16.59,15.18z"/>
	<path class="st21" d="M60.81,15.32c0.36,0.15,0.78,0.33,1.2,0.51c1.31,0.59,2.02,1.6,2.17,3.04c0.32,3.05-1.27,4.88-4.08,5.43
		c-1.17,0.23-2.38,0.31-3.57,0.33c-2.8,0.05-5.61,0.01-8.41,0.03c-0.52,0-0.75-0.18-0.75-0.72c0.01-5.6,0.01-11.21,0.01-16.81
		c0-0.11,0.02-0.22,0.04-0.39c0.21-0.01,0.41-0.04,0.61-0.04c3.24,0,6.47-0.04,9.71,0.01c1.73,0.03,3.32,0.54,4.55,1.87
		c1.31,1.43,1.46,3.98,0.22,5.45C62.07,14.55,61.4,14.88,60.81,15.32z M53.49,19.16C53.49,19.16,53.49,19.16,53.49,19.16
		c0.01,0.43-0.02,0.87,0.02,1.3c0.01,0.14,0.22,0.38,0.33,0.37c0.86-0.05,1.73-0.07,2.56-0.25c0.75-0.16,1.15-0.79,1.14-1.49
		c-0.01-0.63-0.48-1.25-1.19-1.38c-0.81-0.15-1.63-0.18-2.45-0.25c-0.33-0.03-0.42,0.17-0.4,0.46
		C53.5,18.33,53.49,18.74,53.49,19.16z M53.59,11.76c0,0.37-0.02,0.75,0.01,1.12c0.01,0.12,0.17,0.34,0.25,0.33
		c0.73-0.08,1.49-0.12,2.19-0.33c0.57-0.17,0.83-1.09,0.59-1.63c-0.38-0.85-1.49-1.3-2.74-0.93c-0.65,0.19-0.16,0.91-0.3,1.37
		C53.59,11.73,53.59,11.75,53.59,11.76z"/>
	<path class="st21" d="M30.31,6.7c0.25,0,0.45,0,0.65,0c3.14,0,6.28,0,9.43,0c1.18,0,2.3,0.26,3.36,0.78
		c2.26,1.1,3.21,4.02,1.95,6.2c-0.44,0.76-1.17,1.26-2.18,1.55c0.34,0.15,0.55,0.29,0.78,0.35c1.63,0.41,2.79,2.14,2.85,3.7
		c0.07,1.86-0.6,3.28-2.15,4.28c-0.95,0.61-2.04,0.92-3.14,0.96c-2.23,0.1-4.47,0.1-6.71,0.12c-1.43,0.02-2.86-0.01-4.29,0.01
		c-0.39,0-0.58-0.09-0.58-0.53c0.01-5.68,0-11.36,0-17.04C30.28,6.98,30.29,6.88,30.31,6.7z M36.42,19.14
		C36.42,19.14,36.42,19.14,36.42,19.14c-0.01,0.41-0.03,0.83,0.01,1.24c0.02,0.16,0.18,0.44,0.28,0.44
		c0.95,0.04,1.92,0.12,2.83-0.29c0.56-0.26,0.88-0.73,0.91-1.33c0.03-0.56-0.25-1-0.75-1.29c-0.95-0.56-1.99-0.46-3.01-0.41
		c-0.1,0-0.24,0.3-0.25,0.47C36.39,18.35,36.42,18.74,36.42,19.14z M36.42,11.76c0,1.54,0,1.54,1.53,1.45c0.08,0,0.15,0,0.23-0.02
		c1.12-0.17,1.71-1.1,1.3-2.07c-0.3-0.7-1.58-1.12-2.73-0.8c-0.67,0.18-0.2,0.81-0.33,1.21C36.4,11.6,36.42,11.68,36.42,11.76z"/>
	<path class="st21" d="M30.06,28.25c-0.35,1.08-0.7,2.17-1.05,3.25c-0.34,1.05-0.72,2.09-1,3.15c-0.18,0.7-0.71,0.48-1.13,0.54
		c-0.44,0.07-0.63-0.24-0.76-0.6c-0.35-1.03-0.7-2.06-1.04-3.09c-0.49-1.46-0.95-2.92-1.46-4.37c-0.16-0.46-0.02-0.54,0.41-0.57
		c0.61-0.05,0.87,0.15,1.05,0.78c0.56,1.98,1.22,3.93,1.84,5.89c0.03,0.09,0.12,0.17,0.26,0.37c0.16-0.44,0.31-0.76,0.41-1.1
		c0.51-1.74,1.01-3.48,1.51-5.22c0.17-0.58,0.38-0.69,1.15-0.71c0.52-0.01,0.73,0.16,0.88,0.7c0.43,1.55,0.96,3.07,1.45,4.61
		c0.12,0.39,0.23,0.79,0.36,1.19c0.05,0.16,0.16,0.3,0.32,0.6c0.26-0.8,0.48-1.42,0.68-2.06c0.48-1.53,0.95-3.07,1.43-4.61
		c0.12-0.37,1.06-0.61,1.35-0.34c0.07,0.06,0.09,0.25,0.06,0.35c-0.82,2.41-1.65,4.82-2.47,7.23c-0.15,0.43-0.13,0.95-0.81,0.95
		c-0.98,0.01-1.04-0.03-1.33-0.97c-0.6-1.91-1.22-3.82-1.84-5.72c-0.03-0.08-0.07-0.16-0.11-0.24
		C30.15,28.24,30.1,28.24,30.06,28.25z"/>
	<path class="st21" d="M41.86,26.25c0.64,0.12,1.28,0.17,1.88,0.36c1.03,0.32,1.48,1.14,1.64,2.15c0.02,0.09-0.02,0.23-0.09,0.3
		c-0.29,0.31-1.16,0.04-1.35-0.33c-0.18-0.35-0.44-0.77-0.77-0.9c-0.98-0.39-2.01-0.43-2.98,0.11c-0.42,0.23-0.61,0.65-0.46,1.04
		c0.12,0.31,0.46,0.67,0.77,0.76c1.11,0.32,2.26,0.53,3.38,0.79c0.92,0.22,1.63,0.67,1.77,1.71c0.16,1.22-0.24,2.14-1.27,2.63
		c-1.61,0.77-3.28,0.71-4.9,0.04c-0.97-0.4-1.37-1.3-1.47-2.3c-0.01-0.14,0.19-0.41,0.34-0.45c0.67-0.17,0.92,0.02,1.15,0.69
		c0.27,0.79,0.91,1.08,1.68,1.22c0.9,0.17,1.75,0.1,2.56-0.33c0.45-0.24,0.59-0.68,0.46-1.1c-0.1-0.31-0.38-0.69-0.66-0.78
		c-0.8-0.25-1.64-0.36-2.47-0.54c-0.49-0.11-0.98-0.23-1.46-0.4c-1.08-0.38-1.39-1.18-1.37-2.09c0.02-1.07,0.69-1.93,1.68-2.22
		C40.55,26.43,41.21,26.37,41.86,26.25z"/>
	<path class="st21" d="M67.25,30.8c0-1.24,0.01-2.48-0.01-3.72c-0.01-0.43,0.12-0.6,0.58-0.58c1.5,0.05,3.01,0.03,4.51,0.09
		c1.93,0.08,3.21,1.14,3.53,3.06c0.21,1.24,0.18,2.5-0.44,3.68c-0.5,0.95-1.29,1.51-2.32,1.67c-0.87,0.14-1.75,0.17-2.63,0.21
		c-0.84,0.03-1.69-0.04-2.54,0.02c-0.6,0.04-0.7-0.23-0.69-0.72C67.25,33.28,67.25,32.04,67.25,30.8z M68.56,30.82
		C68.56,30.82,68.56,30.82,68.56,30.82c0,0.88,0.01,1.77-0.01,2.65c-0.01,0.37,0.1,0.56,0.51,0.54c1.09-0.03,2.18,0,3.27-0.07
		c0.67-0.04,1.25-0.34,1.66-0.92c0.66-0.96,0.78-2.03,0.52-3.12c-0.37-1.53-1.12-2.13-2.7-2.19c-0.92-0.04-1.84,0-2.76-0.03
		c-0.37-0.01-0.5,0.13-0.49,0.49C68.57,29.05,68.56,29.93,68.56,30.82z"/>
	<path class="st21" d="M86.12,26.35c1.7-0.03,3.17,0.47,4.07,2c1.04,1.78,0.9,4.86-1.13,6.24c-1.19,0.81-2.53,0.9-3.89,0.73
		c-2.16-0.27-3.26-1.34-3.66-3.13c-0.69-3.13,0.84-5.85,4.39-5.84C85.97,26.35,86.05,26.35,86.12,26.35z M89.42,30.88
		c0-2.08-1.21-3.32-3.26-3.33c-2.16-0.01-3.46,1.23-3.45,3.28c0.01,2.06,1.33,3.39,3.41,3.34C88.09,34.13,89.47,33.04,89.42,30.88z"
		/>
	<path class="st21" d="M54.16,30.97c0.81,0.41,0.97,1.09,1.02,1.86c0.04,0.65,0.17,1.29,0.24,1.94c0.01,0.11-0.02,0.29-0.1,0.34
		c-0.48,0.35-1.35-0.07-1.4-0.67c-0.04-0.45-0.03-0.9-0.07-1.35c-0.1-1.16-0.47-1.56-1.6-1.62c-0.92-0.05-1.84,0-2.76-0.01
		c-0.41,0-0.56,0.19-0.55,0.6c0.02,0.83-0.01,1.66,0.01,2.48c0.01,0.46-0.16,0.64-0.63,0.63c-0.47-0.01-0.64-0.2-0.63-0.65
		c0.01-2.48,0.01-4.96,0.01-7.45c0-0.36,0.13-0.52,0.49-0.51c1.62,0.02,3.24,0,4.85,0.04c0.97,0.02,1.96,0.69,2.12,1.43
		C55.4,29.1,55.4,30.26,54.16,30.97z M51.02,30.33c0-0.01,0-0.03,0-0.04c0.58,0,1.17,0.03,1.75-0.01c0.87-0.06,1.24-0.49,1.23-1.35
		c-0.01-0.74-0.44-1.17-1.39-1.22c-1.09-0.06-2.18-0.04-3.27-0.01c-0.13,0-0.36,0.25-0.37,0.39c-0.04,0.58,0,1.16-0.03,1.75
		c-0.01,0.37,0.14,0.5,0.5,0.49C49.97,30.32,50.5,30.33,51.02,30.33z"/>
	<path class="st21" d="M56.59,35.02c0.45-0.94,0.9-1.88,1.35-2.82c0.84-1.75,1.66-3.51,2.51-5.26c0.08-0.16,0.31-0.36,0.46-0.35
		c0.39,0.03,0.9-0.29,1.17,0.24c0.42,0.84,0.8,1.69,1.18,2.54c0.76,1.71,1.51,3.42,2.24,5.14c0.08,0.2,0.11,0.52,0.01,0.67
		c-0.15,0.2-0.99,0.05-1.11-0.18c-0.28-0.55-0.55-1.1-0.8-1.67c-0.17-0.38-0.38-0.6-0.84-0.59c-1.09,0.03-2.18-0.01-3.27,0.04
		c-0.21,0.01-0.49,0.24-0.61,0.45c-0.27,0.44-0.47,0.93-0.7,1.41C57.87,35.3,57.35,35.45,56.59,35.02z M62.79,31.52
		c-0.48-1.09-0.91-2.06-1.35-3.03c-0.03-0.07-0.17-0.16-0.2-0.14c-0.1,0.06-0.2,0.16-0.25,0.26c-0.35,0.72-0.7,1.44-1.03,2.17
		c-0.1,0.22-0.17,0.47-0.26,0.74C60.74,31.52,61.69,31.52,62.79,31.52z"/>
	<path class="st21" d="M11.66,33.47c0.02-0.17,0.05-0.35,0.05-0.52c0-1.92,0.02-3.84-0.01-5.76c-0.01-0.59,0.3-0.62,0.74-0.64
		c0.47-0.02,0.56,0.19,0.56,0.61c-0.01,2.45-0.02,4.89,0,7.34c0,0.49-0.17,0.63-0.65,0.66c-0.78,0.06-1.28-0.21-1.73-0.85
		c-1.35-1.92-2.76-3.8-4.15-5.69c-0.12-0.16-0.26-0.3-0.49-0.57c-0.02,0.51-0.06,0.87-0.06,1.24c0,1.73,0,3.46,0.02,5.19
		c0,0.42-0.07,0.67-0.58,0.67c-0.5-0.01-0.65-0.2-0.65-0.68c0.02-2.43,0.02-4.85,0-7.28c0-0.48,0.17-0.6,0.62-0.63
		c0.73-0.06,1.25,0.09,1.68,0.79c0.67,1.08,1.5,2.06,2.26,3.09c0.75,1.01,1.49,2.02,2.24,3.03C11.56,33.48,11.61,33.47,11.66,33.47z
		"/>
	<path class="st21" d="M15.46,30.85c0-1.2,0.01-2.41-0.01-3.61c-0.01-0.47,0.12-0.68,0.63-0.68c1.88,0.02,3.76,0.01,5.64,0
		c0.39,0,0.59,0.11,0.58,0.55c-0.01,0.42-0.13,0.62-0.59,0.62c-1.47-0.02-2.93,0.01-4.4-0.02c-0.5-0.01-0.68,0.15-0.65,0.65
		c0.03,0.41,0.03,0.83,0.01,1.24c-0.03,0.44,0.15,0.6,0.59,0.59c1.35-0.02,2.71,0.01,4.06-0.02c0.48-0.01,0.62,0.18,0.63,0.62
		c0.01,0.46-0.17,0.57-0.6,0.57c-1.37-0.02-2.74,0.01-4.12-0.01c-0.45-0.01-0.6,0.14-0.56,0.59c0.04,0.47,0.03,0.94,0,1.41
		c-0.02,0.44,0.14,0.6,0.59,0.59c1.45-0.02,2.9,0,4.34-0.01c0.46,0,0.81-0.01,0.78,0.63c-0.03,0.58-0.32,0.6-0.77,0.6
		c-1.82-0.02-3.65-0.01-5.47,0.02c-0.49,0.01-0.68-0.17-0.68-0.65C15.47,33.29,15.47,32.07,15.46,30.85
		C15.47,30.85,15.46,30.85,15.46,30.85z"/>
	<path class="st21" d="M78.03,30.86c0-1.24,0.02-2.48-0.01-3.72c-0.01-0.45,0.14-0.6,0.59-0.58c0.41,0.02,0.72,0.02,0.71,0.59
		c-0.03,2.44-0.01,4.89-0.01,7.33c0,0.59-0.14,0.67-0.75,0.7c-0.56,0.02-0.53-0.34-0.52-0.71C78.03,33.27,78.03,32.06,78.03,30.86
		C78.03,30.86,78.03,30.86,78.03,30.86z"/>
	<path class="st20" d="M30.09,44.75c-0.17,1.06-0.28,2.1-0.51,3.12c-0.16,0.68-0.73,1.07-1.24,1.04c-0.46-0.03-1.05-0.56-1.18-1.15
		c-0.43-1.99-0.45-3.98,0-5.97c0.13-0.6,0.65-1.03,1.17-1.06c0.59-0.03,1.07,0.25,1.24,0.93C29.81,42.67,29.92,43.71,30.09,44.75z"
		/>
	<path class="st20" d="M58.52,42.71c-0.08,0.62-0.17,1.32-0.86,1.67c-0.54,0.27-1.17,0.29-1.66-0.12c-0.74-0.6-0.81-1.44-0.61-2.31
		c0.25-1.09,1.25-1.61,2.24-1.13C58.4,41.18,58.45,41.93,58.52,42.71z"/>
</g>
</svg>
