<?xml version="1.0" encoding="utf-8"?>
<!-- Generator: Adobe Illustrator 25.0.1, SVG Export Plug-In . SVG Version: 6.00 Build 0)  -->
<svg version="1.1" id="Layer_1" xmlns="http://www.w3.org/2000/svg" xmlns:xlink="http://www.w3.org/1999/xlink" x="0px" y="0px"
	 viewBox="0 0 178.16 35.71" style="enable-background:new 0 0 178.16 35.71;" xml:space="preserve">
<style type="text/css">
	.st0{fill:#FFFFFF;}
	.st1{fill:#010101;}
	.st2{fill:#DB8D29;}
	.st3{fill:#CC3504;}
	.st4{fill:#FDFBF9;}
	.st5{fill:#FCFAF9;}
	.st6{fill:#FDFCFB;}
	.st7{fill:#FCF8F6;}
	.st8{fill:#FCF9F7;}
	.st9{fill:#FBF8F5;}
	.st10{fill:#FAF4F1;}
	.st11{fill:#FCFBFB;}
	.st12{fill:#CC3709;}
	.st13{fill:#CC3405;}
	.st14{fill:#CB390E;}
	.st15{fill:#020407;}
	.st16{fill:#EC1E26;}
	.st17{fill:#B11217;}
	.st18{fill:#0083C6;}
	.st19{fill:#1363A5;}
	.st20{fill:#BC1631;}
	.st21{fill:#052D5C;}
	.st22{fill:#020D6E;}
</style>
<g id="LlUTlF_1_">
	<g>
		<path d="M133.63,31.1c-1.05,1.69-3.3,1.79-4.62,0.17c-1.04-1.27-1.32-2.83-1.43-4.4c-0.1-1.46-0.02-2.93-0.1-4.4
			c-0.04-0.82-0.13-1.67-0.36-2.46c-0.47-1.58-1.68-2.48-3.32-2.57c-0.96-0.05-1.93-0.01-2.97-0.01c0,4.63,0,9.2,0,13.92
			c0.97,0,1.94,0,2.92,0c0,0.09,0,0.18,0,0.26c-2.78,0-5.57,0-8.35,0c0-0.08-0.01-0.16-0.01-0.23c0.76,0,1.53,0,2.34,0
			c0-9.1,0-18.06,0-27.18c-0.79,0-1.55,0-2.32,0c-0.01-0.11-0.01-0.21-0.02-0.32c0.29-0.03,0.59-0.07,0.88-0.07
			c2.23-0.01,4.47-0.01,6.7,0c3.61,0.02,6,1.88,6.62,5.13c0.73,3.81-0.83,6.83-4.22,8.17c0.03,0.05,0.05,0.12,0.08,0.13
			c3.83,0.78,4.92,3.8,5.09,6.64c0.09,1.53,0.02,3.07,0.05,4.6c0.01,0.59,0.01,1.24,0.24,1.77c0.25,0.56,0.67,1.22,1.18,1.43
			c0.34,0.14,0.97-0.45,1.47-0.71C133.53,31.02,133.58,31.06,133.63,31.1z M120.8,4.24c0,4.29,0,8.47,0,12.71
			c1.18,0,2.31,0.07,3.42-0.02c1.01-0.09,1.76-0.72,2.01-1.71c0.75-2.93,0.83-5.87-0.19-8.76c-0.45-1.28-1.42-2.1-2.83-2.21
			C122.45,4.2,121.69,4.24,120.8,4.24z"/>
		<path d="M161.75,12.63c-0.56,0-1.09,0-1.61,0c0-0.06-0.01-0.13-0.01-0.19c0.25-0.02,0.5-0.06,0.75-0.06
			c1.87-0.01,3.73,0.04,5.6-0.01c1.95-0.06,3.49,0.73,4.75,2.13c3.63,4.03,3.45,11.59-0.35,15.3c-1.12,1.09-2.43,1.78-4.01,1.79
			c-3.73,0.04-7.46,0.03-11.19,0.03c-0.13,0-0.25-0.04-0.4-0.25c0.58-0.05,1.16-0.1,1.88-0.16c-0.55-1.93-1.08-3.83-1.66-5.72
			c-0.06-0.19-0.44-0.38-0.68-0.39c-1.3-0.04-2.6-0.05-3.9,0.01c-0.26,0.01-0.66,0.31-0.74,0.56c-0.58,1.8-1.1,3.62-1.66,5.54
			c0.69,0.05,1.26,0.09,1.84,0.14c0,0.06,0,0.12,0,0.18c-1.26,0-2.52,0-3.86,0c0.12-0.11,0.19-0.22,0.24-0.21
			c1.35,0.26,1.71-0.56,2.01-1.66c1.53-5.51,3.13-11.01,4.7-16.51c0.1-0.35,0.22-0.69,0.44-1.35c0.23,0.63,0.37,0.97,0.48,1.32
			c1.74,5.74,3.47,11.47,5.2,17.21c0.25,0.84,1.33,1.32,2.08,0.88c0.15-0.09,0.26-0.38,0.26-0.57c0.01-5.86,0.01-11.73,0-17.59
			C161.89,12.95,161.83,12.85,161.75,12.63z M164.42,12.66c0,6.25,0,12.39,0,18.61c0.64,0,1.2,0,1.77,0c2.86,0,4.15-0.9,4.62-3.76
			c0.36-2.22,0.48-4.51,0.41-6.76c-0.06-1.91-0.43-3.83-0.89-5.69c-0.38-1.54-1.61-2.31-3.2-2.4
			C166.26,12.62,165.4,12.66,164.42,12.66z M152.87,16.14c-0.88,3.02-1.68,5.78-2.5,8.62c1.7,0,3.26,0,4.95,0
			C154.52,21.93,153.73,19.16,152.87,16.14z"/>
		<path d="M97.6,12.86c-0.65-0.04-1.21-0.07-1.78-0.1c0-0.09,0.01-0.18,0.01-0.27c1.47,0,2.94-0.04,4.4,0.04
			c0.26,0.01,0.54,0.54,0.71,0.88c2.14,4.07,4.26,8.14,6.39,12.22c0.1,0.2,0.21,0.4,0.45,0.85c0-4.7,0-9.13,0-13.61
			c-0.62-0.04-1.19-0.07-1.77-0.1c0-0.07,0-0.13,0-0.2c1.33,0,2.67,0,4,0c0.01,0.06,0.02,0.12,0.03,0.18
			c-0.59,0.04-1.17,0.08-1.87,0.12c0,6.36,0,12.7,0,19.04c-0.11,0.04-0.22,0.07-0.32,0.11c-3.23-6.14-6.46-12.29-9.82-18.69
			c0,6.17,0,12.06,0,18.01c0.61,0.04,1.2,0.07,1.78,0.11c0,0.06-0.01,0.12-0.01,0.18c-2.9,0-5.8,0-8.7,0c0-0.06-0.01-0.11-0.01-0.17
			c0.59-0.04,1.19-0.09,1.9-0.14c-0.56-1.97-1.1-3.88-1.68-5.78c-0.05-0.16-0.4-0.31-0.62-0.31c-1.33-0.03-2.67-0.04-4,0.01
			c-0.25,0.01-0.64,0.27-0.71,0.49c-0.57,1.8-1.08,3.63-1.65,5.58c0.69,0.06,1.29,0.11,1.88,0.15c0,0.05-0.01,0.11-0.01,0.16
			c-1.25,0-2.49,0-3.76,0c0.04-0.08,0.07-0.18,0.08-0.17c1.47,0.23,1.75-0.72,2.07-1.87c1.53-5.55,3.15-11.07,4.75-16.6
			c0.08-0.27,0.2-0.52,0.39-1c0.2,0.53,0.33,0.82,0.42,1.12c1.7,5.61,3.39,11.22,5.08,16.83c0.5,1.65,0.5,1.65,2.37,1.36
			C97.6,25.18,97.6,19.07,97.6,12.86z M86.21,24.81c1.7,0,3.26,0,4.93,0c-0.8-2.8-1.58-5.54-2.36-8.27
			c-0.06,0.01-0.12,0.01-0.18,0.02C87.81,19.28,87.02,22.01,86.21,24.81z"/>
		<path d="M15.85,3.54c0,2.35,0,4.42,0,6.49c-0.05,0.01-0.11,0.02-0.16,0.03c-0.05-0.26-0.05-0.53-0.15-0.77
			c-0.45-1.13-0.76-2.37-1.44-3.34c-1.06-1.51-2.63-2.31-4.53-1.8C7.66,4.67,6.71,6.15,6.35,7.99c-0.42,2.11,0.27,3.93,1.94,5.25
			c1.09,0.86,2.34,1.5,3.55,2.2c0.92,0.53,1.91,0.94,2.83,1.48c2.94,1.74,4.06,4.4,3.71,7.7c-0.3,2.85-1.51,5.26-4.01,6.81
			c-1.82,1.12-3.76,1.25-5.73,0.34c-0.36-0.17-0.72-0.35-1.08-0.52c-1.65-0.79-2.24-0.63-3.35,1c0-2.88,0-5.63,0-8.42
			c0.31,1.09,0.52,2.16,0.93,3.16c0.88,2.15,2.18,4.01,4.51,4.79c2.34,0.78,5-0.35,6.26-2.54c1.29-2.25,0.89-5.18-1.05-6.84
			c-0.82-0.71-1.8-1.25-2.75-1.79c-0.78-0.44-1.62-0.78-2.43-1.16c-5.31-2.5-6.77-9.32-2.95-13.83c1.66-1.96,3.54-2.42,5.89-1.46
			c0.18,0.08,0.37,0.16,0.55,0.23C14.15,4.73,15.1,4.94,15.85,3.54z"/>
		<path d="M30.78,31.34c0.65,0.03,1.23,0.06,1.81,0.1c0,0.06,0,0.11-0.01,0.17c-1.97,0-3.94,0-5.99,0c0.1-0.09,0.15-0.18,0.2-0.19
			c1.46-0.19,1.46-0.19,1.46-1.67c0-2.59,0-5.19,0-7.85c-2.11,0-4.13,0-6.22,0c0,3.1,0,6.21,0,9.42c0.52,0.04,1.03,0.08,1.54,0.11
			c0,0.05,0,0.11-0.01,0.16c-1.97,0-3.94,0-5.91,0c0-0.05-0.01-0.11-0.01-0.16c0.58-0.03,1.16-0.05,1.8-0.08c0-6.17,0-12.28,0-18.48
			c-0.6-0.04-1.2-0.08-1.8-0.12c0-0.07,0.01-0.13,0.01-0.2c1.98,0,3.96,0,5.94,0c0.01,0.05,0.02,0.11,0.03,0.16
			c-0.51,0.05-1.02,0.11-1.61,0.17c0,2.84,0,5.69,0,8.62c2.02,0,4.03,0,6.13,0c0-2.85,0-5.7,0-8.61c-0.53-0.06-1.05-0.11-1.57-0.17
			c0.01-0.06,0.01-0.13,0.02-0.19c1.99,0,3.98,0,5.96,0c0.01,0.06,0.02,0.13,0.03,0.19c-0.58,0.05-1.16,0.1-1.82,0.16
			C30.78,18.99,30.78,25.11,30.78,31.34z"/>
		<path d="M51.54,21.86c0,3.11,0,6.08,0,9.04c0,0.13,0.05,0.25,0.1,0.51c0.78,0,1.55,0,2.33,0c0,0.07-0.01,0.14-0.01,0.21
			c-2.24,0-4.48,0-6.72,0c0-0.05-0.01-0.11-0.01-0.16c0.57-0.04,1.15-0.08,1.8-0.13c0-6.14,0-12.25,0-18.46
			c-0.6-0.04-1.21-0.07-1.81-0.11c-0.01-0.05-0.02-0.1-0.03-0.15c0.15-0.05,0.3-0.15,0.46-0.15c2.07-0.01,4.14-0.08,6.2,0.02
			c3.52,0.17,5.64,2.71,4.9,5.79c-0.41,1.73-1.59,2.78-3.43,3.38c0.6,0.19,1.02,0.3,1.43,0.47c1.82,0.74,2.61,2.21,2.75,4.06
			c0.09,1.19,0.02,2.4,0.08,3.6c0.07,1.43,0.54,1.88,1.85,1.89c-0.96,0.83-2.64,0.6-3.39-0.62c-0.47-0.77-0.76-1.71-0.9-2.6
			c-0.17-1.14-0.11-2.33-0.15-3.49c-0.07-1.89-1.09-2.97-2.97-3.09C53.24,21.82,52.44,21.86,51.54,21.86z M51.59,21.53
			c0.88,0,1.7,0.06,2.52-0.01c1.34-0.13,1.92-0.63,2.13-1.96c0.15-1.01,0.19-2.06,0.13-3.08c-0.19-3.04-1.71-4.15-4.77-3.52
			C51.59,15.78,51.59,18.62,51.59,21.53z"/>
		<path d="M71.04,31.69c1.82-0.47,1.82-0.47,1.82-2.4c0-5.06,0-10.13,0-15.19c0-0.39,0-0.78,0-1.23c-0.69-0.04-1.27-0.08-1.85-0.11
			c0-0.07-0.01-0.14-0.01-0.2c0.22-0.04,0.45-0.1,0.67-0.1c1.97-0.01,3.93-0.02,5.9,0c2.42,0.03,4.15,1.28,5.43,3.22
			c2.45,3.71,2.42,9.29-0.09,12.97c-1.36,1.99-3.17,3.16-5.7,3.06C75.16,31.63,73.1,31.69,71.04,31.69z M75.29,12.88
			c0,0.44,0,0.83,0,1.22c0,5.16-0.01,10.32,0,15.48c0,2.1-0.26,1.8,1.78,1.81c2.97,0.02,4.11-0.84,4.72-3.77
			c0.65-3.12,0.6-6.29,0.21-9.44c-0.14-1.17-0.51-2.33-0.91-3.45c-0.37-1.04-1.24-1.7-2.33-1.82
			C77.67,12.78,76.53,12.88,75.29,12.88z"/>
		<path d="M149.13,22.02c-0.07,2.87-0.73,5.55-2.68,7.76c-2.59,2.95-6.27,2.91-8.84-0.05c-3.45-3.98-3.52-11.39-0.15-15.43
			c2.61-3.12,6.51-3.14,9.12-0.02C148.44,16.52,149.08,19.18,149.13,22.02z M146.63,21.87c-0.14-1.74-0.21-3.07-0.37-4.39
			c-0.1-0.79-0.27-1.58-0.52-2.34c-0.76-2.4-2.61-3.39-4.96-2.72c-1.7,0.49-2.23,1.89-2.59,3.38c-0.75,3.11-0.75,6.28-0.46,9.43
			c0.13,1.44,0.44,2.9,0.91,4.26c0.52,1.49,1.75,2.16,3.36,2.17c1.65,0.01,2.83-0.67,3.5-2.15c0.3-0.66,0.55-1.38,0.63-2.09
			C146.36,25.45,146.49,23.46,146.63,21.87z"/>
		<path d="M46.06,31.64c-4.05,0-8.01,0-11.96,0c-0.01-0.06-0.01-0.12-0.02-0.19c0.55-0.04,1.1-0.08,1.73-0.12
			c0-6.14,0-12.25,0-18.46c-0.57-0.04-1.17-0.09-1.76-0.13c0-0.07,0.01-0.13,0.01-0.2c3.59,0,7.17,0,10.85,0c0,1.59,0,3.16,0,4.74
			c-0.03,0.01-0.06,0.01-0.09,0.02c-0.1-0.54-0.16-1.08-0.29-1.61c-0.47-1.96-1.61-2.86-3.63-2.87c-0.8-0.01-1.59,0-2.47,0
			c0,2.95,0,5.83,0,8.7c2.08,0.48,3.2-0.33,3.68-2.58c0,1.94,0,3.88,0,5.57c-0.32-0.56-0.6-1.49-1.23-1.98
			c-0.6-0.47-1.56-0.47-2.47-0.7c0,3.34,0,6.39,0,9.42c4.51,0.87,6.21-0.2,7.64-4.94C46.06,28.2,46.06,29.85,46.06,31.64z"/>
		<path d="M65.09,12.86c-0.64-0.04-1.21-0.07-1.77-0.1c0-0.07,0.01-0.15,0.01-0.22c2.04,0,4.08,0,6.13,0
			c0.01,0.07,0.02,0.14,0.02,0.2c-0.59,0.04-1.18,0.08-1.83,0.13c0,6.14,0,12.25,0,18.47c0.6,0.03,1.18,0.06,1.76,0.09
			c0,0.05,0,0.11,0,0.16c-2.03,0-4.07,0-6.1,0c0-0.05-0.01-0.09-0.01-0.14c0.58-0.04,1.15-0.08,1.8-0.12
			C65.09,25.18,65.09,19.07,65.09,12.86z"/>
		<path d="M133.49,30.97c0.92-1.98,0.95-4.1,0.99-6.23c0.04,2.16,0.28,4.35-0.85,6.36C133.58,31.06,133.53,31.02,133.49,30.97z"/>
	</g>
</g>
</svg>
