<?xml version="1.0" encoding="utf-8"?>
<!-- Generator: Adobe Illustrator 25.0.1, SVG Export Plug-In . SVG Version: 6.00 Build 0)  -->
<svg version="1.1" id="Layer_1" xmlns="http://www.w3.org/2000/svg" xmlns:xlink="http://www.w3.org/1999/xlink" x="0px" y="0px"
	 viewBox="0 0 111.41 62.53" style="enable-background:new 0 0 111.41 62.53;" xml:space="preserve">
<style type="text/css">
	.st0{fill:#FFFFFF;}
	.st1{fill:#010101;}
	.st2{fill:#DB8D29;}
	.st3{fill:#CC3504;}
	.st4{fill:#FDFBF9;}
	.st5{fill:#FCFAF9;}
	.st6{fill:#FDFCFB;}
	.st7{fill:#FCF8F6;}
	.st8{fill:#FCF9F7;}
	.st9{fill:#FBF8F5;}
	.st10{fill:#FAF4F1;}
	.st11{fill:#FCFBFB;}
	.st12{fill:#CC3709;}
	.st13{fill:#CC3405;}
	.st14{fill:#CB390E;}
	.st15{fill:#020407;}
	.st16{fill:#EC1E26;}
	.st17{fill:#B11217;}
	.st18{fill:#0083C6;}
	.st19{fill:#1363A5;}
	.st20{fill:#BC1631;}
	.st21{fill:#052D5C;}
	.st22{fill:#020D6E;}
</style>
<g>
	<path class="st15" d="M87.99,13.49c-2-0.08-2.86,0.63-3.14,2.55c-1.16,8.14-2.32,16.28-3.47,24.42c-0.13,0.9-0.17,1.81,0.1,2.7
		c0.25,0.87,0.79,1.43,1.66,1.72c2.05,0.69,4.32-0.04,5.64-1.84c0.16-0.21,0.17-0.46,0.2-0.7c0.76-5.37,1.51-10.74,2.27-16.11
		c0.67-4.76,1.36-9.52,2.02-14.29c0.06-0.44,0.15-0.54,0.62-0.48c4.32,0.63,8.65,1.23,12.98,1.82c0.45,0.06,0.55,0.18,0.48,0.64
		c-0.74,5.1-1.46,10.2-2.18,15.31c-0.76,5.37-1.53,10.74-2.29,16.11c-0.31,2.16-0.63,4.32-0.91,6.49c-0.22,1.75,0.31,2.66,1.91,3.39
		c0.4,0.18,0.81,0.35,1.19,0.57c0.38,0.21,0.62,0.54,0.64,1.01c0.07,1.23-0.47,1.7-1.74,1.42c-2.57-0.55-5.15-1.03-7.75-1.37
		c-1.8-0.23-3.61-0.4-5.43-0.52c-2.09-0.14-2.8-1.03-2.44-3.08c0.15-0.85,0.31-1.69,0.45-2.54c0.06-0.39,0.12-0.79,0-1.17
		c-0.16-0.46-0.44-0.61-0.8-0.19c-1.8,2.09-4.17,3.25-6.76,3.93c-2.79,0.73-5.62,0.63-8.38-0.14c-4.07-1.14-6.43-4.6-6.03-8.88
		c0.28-2.9,0.76-5.79,1.17-8.68c0.9-6.34,1.82-12.68,2.73-19.02c0.13-0.92,0.27-1.85,0.41-2.77c0.23-1.53-0.26-2.36-1.72-2.9
		c-0.34-0.13-0.69-0.25-1.03-0.38c-0.61-0.23-0.99-0.62-0.92-1.33c0.07-0.72,0.52-1.06,1.17-1.23c0.74-0.19,1.47-0.03,2.19,0.07
		c3.55,0.52,7.06,1.23,10.62,1.64c2.37,0.28,4.76,0.29,7.12,0.65c0.27,0.04,0.53,0.09,0.79,0.16c0.65,0.18,1.12,0.55,1.1,1.28
		c-0.01,0.72-0.32,1.27-1.03,1.54C88.93,13.51,88.41,13.49,87.99,13.49z"/>
	<path class="st15" d="M32.72,20.94c1.28,0,2.56,0.02,3.83-0.01c0.46-0.01,0.58,0.08,0.49,0.57c-0.39,2.15-0.72,4.31-1.1,6.46
		c-0.1,0.54-0.03,0.77,0.61,0.75c1.23-0.06,2.46-0.06,3.68,0c0.6,0.03,0.73-0.23,0.81-0.72c0.34-2.13,0.72-4.26,1.06-6.39
		c0.07-0.46,0.19-0.67,0.72-0.66c2.53,0.03,5.06,0.03,7.59,0c0.53-0.01,0.59,0.17,0.52,0.63c-1.23,7.28-2.46,14.56-3.67,21.85
		c-0.08,0.48-0.26,0.63-0.75,0.62c-2.51-0.03-5.01-0.03-7.52,0c-0.52,0.01-0.6-0.14-0.52-0.62c0.4-2.3,0.75-4.6,1.17-6.89
		c0.11-0.58-0.07-0.64-0.57-0.63c-1.25,0.03-2.51,0.05-3.76-0.01c-0.58-0.02-0.74,0.2-0.82,0.71c-0.35,2.23-0.74,4.45-1.08,6.69
		c-0.08,0.57-0.26,0.76-0.86,0.75c-2.46-0.04-4.91-0.04-7.37,0c-0.58,0.01-0.7-0.14-0.6-0.69c0.97-5.71,1.93-11.42,2.88-17.13
		c0.26-1.57,0.54-3.14,0.77-4.72c0.06-0.45,0.23-0.56,0.65-0.55C30.16,20.96,31.44,20.94,32.72,20.94z"/>
	<path class="st15" d="M56.81,44.01c-2.51,0-5.01-0.02-7.52,0.01c-0.54,0.01-0.64-0.12-0.55-0.64c1.02-6.05,2.02-12.1,3.03-18.15
		c0.21-1.26,0.45-2.51,0.63-3.78c0.06-0.39,0.18-0.52,0.59-0.52c5.06,0.01,10.12,0.01,15.19,0c0.45,0,0.53,0.12,0.45,0.55
		c-0.31,1.69-0.6,3.38-0.85,5.08c-0.07,0.5-0.28,0.61-0.76,0.61c-2.38-0.03-4.77,0-7.15-0.02c-0.5-0.01-0.73,0.07-0.8,0.64
		c-0.2,1.56-0.23,1.55,1.38,1.55c1.43,0,2.85,0.01,4.28-0.01c0.43-0.01,0.53,0.08,0.45,0.53c-0.31,1.66-0.58,3.34-0.83,5.01
		c-0.07,0.43-0.24,0.54-0.67,0.54c-1.74-0.03-3.49,0-5.23-0.02c-0.43,0-0.64,0.06-0.71,0.57c-0.22,1.57-0.25,1.57,1.36,1.57
		c2.11,0,4.23,0.02,6.34-0.01c0.51-0.01,0.69,0.1,0.59,0.65c-0.32,1.79-0.63,3.58-0.89,5.37c-0.07,0.51-0.36,0.48-0.72,0.48
		C61.87,44,59.34,44.01,56.81,44.01z"/>
	<path class="st15" d="M12.23,28.36c-1.51,0-2.93-0.01-4.36,0.01c-0.42,0.01-0.6-0.02-0.5-0.55c0.4-2.12,0.75-4.25,1.08-6.38
		c0.06-0.41,0.21-0.51,0.6-0.51c5.8,0.01,11.6,0.01,17.39,0c0.46,0,0.53,0.15,0.46,0.55c-0.37,2.15-0.73,4.3-1.07,6.46
		c-0.06,0.41-0.2,0.56-0.65,0.55c-1.18-0.03-2.36,0.02-3.54,0c-0.51-0.01-0.75,0.07-0.85,0.67c-0.78,4.72-1.63,9.43-2.43,14.14
		c-0.09,0.53-0.25,0.72-0.82,0.71c-2.46-0.04-4.91-0.02-7.37-0.01c-0.47,0-0.68-0.01-0.56-0.62c0.87-4.75,1.68-9.52,2.51-14.28
		C12.18,28.88,12.2,28.63,12.23,28.36z"/>
	<path class="st16" d="M13.38,14.55c0.57-1.55,1.15-3.1,1.72-4.66c0.2-0.53,0.42-1.05,0.57-1.59c0.13-0.46,0.34-0.68,0.87-0.64
		c0.76,0.06,1.52,0.04,2.28,0c0.47-0.02,0.57,0.15,0.59,0.58c0.09,2.09,0.21,4.17,0.32,6.27c0.28-0.01,0.24-0.26,0.29-0.41
		c0.69-1.97,1.39-3.93,2.06-5.91c0.13-0.38,0.29-0.54,0.72-0.53c1.1,0.04,2.21,0.01,3.41,0.01c-0.4,0.92-0.76,1.77-1.14,2.61
		c-1.3,2.97-2.61,5.93-3.89,8.9c-0.18,0.41-0.37,0.61-0.85,0.59c-0.86-0.05-1.72-0.05-2.58,0c-0.5,0.03-0.62-0.17-0.64-0.62
		c-0.09-1.91-0.21-3.83-0.32-5.74c-0.01-0.1-0.02-0.19-0.03-0.34c-0.24,0.13-0.25,0.36-0.32,0.54c-0.73,1.82-1.47,3.64-2.15,5.48
		c-0.2,0.53-0.47,0.71-1.02,0.67c-0.81-0.05-1.62-0.04-2.43,0c-0.47,0.02-0.64-0.14-0.68-0.6c-0.19-2.23-0.41-4.45-0.62-6.67
		C9.4,11.08,9.27,9.66,9.11,8.25c-0.05-0.46,0.06-0.6,0.53-0.59c0.93,0.04,1.87,0.04,2.8,0c0.47-0.02,0.57,0.16,0.58,0.59
		c0.06,2.09,0.14,4.17,0.21,6.26C13.29,14.52,13.33,14.53,13.38,14.55z"/>
	<path class="st16" d="M43.91,7.66c0.29,0,0.59,0,0.88,0c1.39,0,1.39,0,1.13,1.39c-0.33,1.76-0.65,3.52-0.97,5.28
		c-0.03,0.17-0.05,0.34-0.06,0.51c-0.02,0.53-0.05,1.07,0.61,1.25c0.68,0.19,1.42-0.11,1.68-0.72c0.17-0.38,0.27-0.79,0.35-1.2
		c0.37-1.98,0.73-3.96,1.06-5.94c0.08-0.45,0.23-0.61,0.7-0.6c1.1,0.04,2.21,0.03,3.31,0c0.43-0.01,0.61,0.05,0.51,0.56
		c-0.43,2.19-0.8,4.39-1.22,6.58c-0.58,2.96-2.02,4.38-5,4.91c-1.37,0.24-2.74,0.21-4.08-0.21c-1.94-0.59-2.86-1.96-2.55-3.97
		c0.39-2.47,0.87-4.93,1.3-7.39c0.07-0.4,0.26-0.51,0.64-0.49C42.78,7.68,43.35,7.66,43.91,7.66z"/>
	<path class="st16" d="M24.53,14.99c0.01-4.67,4.11-8.26,8.51-7.45c0.94,0.17,1.76,0.59,2.49,1.2c0.32,0.26,0.42,0.46,0.08,0.81
		c-0.55,0.56-1.06,1.16-1.54,1.78c-0.3,0.38-0.52,0.4-0.95,0.16c-1.82-1.03-4.17,0.11-4.57,2.18c-0.36,1.87,1.12,3.17,3.03,2.67
		c0.19-0.05,0.37-0.13,0.55-0.21c0.92-0.4,0.91-0.41,1.38,0.53c0.08,0.15,0.15,0.31,0.22,0.46c0.64,1.32,0.64,1.32-0.69,2.03
		c-0.9,0.48-1.85,0.77-2.86,0.89C26.9,20.4,24.52,18.28,24.53,14.99z"/>
	<path class="st16" d="M36.58,19.73c-0.58-0.01-1.38,0.29-1.7-0.08c-0.32-0.36,0.07-1.1,0.17-1.67c0.54-3.22,1.1-6.43,1.63-9.65
		c0.08-0.51,0.26-0.7,0.8-0.66c0.78,0.05,1.57,0.05,2.36,0c0.59-0.04,0.75,0.13,0.64,0.72c-0.57,3.16-1.09,6.34-1.65,9.5
		c-0.11,0.62,0.04,1.47-0.45,1.78C37.95,19.95,37.2,19.73,36.58,19.73z"/>
</g>
</svg>
