<?xml version="1.0" encoding="utf-8"?>
<!-- Generator: Adobe Illustrator 25.0.1, SVG Export Plug-In . SVG Version: 6.00 Build 0)  -->
<svg version="1.1" id="Layer_1" xmlns="http://www.w3.org/2000/svg" xmlns:xlink="http://www.w3.org/1999/xlink" x="0px" y="0px"
	 viewBox="0 0 138.35 35.24" style="enable-background:new 0 0 138.35 35.24;" xml:space="preserve">
<style type="text/css">
	.st0{fill:#D1BBFD;}
	.st1{fill:#E11F26;}
	.st2{fill:#0260FF;}
	.st3{fill:#EB0202;}
	.st4{fill:#26BF1B;}
	.st5{fill:#053A65;}
	.st6{fill:#063A65;}
	.st7{fill:#053965;}
	.st8{clip-path:url(#SVGID_2_);}
	.st9{fill:#FF391A;}
	.st10{fill:#FFFFFF;}
</style>
<g>
	<g>
		<path class="st0" d="M7.4,26.04L1.76,11.18h2.41l3.2,8.81c0.72,2.06,1.15,3.4,1.27,4.01h0.11c0.1-0.48,0.41-1.47,0.94-2.98
			s1.71-4.79,3.56-9.85h2.41l-5.64,14.86H7.4z"/>
		<path class="st0" d="M27.19,26.04l-0.45-2.11h-0.11c-0.74,0.93-1.48,1.56-2.22,1.89c-0.74,0.33-1.66,0.49-2.76,0.49
			c-1.47,0-2.63-0.38-3.46-1.14s-1.25-1.84-1.25-3.24c0-3,2.4-4.57,7.2-4.72l2.52-0.08v-0.92c0-1.17-0.25-2.03-0.75-2.58
			c-0.5-0.56-1.3-0.83-2.41-0.83c-1.24,0-2.64,0.38-4.2,1.14l-0.69-1.72c0.73-0.4,1.53-0.71,2.41-0.94
			c0.87-0.23,1.75-0.34,2.62-0.34c1.77,0,3.08,0.39,3.94,1.18c0.85,0.79,1.28,2.05,1.28,3.78v10.14H27.19z M22.11,24.45
			c1.4,0,2.5-0.38,3.3-1.15c0.8-0.77,1.2-1.84,1.2-3.23v-1.34l-2.25,0.09c-1.79,0.06-3.08,0.34-3.87,0.83
			c-0.79,0.49-1.19,1.26-1.19,2.3c0,0.81,0.25,1.43,0.74,1.86C20.53,24.24,21.22,24.45,22.11,24.45z"/>
		<path class="st0" d="M43.67,26.04v-9.61c0-1.21-0.28-2.12-0.83-2.71c-0.55-0.6-1.42-0.9-2.59-0.9c-1.55,0-2.69,0.42-3.42,1.26
			c-0.72,0.84-1.08,2.23-1.08,4.16v7.8H33.5V11.18h1.83l0.37,2.03h0.11c0.46-0.73,1.11-1.3,1.94-1.7c0.83-0.4,1.76-0.6,2.78-0.6
			c1.79,0,3.14,0.43,4.04,1.29s1.36,2.24,1.36,4.14v9.69H43.67z"/>
		<path class="st0" d="M56.48,26.31c-2.15,0-3.82-0.66-5-1.99c-1.18-1.32-1.77-3.2-1.77-5.62c0-2.49,0.6-4.41,1.8-5.76
			s2.9-2.03,5.12-2.03c0.71,0,1.43,0.08,2.14,0.23c0.71,0.15,1.27,0.33,1.68,0.54l-0.69,1.91c-0.5-0.2-1.04-0.36-1.63-0.5
			c-0.59-0.13-1.11-0.2-1.56-0.2c-3.02,0-4.53,1.93-4.53,5.78c0,1.83,0.37,3.23,1.1,4.2c0.74,0.98,1.83,1.46,3.27,1.46
			c1.24,0,2.51-0.27,3.81-0.8v1.99C59.24,26.05,57.99,26.31,56.48,26.31z"/>
		<path class="st0" d="M76.58,18.59c0,2.42-0.61,4.31-1.83,5.67s-2.91,2.04-5.06,2.04c-1.33,0-2.51-0.31-3.54-0.94
			c-1.03-0.62-1.83-1.52-2.39-2.68c-0.56-1.17-0.84-2.53-0.84-4.09c0-2.42,0.61-4.31,1.82-5.66c1.21-1.35,2.89-2.03,5.04-2.03
			c2.08,0,3.73,0.69,4.96,2.07S76.58,16.23,76.58,18.59z M65.26,18.59c0,1.9,0.38,3.34,1.14,4.34s1.88,1.49,3.35,1.49
			s2.59-0.5,3.36-1.48c0.76-0.99,1.15-2.44,1.15-4.35c0-1.89-0.38-3.32-1.15-4.3s-1.89-1.47-3.38-1.47c-1.47,0-2.58,0.48-3.34,1.45
			C65.64,15.24,65.26,16.68,65.26,18.59z"/>
		<path class="st0" d="M82.64,11.18v9.64c0,1.21,0.28,2.12,0.83,2.71c0.55,0.6,1.41,0.9,2.59,0.9c1.55,0,2.69-0.42,3.41-1.27
			c0.72-0.85,1.08-2.24,1.08-4.16v-7.81h2.25v14.86h-1.86l-0.33-1.99h-0.12c-0.46,0.73-1.1,1.29-1.92,1.68
			c-0.82,0.39-1.75,0.58-2.8,0.58c-1.81,0-3.16-0.43-4.06-1.29c-0.9-0.86-1.35-2.23-1.35-4.12v-9.72H82.64z"/>
		<path class="st0" d="M100.83,26.04l-5.64-14.86h2.41l3.2,8.81c0.72,2.06,1.15,3.4,1.27,4.01h0.11c0.1-0.48,0.41-1.47,0.94-2.98
			s1.71-4.79,3.56-9.85h2.41l-5.64,14.86H100.83z"/>
		<path class="st0" d="M117.76,26.31c-2.2,0-3.93-0.67-5.2-2.01c-1.27-1.34-1.9-3.19-1.9-5.57c0-2.4,0.59-4.3,1.77-5.71
			c1.18-1.41,2.76-2.12,4.75-2.12c1.86,0,3.33,0.61,4.42,1.84c1.08,1.23,1.63,2.84,1.63,4.85v1.42h-10.24
			c0.04,1.74,0.49,3.07,1.32,3.97s2.01,1.36,3.53,1.36c1.6,0,3.18-0.33,4.75-1v2.01c-0.8,0.34-1.55,0.59-2.26,0.74
			C119.62,26.23,118.76,26.31,117.76,26.31z M117.15,12.79c-1.19,0-2.14,0.39-2.85,1.17s-1.13,1.85-1.25,3.23h7.77
			c0-1.42-0.32-2.51-0.95-3.26C119.23,13.17,118.32,12.79,117.15,12.79z"/>
		<path class="st0" d="M133.84,10.91c0.66,0,1.25,0.05,1.78,0.16l-0.31,2.09c-0.61-0.14-1.16-0.2-1.63-0.2
			c-1.2,0-2.23,0.49-3.08,1.46c-0.85,0.98-1.28,2.19-1.28,3.65v7.97h-2.25V11.18h1.86l0.26,2.75h0.11c0.55-0.97,1.22-1.71,1.99-2.24
			C132.05,11.17,132.91,10.91,133.84,10.91z"/>
	</g>
</g>
</svg>
