<?xml version="1.0" encoding="utf-8"?>
<!-- Generator: Adobe Illustrator 25.0.1, SVG Export Plug-In . SVG Version: 6.00 Build 0)  -->
<svg version="1.1" id="Layer_1" xmlns="http://www.w3.org/2000/svg" xmlns:xlink="http://www.w3.org/1999/xlink" x="0px" y="0px"
	 viewBox="0 0 198.65 58.11" style="enable-background:new 0 0 198.65 58.11;" xml:space="preserve">
<style type="text/css">
	.st0{fill:#D1BBFD;}
	.st1{fill:#E11F26;}
	.st2{fill:#0260FF;}
	.st3{fill:#EB0202;}
	.st4{fill:#26BF1B;}
	.st5{fill:#053A65;}
	.st6{fill:#063A65;}
	.st7{fill:#053965;}
	.st8{clip-path:url(#SVGID_2_);}
	.st9{fill:#FF391A;}
	.st10{fill:#FFFFFF;}
</style>
<path d="M193.59,15.56c0-5.8-4.4-8-9.56-8h-10.11v23.02h8.17v-7.4h0.17l3.64,7.4h9.65l-4.99-7.49c-0.47-0.68-0.97-1.06-1.4-1.35
	v-0.17C192.24,20.51,193.59,19.03,193.59,15.56 M185.43,15.86c0,1.69-1.4,1.9-2.75,1.9h-0.59v-3.89h0.63
	C184.16,13.87,185.43,14.08,185.43,15.86 M157.54,30.58h15.7v-6.3h-7.28v-2.24h6.43v-5.97h-6.43v-2.2h7.07v-6.3H149.8l-3.05,10.45
	c-0.34,1.14-0.59,2.24-0.59,3.43h-0.17c0-1.14-0.25-2.28-0.59-3.43l-3.05-10.45h-16.08v12.82c0,1.78-0.04,3.38-2.28,3.38
	s-2.28-1.57-2.28-3.38V7.56h-8.38v13.62c0,6.73,4.23,9.77,10.66,9.77c6.43,0,10.66-3.05,10.66-9.77v-11l7.91,20.39h7.11l7.87-20.31
	V30.58z M113.33,19.11c0-7.24-5.75-11.93-12.74-11.93c-5.67,0-10.49,3.09-12.14,8.08l-0.21-7.15c-1.78-0.59-3.72-0.93-5.63-0.93
	c-6.73,0-12.02,5.37-12.02,12.1c0,6.56,5.12,11.68,11.68,11.68c1.48,0,4.61-0.3,5.97-0.93l0.21-7.02c1.65,5.03,6.43,7.91,12.14,7.91
	C107.62,30.96,113.33,26.52,113.33,19.11 M87.86,19.11c0,0.93,0.08,1.82,0.25,2.62c-1.27,1.1-2.67,1.78-4.4,1.78
	c-2.5,0-4.65-1.95-4.65-4.48c0-2.5,2.03-4.48,4.53-4.48c1.73,0,3.26,0.89,4.53,1.99C87.99,17.38,87.86,18.23,87.86,19.11
	 M104.91,19.24c0,2.62-1.78,4.44-4.32,4.44c-2.54,0-4.32-1.82-4.32-4.44c0-2.45,1.65-4.48,4.32-4.48S104.91,16.83,104.91,19.24
	 M62.56,30.58h8V7.56h-8v6.9c0,1.95,0.38,3.93,0.72,5.88h-0.25L55.53,7.56h-8.04v19.76L40.43,7.56h-9.22l-8,23.02h8.84l0.68-2.88
	h6.3l0.76,2.88h15.7v-7.49c0-1.52-0.25-3-0.51-4.61h0.25L62.56,30.58z M37.59,22.25h-3.34l1.52-7.02h0.3
	c0.17,0.97,0.3,1.99,0.55,2.96C36.62,18.18,37.59,22.25,37.59,22.25z M20.97,30.58l8.89-23.02h-8.72l-3.05,10.49
	c-0.34,1.14-0.59,2.24-0.59,3.43h-0.17c0-1.14-0.25-2.28-0.59-3.43L13.69,7.61H4.97l8.93,23.02h7.07V30.58z M17.24,32.57H9.12v22.34
	h8.12v-1.65c2.5,1.27,5.71,1.99,8.5,1.99c4.82,0,9.69-2.62,9.69-8c0-3.81-2.5-5.63-5.92-6.39l-1.82-0.42
	c-0.63-0.13-1.65-0.25-1.65-1.1c0-0.93,1.06-1.18,1.73-1.18c1.73,0,3.34,0.76,4.7,1.69l2.24-5.67c-2.2-1.35-4.53-1.95-7.11-1.95
	c-4.87,0-9.69,2.96-9.69,8.25c0,3.51,2.67,5.37,5.84,5.92l1.61,0.3c0.76,0.13,1.82,0.25,1.82,1.23c0,1.02-1.27,1.31-2.07,1.31
	c-1.86,0-3.6-0.93-5.08-2.03l-0.42-0.34l-2.37,6.14C17.24,53.01,17.24,32.57,17.24,32.57z M46.14,32.61L38.4,54.99h8.59l0.68-2.79
	h6.14l0.76,2.79h8.59l-8-22.38H46.14z M49.1,46.87l1.48-6.81h0.3c0.13,0.93,0.3,1.95,0.55,2.88l0.93,3.93
	C52.36,46.87,49.1,46.87,49.1,46.87z M57.27,32.61l7.83,22.38h6.9l2.24-8.8c0.25-1.1,0.34-2.24,0.42-3.38h0.25l2.54,12.19h7.11
	l6.85-19.42v19.42h15.27v-1.44c2.45,1.14,5.46,1.82,8.12,1.82c4.48,0,8.97-2.28,9.6-6.85c1.82,4.36,6.26,6.85,11.47,6.85
	c6.81,0,12.4-4.32,12.4-11.47c0-7.02-5.59-11.59-12.4-11.59c-6.81,0-12.35,4.57-12.35,11.59c-1.02-1.52-2.79-2.41-4.95-2.92
	l-1.82-0.42c-0.63-0.17-1.65-0.25-1.65-1.1c0-0.93,1.06-1.18,1.73-1.18c1.73,0,3.34,0.76,4.7,1.69l2.2-5.71
	c-2.2-1.35-4.53-1.95-7.11-1.95c-4.87,0-9.69,2.96-9.69,8.29c0,3.51,2.67,5.37,5.84,5.92l1.65,0.3c0.76,0.17,1.82,0.25,1.82,1.27
	s-1.27,1.35-2.07,1.35c-1.86,0-3.64-0.93-5.08-2.03l-0.42-0.34l-1.99,5.03v-3.13h-7.11v-2.2h6.26v-5.8h-6.26v-2.16h6.85v-6.22H83.97
	L81.72,42c-0.3,1.27-0.47,2.62-0.55,3.93H81l-3.05-13.37h-6.22l-2.37,9.22c-0.34,1.35-0.55,2.75-0.68,4.1h-0.17l-2.83-13.37h-8.42
	L57.27,32.61z M131.74,43.95c0-2.37,1.61-4.36,4.19-4.36c2.58,0,4.19,1.99,4.19,4.36c0,2.54-1.73,4.32-4.19,4.32
	C133.47,48.27,131.74,46.53,131.74,43.95 M151.2,32.61l-3.64,22.38h7.87l0.93-9.56c0.08-0.89,0.17-1.82,0.21-2.71h0.25
	c0.04,0.93,0.25,1.82,0.51,2.79l2.92,9.48h4.74l3.26-10.03c0.25-0.72,0.38-1.48,0.55-2.24h0.17l1.1,12.27h23.06V48.9h-7.11v-2.2
	h6.26v-5.8h-6.26v-2.16h6.85v-6.14h-15.06v21.83l-3.6-21.83h-8.29l-2.54,8.8c-0.25,0.97-0.42,1.99-0.55,2.96h-0.21l-3.09-11.76
	H151.2z"/>
</svg>
