<?xml version="1.0" encoding="utf-8"?>
<!-- Generator: Adobe Illustrator 25.0.1, SVG Export Plug-In . SVG Version: 6.00 Build 0)  -->
<svg version="1.1" id="Layer_1" xmlns="http://www.w3.org/2000/svg" xmlns:xlink="http://www.w3.org/1999/xlink" x="0px" y="0px"
	 viewBox="0 0 201.35 108.78" style="enable-background:new 0 0 201.35 108.78;" xml:space="preserve">
<style type="text/css">
	.st0{fill:#D1BBFD;}
	.st1{fill:#E11F26;}
	.st2{fill:#0260FF;}
	.st3{fill:#EB0202;}
	.st4{fill:#26BF1B;}
	.st5{fill:#053A65;}
	.st6{fill:#063A65;}
	.st7{fill:#053965;}
	.st8{clip-path:url(#SVGID_2_);}
	.st9{fill:#FF391A;}
	.st10{fill:#FFFFFF;}
</style>
<g>
	<path d="M8.93,57.49c0.27-1.33,0.44-2.68,0.81-3.98C13.48,40.33,27.31,39,34.51,43.45c3.82,2.37,5.8,5.91,6.78,10.25
		c-2.5,0-4.89,0.01-7.27-0.03c-0.21,0-0.47-0.34-0.6-0.58c-2.49-4.55-8.29-5.91-12.36-2.85c-2.19,1.65-3.48,3.91-4,6.58
		c-0.72,3.64-0.14,7.06,2.14,10.07c3.55,4.69,9.83,4.65,13.35-0.07c0.42-0.56,0.75-1.18,1.21-1.9c-2.72,0-5.28,0-7.88,0
		c0-2.33,0-4.57,0-6.88c5.15,0,10.3,0,15.49,0c0,6.22,0,12.43,0,18.68c-2.26,0-4.48,0-6.8,0c0-0.83,0-1.62,0-2.28
		c-1.37,0.76-2.64,1.67-4.06,2.21c-5.92,2.26-15.9,0.21-19.84-8.73c-0.84-1.91-1.38-3.9-1.59-5.98c-0.02-0.18-0.09-0.35-0.14-0.52
		C8.93,60.11,8.93,58.8,8.93,57.49z"/>
	<path class="st1" d="M163.85,89.74c0-0.49,0-0.8,0-1.1c0-7.56,0-15.12-0.01-22.68c0-0.54,0.13-0.9,0.6-1.24
		c4.57-3.31,9.13-6.64,13.69-9.97c1.5-1.09,1.52-2.25,0.03-3.32c-10.44-7.52-20.87-15.04-31.32-22.54
		c-0.52-0.37-0.68-0.76-0.68-1.36c0.01-7.93,0.01-15.85,0.01-23.78c0-0.3,0.04-0.61,0.07-1.07c0.39,0.22,0.66,0.34,0.9,0.52
		c11.55,8.35,23.1,16.7,34.65,25.06c5.15,3.72,10.29,7.45,15.46,11.14c0.6,0.43,0.83,0.86,0.82,1.61c-0.03,7.74-0.03,15.49,0,23.23
		c0,0.59-0.18,0.93-0.66,1.28c-10.88,7.89-21.74,15.8-32.61,23.7C164.55,89.38,164.27,89.5,163.85,89.74z"/>
	<path d="M88.22,42.04c2.67,0,5.29,0,7.99,0c0,3.58,0,7.16,0,10.9c0.48-0.33,0.81-0.6,1.18-0.82c4.67-2.8,11.36-2.1,14.66,3.72
		c1.87,3.3,2.16,6.87,1.77,10.53c-0.14,1.26-0.43,2.54-0.87,3.74c-2.17,5.84-7.38,8.47-13.4,6.82c-0.63-0.17-1.25-0.39-1.84-0.68
		c-0.58-0.28-1.11-0.67-1.75-1.07c0,0.48,0,0.96,0,1.5c-2.63,0-5.15,0-7.73,0C88.22,65.16,88.22,53.65,88.22,42.04z M106.1,64.12
		c-0.07-0.02-0.15-0.04-0.22-0.06c-0.04-1.55-0.21-3.08-0.94-4.49c-0.86-1.65-2.15-2.59-4.08-2.55c-1.89,0.03-3.22,0.95-3.96,2.61
		c-1.29,2.9-1.29,5.86-0.01,8.76c0.75,1.69,2.12,2.63,4.03,2.64c1.91,0.01,3.32-0.92,4.02-2.63
		C105.48,67.03,105.72,65.54,106.1,64.12z"/>
	<path d="M125.75,59.78c-2.69,0-5.33,0-8.03,0c0.03-3.1,1.23-5.52,3.8-7.21c2.01-1.32,4.29-1.83,6.64-1.97
		c2.95-0.18,5.9-0.1,8.67,1.11c2.66,1.16,4.24,3.14,4.25,6.13c0.03,6.11,0.04,12.23,0.03,18.34c0,0.19-0.26,0.56-0.41,0.56
		c-2.36,0.04-4.72,0.02-7.16,0.02c-0.03-0.52-0.06-0.97-0.09-1.56c-1.7,1.25-3.57,1.81-5.53,2.05c-1.94,0.24-3.89,0.21-5.76-0.43
		c-2.76-0.94-4.48-2.82-5.01-5.72c-0.65-3.55,0.65-6.76,3.55-8.2c1.27-0.63,2.7-1,4.1-1.29c1.82-0.38,3.68-0.55,5.52-0.82
		c0.44-0.07,0.88-0.17,1.3-0.31c1.16-0.39,1.41-0.7,1.39-1.69c-0.02-1.2-0.48-2.03-1.53-2.17c-1.2-0.16-2.46-0.17-3.66,0
		c-1.15,0.17-1.73,1.1-1.92,2.23C125.84,59.16,125.8,59.47,125.75,59.78z M132.99,65.58c-1.37,0.23-2.69,0.44-4,0.68
		c-0.64,0.12-1.29,0.24-1.91,0.44c-1.45,0.45-2.06,1.33-1.96,2.73c0.08,1.17,0.68,1.72,2.22,2.02c2.08,0.42,3.94-0.24,4.88-1.74
		C133.01,68.44,133.1,67.02,132.99,65.58z"/>
	<path d="M71.11,77.37c-4.8-0.06-8.78-1.7-11.32-5.99c-1.65-2.79-2.11-5.87-1.73-9.03c0.18-1.52,0.55-3.06,1.12-4.47
		c1.34-3.33,3.85-5.52,7.25-6.63c3.16-1.03,6.38-1.05,9.52,0.03c5.09,1.74,7.67,5.51,8.33,10.71c0.31,2.43,0.11,4.82-0.69,7.14
		c-1.76,5.09-6.16,8.12-11.92,8.24C71.47,77.38,71.29,77.37,71.11,77.37z M76.51,64.02c-0.35-1.47-0.54-2.97-1.07-4.33
		c-0.72-1.83-2.24-2.66-4.23-2.69c-2.03-0.02-3.56,0.83-4.33,2.67c-1.21,2.9-1.2,5.88,0.05,8.78c0.79,1.84,2.36,2.59,4.31,2.56
		c1.96-0.03,3.52-0.83,4.22-2.7C75.96,66.97,76.16,65.51,76.51,64.02z"/>
	<path d="M131.7,83.34c-2.12,7.86-4.21,15.62-6.31,23.41c-1.88,0-3.74,0-5.68,0c-1.12-4.5-2.25-9.01-3.38-13.52
		c-0.06,0-0.11,0-0.17,0.01c-1.1,4.49-2.21,8.97-3.33,13.54c-1.83,0-3.63,0.02-5.43-0.03c-0.17,0-0.42-0.39-0.49-0.64
		c-1.25-4.66-2.49-9.32-3.72-13.98c-0.71-2.66-1.41-5.32-2.11-7.98c-0.06-0.22-0.1-0.45-0.17-0.75c1.98,0,3.9,0,5.92,0
		c1.04,4.47,2.1,8.98,3.15,13.49c0.05,0.01,0.1,0.02,0.15,0.02c1.16-4.51,2.31-9.02,3.48-13.58c1.67,0,3.29,0.01,4.92-0.01
		c0.49-0.01,0.53,0.29,0.61,0.64c1.03,4.17,2.07,8.34,3.12,12.51c0.05,0.2,0.12,0.4,0.24,0.83c0.48-2.01,0.91-3.79,1.33-5.57
		c0.61-2.55,1.23-5.09,1.81-7.65c0.13-0.56,0.32-0.78,0.92-0.76C128.24,83.37,129.92,83.34,131.7,83.34z"/>
	<path d="M71.02,106.79c-1.82,0-3.55,0.02-5.28-0.03c-0.25-0.01-0.55-0.33-0.71-0.59c-2.59-4.14-5.16-8.28-7.74-12.43
		c-0.13-0.21-0.28-0.42-0.56-0.83c0,4.74,0,9.26,0,13.82c-1.89,0-3.69,0-5.56,0c0-7.76,0-15.51,0-23.4c0.87,0,1.75-0.01,2.63,0
		c0.97,0.01,2.11-0.28,2.86,0.13c0.75,0.41,1.12,1.53,1.63,2.35c2.2,3.52,4.38,7.04,6.57,10.56c0.14,0.22,0.27,0.43,0.55,0.63
		c0-4.51,0-9.02,0-13.6c1.91,0,3.73,0,5.6,0C71.02,91.18,71.02,98.94,71.02,106.79z"/>
	<path d="M84.52,97.13c0,1.56,0,3,0,4.55c4.01,0,8.01,0,12.06,0c0,1.75,0,3.39,0,5.07c-5.98,0-11.93,0-17.94,0
		c0-7.78,0-15.56,0-23.39c5.89,0,11.78,0,17.72,0c0,1.69,0,3.33,0,5.09c-3.93,0-7.86,0-11.83,0c0,1.33,0,2.55,0,3.86
		c3.62,0,7.2,0,10.88,0c0,1.55,0.02,3.01-0.03,4.47c0,0.13-0.45,0.34-0.7,0.34c-3.07,0.02-6.15,0.02-9.22,0.02
		C85.17,97.13,84.89,97.13,84.52,97.13z"/>
	<path d="M135.56,98.42c1.93,0,3.79,0,5.69,0c0.03,0.22,0.07,0.42,0.08,0.62c0.1,1.71,0.88,2.71,2.52,3.2
		c1.37,0.41,2.76,0.42,4.11-0.04c0.52-0.18,1.05-0.52,1.41-0.93c0.65-0.73,0.48-1.89-0.36-2.41c-0.72-0.45-1.54-0.78-2.36-1.04
		c-1.7-0.53-3.43-0.97-5.14-1.45c-0.33-0.09-0.64-0.23-0.96-0.36c-2.51-1.08-4.14-2.84-4.22-5.7c-0.08-2.94,1.33-5.07,3.89-6.32
		c3.57-1.74,7.25-1.62,10.77,0.14c2.72,1.36,3.78,3.79,3.72,6.83c-1.88,0-3.73,0-5.66,0c-0.03-0.18-0.09-0.4-0.11-0.63
		c-0.16-1.38-0.8-2.18-2.12-2.5c-1.13-0.28-2.32-0.43-3.4,0.09c-0.51,0.25-1.06,0.76-1.25,1.27c-0.39,1.01,0.04,1.65,1.19,1.99
		c1.91,0.57,3.83,1.09,5.76,1.6c1.51,0.4,2.93,0.96,4.15,1.97c3.47,2.88,2.73,8.88-1.17,10.95c-4.47,2.38-9.05,2.36-13.39-0.37
		C136.29,103.81,135.46,101.34,135.56,98.42z"/>
	<path d="M54.28,76.71c-2.67,0-5.29,0-7.97,0c0-11.55,0-23.08,0-34.66c2.65,0,5.29,0,7.97,0C54.28,53.59,54.28,65.1,54.28,76.71z"/>
	<path d="M145.62,42.04c2.66,0,5.28,0,7.96,0c0,11.54,0,23.07,0,34.65c-2.64,0-5.28,0-7.96,0
		C145.62,65.14,145.62,53.61,145.62,42.04z"/>
</g>
</svg>
