<?xml version="1.0" encoding="utf-8"?>
<!-- Generator: Adobe Illustrator 25.0.1, SVG Export Plug-In . SVG Version: 6.00 Build 0)  -->
<svg version="1.1" id="Layer_1" xmlns="http://www.w3.org/2000/svg" xmlns:xlink="http://www.w3.org/1999/xlink" x="0px" y="0px"
	 viewBox="0 0 208.11 45.95" style="enable-background:new 0 0 208.11 45.95;" xml:space="preserve">
<style type="text/css">
	.st0{fill:#D1BBFD;}
	.st1{fill:#E11F26;}
	.st2{fill:#0260FF;}
	.st3{fill:#EB0202;}
	.st4{fill:#26BF1B;}
	.st5{fill:#053A65;}
	.st6{fill:#063A65;}
	.st7{fill:#053965;}
	.st8{clip-path:url(#SVGID_2_);}
	.st9{fill:#FF391A;}
	.st10{fill:#FFFFFF;}
</style>
<g>
	<path class="st2" d="M62.9,38.26c-9.16,0-18.29,0-27.41,0c-0.19-0.65-0.27-25.85-0.1-27.89c0.65-0.18,25.16-0.26,27.51-0.09
		C62.9,19.6,62.9,28.92,62.9,38.26z M47.91,17.56c0,5.33,0,10.53,0,15.78c0.88-0.01,1.67,0.09,2.53-0.09c0-5.23,0-10.42,0-15.7
		c2.52,0,4.96,0,7.45,0c0-0.83,0-1.56,0-2.35c-5.84,0-11.64,0-17.48,0c0,0.78,0,1.51,0,2.35c1.24,0,2.44,0,3.65,0
		C45.29,17.56,46.53,17.56,47.91,17.56z"/>
	<path class="st3" d="M33.45,24.25c-0.01,8.17-6.64,14.78-14.79,14.74c-8.1-0.03-14.71-6.67-14.71-14.77
		c0.01-8.15,6.64-14.74,14.82-14.72C26.91,9.53,33.46,16.1,33.45,24.25z M26.85,19.44c-2.24-3.85-6.87-5.62-11.07-4.29
		c-4.29,1.35-7.04,5.48-6.65,10.01c0.35,4.17,3.79,7.83,7.93,8.48c4.88,0.76,8.71-2.24,9.72-4.65c-0.65-0.38-1.31-0.77-1.96-1.15
		c-3.08,4.4-7.99,4.25-10.84,1.79c-3.04-2.63-3.33-7.32-0.61-10.23c1.35-1.44,3.01-2.2,4.99-2.25c2.82-0.07,4.89,1.26,6.46,3.51
		C25.51,20.24,26.15,19.86,26.85,19.44z"/>
	<path class="st4" d="M64.24,10.27c11.08,0,22.02,0,32.96,0c-0.14,0.62-15.24,26.9-16.49,28.67C75.22,29.38,69.75,19.87,64.24,10.27
		z M70.28,15.14c3.52,6.12,6.96,12.11,10.44,18.17c0.16-0.23,0.27-0.36,0.35-0.51c3.37-5.82,6.73-11.65,10.09-17.47
		c0.01-0.02-0.01-0.05-0.02-0.08c-0.01-0.03-0.03-0.05-0.07-0.11c-0.58,0-1.19,0.05-1.79-0.01c-0.67-0.07-1.03,0.18-1.36,0.77
		c-2.2,3.9-4.44,7.77-6.68,11.65c-0.15,0.26-0.32,0.51-0.53,0.84c-1-1.76-1.93-3.39-2.85-5.02c-1.44-2.54-2.89-5.07-4.31-7.62
		c-0.26-0.47-0.56-0.66-1.09-0.63C71.83,15.17,71.16,15.14,70.28,15.14z"/>
	<path class="st5" d="M129,38.37c-0.69,0.33-1.01-0.06-1.35-0.48c-3.39-4.17-6.79-8.34-10.19-12.5c-3.14-3.85-6.28-7.71-9.43-11.56
		c-0.17-0.21-0.37-0.41-0.69-0.78c0,0.38,0,0.57,0,0.76c0,6.45-0.01,12.89,0.01,19.34c0,0.72,0.09,1.44,0.2,2.15
		c0.16,1,0.74,1.62,1.78,1.71c0.57,0.05,1.15,0.01,1.79,0.01c0,0.4,0,0.78,0,1.22c-3.41,0-6.83,0-10.31,0c0-0.38,0-0.76,0-1.19
		c0.5-0.03,0.99-0.05,1.47-0.1c1.49-0.14,2.1-0.71,2.31-2.21c0.08-0.57,0.13-1.15,0.13-1.73c0.01-7.4,0-14.8,0.01-22.2
		c0-0.46-0.08-0.85-0.39-1.19c-0.36-0.41-0.7-0.85-1.09-1.23c-0.78-0.77-1.67-1.34-2.87-1.29c0-0.4,0-0.76,0-1.19
		c0.21-0.02,0.43-0.05,0.64-0.05c1.65,0,3.3,0.02,4.94-0.02c0.56-0.01,0.89,0.17,1.23,0.6c6.21,7.73,12.43,15.45,18.65,23.17
		c0.19,0.24,0.39,0.47,0.74,0.65c0-0.19,0-0.37,0-0.56c0-6.07,0.01-12.14-0.01-18.21c0-0.75-0.06-1.51-0.19-2.24
		c-0.23-1.27-0.8-1.78-2.09-1.94c-0.57-0.07-1.14-0.08-1.76-0.11c0-0.4,0-0.76,0-1.19c3.46,0,6.91,0,10.39,0
		c0.02,0.17,0.04,0.31,0.05,0.45c0.01,0.26,0,0.51,0,0.79c-0.68,0.07-1.31,0.12-1.94,0.2c-1.01,0.12-1.66,0.68-1.83,1.68
		c-0.13,0.79-0.2,1.61-0.2,2.41c-0.01,8.64-0.01,17.29-0.01,25.93C129,37.77,129,38.09,129,38.37z"/>
	<path class="st5" d="M163.4,38.47c-0.47,0-0.81,0-1.24,0c-0.11-0.34-0.23-0.68-0.33-1.04c-2.07-6.76-4.14-13.52-6.22-20.28
		c-0.19-0.63-0.42-1.26-0.68-1.87c-0.4-0.92-1-1.63-2.15-1.62c0-0.4,0-0.76,0-1.17c2.79,0,5.55,0,8.37,0c0,0.36,0,0.73,0,1.16
		c-0.35,0.03-0.71,0.03-1.07,0.08c-0.89,0.12-1.19,0.41-1.16,1.3c0.02,0.66,0.12,1.33,0.31,1.96c1.48,4.89,2.98,9.77,4.48,14.66
		c0.05,0.15,0.12,0.3,0.25,0.63c2.12-6.7,4.17-13.2,6.24-19.72c0.42,0,0.79,0,1.27,0c2.4,6.55,4.82,13.12,7.28,19.85
		c0.13-0.35,0.22-0.55,0.28-0.76c1.41-4.73,2.83-9.46,4.22-14.19c0.21-0.72,0.36-1.46,0.49-2.19c0.13-0.76-0.1-1.14-0.85-1.36
		c-0.43-0.13-0.89-0.18-1.37-0.28c0-0.37,0-0.73,0-1.13c2.14,0,4.25,0,6.42,0c0,0.36,0,0.72,0,1.15c-0.09,0.02-0.23,0.06-0.36,0.07
		c-0.71,0.02-1.22,0.37-1.51,0.99c-0.42,0.92-0.85,1.84-1.15,2.8c-2.05,6.71-4.07,13.42-6.1,20.14c-0.08,0.27-0.18,0.54-0.27,0.83
		c-0.41,0-0.78,0-1.25,0c-2.46-6.59-4.94-13.22-7.42-19.85c-0.07,0-0.14,0-0.2,0.01C167.59,25.23,165.5,31.84,163.4,38.47z"/>
	<path class="st6" d="M132.79,37.28c0.52-0.06,0.97-0.1,1.43-0.16c0.75-0.1,1.21-0.54,1.36-1.26c0.11-0.54,0.19-1.09,0.19-1.63
		c0.01-5.87,0.01-11.73,0-17.6c0-0.52-0.08-1.04-0.17-1.55c-0.13-0.78-0.58-1.25-1.38-1.32c-0.49-0.04-0.97-0.06-1.52-0.09
		c0-0.37,0-0.73,0-1.16c5.69,0,11.39,0,17.2,0c0.17,1.54,0.34,3.1,0.51,4.71c-0.52,0-0.95,0-1.44,0c-0.12-0.49-0.23-0.99-0.38-1.48
		c-0.27-0.94-0.85-1.55-1.88-1.66c-2.39-0.26-4.78-0.17-7.23-0.18c0,3.32,0,6.57,0,9.88c0.14,0.02,0.28,0.05,0.41,0.05
		c1.62-0.01,3.24,0,4.86-0.05c1.99-0.07,2.28-0.38,2.43-2.34c0.01-0.11,0.03-0.23,0.05-0.38c0.49,0,0.96,0,1.49,0
		c0,2.24,0,4.45,0,6.71c-0.5,0-0.97,0-1.48,0c-0.05-0.39-0.09-0.76-0.15-1.13c-0.17-0.91-0.49-1.25-1.39-1.39
		c-0.54-0.08-1.09-0.11-1.64-0.11c-1.5-0.01-3-0.01-4.55-0.01c-0.02,0.26-0.05,0.48-0.05,0.7c0,2.72-0.01,5.43,0,8.15
		c0,1.52,0.53,2.24,1.99,2.62c1.93,0.5,3.9,0.47,5.86,0.34c0.85-0.06,1.46-0.56,1.8-1.32c0.24-0.55,0.38-1.15,0.55-1.72
		c0.06-0.19,0.1-0.38,0.15-0.59c0.49,0,0.94,0,1.46,0c-0.18,1.74-0.35,3.43-0.52,5.15c-6,0-11.95,0-17.95,0
		C132.79,38.07,132.79,37.71,132.79,37.28z"/>
	<path class="st7" d="M188.4,38c-0.14-1.89-0.27-3.79-0.42-5.74c0.51,0,0.96,0,1.46,0c0.06,0.18,0.11,0.37,0.18,0.55
		c0.24,0.68,0.44,1.38,0.74,2.03c1.7,3.62,6.57,3.85,8.94,1.33c1.58-1.67,1.78-3.82,0.44-5.67c-0.74-1.02-1.69-1.82-2.71-2.54
		c-1.44-1.02-2.9-2-4.32-3.05c-0.95-0.71-1.86-1.47-2.73-2.27c-2.53-2.32-2.25-6.31,0.04-8.54c1.43-1.39,3.2-2.06,5.13-2.28
		c2.56-0.29,5.07-0.01,7.54,0.73c0.51,0.15,0.74,0.4,0.79,0.95c0.12,1.38,0.32,2.75,0.5,4.2c-0.5,0-0.97,0-1.46,0
		c-0.18-0.48-0.34-0.97-0.55-1.44c-1.3-2.93-4.81-4.25-7.73-2.94c-2.6,1.17-3.38,4.04-1.72,6.36c0.61,0.86,1.4,1.54,2.26,2.13
		c1.45,1,2.93,1.97,4.35,3c1.12,0.82,2.19,1.7,3.25,2.59c2.62,2.18,2.2,6.96-0.03,9.05c-1.65,1.55-3.56,2.42-5.81,2.58
		c-2.65,0.19-5.25-0.06-7.79-0.89C188.66,38.11,188.55,38.07,188.4,38z"/>
</g>
</svg>
