<?xml version="1.0" encoding="utf-8"?>
<!-- Generator: Adobe Illustrator 25.0.1, SVG Export Plug-In . SVG Version: 6.00 Build 0)  -->
<svg version="1.1" id="Layer_1" xmlns="http://www.w3.org/2000/svg" xmlns:xlink="http://www.w3.org/1999/xlink" x="0px" y="0px"
	 viewBox="0 0 172.97 71.62" style="enable-background:new 0 0 172.97 71.62;" xml:space="preserve">
<style type="text/css">
	.st0{fill:#D1BBFD;}
	.st1{fill:#E11F26;}
	.st2{fill:#0260FF;}
	.st3{fill:#EB0202;}
	.st4{fill:#26BF1B;}
	.st5{fill:#053A65;}
	.st6{fill:#063A65;}
	.st7{fill:#053965;}
	.st8{clip-path:url(#SVGID_2_);}
	.st9{fill:#FF391A;}
	.st10{fill:#FFFFFF;}
</style>
<g>
	<g>
		<defs>
			<rect id="SVGID_1_" x="6.79" y="3.29" width="162.65" height="65.93"/>
		</defs>
		<clipPath id="SVGID_2_">
			<use xlink:href="#SVGID_1_"  style="overflow:visible;"/>
		</clipPath>
		<g id="Group_2064" class="st8">
			<g id="Group_2058" transform="translate(-0.002 0.001)">
				<path id="Path_4215" class="st9" d="M8.12,3.29c0,0-1.33,0-1.33,1.3v63.31c0,0.7,0.52,1.26,1.22,1.3c0.04,0,0.04,0,0.07,0
					h160.03c0.7,0,1.26-0.56,1.29-1.22v-0.04V4.59c0-0.7-0.52-1.26-1.22-1.3c-0.04,0-0.04,0-0.07,0H8.12z"/>
			</g>
			<g id="Group_2059" transform="translate(23.951 16.013)">
				<path id="Path_4216" class="st10" d="M128.45,1.94c-0.04-1.11,0.55-2.07,2.04-2.07c1.55,0,2.04,0.93,2.04,2.07H128.45z
					 M132.86,5.08c-0.22,1.07-0.93,1.48-2.22,1.48c-1.7,0-2.26-0.96-2.15-2.26h9.69V3.67c0-3.96-2.92-6.59-7.77-6.59
					c-2.07,0-4.26,0.59-5.74,1.89c-1.33,1.15-2.11,2.81-2.11,4.55c0,1.81,0.89,3.52,2.41,4.55c1.67,1.18,3.74,1.55,5.85,1.55
					c3.4,0,6.51-1.33,7.4-4.26L132.86,5.08z M117.43-0.17v-2.48h-4.77V9.41h5.59V4.19c0-0.7,0-1.48,0.41-2.07
					c0.44-0.7,1.37-0.81,2.29-0.81c0.37,0,0.7,0.04,1.07,0.15V-2.8l-0.78-0.04c-2.26-0.15-3.26,1.07-3.77,2.7L117.43-0.17z
					 M104.03,0.05c1.92,0,1.92,2.11,1.92,3.26c0,3.22-0.93,3.48-1.92,3.48s-1.92-0.22-1.92-3.48
					C102.07,2.16,102.15,0.05,104.03,0.05 M104.03-2.91c-4.51,0-7.96,2.52-7.96,6.4c0,3.66,3.55,6.14,7.96,6.14s7.92-2.52,7.92-6.14
					C111.95-0.43,108.55-2.91,104.03-2.91 M95.38,9.41V1.82c0-1.26,0-2.41-0.81-3.44c-0.78-1-2.29-1.33-3.74-1.33
					c-1.52-0.04-3.03,0.56-4.07,1.67V-6.8h-5.59V9.41h5.59V2.16c-0.07-0.41,0.04-0.85,0.33-1.15c0.33-0.37,0.81-0.59,1.33-0.59
					c1.15,0,1.37,0.7,1.37,1.48v7.51H95.38z M66.18,5.97c1.07,2.81,4.03,3.66,7.25,3.66c3.26,0,7.44-0.96,7.44-4.26
					c0-1.3-0.7-2.33-2.04-3.07c-1.15-0.59-2.63-0.74-3.96-0.93c-0.7-0.07-1.78-0.15-2.44-0.26c-0.37-0.07-0.81-0.22-0.81-0.59
					c0-0.52,1.37-0.63,1.78-0.63c1,0,2.11,0.22,2.52,1.07l4.26-0.7c-0.96-2.26-3.81-3.11-6.51-3.11c-1.59,0-3.22,0.19-4.63,0.93
					c-1.37,0.7-2.26,1.78-2.26,3.18c0,3.22,3.59,3.74,6.62,4.03c0.52,0.04,2.44,0.18,2.44,0.78c0,0.7-1.55,0.74-2.15,0.74
					c-1.18,0-2.74-0.15-3.07-1.3L66.18,5.97z M58.82,9.41V1.82c0-1.26,0-2.41-0.81-3.44c-0.78-1-2.29-1.33-3.74-1.33
					c-1.52-0.04-3.03,0.56-4.07,1.67V-6.8h-5.59V9.41h5.59V2.16c-0.07-0.41,0.04-0.85,0.33-1.15c0.33-0.37,0.81-0.59,1.33-0.59
					c1.15,0,1.37,0.7,1.37,1.48v7.51H58.82z M35.29,0.42v4.55c0,1.3-0.04,2.44,1.07,3.44c1.11,0.96,2.59,1.44,4.03,1.26l3.29-0.37
					v-3.4c-0.52,0.15-1.07,0.22-1.59,0.22c-1.33,0-1.18-0.7-1.18-1.55V0.38h2.85v-3.11h-2.89v-4l-4.88,0.15l-0.44,3.85h-2.33v3.07
					L35.29,0.42z M27.89-0.17v-2.48h-4.77V9.41h5.59V4.19c0-0.7,0-1.48,0.41-2.07c0.44-0.7,1.37-0.81,2.29-0.81
					c0.37,0,0.7,0.04,1.07,0.15V-2.8L31.7-2.84c-2.26-0.15-3.26,1.07-3.77,2.7L27.89-0.17z M14.49,0.05c1.92,0,1.92,2.11,1.92,3.26
					c0,3.22-0.93,3.48-1.92,3.48s-1.92-0.22-1.92-3.48C12.53,2.16,12.53,0.05,14.49,0.05 M14.49-2.91c-4.51,0-7.96,2.52-7.96,6.4
					c0,3.66,3.55,6.14,7.96,6.14s7.92-2.52,7.92-6.14C22.41-0.43,19.01-2.91,14.49-2.91 M-8.3-2.65V9.41h5.59V2.42
					c0-1,0.15-2.11,1.7-2.11c1.18,0,1.18,1,1.18,1.74v7.29h5.59v-7.4c0-1.26,0-2.63-0.93-3.63C4.02-2.62,2.43-2.95,1.06-2.95
					c-1.74,0-3.4,0.56-4.07,1.92h-0.04v-1.7L-8.3-2.65z"/>
			</g>
			<g id="Group_2060" transform="translate(23.579 77.067)">
				<path id="Path_4217" class="st10" d="M-8.06-44.67v28.19H5.4v-16.28c0-2.29,0.33-4.92,4.07-4.92c2.92,0,2.92,2.41,2.92,4.07
					v17.09h13.47v-17.35c0-2.92,0-6.11-2.15-8.44c-2.04-2.18-5.81-2.96-9.07-2.96c-4.22,0-8.21,1.33-9.81,4.55H4.7v-4L-8.06-44.67z"
					/>
			</g>
			<g id="Group_2061" transform="translate(114.42 77.19)">
				<path id="Path_4218" class="st10" d="M-51.12-34.05c-0.15-2.55,1.3-4.88,4.81-4.88c3.81,0,4.88,2.11,4.88,4.88H-51.12z
					 M-40.5-26.69c-0.56,2.44-2.26,3.4-5.29,3.4c-4.07,0-5.4-2.22-5.22-5.25h23.2v-1.48c0-9.25-7.07-15.32-18.61-15.32
					c-4.96,0-10.25,1.37-13.76,4.37c-3.18,2.63-5.03,6.51-5.11,10.66c0,4.03,1.96,7.88,5.7,10.62c3.96,2.81,8.92,3.66,13.95,3.66
					c8.21,0,15.65-3.11,17.76-9.95L-40.5-26.69z"/>
			</g>
			<g id="Group_2062" transform="translate(202.283 78.681)">
				<path id="Path_4219" class="st10" d="M-69.77-46.28h-9.4l-4.85,13.76l-4.37-13.76h-10.03l-4.29,13.76h-0.15l-4.48-13.76h-13.32
					l11.21,28.19h9.66l4.66-15.28h0.15l4.51,15.28h9.77L-69.77-46.28z"/>
			</g>
			<g id="Group_2063" transform="translate(326.014 77.19)">
				<path id="Path_4220" class="st10" d="M-198.6-24.62c2.55,6.51,9.69,8.55,17.46,8.55c7.81,0,17.91-2.22,17.91-9.95
					c0-3.03-1.7-5.51-4.88-7.18c-2.81-1.41-6.29-1.78-9.4-2.11c-1.59-0.18-4.37-0.33-5.85-0.63c-0.89-0.18-2.04-0.56-2.04-1.41
					c0-1.18,3.26-1.48,4.37-1.48c2.41,0,5,0.56,6.07,2.48l10.25-1.59c-2.29-5.33-9.18-7.4-15.65-7.4c-3.85,0-7.73,0.44-11.1,2.15
					c-3.26,1.67-5.37,4.18-5.37,7.4c-0.04,7.47,8.58,8.7,15.87,9.51c1.22,0.07,5.85,0.37,5.85,1.85c0,1.67-3.81,1.74-5.14,1.74
					c-2.92,0-6.66-0.33-7.4-3.03L-198.6-24.62z"/>
			</g>
		</g>
	</g>
</g>
</svg>
