<?xml version="1.0" encoding="utf-8"?>
<!-- Generator: Adobe Illustrator 25.0.1, SVG Export Plug-In . SVG Version: 6.00 Build 0)  -->
<svg version="1.1" id="Layer_1" xmlns="http://www.w3.org/2000/svg" xmlns:xlink="http://www.w3.org/1999/xlink" x="0px" y="0px"
	 viewBox="0 0 200.73 21.39" style="enable-background:new 0 0 200.73 21.39;" xml:space="preserve">
<style type="text/css">
	.st0{fill:#D1BBFD;}
	.st1{fill:#FFFFFF;}
	.st2{fill:#010101;}
	.st3{fill:#DB8D29;}
</style>
<g>
	<path d="M9.82,16.05c-1.18,2.46-1.98,3.26-3.31,3.26c-2.43,0-4.13-3.24-4.13-7.85s1.74-8.03,4.06-8.03c0.56,0,1.13,0.25,1.8,0.8
		c0.26,0.21,0.43,0.3,0.53,0.3C9,4.52,9.11,4.3,9.29,3.5H9.6v5.23H9.31c-0.4-1.69-0.68-2.44-1.19-3.31c-0.5-0.84-1-1.25-1.55-1.25
		c-1.4,0-2.14,2.44-2.14,7.1c0,2.26,0.15,3.86,0.5,5.04c0.35,1.16,1.07,1.94,1.84,1.94c0.33,0,0.7-0.14,1.05-0.39
		c0.58-0.46,0.95-0.98,1.63-2.37L9.82,16.05z"/>
	<path d="M18.16,18.87h-3.77v-0.55c0.17-0.05,0.31-0.07,0.37-0.07c0.4-0.07,0.56-0.27,0.56-0.73c0-0.5-0.14-1.32-0.53-3.06h-2.62
		l-0.18,0.89c-0.24,1.12-0.33,1.74-0.33,2.03c0,0.59,0.26,0.84,0.95,0.93v0.55h-2.37v-0.55c0.56-0.21,0.7-0.53,1.14-2.62l2.58-12.26
		h0.33l2.59,11.75c0.63,2.81,0.76,3.13,1.27,3.13L18.16,18.87L18.16,18.87z M14.6,13.6l-1.18-5.43l-1.09,5.43H14.6z"/>
	<path d="M25.66,18.87h-6.73v-0.55c0.82-0.18,0.99-0.43,1-1.6V5.91c-0.01-1.16-0.24-1.51-1-1.6V3.77H23v0.55
		c-0.99,0.07-1.15,0.34-1.18,2.08v10.54c0,0.96,0.21,1.25,0.91,1.25c0.91,0,1.57-0.39,2.05-1.23c0.4-0.71,0.63-1.42,1.02-3.15h0.33
		L25.66,18.87z"/>
	<path d="M30.93,18.87h-4.08v-0.55c0.84-0.14,1.07-0.46,1.08-1.6V5.91c-0.02-1.16-0.26-1.51-1.08-1.6V3.77h4.08v0.55
		c-0.84,0.05-1.09,0.41-1.11,1.6v10.82c0.01,1.16,0.24,1.51,1.11,1.6V18.87z"/>
	<path d="M31.45,3.77h6.6v4.5h-0.27c-0.17-1.44-0.3-2.01-0.55-2.58c-0.36-0.77-1.05-1.16-2.12-1.16c-0.59,0-0.75,0.21-0.75,1.05
		v5.18c1.17,0,1.57-0.77,1.78-3.33h0.29V15h-0.29c-0.17-2.58-0.59-3.44-1.78-3.47v5.2c0.02,1.25,0.24,1.53,1.28,1.6v0.55h-4.2v-0.55
		c0.83-0.16,1-0.41,1.02-1.6V5.91c-0.01-1.19-0.24-1.53-1.02-1.6L31.45,3.77L31.45,3.77z"/>
	<path d="M47.12,11.37c0,4.66-1.71,7.94-4.12,7.94c-2.42,0-4.13-3.29-4.13-7.92c0-4.66,1.72-7.96,4.16-7.96
		C45.39,3.43,47.12,6.8,47.12,11.37z M40.93,11.6c0,4.54,0.73,6.98,2.06,6.98c1.36,0,2.07-2.44,2.07-7.05
		c0-4.66-0.75-7.37-2.03-7.37C41.66,4.16,40.93,6.76,40.93,11.6z"/>
	<path d="M56.05,18.87h-2.39l-2.42-7.01h-0.31v4.38c0.02,1.62,0.13,1.85,1.02,2.08v0.55h-3.94v-0.55c0.89-0.18,1-0.41,1.02-2.08
		V6.37c-0.02-1.64-0.19-1.96-1.02-2.05V3.77h3.76c2.14,0,3.28,1.39,3.28,3.97c0,1-0.19,1.92-0.52,2.51
		c-0.32,0.57-0.62,0.84-1.31,1.28l2.34,6.37c0.11,0.3,0.26,0.43,0.47,0.43L56.05,18.87L56.05,18.87z M50.93,11.16
		c0.89-0.02,1.28-0.16,1.6-0.55c0.38-0.48,0.55-1.35,0.55-2.78c0-2.35-0.44-3.31-1.51-3.31c-0.3,0-0.47,0.11-0.55,0.34
		C50.99,5,50.94,5.32,50.94,5.46L50.93,11.16L50.93,11.16z"/>
	<path d="M56.76,18.33c0.83-0.18,1.01-0.48,1.02-1.8V5.94c-0.55-1.28-0.76-1.62-0.99-1.62V3.77h2.45l4.08,9.61V6.53
		c0-1.58-0.24-2.06-1.08-2.21V3.77h2.5v0.55c-0.75,0.23-0.9,0.53-0.9,1.8v13.17h-0.32L58.3,7.1v9.01c0.01,1.6,0.23,2.01,1.11,2.21
		v0.55h-2.64L56.76,18.33L56.76,18.33z"/>
	<path d="M69.44,18.87h-4.08v-0.55c0.84-0.14,1.07-0.46,1.08-1.6V5.91c-0.02-1.16-0.26-1.51-1.08-1.6V3.77h4.08v0.55
		c-0.84,0.05-1.09,0.41-1.11,1.6v10.82c0.01,1.16,0.24,1.51,1.11,1.6V18.87z"/>
	<path d="M78.08,18.87H74.3v-0.55c0.17-0.05,0.31-0.07,0.37-0.07c0.4-0.07,0.56-0.27,0.56-0.73c0-0.5-0.14-1.32-0.53-3.06h-2.62
		l-0.18,0.89c-0.24,1.12-0.33,1.74-0.33,2.03c0,0.59,0.26,0.84,0.95,0.93v0.55h-2.37v-0.55c0.56-0.21,0.7-0.53,1.14-2.62l2.58-12.26
		h0.33l2.59,11.75c0.63,2.81,0.76,3.13,1.27,3.13L78.08,18.87L78.08,18.87z M74.52,13.6l-1.18-5.43l-1.09,5.43H74.52z"/>
	<path d="M81.8,18.33c0.82-0.16,1-0.43,1.02-1.6V5.91c-0.02-1.19-0.24-1.53-1.02-1.6V3.77h3.6c1.95,0,3.02,1.25,3.02,3.56
		c0,1.71-0.5,2.62-1.84,3.4c0.81,0.32,1.2,0.64,1.62,1.32c0.42,0.71,0.63,1.6,0.63,2.62c0,2.53-1.3,4.2-3.28,4.2H81.8L81.8,18.33
		L81.8,18.33z M84.69,10.55c1.43-0.07,1.81-0.71,1.81-3.04c0-2.12-0.37-3.08-1.19-3.08c-0.45,0-0.62,0.3-0.62,1.09V10.55z
		 M84.69,16.8c0,1,0.19,1.37,0.71,1.37c0.94,0,1.42-1.12,1.42-3.31c0-2.44-0.58-3.65-1.78-3.65h-0.35L84.69,16.8L84.69,16.8z"/>
	<path d="M97.71,4.32c-0.73,0.21-0.89,0.57-0.9,1.92v7.12c0,2.1-0.3,3.79-0.83,4.63c-0.5,0.84-1.31,1.32-2.18,1.32
		c-0.86,0-1.61-0.41-2.15-1.19c-0.71-0.98-0.96-2.08-0.96-4.27V6.39c-0.02-1.64-0.15-1.94-0.95-2.08V3.77h3.94v0.55
		c-0.94,0.07-1.11,0.37-1.13,2.08v7.46c0,3.04,0.51,4.36,1.71,4.36c1.39,0,2.05-1.55,2.05-4.86V6.53c0-1.62-0.25-2.1-1.14-2.21V3.77
		h2.56L97.71,4.32L97.71,4.32z"/>
	<path d="M103.4,8.26c-0.25-1.46-0.43-2.12-0.82-2.9c-0.42-0.82-0.9-1.25-1.44-1.25c-0.79,0-1.27,0.84-1.27,2.24
		c0,1.09,0.26,1.64,1.2,2.53l1.71,1.64c0.75,0.71,1.27,2.4,1.27,4.06c0,2.83-1.17,4.72-2.89,4.72c-0.51,0-0.95-0.16-1.51-0.55
		c-0.25-0.16-0.38-0.23-0.47-0.23c-0.19,0-0.27,0.18-0.36,0.77h-0.33v-5.52h0.33c0.2,1.55,0.36,2.3,0.69,3.13
		c0.43,1.09,1,1.67,1.69,1.67c0.89,0,1.46-1,1.46-2.53c0-1.19-0.29-1.8-1.3-2.72l-0.79-0.71c-1.38-1.28-1.99-2.69-1.99-4.63
		c0-2.83,0.96-4.57,2.54-4.57c0.46,0,0.83,0.14,1.37,0.5c0.25,0.16,0.38,0.23,0.49,0.23c0.21,0,0.29-0.16,0.38-0.75h0.35v4.86
		L103.4,8.26z"/>
	<path d="M108.99,18.87h-4.08v-0.55c0.84-0.14,1.07-0.46,1.08-1.6V5.91c-0.02-1.16-0.26-1.51-1.08-1.6V3.77h4.08v0.55
		c-0.84,0.05-1.09,0.41-1.11,1.6v10.82c0.01,1.16,0.24,1.51,1.11,1.6V18.87z"/>
	<path d="M109.52,18.33c0.83-0.18,1.01-0.48,1.02-1.8V5.94c-0.55-1.28-0.76-1.62-0.99-1.62V3.77h2.45l4.08,9.61V6.53
		c0-1.58-0.24-2.06-1.08-2.21V3.77h2.5v0.55c-0.75,0.23-0.9,0.53-0.9,1.8v13.17h-0.32L111.06,7.1v9.01c0.01,1.6,0.23,2.01,1.11,2.21
		v0.55h-2.64L109.52,18.33L109.52,18.33z"/>
	<path d="M118.11,3.77h6.72v4.5h-0.29c-0.3-2.97-0.87-3.74-2.76-3.74c-0.61,0-0.76,0.21-0.76,1.05v5.2c1.25,0.02,1.71-0.8,1.89-3.36
		h0.3V15h-0.3c-0.14-2.6-0.62-3.47-1.89-3.47v5.41c0,0.98,0.21,1.25,0.96,1.25c0.89,0,1.52-0.37,2.06-1.19
		c0.42-0.64,0.65-1.28,1.02-2.78h0.32l-0.46,4.66h-6.82v-0.55c0.83-0.14,1-0.41,1.02-1.6V5.91c-0.02-1.19-0.24-1.53-1.02-1.6
		L118.11,3.77L118.11,3.77z"/>
	<path d="M131.29,8.26c-0.25-1.46-0.43-2.12-0.82-2.9c-0.42-0.82-0.9-1.25-1.44-1.25c-0.79,0-1.27,0.84-1.27,2.24
		c0,1.09,0.26,1.64,1.2,2.53l1.71,1.64c0.75,0.71,1.27,2.4,1.27,4.06c0,2.83-1.17,4.72-2.89,4.72c-0.51,0-0.95-0.16-1.51-0.55
		c-0.25-0.16-0.38-0.23-0.47-0.23c-0.19,0-0.27,0.18-0.36,0.77h-0.33v-5.52h0.33c0.2,1.55,0.36,2.3,0.69,3.13
		c0.43,1.09,1,1.67,1.69,1.67c0.89,0,1.46-1,1.46-2.53c0-1.19-0.29-1.8-1.3-2.72l-0.79-0.71c-1.38-1.28-1.99-2.69-1.99-4.63
		c0-2.83,0.96-4.57,2.54-4.57c0.46,0,0.83,0.14,1.37,0.5c0.25,0.16,0.38,0.23,0.49,0.23c0.21,0,0.29-0.16,0.38-0.75h0.35v4.86
		L131.29,8.26z"/>
	<path d="M138.03,8.26c-0.25-1.46-0.43-2.12-0.82-2.9c-0.42-0.82-0.9-1.25-1.44-1.25c-0.79,0-1.27,0.84-1.27,2.24
		c0,1.09,0.26,1.64,1.2,2.53l1.71,1.64c0.75,0.71,1.27,2.4,1.27,4.06c0,2.83-1.17,4.72-2.89,4.72c-0.51,0-0.95-0.16-1.51-0.55
		c-0.25-0.16-0.38-0.23-0.47-0.23c-0.19,0-0.27,0.18-0.36,0.77h-0.33v-5.52h0.33c0.2,1.55,0.36,2.3,0.69,3.13
		c0.43,1.09,1,1.67,1.69,1.67c0.89,0,1.46-1,1.46-2.53c0-1.19-0.29-1.8-1.3-2.72l-0.79-0.71c-1.38-1.28-1.99-2.69-1.99-4.63
		c0-2.83,0.96-4.57,2.54-4.57c0.46,0,0.83,0.14,1.37,0.5c0.25,0.16,0.38,0.23,0.49,0.23c0.21,0,0.29-0.16,0.38-0.75h0.35v4.86
		L138.03,8.26z"/>
	<path d="M147.87,4.32c-0.84,0.09-1.01,0.41-1.03,2.08v7.96c0,3.2-0.87,4.88-2.5,4.88c-0.46,0-0.94-0.21-1.22-0.53
		c-0.46-0.5-0.79-1.51-0.79-2.44c0-0.84,0.38-1.6,0.81-1.6c0.46,0,0.86,0.77,0.86,1.69c0,0.34-0.04,0.53-0.18,0.87
		c-0.11,0.25-0.13,0.37-0.13,0.57c0,0.43,0.2,0.71,0.52,0.71c0.52,0,0.74-0.57,0.74-1.94V5.91c-0.02-1.23-0.25-1.55-1.18-1.6V3.77
		h4.1V4.32z"/>
	<path d="M156.92,11.37c0,4.66-1.71,7.94-4.12,7.94c-2.42,0-4.13-3.29-4.13-7.92c0-4.66,1.72-7.96,4.16-7.96
		C155.2,3.43,156.92,6.8,156.92,11.37z M150.74,11.6c0,4.54,0.73,6.98,2.06,6.98c1.36,0,2.07-2.44,2.07-7.05
		c0-4.66-0.75-7.37-2.03-7.37C151.46,4.16,150.74,6.76,150.74,11.6z"/>
	<path d="M165.68,4.32c-0.73,0.21-0.89,0.57-0.9,1.92v7.12c0,2.1-0.3,3.79-0.83,4.63c-0.5,0.84-1.31,1.32-2.18,1.32
		c-0.85,0-1.61-0.41-2.15-1.19c-0.71-0.98-0.96-2.08-0.96-4.27V6.39c-0.02-1.64-0.15-1.94-0.95-2.08V3.77h3.94v0.55
		c-0.94,0.07-1.11,0.37-1.13,2.08v7.46c0,3.04,0.51,4.36,1.71,4.36c1.39,0,2.05-1.55,2.05-4.86V6.53c0-1.62-0.25-2.1-1.14-2.21V3.77
		h2.56L165.68,4.32L165.68,4.32z"/>
	<path d="M174.44,18.87h-2.39l-2.42-7.01h-0.31v4.38c0.02,1.62,0.13,1.85,1.02,2.08v0.55h-3.94v-0.55c0.89-0.18,1-0.41,1.02-2.08
		V6.37c-0.02-1.64-0.19-1.96-1.02-2.05V3.77h3.76c2.14,0,3.28,1.39,3.28,3.97c0,1-0.19,1.92-0.52,2.51
		c-0.32,0.57-0.62,0.84-1.31,1.28l2.34,6.37c0.11,0.3,0.26,0.43,0.47,0.43L174.44,18.87L174.44,18.87z M169.32,11.16
		c0.89-0.02,1.28-0.16,1.59-0.55c0.38-0.48,0.55-1.35,0.55-2.78c0-2.35-0.44-3.31-1.51-3.31c-0.3,0-0.47,0.11-0.55,0.34
		c-0.03,0.14-0.08,0.46-0.08,0.59V11.16z"/>
	<path d="M175.15,18.33c0.83-0.18,1.01-0.48,1.02-1.8V5.94c-0.55-1.28-0.76-1.62-0.99-1.62V3.77h2.45l4.08,9.61V6.53
		c0-1.58-0.24-2.06-1.08-2.21V3.77h2.5v0.55c-0.75,0.23-0.9,0.53-0.9,1.8v13.17h-0.32L176.69,7.1v9.01c0.01,1.6,0.23,2.01,1.11,2.21
		v0.55h-2.64L175.15,18.33L175.15,18.33z"/>
	<path d="M191.36,18.87h-3.77v-0.55c0.17-0.05,0.31-0.07,0.37-0.07c0.41-0.07,0.56-0.27,0.56-0.73c0-0.5-0.14-1.32-0.53-3.06h-2.62
		l-0.18,0.89c-0.24,1.12-0.33,1.74-0.33,2.03c0,0.59,0.26,0.84,0.95,0.93v0.55h-2.37v-0.55c0.56-0.21,0.7-0.53,1.14-2.62l2.58-12.26
		h0.33l2.59,11.75c0.63,2.81,0.76,3.13,1.27,3.13V18.87z M187.81,13.6l-1.18-5.43l-1.09,5.43H187.81z"/>
	<path d="M198.87,18.87h-6.73v-0.55c0.82-0.18,0.99-0.43,1-1.6V5.91c-0.01-1.16-0.24-1.51-1-1.6V3.77h4.07v0.55
		c-0.99,0.07-1.15,0.34-1.18,2.08v10.54c0,0.96,0.21,1.25,0.91,1.25c0.91,0,1.57-0.39,2.05-1.23c0.4-0.71,0.63-1.42,1.02-3.15h0.33
		L198.87,18.87z"/>
</g>
</svg>
