<?xml version="1.0" encoding="utf-8"?>
<!-- Generator: Adobe Illustrator 25.0.1, SVG Export Plug-In . SVG Version: 6.00 Build 0)  -->
<svg version="1.1" id="Layer_1" xmlns="http://www.w3.org/2000/svg" xmlns:xlink="http://www.w3.org/1999/xlink" x="0px" y="0px"
	 viewBox="0 0 90.61 91.27" style="enable-background:new 0 0 90.61 91.27;" xml:space="preserve">
<style type="text/css">
	.st0{fill:#D1BBFD;}
	.st1{fill:#FFFFFF;}
	.st2{fill:#010101;}
	.st3{fill:#DB8D29;}
</style>
<g>
	<path class="st1" d="M3.67,46.77c0,13.57,0,27.14,0,40.71c0,1.86,0,1.86,1.8,1.86c27.14,0,54.28-0.01,81.42,0.03
		c1.37,0,1.72-0.39,1.72-1.74c-0.04-27.23-0.04-54.46,0-81.69c0-1.35-0.34-1.73-1.71-1.73c-27.18,0.04-54.37,0.04-81.55,0
		c-1.36,0-1.71,0.36-1.71,1.71C3.69,19.54,3.68,33.16,3.67,46.77z"/>
	<path d="M3.67,46.77c0-13.61,0.02-27.23-0.03-40.84C3.64,4.57,3.99,4.21,5.35,4.21c27.18,0.04,54.37,0.04,81.55,0
		c1.37,0,1.71,0.38,1.71,1.73c-0.04,27.23-0.04,54.46,0,81.69c0,1.35-0.35,1.74-1.72,1.74c-27.14-0.04-54.28-0.03-81.42-0.03
		c-1.8,0-1.8,0-1.8-1.86C3.67,73.91,3.67,60.34,3.67,46.77z M75.58,24.35c-0.93,0-1.41,0-1.88,0c-4.28,0-8.57,0.06-12.85-0.04
		c-1.3-0.03-1.81,0.55-2.18,1.61c-0.51,1.42-1.09,2.81-1.65,4.21c-1.81,4.53-3.61,9.05-5.43,13.58c-1.13,2.82-2.28,5.64-3.52,8.7
		c-0.37-0.7-0.66-1.19-0.89-1.7c-1.2-2.62-2.39-5.25-3.59-7.87c-2.64-5.77-5.32-11.52-7.89-17.32c-0.41-0.92-0.88-1.19-1.79-1.18
		c-4.46,0.02-8.93,0.01-13.39,0.01c-0.66,0-1.32,0-2.37,0c0.38,0.75,0.55,1.28,0.88,1.68c1.43,1.76,2.87,3.51,4.37,5.21
		c0.84,0.96,1.22,1.97,1.21,3.26c-0.04,7.99-0.06,15.98,0.01,23.97c0.01,1.55-0.46,2.73-1.44,3.87c-1.72,1.98-3.36,4.03-4.99,6.09
		c-0.25,0.31-0.47,0.86-0.36,1.17c0.09,0.24,0.72,0.4,1.1,0.4c4.95,0.03,9.91,0.03,14.86,0c0.39,0,0.77-0.25,1.16-0.39
		c-0.16-0.38-0.25-0.83-0.5-1.14c-1.81-2.26-3.69-4.46-5.44-6.75c-0.51-0.66-0.98-1.56-0.99-2.36c-0.08-6.78-0.05-13.57-0.04-20.35
		c0-0.35,0.08-0.69,0.12-1.04c0.94,1.45,1.63,2.87,2.29,4.32c4.08,8.91,8.14,17.84,12.26,26.73c0.2,0.44,0.86,0.9,1.32,0.91
		c0.4,0.01,1.02-0.51,1.19-0.94c1.39-3.45,2.68-6.94,4.04-10.41c2.1-5.37,4.22-10.72,6.34-16.08c0.57-1.44,1.19-2.87,1.93-4.62
		c0.1,0.54,0.14,0.67,0.14,0.8c0.01,8.17,0.03,16.34-0.02,24.5c0,0.58-0.4,1.27-0.82,1.72c-1.12,1.21-2.38,2.29-3.54,3.46
		c-0.35,0.36-0.55,0.88-0.9,1.46c0.53,0.11,0.74,0.2,0.95,0.2c7.01,0.01,14.02,0.01,21.02-0.01c0.3,0,0.78-0.19,0.84-0.4
		c0.07-0.24-0.14-0.67-0.36-0.89c-1.31-1.34-2.68-2.6-3.95-3.97c-0.38-0.41-0.67-1.07-0.68-1.61c-0.04-10.62-0.04-21.25,0.01-31.87
		c0-0.62,0.37-1.37,0.81-1.84c1.12-1.21,2.39-2.28,3.55-3.45C74.9,25.63,75.1,25.12,75.58,24.35z"/>
	<path class="st1" d="M75.58,24.35c-0.47,0.77-0.68,1.28-1.04,1.64c-1.16,1.17-2.43,2.24-3.55,3.45c-0.43,0.47-0.8,1.21-0.81,1.84
		c-0.05,10.62-0.04,21.25-0.01,31.87c0,0.55,0.3,1.21,0.68,1.61c1.27,1.37,2.65,2.63,3.95,3.97c0.22,0.22,0.43,0.64,0.36,0.89
		c-0.06,0.2-0.54,0.4-0.84,0.4c-7.01,0.02-14.02,0.02-21.02,0.01c-0.21,0-0.42-0.08-0.95-0.2c0.35-0.58,0.54-1.1,0.9-1.46
		c1.16-1.18,2.41-2.26,3.54-3.46c0.42-0.45,0.81-1.14,0.82-1.72c0.05-8.17,0.02-16.34,0.02-24.5c0-0.13-0.04-0.26-0.14-0.8
		c-0.73,1.76-1.36,3.18-1.93,4.62c-2.13,5.36-4.25,10.71-6.34,16.08c-1.36,3.47-2.65,6.96-4.04,10.41c-0.17,0.43-0.8,0.96-1.19,0.94
		c-0.46-0.01-1.12-0.48-1.32-0.91c-4.12-8.9-8.18-17.82-12.26-26.73c-0.66-1.44-1.36-2.87-2.29-4.32c-0.04,0.35-0.12,0.69-0.12,1.04
		c-0.01,6.78-0.04,13.57,0.04,20.35c0.01,0.8,0.48,1.7,0.99,2.36c1.76,2.29,3.64,4.49,5.44,6.75c0.25,0.31,0.34,0.76,0.5,1.14
		C34.57,69.75,34.18,70,33.79,70c-4.95,0.03-9.91,0.03-14.86,0c-0.39,0-1.02-0.16-1.1-0.4c-0.11-0.31,0.11-0.86,0.36-1.17
		c1.63-2.05,3.28-4.1,4.99-6.09c0.98-1.14,1.45-2.32,1.44-3.87c-0.07-7.99-0.05-15.98-0.01-23.97c0.01-1.29-0.37-2.31-1.21-3.26
		c-1.5-1.7-2.94-3.45-4.37-5.21c-0.33-0.4-0.49-0.93-0.88-1.68c1.05,0,1.71,0,2.37,0c4.46,0,8.93,0.01,13.39-0.01
		c0.91,0,1.38,0.26,1.79,1.18c2.57,5.8,5.25,11.55,7.89,17.32c1.2,2.62,2.38,5.25,3.59,7.87c0.23,0.51,0.52,1,0.89,1.7
		c1.24-3.06,2.38-5.88,3.52-8.7c1.81-4.52,3.62-9.05,5.43-13.58c0.56-1.4,1.14-2.79,1.65-4.21c0.38-1.06,0.89-1.64,2.18-1.61
		c4.28,0.09,8.57,0.04,12.85,0.04C74.17,24.35,74.65,24.35,75.58,24.35z"/>
</g>
</svg>
