<?xml version="1.0" encoding="utf-8"?>
<!-- Generator: Adobe Illustrator 25.0.1, SVG Export Plug-In . SVG Version: 6.00 Build 0)  -->
<svg version="1.1" id="Layer_1" xmlns="http://www.w3.org/2000/svg" xmlns:xlink="http://www.w3.org/1999/xlink" x="0px" y="0px"
	 viewBox="0 0 155.89 58.46" style="enable-background:new 0 0 155.89 58.46;" xml:space="preserve">
<style type="text/css">
	.st0{fill:#D1BBFD;}
	.st1{fill:#FFFFFF;}
	.st2{fill:#010101;}
	.st3{fill:#DB8D29;}
</style>
<g>
	<path class="st0" d="M11.43,43c-2.75,0-4.88-0.85-6.39-2.54c-1.51-1.69-2.26-4.09-2.26-7.19c0-3.18,0.77-5.64,2.3-7.37
		s3.72-2.6,6.55-2.6c0.91,0,1.83,0.1,2.74,0.29c0.91,0.2,1.63,0.43,2.15,0.69l-0.88,2.45c-0.64-0.25-1.33-0.47-2.08-0.63
		c-0.75-0.17-1.42-0.25-2-0.25c-3.86,0-5.8,2.46-5.8,7.39c0,2.34,0.47,4.13,1.41,5.38s2.34,1.87,4.19,1.87
		c1.58,0,3.21-0.34,4.88-1.02v2.55C14.97,42.67,13.37,43,11.43,43z"/>
	<path class="st0" d="M32.45,42.65l-0.57-2.71h-0.14c-0.95,1.19-1.89,2-2.84,2.42C27.96,42.79,26.78,43,25.37,43
		c-1.89,0-3.36-0.49-4.43-1.46s-1.6-2.35-1.6-4.15c0-3.84,3.07-5.85,9.21-6.04l3.23-0.1v-1.18c0-1.49-0.32-2.59-0.96-3.31
		c-0.64-0.71-1.67-1.07-3.08-1.07c-1.58,0-3.38,0.49-5.38,1.46l-0.89-2.2c0.94-0.51,1.96-0.91,3.08-1.2
		c1.12-0.29,2.24-0.43,3.36-0.43c2.27,0,3.95,0.5,5.04,1.51c1.09,1.01,1.64,2.62,1.64,4.84v12.98H32.45z M25.94,40.62
		c1.79,0,3.2-0.49,4.23-1.47c1.02-0.98,1.54-2.36,1.54-4.13V33.3l-2.88,0.12c-2.29,0.08-3.94,0.44-4.95,1.07
		c-1.01,0.63-1.52,1.61-1.52,2.94c0,1.04,0.31,1.83,0.95,2.38S24.81,40.62,25.94,40.62z"/>
	<path class="st0" d="M43.4,42.65h-2.88v-27h2.88V42.65z"/>
	<path class="st0" d="M49.26,18.48c0-0.66,0.16-1.14,0.49-1.45c0.32-0.31,0.73-0.46,1.21-0.46c0.46,0,0.86,0.16,1.2,0.47
		c0.34,0.31,0.5,0.79,0.5,1.44c0,0.65-0.17,1.13-0.5,1.45s-0.73,0.48-1.2,0.48c-0.49,0-0.89-0.16-1.21-0.48
		C49.42,19.61,49.26,19.13,49.26,18.48z M52.38,42.65H49.5V23.63h2.88V42.65z"/>
	<path class="st0" d="M67.06,25.87h-4.84v16.78h-2.88V25.87h-3.4v-1.3l3.4-1.04v-1.06c0-4.67,2.04-7.01,6.12-7.01
		c1.01,0,2.19,0.2,3.54,0.61l-0.75,2.31c-1.11-0.36-2.06-0.54-2.85-0.54c-1.09,0-1.89,0.36-2.41,1.08
		c-0.52,0.72-0.78,1.88-0.78,3.48v1.23h4.84V25.87z"/>
	<path class="st0" d="M86.95,33.12c0,3.1-0.78,5.52-2.34,7.26C83.04,42.13,80.89,43,78.13,43c-1.7,0-3.21-0.4-4.53-1.2
		c-1.32-0.8-2.34-1.94-3.05-3.44s-1.08-3.24-1.08-5.24c0-3.1,0.77-5.51,2.32-7.24c1.55-1.73,3.7-2.59,6.46-2.59
		c2.66,0,4.77,0.88,6.34,2.65C86.16,27.71,86.95,30.11,86.95,33.12z M72.46,33.12c0,2.43,0.49,4.28,1.46,5.55s2.4,1.91,4.29,1.91
		c1.89,0,3.32-0.63,4.29-1.9s1.47-3.12,1.47-5.56c0-2.42-0.49-4.25-1.47-5.51s-2.42-1.88-4.33-1.88c-1.89,0-3.31,0.62-4.27,1.86
		C72.94,28.83,72.46,30.67,72.46,33.12z"/>
	<path class="st0" d="M100.67,23.29c0.84,0,1.6,0.07,2.27,0.21l-0.4,2.67c-0.79-0.17-1.48-0.26-2.08-0.26
		c-1.54,0-2.85,0.62-3.95,1.87c-1.09,1.25-1.64,2.8-1.64,4.67v10.2H92V23.63h2.38l0.33,3.52h0.14c0.71-1.24,1.56-2.19,2.55-2.86
		C98.39,23.62,99.48,23.29,100.67,23.29z"/>
	<path class="st0" d="M119.52,42.65v-12.3c0-1.55-0.35-2.71-1.06-3.47c-0.71-0.76-1.81-1.15-3.31-1.15c-1.99,0-3.45,0.54-4.37,1.61
		c-0.93,1.08-1.39,2.85-1.39,5.33v9.98h-2.88V23.63h2.34l0.47,2.6h0.14c0.59-0.94,1.42-1.66,2.48-2.18s2.25-0.77,3.56-0.77
		c2.29,0,4.01,0.55,5.17,1.66c1.16,1.1,1.73,2.87,1.73,5.3v12.41H119.52z"/>
	<path class="st0" d="M128.07,18.48c0-0.66,0.16-1.14,0.49-1.45c0.32-0.31,0.73-0.46,1.21-0.46c0.46,0,0.86,0.16,1.2,0.47
		c0.34,0.31,0.5,0.79,0.5,1.44c0,0.65-0.17,1.13-0.5,1.45s-0.73,0.48-1.2,0.48c-0.49,0-0.89-0.16-1.21-0.48
		C128.23,19.61,128.07,19.13,128.07,18.48z M131.19,42.65h-2.88V23.63h2.88V42.65z"/>
	<path class="st0" d="M149,42.65l-0.57-2.71h-0.14c-0.95,1.19-1.89,2-2.84,2.42c-0.94,0.42-2.12,0.63-3.53,0.63
		c-1.89,0-3.36-0.49-4.43-1.46s-1.6-2.35-1.6-4.15c0-3.84,3.07-5.85,9.21-6.04l3.23-0.1v-1.18c0-1.49-0.32-2.59-0.96-3.31
		c-0.64-0.71-1.67-1.07-3.08-1.07c-1.58,0-3.38,0.49-5.38,1.46l-0.89-2.2c0.94-0.51,1.96-0.91,3.08-1.2
		c1.12-0.29,2.24-0.43,3.36-0.43c2.27,0,3.95,0.5,5.04,1.51c1.09,1.01,1.64,2.62,1.64,4.84v12.98H149z M142.49,40.62
		c1.79,0,3.2-0.49,4.23-1.47c1.02-0.98,1.54-2.36,1.54-4.13V33.3l-2.88,0.12c-2.29,0.08-3.94,0.44-4.95,1.07
		c-1.01,0.63-1.52,1.61-1.52,2.94c0,1.04,0.31,1.83,0.95,2.38S141.36,40.62,142.49,40.62z"/>
</g>
</svg>
