<?xml version="1.0" encoding="utf-8"?>
<!-- Generator: Adobe Illustrator 25.0.1, SVG Export Plug-In . SVG Version: 6.00 Build 0)  -->
<svg version="1.1" id="Layer_1" xmlns="http://www.w3.org/2000/svg" xmlns:xlink="http://www.w3.org/1999/xlink" x="0px" y="0px"
	 viewBox="0 0 75.74 84.33" style="enable-background:new 0 0 75.74 84.33;" xml:space="preserve">
<style type="text/css">
	.st0{fill:#D1BBFD;}
	.st1{fill:#FFFFFF;}
	.st2{fill:#010101;}
	.st3{fill:#DB8D29;}
</style>
<g id="_x39_VwrkG_1_">
	<g>
		<path class="st2" d="M58.57,65.76c-2.19,5.16-5.61,9.32-10.22,12.5c-3.71,2.56-7.8,4.19-12.27,4.75
			c-9.22,1.16-17.26-1.43-23.99-7.83c-4.44-4.22-7.15-9.41-8.29-15.43c-0.34-1.79-0.48-3.59-0.48-5.41c0-17.1,0-34.19,0-51.29
			c0-0.78-0.09-0.68,0.65-0.65c8.71,0.34,15.46,6.58,17.1,14.29c0.28,1.32,0.42,2.66,0.42,4.01c0,2.17,0,4.35,0,6.52
			c0,0.18-0.03,0.36,0.04,0.56c0.57-0.2,1.14-0.41,1.72-0.6c3.56-1.14,7.2-1.58,10.93-1.33c10.58,0.73,20.09,7.41,24.36,17.39
			c0.02,0.05,0.04,0.1,0.06,0.15c-0.14,0.26-0.43,0.31-0.66,0.42c-2.95,1.47-5.91,2.94-8.87,4.4c-0.36,0.17-0.48,0.38-0.48,0.78
			c0.01,3.88,0.01,7.75,0,11.63c0,0.37,0.1,0.56,0.45,0.73C52.23,62.8,55.4,64.29,58.57,65.76z M32.12,43.95
			c-5.71-0.06-10.59,4.6-10.62,10.48c-0.03,5.94,4.66,10.67,10.56,10.71c5.82,0.03,10.62-4.73,10.63-10.55
			C42.71,48.71,37.99,43.96,32.12,43.95z"/>
		<path class="st3" d="M58.57,65.76c-3.17-1.47-6.34-2.95-9.52-4.41c-0.36-0.16-0.46-0.36-0.45-0.73c0.01-3.88,0.01-7.75,0-11.63
			c0-0.4,0.12-0.6,0.48-0.78c2.96-1.45,5.92-2.92,8.87-4.4c0.23-0.12,0.52-0.16,0.66-0.42c0.21,0.02,0.38-0.1,0.55-0.19
			c4.43-2.2,8.87-4.4,13.3-6.6c0.19-0.09,0.37-0.21,0.61-0.26c0,12.03,0,24.02,0,36.02c-0.17,0.07-0.3-0.06-0.44-0.12
			c-4.48-2.07-8.95-4.15-13.43-6.22C59,65.93,58.78,65.85,58.57,65.76z"/>
	</g>
</g>
</svg>
