<?xml version="1.0" encoding="utf-8"?>
<!-- Generator: Adobe Illustrator 25.0.1, SVG Export Plug-In . SVG Version: 6.00 Build 0)  -->
<svg version="1.1" id="Layer_1" xmlns="http://www.w3.org/2000/svg" xmlns:xlink="http://www.w3.org/1999/xlink" x="0px" y="0px"
	 viewBox="0 0 214.61 22.39" style="enable-background:new 0 0 214.61 22.39;" xml:space="preserve">
<style type="text/css">
	.st0{fill:#D1BBFD;}
	.st1{fill:#FFFFFF;}
	.st2{fill:#010101;}
	.st3{fill:#DB8D29;}
</style>
<g>
	<path id="p" d="M12.89,12.29c-1.09,0.91-2.58,1.23-4.27,1.23H6.61v6.05H2.77V3.2h5.86c1.69,0,3.18,0.32,4.27,1.23
		s1.71,2.15,1.71,3.91C14.6,10.12,13.99,11.37,12.89,12.29z M9.92,6.62C9.44,6.29,8.9,6.17,8.08,6.17H6.59v4.39h1.49
		c0.84,0,1.38-0.12,1.84-0.44c0.44-0.32,0.79-0.92,0.79-1.76S10.38,6.96,9.92,6.62z"/>
	<path d="M34.8,3.19c-4.59,0-8.09,3.09-8.09,8.23s3.5,8.2,8.09,8.2s8.09-3.06,8.09-8.2C42.91,6.28,39.4,3.19,34.8,3.19z M34.8,16.28
		c-2.58,0-4.42-1.83-4.42-4.87s1.84-5.05,4.42-5.05s4.42,2.02,4.42,5.05S37.38,16.28,34.8,16.28z"/>
	<g>
		<path id="p_1_" d="M65.18,12.29c-1.09,0.91-2.58,1.23-4.27,1.23H58.9v6.05h-3.84V3.2h5.86c1.69,0,3.18,0.32,4.27,1.23
			c1.09,0.91,1.71,2.15,1.71,3.91C66.89,10.12,66.28,11.37,65.18,12.29z M62.21,6.62c-0.48-0.32-1.02-0.44-1.84-0.44h-1.49v4.39
			h1.49c0.84,0,1.38-0.12,1.84-0.44C62.66,9.8,63,9.2,63,8.36S62.67,6.96,62.21,6.62z"/>
	</g>
	<path d="M88.72,18.25c-1.14,0.91-2.63,1.31-4.34,1.31c-2.32,0-4.39-1.21-5.69-2.41l1.86-2.73c1.16,1.21,2.95,2.02,4.18,2.02
		c1.21,0,2.13-0.58,2.13-1.64c0-1.09-1.18-1.5-1.88-1.76c-0.7-0.26-1.9-0.67-2.44-0.91c-0.39-0.19-1.21-0.5-1.9-1.16
		c-0.7-0.65-1.25-1.57-1.25-3.09c0-1.54,0.73-2.73,1.67-3.5c0.91-0.77,2.37-1.28,4.22-1.28c1.86,0,4,0.89,5.09,1.96l-1.61,2.63
		c-0.92-0.92-2.37-1.62-3.57-1.62c-1.21,0-2.08,0.46-2.08,1.43s0.91,1.35,1.62,1.62c0.7,0.27,1.88,0.7,2.39,0.91
		c0.44,0.17,1.5,0.58,2.22,1.3c0.67,0.67,1.25,1.64,1.25,3.09C90.59,15.96,89.88,17.34,88.72,18.25z"/>
	<path d="M116.06,12.58c0,2.29-0.39,3.86-1.55,5.11c-1.13,1.23-2.89,1.93-5.24,1.93c-2.37,0-4.12-0.7-5.28-1.93
		c-1.13-1.25-1.54-2.82-1.54-5.11V3.12h3.84v9.46c0,1.14,0.09,2.05,0.63,2.7c0.51,0.61,1.26,1.01,2.32,1.01s1.81-0.39,2.32-1.01
		c0.55-0.67,0.63-1.55,0.63-2.7V3.12h3.84v9.46H116.06z"/>
	<path d="M143.28,16.87c-0.8,0.72-2.72,2.73-7.1,2.73c-4.42,0-8.32-2.92-8.32-8.25s3.89-8.21,8.35-8.21c4.24,0,6.06,2.22,6.57,2.78
		l-2.48,2.15c-0.67-0.73-1.93-1.83-4.1-1.83c-2.56,0-4.56,1.88-4.56,5.12s2.03,5.12,4.63,5.12c2.6,0,3.33-1.02,3.33-1.02v-2.37
		h-3.36v-2.85h7.02v6.63H143.28z"/>
	<path d="M171.4,19.58h-4.17l-1.16-3.3h-5.84l-1.16,3.3h-3.98l6.16-16.39h3.98L171.4,19.58z M165.19,13.3l-2.03-5.87l-2.03,5.87
		H165.19z"/>
	<path d="M196.17,19.58h-4.46l-3.43-6.27h-1.21v6.27h-3.84V3.2h5.87c1.83,0,3.24,0.38,4.32,1.16c1.09,0.8,1.81,2.12,1.81,3.74
		c0,3.11-2,4.32-3.19,4.7L196.17,19.58z M190.51,6.6c-0.48-0.36-1.09-0.43-1.96-0.43h-1.52v4.2h1.52c0.87,0,1.49-0.1,1.96-0.44
		c0.5-0.36,0.84-0.8,0.84-1.66C191.35,7.44,191.03,6.96,190.51,6.6z"/>
	<circle cx="205.25" cy="16.64" r="2.95"/>
</g>
</svg>
