<?xml version="1.0" encoding="utf-8"?>
<!-- Generator: Adobe Illustrator 25.0.1, SVG Export Plug-In . SVG Version: 6.00 Build 0)  -->
<svg version="1.1" id="Layer_1" xmlns="http://www.w3.org/2000/svg" xmlns:xlink="http://www.w3.org/1999/xlink" x="0px" y="0px"
	 viewBox="0 0 214.19 87.16" style="enable-background:new 0 0 214.19 87.16;" xml:space="preserve">
<style type="text/css">
	.st0{fill:#D1BBFD;}
	.st1{fill:#3C7CBC;}
	.st2{fill:#3B7CBC;}
	.st3{fill:#232021;}
	.st4{fill:#EDB250;}
	.st5{fill:#4980B3;}
	.st6{fill:#4880B3;}
	.st7{fill:#EDB351;}
	.st8{fill:#487FB3;}
	.st9{fill:#EDB24F;}
	.st10{fill:#EAB153;}
	.st11{fill:#231F20;}
	.st12{fill:#1FBCB7;}
</style>
<g>
	<g>
		<path class="st1" d="M47.68,41.05c-0.69-8.87-1.38-17.74-2.08-26.61c-0.01-0.1-0.13-0.2-0.26-0.38c-1.47,1.61-2.94,3.21-4.04,4.4
			C35.63,13.22,30.32,8.3,25.01,3.39c0.12-0.17,0.23-0.33,0.35-0.5c19.75,0,39.51,0,59.41,0c0.04,0.41,0.13,0.89,0.13,1.36
			c0.01,21.1,0.01,42.2,0,63.3c0,0.44-0.07,0.88-0.1,1.32c-0.44-0.35-0.92-0.66-1.32-1.05c-6.36-6.15-12.7-12.31-19.06-18.45
			c-0.67-0.65-1.43-1.19-2.18-1.81c1.65-1.86,3.04-3.42,4.78-5.38c-6.7-0.33-12.86-0.63-19.02-0.93
			C47.89,41.19,47.78,41.12,47.68,41.05z"/>
		<path class="st2" d="M56.83,81.56c-3.86,0.03-7.72,0.07-11.58,0.08c-13.23,0.01-26.46,0-39.69,0c-0.69,0-1.38,0-2.21,0
			c0-20.08,0-40.07,0-60.51c5.88,6.03,11.57,11.86,17.34,17.77c-1.58,1.65-3.04,3.19-4.84,5.09c6.63,0.53,12.83,1.03,19.03,1.52
			c0.13,0.07,0.26,0.14,0.38,0.21c0,0.5-0.05,1.01,0,1.51c0.61,5.45,1.24,10.91,1.87,16.36c0.37,3.16,0.77,6.31,1.21,9.87
			c1.76-1.87,3.25-3.45,4.92-5.23C47.84,72.73,52.34,77.15,56.83,81.56z"/>
		<path class="st3" d="M56.83,81.56c-4.5-4.42-8.99-8.83-13.57-13.33c-1.67,1.77-3.16,3.36-4.92,5.23
			c-0.44-3.56-0.84-6.71-1.21-9.87c-0.64-5.45-1.26-10.91-1.87-16.36c-0.06-0.5,0-1.01,0-1.51c4.31,0.35,8.63,0.71,12.75,1.05
			c0-1.99,0-3.75,0-5.5c6.16,0.3,12.32,0.6,19.02,0.93c-1.73,1.95-3.13,3.52-4.78,5.38c0.75,0.62,1.51,1.17,2.18,1.81
			c6.36,6.14,12.7,12.3,19.06,18.45c0.4,0.39,0.88,0.7,1.32,1.05c0,4.2,0,8.4,0,12.69C75.46,81.56,66.14,81.56,56.83,81.56z"/>
		<path class="st4" d="M104.03,30.65c3.04,1.54,4.02,3.66,3.8,6.47c-0.12,1.57-0.16,3.17,0.02,4.73c0.15,1.27,0.71,2.49,1.03,3.75
			c0.16,0.65,0.2,1.33,0.33,2.23c-1.68,0-3.18,0.16-4.64-0.04c-1.65-0.23-2.47-1.53-2.59-3.08c-0.18-2.32-0.2-4.66-0.22-6.99
			c-0.04-3.84-0.56-4.38-4.37-4.35c-0.5,0-1,0-1.76,0c0,4.74,0,9.37,0,14.08c-2.24,0-4.23,0-6.34,0c0-11.48,0-22.87,0-34.36
			c4.32,0,8.56-0.27,12.75,0.09c2.9,0.25,5.06,2.16,5.41,5.26c0.3,2.61,0.4,5.28,0.25,7.9C107.58,28.31,106.48,29.91,104.03,30.65z
			 M95.73,18.36c0,3.33,0,6.67,0,10.01c5.49,0.58,5.91-0.02,5.88-4.89C101.56,18.08,101.58,18.04,95.73,18.36z"/>
		<path class="st5" d="M170.22,80.39c-4.45,0.42-4.46,0.42-6.34-3.32c-1.9-3.78-3.77-7.58-5.67-11.36
			c-0.24-0.48-0.52-0.93-1.16-1.32c0,5.31,0,10.63,0,16.04c-1.93,0-3.62,0-5.47,0c0-10.09,0-20.22,0-30.57
			c1.37,0,2.76-0.14,4.11,0.07c0.56,0.09,1.21,0.8,1.49,1.38c2.11,4.31,4.13,8.65,6.19,12.98c0.32,0.67,0.67,1.33,1.33,1.97
			c0-5.36,0-10.71,0-16.24c1.95,0,3.67,0,5.52,0C170.22,60.12,170.22,70.2,170.22,80.39z"/>
		<path class="st6" d="M127.69,80.42c-1.91,0-3.77,0-5.84,0c0-4.05,0-7.99,0-12.06c-2.46,0-4.7,0-7.14,0c0,3.99,0,7.94,0,12.03
			c-2.05,0-3.92,0-5.93,0c0-10.1,0-20.22,0-30.44c1.94,0,3.75,0,5.86,0c0,2.35,0,4.65,0,6.96c0,0.63,0,1.26,0,1.89
			c0,4.51,0.75,5.07,5.34,3.96c0.54-0.13,1.1-0.18,1.81-0.3c0-4.11,0-8.19,0-12.44c2.02,0,3.88,0,5.91,0
			C127.69,60.04,127.69,70.11,127.69,80.42z"/>
		<path class="st7" d="M137.21,12.97c2.2,0,4.22-0.09,6.23,0.06c0.46,0.03,1.14,0.83,1.25,1.37c1.65,7.82,3.23,15.66,4.81,23.5
			c0.63,3.14,1.24,6.28,1.9,9.63c-2,0-3.88,0.07-5.76-0.06c-0.36-0.02-0.87-0.76-0.98-1.24c-0.38-1.71-0.62-3.46-0.96-5.46
			c-1.79,0-3.55-0.09-5.28,0.07c-0.42,0.04-0.97,0.85-1.11,1.39c-0.44,1.7-0.72,3.44-1.07,5.21c-1.93,0-3.75,0-5.9,0
			C132.63,35.94,134.89,24.58,137.21,12.97z M142.89,35.59c-0.62-3.96-1.22-7.76-1.82-11.56c-0.2,0.02-0.39,0.04-0.59,0.06
			c-0.67,3.8-1.33,7.6-2.01,11.5C139.98,35.59,141.28,35.59,142.89,35.59z"/>
		<path class="st8" d="M186.62,69.51c-1.2-0.1-2.12-0.18-3.18-0.27c0-1.4,0-2.75,0-4.23c2.92,0,5.79,0,8.77,0
			c0,5.16,0,10.24,0,15.32c-2.92,0.45-2.92,0.45-4.02-2.16c-1.59,2.15-3.61,3.2-6.29,3.13c-4.3-0.12-7.73-2.84-7.93-7.1
			c-0.26-5.86-0.29-11.75-0.02-17.61c0.22-4.68,4.36-7.55,9.94-7.44c4.57,0.09,7.91,3.32,8.25,7.99c0.07,0.94,0.01,1.88,0.01,2.98
			c-1.9,0-3.69,0-5.8,0c0-0.9,0.07-1.82-0.01-2.73c-0.16-1.82-1.27-2.71-3.21-2.7c-1.88,0.01-3.14,1.01-3.17,2.77
			c-0.06,5.12-0.06,10.23-0.01,15.35c0.02,1.67,1.23,2.77,2.91,2.91c1.81,0.15,3.27-0.74,3.57-2.39
			C186.64,72.15,186.56,70.94,186.62,69.51z"/>
		<path class="st9" d="M112.36,13.05c5.55,0,10.91,0,16.54,0c0,1.56,0.1,3.06-0.07,4.54c-0.04,0.37-0.93,0.9-1.45,0.92
			c-2.4,0.1-4.81,0.08-7.21,0.03c-1.12-0.03-1.61,0.31-1.56,1.5c0.08,1.89,0.06,3.79,0.01,5.68c-0.03,1.06,0.36,1.47,1.43,1.44
			c1.76-0.06,3.52-0.02,5.44-0.02c0,1.69,0,3.22,0,5.08c-1.65,0-3.33,0.07-5-0.02c-1.36-0.08-1.95,0.29-1.88,1.77
			c0.11,2.57,0.03,5.14,0.03,7.95c2.61,0,5-0.01,7.38,0c3.26,0.01,2.88-0.31,2.9,2.98c0.01,0.8,0,1.61,0,2.53
			c-5.61,0-11.02,0-16.55,0C112.36,36,112.36,24.61,112.36,13.05z"/>
		<path class="st8" d="M100.26,69.52c1.98,0,3.67,0,5.35,0c1.02,5.63-1.26,10.51-5.93,11.49c-7.51,1.57-12.32-3-12.14-9.12
			c0.13-4.61-0.01-9.22,0.04-13.84c0.06-5.06,3.51-8.67,8.16-8.95c6.9-0.41,9.54,3.12,10.1,8.36c0.12,1.11,0.02,2.24,0.02,3.47
			c-1.86,0-3.55,0-5.6,0c0-1.12,0.03-2.22-0.01-3.33c-0.07-1.9-1.19-2.92-3.17-2.94c-2.08-0.02-3.4,1.01-3.42,2.91
			c-0.06,5.05-0.05,10.11,0,15.16c0.02,1.9,1.38,2.99,3.42,2.96c1.99-0.03,3.09-1.04,3.17-2.97
			C100.29,71.75,100.26,70.75,100.26,69.52z"/>
		<path class="st8" d="M143.02,49.85c2.2,10.18,4.38,20.24,6.6,30.5c-2.09,0-3.99,0-6.02,0c-0.29-1.41-0.72-2.85-0.86-4.33
			c-0.11-1.22-0.55-1.66-1.76-1.59c-1.38,0.08-2.77,0.02-4.38,0.02c-0.35,1.55-0.83,3.05-0.98,4.57c-0.13,1.29-0.7,1.57-1.84,1.51
			c-1.25-0.07-2.51-0.02-4.02-0.02c0.81-3.88,1.56-7.6,2.35-11.32c1.25-5.89,2.57-11.76,3.76-17.66c0.27-1.34,0.81-1.8,2.13-1.72
			C139.58,49.92,141.16,49.85,143.02,49.85z M141.65,69.63c-0.63-3.61-1.23-7.07-1.83-10.52c-0.14,0-0.27,0-0.41,0
			c-0.68,3.45-1.35,6.9-2.06,10.52C138.87,69.63,140.05,69.63,141.65,69.63z"/>
		<path class="st5" d="M195.71,49.96c5.19,0,10.27,0,15.48,0c0,1.78,0,3.45,0,5.34c-3.14,0-6.21,0-9.56,0
			c0,2.13-0.06,4.07,0.06,5.99c0.02,0.31,0.87,0.77,1.35,0.8c1.63,0.1,3.27,0.04,5.05,0.04c0,1.62,0,3.1,0,4.87
			c-2.05,0-4.15,0-6.36,0c0,2.72,0,5.14,0,7.76c3.13,0,6.2,0,9.43,0c0,1.96,0,3.75,0,5.65c-5.12,0-10.21,0-15.45,0
			C195.71,70.33,195.71,60.26,195.71,49.96z"/>
		<path class="st7" d="M154.19,13.05c2.11,0,4.06,0,6.22,0c0,9.53,0,19.02,0,28.76c3.26,0,6.32,0,9.52,0c0,1.97,0,3.7,0,5.58
			c-5.17,0-10.38,0-15.74,0C154.19,36.01,154.19,24.63,154.19,13.05z"/>
		<path class="st10" d="M48,41.26c0,1.75,0,3.51,0,5.5c-4.12-0.34-8.44-0.69-12.75-1.05c-0.13-0.07-0.26-0.14-0.38-0.21
			c-0.13-1.63-0.26-3.25-0.41-5.23c4.48,0.26,8.85,0.52,13.22,0.77C47.78,41.12,47.89,41.19,48,41.26z"/>
	</g>
</g>
</svg>
